%TF.GenerationSoftware,KiCad,Pcbnew,(6.0.2)*%
%TF.CreationDate,2022-03-12T15:23:06-05:00*%
%TF.ProjectId,MBC5_Short,4d424335-5f53-4686-9f72-742e6b696361,rev?*%
%TF.SameCoordinates,Original*%
%TF.FileFunction,Copper,L1,Top*%
%TF.FilePolarity,Positive*%
%FSLAX46Y46*%
G04 Gerber Fmt 4.6, Leading zero omitted, Abs format (unit mm)*
G04 Created by KiCad (PCBNEW (6.0.2)) date 2022-03-12 15:23:06*
%MOMM*%
%LPD*%
G01*
G04 APERTURE LIST*
G04 Aperture macros list*
%AMRoundRect*
0 Rectangle with rounded corners*
0 $1 Rounding radius*
0 $2 $3 $4 $5 $6 $7 $8 $9 X,Y pos of 4 corners*
0 Add a 4 corners polygon primitive as box body*
4,1,4,$2,$3,$4,$5,$6,$7,$8,$9,$2,$3,0*
0 Add four circle primitives for the rounded corners*
1,1,$1+$1,$2,$3*
1,1,$1+$1,$4,$5*
1,1,$1+$1,$6,$7*
1,1,$1+$1,$8,$9*
0 Add four rect primitives between the rounded corners*
20,1,$1+$1,$2,$3,$4,$5,0*
20,1,$1+$1,$4,$5,$6,$7,0*
20,1,$1+$1,$6,$7,$8,$9,0*
20,1,$1+$1,$8,$9,$2,$3,0*%
%AMFreePoly0*
4,1,23,0.012351,0.494884,0.073905,0.494508,0.209726,0.453889,0.328688,0.376782,0.421226,0.269385,0.479903,0.140333,0.500000,0.000000,0.500000,-5.700000,-0.500000,-5.700000,-1.000000,-5.200000,-1.000000,-0.250000,-0.998900,-0.250000,-0.999927,-0.239528,-0.978971,-0.073643,-0.921784,0.083476,-0.831208,0.224022,-0.711746,0.341008,-0.569334,0.428620,-0.411051,0.482504,-0.251839,0.499238,
-0.250000,0.500000,0.000000,0.500000,0.012351,0.494884,0.012351,0.494884,$1*%
%AMFreePoly1*
4,1,17,0.072842,0.495741,0.209002,0.455021,0.328260,0.377721,0.421030,0.270057,0.479853,0.140683,0.500000,0.000000,0.500000,-5.400000,-0.500000,-5.400000,-0.500000,-0.012664,-0.501656,0.000000,-0.502457,0.006124,-0.480592,0.146550,-0.420193,0.275196,-0.326115,0.381719,-0.205921,0.457555,-0.069274,0.496609,0.072842,0.495741,0.072842,0.495741,$1*%
%AMFreePoly2*
4,1,24,0.251094,0.499547,0.255236,0.499982,0.421263,0.480184,0.578778,0.424096,0.719953,0.334503,0.837770,0.215861,0.926374,0.074064,0.981362,-0.083839,1.000000,-0.250000,1.000000,-5.200000,0.500000,-5.700000,-0.500000,-5.700000,-0.500000,0.000000,-0.499365,0.001534,-0.499963,0.006109,-0.478152,0.146186,-0.417904,0.274511,-0.324060,0.380769,-0.204165,0.456417,-0.067858,0.495374,
-0.011992,0.495033,0.000000,0.500000,0.250000,0.500000,0.251094,0.499547,0.251094,0.499547,$1*%
G04 Aperture macros list end*
%TA.AperFunction,SMDPad,CuDef*%
%ADD10RoundRect,0.225000X-0.250000X0.225000X-0.250000X-0.225000X0.250000X-0.225000X0.250000X0.225000X0*%
%TD*%
%TA.AperFunction,SMDPad,CuDef*%
%ADD11RoundRect,0.225000X-0.225000X-0.250000X0.225000X-0.250000X0.225000X0.250000X-0.225000X0.250000X0*%
%TD*%
%TA.AperFunction,SMDPad,CuDef*%
%ADD12RoundRect,0.075000X0.075000X-0.712500X0.075000X0.712500X-0.075000X0.712500X-0.075000X-0.712500X0*%
%TD*%
%TA.AperFunction,SMDPad,CuDef*%
%ADD13RoundRect,0.150000X-0.875000X-0.150000X0.875000X-0.150000X0.875000X0.150000X-0.875000X0.150000X0*%
%TD*%
%TA.AperFunction,SMDPad,CuDef*%
%ADD14RoundRect,0.125000X0.125000X-0.625000X0.125000X0.625000X-0.125000X0.625000X-0.125000X-0.625000X0*%
%TD*%
%TA.AperFunction,SMDPad,CuDef*%
%ADD15RoundRect,0.125000X0.625000X-0.125000X0.625000X0.125000X-0.625000X0.125000X-0.625000X-0.125000X0*%
%TD*%
%TA.AperFunction,ConnectorPad*%
%ADD16FreePoly0,0.000000*%
%TD*%
%TA.AperFunction,ComponentPad*%
%ADD17C,0.800000*%
%TD*%
%TA.AperFunction,ConnectorPad*%
%ADD18FreePoly1,0.000000*%
%TD*%
%TA.AperFunction,ConnectorPad*%
%ADD19FreePoly2,0.000000*%
%TD*%
%TA.AperFunction,ViaPad*%
%ADD20C,0.800000*%
%TD*%
%TA.AperFunction,Conductor*%
%ADD21C,0.250000*%
%TD*%
%TA.AperFunction,Conductor*%
%ADD22C,0.200000*%
%TD*%
%TA.AperFunction,Conductor*%
%ADD23C,0.152400*%
%TD*%
%TA.AperFunction,Conductor*%
%ADD24C,0.500000*%
%TD*%
G04 APERTURE END LIST*
D10*
%TO.P,C3,1*%
%TO.N,+5V*%
X140160000Y-87715000D03*
%TO.P,C3,2*%
%TO.N,GND*%
X140160000Y-89265000D03*
%TD*%
D11*
%TO.P,C1,1*%
%TO.N,+5V*%
X126795000Y-108000000D03*
%TO.P,C1,2*%
%TO.N,GND*%
X128345000Y-108000000D03*
%TD*%
%TO.P,C2,1*%
%TO.N,+5V*%
X147935000Y-92020000D03*
%TO.P,C2,2*%
%TO.N,GND*%
X149485000Y-92020000D03*
%TD*%
D10*
%TO.P,C4,1*%
%TO.N,+5V*%
X157270000Y-87785000D03*
%TO.P,C4,2*%
%TO.N,GND*%
X157270000Y-89335000D03*
%TD*%
D12*
%TO.P,U1,1,A3*%
%TO.N,A3*%
X159750000Y-106937500D03*
%TO.P,U1,2,A2*%
%TO.N,A2*%
X160250000Y-106937500D03*
%TO.P,U1,3,A1*%
%TO.N,A1*%
X160750000Y-106937500D03*
%TO.P,U1,4,A0~{}*%
%TO.N,A0*%
X161250000Y-106937500D03*
%TO.P,U1,5,D0*%
%TO.N,D0*%
X161750000Y-106937500D03*
%TO.P,U1,6,D1*%
%TO.N,D1*%
X162250000Y-106937500D03*
%TO.P,U1,7,D2*%
%TO.N,D2*%
X162750000Y-106937500D03*
%TO.P,U1,8,D3*%
%TO.N,D3*%
X163250000Y-106937500D03*
%TO.P,U1,9,GND*%
%TO.N,GND*%
X163750000Y-106937500D03*
%TO.P,U1,10,GND*%
X164250000Y-106937500D03*
%TO.P,U1,11,VCC~{}*%
%TO.N,+5V*%
X164750000Y-106937500D03*
%TO.P,U1,12,D4*%
%TO.N,D4*%
X165250000Y-106937500D03*
%TO.P,U1,13,D5*%
%TO.N,D5*%
X165750000Y-106937500D03*
%TO.P,U1,14,D6*%
%TO.N,D6*%
X166250000Y-106937500D03*
%TO.P,U1,15,D7*%
%TO.N,D7*%
X166750000Y-106937500D03*
%TO.P,U1,16,NC*%
%TO.N,unconnected-(U1-Pad16)*%
X167250000Y-106937500D03*
%TO.P,U1,17,OE~{}*%
%TO.N,RD*%
X167750000Y-106937500D03*
%TO.P,U1,18,WE*%
%TO.N,WE_SND*%
X168250000Y-106937500D03*
%TO.P,U1,19,A21*%
%TO.N,RA21*%
X168750000Y-106937500D03*
%TO.P,U1,20,A20*%
%TO.N,RA20*%
X169250000Y-106937500D03*
%TO.P,U1,21,A19*%
%TO.N,RA19*%
X169250000Y-87562500D03*
%TO.P,U1,22,A18*%
%TO.N,RA18*%
X168750000Y-87562500D03*
%TO.P,U1,23,A17*%
%TO.N,RA17*%
X168250000Y-87562500D03*
%TO.P,U1,24,A16*%
%TO.N,RA16*%
X167750000Y-87562500D03*
%TO.P,U1,25,A15*%
%TO.N,RA15*%
X167250000Y-87562500D03*
%TO.P,U1,26,A14*%
%TO.N,RA14*%
X166750000Y-87562500D03*
%TO.P,U1,27,A13*%
%TO.N,A13*%
X166250000Y-87562500D03*
%TO.P,U1,28,A12*%
%TO.N,A12*%
X165750000Y-87562500D03*
%TO.P,U1,29,CE*%
%TO.N,A15*%
X165250000Y-87562500D03*
%TO.P,U1,30,VCC*%
%TO.N,+5V*%
X164750000Y-87562500D03*
%TO.P,U1,31,NC*%
%TO.N,unconnected-(U1-Pad31)*%
X164250000Y-87562500D03*
%TO.P,U1,32,RESET*%
%TO.N,RESET*%
X163750000Y-87562500D03*
%TO.P,U1,33,A11*%
%TO.N,A11*%
X163250000Y-87562500D03*
%TO.P,U1,34,A10*%
%TO.N,A10*%
X162750000Y-87562500D03*
%TO.P,U1,35,A9*%
%TO.N,A9*%
X162250000Y-87562500D03*
%TO.P,U1,36,A8*%
%TO.N,A8*%
X161750000Y-87562500D03*
%TO.P,U1,37,A7*%
%TO.N,A7*%
X161250000Y-87562500D03*
%TO.P,U1,38,A6*%
%TO.N,A6*%
X160750000Y-87562500D03*
%TO.P,U1,39,A5*%
%TO.N,A5*%
X160250000Y-87562500D03*
%TO.P,U1,40,A4*%
%TO.N,A4*%
X159750000Y-87562500D03*
%TD*%
D13*
%TO.P,U3,1,A14*%
%TO.N,AA14*%
X128350000Y-89245000D03*
%TO.P,U3,2,A12*%
%TO.N,A12*%
X128350000Y-90515000D03*
%TO.P,U3,3,A7*%
%TO.N,A7*%
X128350000Y-91785000D03*
%TO.P,U3,4,A6*%
%TO.N,A6*%
X128350000Y-93055000D03*
%TO.P,U3,5,A5*%
%TO.N,A5*%
X128350000Y-94325000D03*
%TO.P,U3,6,A4*%
%TO.N,A4*%
X128350000Y-95595000D03*
%TO.P,U3,7,A3*%
%TO.N,A3*%
X128350000Y-96865000D03*
%TO.P,U3,8,A2*%
%TO.N,A2*%
X128350000Y-98135000D03*
%TO.P,U3,9,A1*%
%TO.N,A1*%
X128350000Y-99405000D03*
%TO.P,U3,10,A0*%
%TO.N,A0*%
X128350000Y-100675000D03*
%TO.P,U3,11,DQ0*%
%TO.N,D0*%
X128350000Y-101945000D03*
%TO.P,U3,12,DQ1*%
%TO.N,D1*%
X128350000Y-103215000D03*
%TO.P,U3,13,DQ2*%
%TO.N,D2*%
X128350000Y-104485000D03*
%TO.P,U3,14,VSS*%
%TO.N,GND*%
X128350000Y-105755000D03*
%TO.P,U3,15,DQ3*%
%TO.N,D3*%
X137650000Y-105755000D03*
%TO.P,U3,16,DQ4*%
%TO.N,D4*%
X137650000Y-104485000D03*
%TO.P,U3,17,DQ5*%
%TO.N,D5*%
X137650000Y-103215000D03*
%TO.P,U3,18,DQ6*%
%TO.N,D6*%
X137650000Y-101945000D03*
%TO.P,U3,19,DQ7*%
%TO.N,D7*%
X137650000Y-100675000D03*
%TO.P,U3,20,~{CE}*%
%TO.N,RAMCS*%
X137650000Y-99405000D03*
%TO.P,U3,21,A10*%
%TO.N,A10*%
X137650000Y-98135000D03*
%TO.P,U3,22,~{OE}*%
%TO.N,RD*%
X137650000Y-96865000D03*
%TO.P,U3,23,A11*%
%TO.N,A11*%
X137650000Y-95595000D03*
%TO.P,U3,24,A9*%
%TO.N,A9*%
X137650000Y-94325000D03*
%TO.P,U3,25,A8*%
%TO.N,A8*%
X137650000Y-93055000D03*
%TO.P,U3,26,A13*%
%TO.N,AA13*%
X137650000Y-91785000D03*
%TO.P,U3,27,~{WE}*%
%TO.N,WR*%
X137650000Y-90515000D03*
%TO.P,U3,28,VDD*%
%TO.N,+5V*%
X137650000Y-89245000D03*
%TD*%
D14*
%TO.P,U2,1,A13*%
%TO.N,A13*%
X148200000Y-102175000D03*
%TO.P,U2,2,A14*%
%TO.N,A14*%
X149000000Y-102175000D03*
%TO.P,U2,3,A15*%
%TO.N,A15*%
X149800000Y-102175000D03*
%TO.P,U2,4,GND*%
%TO.N,GND*%
X150600000Y-102175000D03*
%TO.P,U2,5,D0*%
%TO.N,D0*%
X151400000Y-102175000D03*
%TO.P,U2,6,D1*%
%TO.N,D1*%
X152200000Y-102175000D03*
%TO.P,U2,7,D2*%
%TO.N,D2*%
X153000000Y-102175000D03*
%TO.P,U2,8,D3*%
%TO.N,D3*%
X153800000Y-102175000D03*
D15*
%TO.P,U2,9,D4*%
%TO.N,D4*%
X155175000Y-100800000D03*
%TO.P,U2,10,D5*%
%TO.N,D5*%
X155175000Y-100000000D03*
%TO.P,U2,11,D6*%
%TO.N,D6*%
X155175000Y-99200000D03*
%TO.P,U2,12,D7*%
%TO.N,D7*%
X155175000Y-98400000D03*
%TO.P,U2,13,/RESET*%
%TO.N,RESET*%
X155175000Y-97600000D03*
%TO.P,U2,14,/RAMCS*%
%TO.N,RAMCS*%
X155175000Y-96800000D03*
%TO.P,U2,15,RA14*%
%TO.N,RA14*%
X155175000Y-96000000D03*
%TO.P,U2,16,RA15*%
%TO.N,RA15*%
X155175000Y-95200000D03*
D14*
%TO.P,U2,17,RA16*%
%TO.N,RA16*%
X153800000Y-93825000D03*
%TO.P,U2,18,RA17*%
%TO.N,RA17*%
X153000000Y-93825000D03*
%TO.P,U2,19,RA18*%
%TO.N,RA18*%
X152200000Y-93825000D03*
%TO.P,U2,20,RA19*%
%TO.N,RA19*%
X151400000Y-93825000D03*
%TO.P,U2,21,RA20*%
%TO.N,RA20*%
X150600000Y-93825000D03*
%TO.P,U2,22,RA21*%
%TO.N,RA21*%
X149800000Y-93825000D03*
%TO.P,U2,23,GND*%
%TO.N,GND*%
X149000000Y-93825000D03*
%TO.P,U2,24,PWR*%
%TO.N,+5V*%
X148200000Y-93825000D03*
D15*
%TO.P,U2,25,RA22*%
%TO.N,unconnected-(U2-Pad25)*%
X146825000Y-95200000D03*
%TO.P,U2,26,AA16*%
%TO.N,RUMBLE*%
X146825000Y-96000000D03*
%TO.P,U2,27,AA15*%
%TO.N,unconnected-(U2-Pad27)*%
X146825000Y-96800000D03*
%TO.P,U2,28,AA14*%
%TO.N,AA14*%
X146825000Y-97600000D03*
%TO.P,U2,29,AA13*%
%TO.N,AA13*%
X146825000Y-98400000D03*
%TO.P,U2,30,/WR*%
%TO.N,WR*%
X146825000Y-99200000D03*
%TO.P,U2,31,/CS*%
%TO.N,CS*%
X146825000Y-100000000D03*
%TO.P,U2,32,A12*%
%TO.N,A12*%
X146825000Y-100800000D03*
%TD*%
D16*
%TO.P,J1,1*%
%TO.N,+5V*%
X126750000Y-110190000D03*
D17*
X126750000Y-110190000D03*
D18*
%TO.P,J1,2*%
%TO.N,N/C*%
X128250000Y-110190000D03*
D17*
X128250000Y-110190000D03*
%TO.P,J1,3*%
%TO.N,WR*%
X129750000Y-110190000D03*
D18*
X129750000Y-110190000D03*
D17*
%TO.P,J1,4*%
%TO.N,RD*%
X131250000Y-110190000D03*
D18*
X131250000Y-110190000D03*
%TO.P,J1,5*%
%TO.N,CS*%
X132750000Y-110190000D03*
D17*
X132750000Y-110190000D03*
D18*
%TO.P,J1,6*%
%TO.N,A0*%
X134250000Y-110190000D03*
D17*
X134250000Y-110190000D03*
D18*
%TO.P,J1,7*%
%TO.N,A1*%
X135750000Y-110190000D03*
D17*
X135750000Y-110190000D03*
D18*
%TO.P,J1,8*%
%TO.N,A2*%
X137250000Y-110190000D03*
D17*
X137250000Y-110190000D03*
%TO.P,J1,9*%
%TO.N,A3*%
X138750000Y-110190000D03*
D18*
X138750000Y-110190000D03*
%TO.P,J1,10*%
%TO.N,A4*%
X140250000Y-110190000D03*
D17*
X140250000Y-110190000D03*
D18*
%TO.P,J1,11*%
%TO.N,A5*%
X141750000Y-110190000D03*
D17*
X141750000Y-110190000D03*
%TO.P,J1,12*%
%TO.N,A6*%
X143250000Y-110190000D03*
D18*
X143250000Y-110190000D03*
D17*
%TO.P,J1,13*%
%TO.N,A7*%
X144750000Y-110190000D03*
D18*
X144750000Y-110190000D03*
%TO.P,J1,14*%
%TO.N,A8*%
X146250000Y-110190000D03*
D17*
X146250000Y-110190000D03*
%TO.P,J1,15*%
%TO.N,A9*%
X147750000Y-110190000D03*
D18*
X147750000Y-110190000D03*
D17*
%TO.P,J1,16*%
%TO.N,A10*%
X149250000Y-110190000D03*
D18*
X149250000Y-110190000D03*
%TO.P,J1,17*%
%TO.N,A11*%
X150750000Y-110190000D03*
D17*
X150750000Y-110190000D03*
D18*
%TO.P,J1,18*%
%TO.N,A12*%
X152250000Y-110190000D03*
D17*
X152250000Y-110190000D03*
%TO.P,J1,19*%
%TO.N,A13*%
X153750000Y-110190000D03*
D18*
X153750000Y-110190000D03*
D17*
%TO.P,J1,20*%
%TO.N,A14*%
X155250000Y-110190000D03*
D18*
X155250000Y-110190000D03*
D17*
%TO.P,J1,21*%
%TO.N,A15*%
X156750000Y-110190000D03*
D18*
X156750000Y-110190000D03*
%TO.P,J1,22*%
%TO.N,D0*%
X158250000Y-110190000D03*
D17*
X158250000Y-110190000D03*
D18*
%TO.P,J1,23*%
%TO.N,D1*%
X159750000Y-110190000D03*
D17*
X159750000Y-110190000D03*
%TO.P,J1,24*%
%TO.N,D2*%
X161250000Y-110190000D03*
D18*
X161250000Y-110190000D03*
%TO.P,J1,25*%
%TO.N,D3*%
X162750000Y-110190000D03*
D17*
X162750000Y-110190000D03*
%TO.P,J1,26*%
%TO.N,D4*%
X164250000Y-110190000D03*
D18*
X164250000Y-110190000D03*
%TO.P,J1,27*%
%TO.N,D5*%
X165750000Y-110190000D03*
D17*
X165750000Y-110190000D03*
D18*
%TO.P,J1,28*%
%TO.N,D6*%
X167250000Y-110190000D03*
D17*
X167250000Y-110190000D03*
%TO.P,J1,29*%
%TO.N,D7*%
X168750000Y-110190000D03*
D18*
X168750000Y-110190000D03*
%TO.P,J1,30*%
%TO.N,RESET*%
X170250000Y-110190000D03*
D17*
X170250000Y-110190000D03*
%TO.P,J1,31*%
%TO.N,WE_SND*%
X171750000Y-110190000D03*
D18*
X171750000Y-110190000D03*
D17*
%TO.P,J1,32*%
%TO.N,GND*%
X173250000Y-110190000D03*
D19*
X173250000Y-110190000D03*
%TD*%
D20*
%TO.N,GND*%
X155000000Y-89690000D03*
%TO.N,+5V*%
X164000000Y-105490000D03*
X158260000Y-87950000D03*
%TO.N,GND*%
X128350000Y-107010000D03*
X149000000Y-95330000D03*
X145000000Y-89690000D03*
X148930000Y-97350000D03*
X164000000Y-108440000D03*
X162320000Y-92970000D03*
%TO.N,RA18*%
X168793500Y-98021061D03*
X168793500Y-93021061D03*
%TO.N,RA17*%
X168069000Y-97330000D03*
X168069000Y-92330000D03*
%TO.N,RA16*%
X167344500Y-93020815D03*
X167344500Y-98020815D03*
%TO.N,RA15*%
X166620000Y-92328439D03*
X166620000Y-97328439D03*
%TO.N,RA14*%
X165890000Y-93020000D03*
X165890000Y-98020000D03*
%TO.N,A13*%
X149048036Y-100733460D03*
X166450000Y-90440000D03*
%TO.N,A12*%
X131751825Y-93171825D03*
X145280000Y-101100000D03*
X165720000Y-89750000D03*
%TO.N,A15*%
X164990000Y-90440000D03*
X149410000Y-98410000D03*
%TO.N,RESET*%
X164264500Y-89750000D03*
X153800000Y-97876460D03*
%TO.N,A11*%
X142520000Y-99400000D03*
X163540000Y-90440000D03*
%TO.N,A10*%
X141490000Y-99400000D03*
X162806118Y-89750000D03*
%TO.N,A9*%
X162081618Y-90441536D03*
X140460000Y-94850000D03*
X140460000Y-99400000D03*
%TO.N,A8*%
X139410000Y-94073060D03*
X139420000Y-99400000D03*
X161356536Y-89753596D03*
%TO.N,A7*%
X134090000Y-97340000D03*
X160630000Y-90440000D03*
%TO.N,A6*%
X133040000Y-97340000D03*
X159899000Y-89750000D03*
%TO.N,A5*%
X159174500Y-90440000D03*
X132010000Y-97340000D03*
%TO.N,A4*%
X130950000Y-97340000D03*
X158450000Y-89520000D03*
%TO.N,A3*%
X158600000Y-107250000D03*
X134790000Y-108050480D03*
%TO.N,A2*%
X133750000Y-108050000D03*
X158600000Y-108300000D03*
%TO.N,A1*%
X158600000Y-106190000D03*
X132710000Y-108050000D03*
%TO.N,A0*%
X157530000Y-106190000D03*
X131652535Y-108050000D03*
%TO.N,D0*%
X151400000Y-103750000D03*
X126930000Y-102548963D03*
%TO.N,D1*%
X152480000Y-103750000D03*
X126930000Y-103825988D03*
%TO.N,D2*%
X153570000Y-103752420D03*
X126930000Y-105100000D03*
%TO.N,D3*%
X140920000Y-106347211D03*
X154640000Y-103750000D03*
%TO.N,D4*%
X154649500Y-102719989D03*
X135200000Y-104480000D03*
%TO.N,D5*%
X135200000Y-103450000D03*
X155720000Y-102310000D03*
%TO.N,D6*%
X135200000Y-102410000D03*
X156790000Y-101920000D03*
%TO.N,D7*%
X135200000Y-101350000D03*
X157890000Y-101504820D03*
%TO.N,RAMCS*%
X135204555Y-100274555D03*
X151917299Y-100345500D03*
%TO.N,RA20*%
X150980000Y-96100000D03*
X157839503Y-97546940D03*
%TO.N,RA21*%
X150990520Y-97140000D03*
X156840000Y-97546940D03*
%TO.N,AA14*%
X132884124Y-93064124D03*
X148380000Y-98400000D03*
%TO.N,WR*%
X144812701Y-98707299D03*
X145260000Y-96860000D03*
X129754004Y-108450000D03*
X134512796Y-91435450D03*
%TO.N,CS*%
X148380000Y-99990000D03*
X130215020Y-103000000D03*
%TO.N,RD*%
X148310000Y-96380000D03*
X129760000Y-107430000D03*
X157890000Y-100350000D03*
X153780000Y-100350000D03*
X135210000Y-97340000D03*
X133784124Y-92164124D03*
%TO.N,WE_SND*%
X168250000Y-108450000D03*
X171750000Y-108450000D03*
%TD*%
D21*
%TO.N,RD*%
X136925000Y-96865000D02*
X137650000Y-96865000D01*
X136450000Y-97340000D02*
X136925000Y-96865000D01*
X135210000Y-97340000D02*
X136450000Y-97340000D01*
%TO.N,RESET*%
X155175000Y-97600000D02*
X155760717Y-97600000D01*
X169750000Y-105759974D02*
X169750000Y-109690000D01*
X155760717Y-97600000D02*
X156249520Y-97111197D01*
X169750000Y-109690000D02*
X170250000Y-110190000D01*
X160439546Y-96449520D02*
X169750000Y-105759974D01*
X156249520Y-97111197D02*
X156249520Y-97110480D01*
X156910480Y-96449520D02*
X160439546Y-96449520D01*
X156249520Y-97110480D02*
X156910480Y-96449520D01*
%TO.N,+5V*%
X159104480Y-86395520D02*
X158260000Y-87240000D01*
X164750000Y-86395520D02*
X159104480Y-86395520D01*
X158260000Y-87240000D02*
X158260000Y-87950000D01*
X164750000Y-87562500D02*
X164750000Y-86395520D01*
D22*
%TO.N,GND*%
X151060000Y-92020000D02*
X149485000Y-92020000D01*
X153390000Y-89690000D02*
X151060000Y-92020000D01*
X154960000Y-89690000D02*
X153390000Y-89690000D01*
D21*
%TO.N,+5V*%
X126750000Y-108025000D02*
X126725000Y-108000000D01*
X148200000Y-90370000D02*
X148750000Y-90370000D01*
X164485480Y-105825480D02*
X164490486Y-105825480D01*
D23*
X126990000Y-99950000D02*
X126980000Y-99960000D01*
X126980000Y-98270000D02*
X126990000Y-98280000D01*
D21*
X137650000Y-89245000D02*
X137650000Y-87310000D01*
X164150000Y-105490000D02*
X164485480Y-105825480D01*
X147935000Y-92020000D02*
X148180000Y-92020000D01*
X164490486Y-105825480D02*
X164750000Y-106084994D01*
X148200000Y-93825000D02*
X148200000Y-92000000D01*
X164000000Y-105490000D02*
X164150000Y-105490000D01*
X164750000Y-87562500D02*
X164750000Y-86530000D01*
X148200000Y-92000000D02*
X148200000Y-90370000D01*
X164750000Y-106084994D02*
X164750000Y-106937500D01*
X148180000Y-92020000D02*
X148200000Y-92000000D01*
X126990000Y-98280000D02*
X126990000Y-99950000D01*
D24*
X146201867Y-86889993D02*
G75*
G03*
X153798133Y-86890000I3798133J36456D01*
G01*
D21*
%TO.N,GND*%
X128345000Y-108000000D02*
X128350000Y-107995000D01*
X164000000Y-108440000D02*
X163750000Y-108190000D01*
X170870000Y-86400000D02*
X165217310Y-86400000D01*
X163750000Y-108190000D02*
X163750000Y-106937500D01*
X164000000Y-108440000D02*
X164250000Y-108190000D01*
X149000000Y-93825000D02*
X149000000Y-92505000D01*
X149000000Y-92505000D02*
X149485000Y-92020000D01*
D22*
X149420000Y-97350000D02*
X150570000Y-98500000D01*
D21*
X128350000Y-107995000D02*
X128350000Y-106710000D01*
X164250000Y-108190000D02*
X164250000Y-106937500D01*
X128350000Y-107010000D02*
X128350000Y-105755000D01*
D22*
X150570000Y-102145000D02*
X150600000Y-102175000D01*
X150570000Y-98500000D02*
X150570000Y-102145000D01*
X148930000Y-97350000D02*
X149420000Y-97350000D01*
D21*
%TO.N,RA19*%
X155119310Y-91851440D02*
X157020271Y-93752400D01*
X157020271Y-93752400D02*
X169100700Y-93752400D01*
X169530000Y-88721078D02*
X169250000Y-88441078D01*
X152588560Y-91851440D02*
X155119310Y-91851440D01*
X169100700Y-93752400D02*
X169530000Y-93323100D01*
X169250000Y-88441078D02*
X169250000Y-87562500D01*
X169530000Y-93323100D02*
X169530000Y-88721078D01*
X151400000Y-93825000D02*
X151400000Y-93040000D01*
X151400000Y-93040000D02*
X152588560Y-91851440D01*
%TO.N,RA18*%
X152200000Y-92994282D02*
X152200000Y-93825000D01*
X152893322Y-92300960D02*
X152200000Y-92994282D01*
X168750000Y-88576796D02*
X168750000Y-87562500D01*
X165981920Y-94201920D02*
X156834073Y-94201920D01*
X156834073Y-94201920D02*
X154933112Y-92300960D01*
X168793500Y-98021061D02*
X168793500Y-97013500D01*
X168793500Y-93021061D02*
X168793500Y-91669370D01*
X169070000Y-88896796D02*
X168750000Y-88576796D01*
X168793500Y-91669370D02*
X169070000Y-91392870D01*
X169070000Y-91392870D02*
X169070000Y-88896796D01*
X168793500Y-97013500D02*
X165981920Y-94201920D01*
X154933112Y-92300960D02*
X152893322Y-92300960D01*
%TO.N,RA17*%
X165771440Y-94651440D02*
X156647875Y-94651440D01*
X168069000Y-92330000D02*
X168069000Y-91758154D01*
X154746915Y-92750480D02*
X153488803Y-92750480D01*
X153000000Y-93239283D02*
X153000000Y-93825000D01*
X156647875Y-94651440D02*
X154746915Y-92750480D01*
X168069000Y-96949000D02*
X165771440Y-94651440D01*
X168250000Y-88712514D02*
X168250000Y-87562500D01*
X168610000Y-91217154D02*
X168610000Y-89072514D01*
X168069000Y-91758154D02*
X168610000Y-91217154D01*
X168610000Y-89072514D02*
X168250000Y-88712514D01*
X168069000Y-97330000D02*
X168069000Y-96949000D01*
X153488803Y-92750480D02*
X153000000Y-93239283D01*
%TO.N,RA16*%
X154600480Y-94625480D02*
X153800000Y-93825000D01*
X168149876Y-91041560D02*
X168149876Y-89248108D01*
X155986197Y-94625480D02*
X154600480Y-94625480D01*
X165540960Y-95100960D02*
X156461677Y-95100960D01*
X167750000Y-88848232D02*
X167750000Y-87562500D01*
X167344500Y-91846936D02*
X168149876Y-91041560D01*
X167344500Y-93020815D02*
X167344500Y-91846936D01*
X156461677Y-95100960D02*
X155986197Y-94625480D01*
X167344500Y-96904500D02*
X165540960Y-95100960D01*
X167344500Y-98020815D02*
X167344500Y-96904500D01*
X168149876Y-89248108D02*
X167750000Y-88848232D01*
%TO.N,RA15*%
X167250000Y-88983950D02*
X167250000Y-87562500D01*
X156275479Y-95550480D02*
X155924999Y-95200000D01*
X167640000Y-90915718D02*
X167640000Y-89373950D01*
X167640000Y-89373950D02*
X167250000Y-88983950D01*
X166620000Y-96844283D02*
X165326197Y-95550480D01*
X166620000Y-91935718D02*
X167640000Y-90915718D01*
X166620000Y-97328439D02*
X166620000Y-96844283D01*
X165326197Y-95550480D02*
X156275479Y-95550480D01*
X166620000Y-92328439D02*
X166620000Y-91935718D01*
X155924999Y-95200000D02*
X155175000Y-95200000D01*
%TO.N,RA14*%
X165890000Y-96750000D02*
X165140000Y-96000000D01*
X167174511Y-89544179D02*
X166750000Y-89119668D01*
X165890000Y-98020000D02*
X165890000Y-96750000D01*
X165890000Y-92030000D02*
X167174511Y-90745489D01*
X166750000Y-89119668D02*
X166750000Y-87562500D01*
X165890000Y-93020000D02*
X165890000Y-92030000D01*
X165140000Y-96000000D02*
X155175000Y-96000000D01*
X167174511Y-90745489D02*
X167174511Y-89544179D01*
%TO.N,A13*%
X149048036Y-100733460D02*
X148200000Y-101581496D01*
X148200000Y-102175000D02*
X148200000Y-104640000D01*
X166450000Y-90440000D02*
X166450000Y-89455386D01*
X148200000Y-104640000D02*
X153747500Y-110187500D01*
X166450000Y-89455386D02*
X166250000Y-89255386D01*
X153747500Y-110187500D02*
X153750000Y-110187500D01*
X166250000Y-89255386D02*
X166250000Y-87562500D01*
X148200000Y-101581496D02*
X148200000Y-102175000D01*
%TO.N,A12*%
X165750000Y-87562500D02*
X165750000Y-89720000D01*
X145580000Y-100800000D02*
X146825000Y-100800000D01*
X165750000Y-89720000D02*
X165720000Y-89750000D01*
X145280000Y-101100000D02*
X145580000Y-100800000D01*
X146825000Y-100800000D02*
X146825000Y-104765000D01*
X152250000Y-110190000D02*
X152250000Y-110187500D01*
X131751825Y-93171825D02*
X129095000Y-90515000D01*
X146825000Y-104765000D02*
X152250000Y-110190000D01*
X129095000Y-90515000D02*
X128350000Y-90515000D01*
%TO.N,A15*%
X149800000Y-98800000D02*
X149800000Y-102175000D01*
X156750000Y-110187500D02*
X149800000Y-103237500D01*
X149800000Y-103237500D02*
X149800000Y-102175000D01*
X164990000Y-90440000D02*
X164990000Y-88960000D01*
X149410000Y-98410000D02*
X149800000Y-98800000D01*
X164990000Y-88960000D02*
X165250000Y-88700000D01*
X165250000Y-88700000D02*
X165250000Y-87562500D01*
%TO.N,RESET*%
X164264511Y-89749989D02*
X164264511Y-89634511D01*
X153800000Y-97876460D02*
X154076460Y-97600000D01*
X164264500Y-89750000D02*
X164264511Y-89749989D01*
X163750000Y-87562500D02*
X163750000Y-88415006D01*
X163750000Y-88415006D02*
X164264511Y-88929517D01*
X164264511Y-88929517D02*
X164264511Y-89634511D01*
X154076460Y-97600000D02*
X155175000Y-97600000D01*
X170250000Y-110190000D02*
X170250000Y-110050000D01*
%TO.N,A11*%
X142520000Y-99400000D02*
X142520000Y-101960000D01*
X163540000Y-89260000D02*
X163250000Y-88970000D01*
X142520000Y-101960000D02*
X150750000Y-110190000D01*
X139295000Y-95595000D02*
X137650000Y-95595000D01*
X163250000Y-88970000D02*
X163250000Y-87562500D01*
X163540000Y-90440000D02*
X163540000Y-89260000D01*
X142520000Y-98820000D02*
X139295000Y-95595000D01*
X142520000Y-99400000D02*
X142520000Y-98820000D01*
%TO.N,A10*%
X137650000Y-98135000D02*
X140785000Y-98135000D01*
X162750000Y-89693882D02*
X162750000Y-87562500D01*
X141490000Y-98840000D02*
X141490000Y-99400000D01*
X140785000Y-98135000D02*
X141490000Y-98840000D01*
X141490000Y-99400000D02*
X141490000Y-102430000D01*
X141490000Y-102430000D02*
X149250000Y-110190000D01*
X162806118Y-89750000D02*
X162750000Y-89693882D01*
%TO.N,A9*%
X140460000Y-94850000D02*
X140456810Y-94846810D01*
X138345000Y-94325000D02*
X137650000Y-94325000D01*
X138866810Y-94846810D02*
X138345000Y-94325000D01*
X140456810Y-94846810D02*
X138866810Y-94846810D01*
X162081618Y-90441536D02*
X162081618Y-89126260D01*
X162081618Y-89126260D02*
X162250000Y-88957878D01*
X140460000Y-99400000D02*
X140460000Y-102900000D01*
X140460000Y-102900000D02*
X147750000Y-110190000D01*
X162250000Y-88957878D02*
X162250000Y-87562500D01*
%TO.N,A8*%
X139420000Y-99400000D02*
X139420000Y-103360000D01*
X138391940Y-93055000D02*
X137650000Y-93055000D01*
X161356536Y-89753596D02*
X161356536Y-89215624D01*
X139410000Y-94073060D02*
X138391940Y-93055000D01*
X139420000Y-103360000D02*
X146250000Y-110190000D01*
X161356536Y-89215624D02*
X161750000Y-88822160D01*
X161750000Y-88822160D02*
X161750000Y-87562500D01*
%TO.N,A7*%
X134086160Y-104399006D02*
X136758865Y-107071711D01*
X136758865Y-107071711D02*
X141631711Y-107071711D01*
X141631711Y-107071711D02*
X144750000Y-110190000D01*
X129055000Y-91785000D02*
X128350000Y-91785000D01*
X134090000Y-97340000D02*
X134086160Y-97343840D01*
X160630000Y-89306442D02*
X161250000Y-88686442D01*
X134090000Y-96820000D02*
X129055000Y-91785000D01*
X161250000Y-88686442D02*
X161250000Y-87562500D01*
X134090000Y-97340000D02*
X134090000Y-96820000D01*
X134086160Y-97343840D02*
X134086160Y-104399006D01*
X160630000Y-90440000D02*
X160630000Y-89306442D01*
%TO.N,A6*%
X133040000Y-97010000D02*
X129085000Y-93055000D01*
X133636640Y-104585204D02*
X133636640Y-97936640D01*
X136572667Y-107521231D02*
X133636640Y-104585204D01*
X160750000Y-88550724D02*
X160750000Y-87562500D01*
X143250000Y-110190000D02*
X140581231Y-107521231D01*
X133040000Y-97340000D02*
X133040000Y-97010000D01*
X159899000Y-89401724D02*
X160750000Y-88550724D01*
X129085000Y-93055000D02*
X128350000Y-93055000D01*
X140581231Y-107521231D02*
X136572667Y-107521231D01*
X159899000Y-89750000D02*
X159899000Y-89401724D01*
X133636640Y-97936640D02*
X133040000Y-97340000D01*
%TO.N,A5*%
X159174500Y-90440000D02*
X159174500Y-89145500D01*
X133187120Y-98697120D02*
X133187120Y-104771402D01*
X139530751Y-107970751D02*
X141750000Y-110190000D01*
X159174500Y-89145500D02*
X159550000Y-88770000D01*
X160250000Y-88415006D02*
X160250000Y-87562500D01*
X132010000Y-97520000D02*
X133187120Y-98697120D01*
X136386469Y-107970751D02*
X139530751Y-107970751D01*
X159550000Y-88770000D02*
X159895006Y-88770000D01*
X129065000Y-94325000D02*
X128350000Y-94325000D01*
X132010000Y-97270000D02*
X129065000Y-94325000D01*
X132010000Y-97340000D02*
X132010000Y-97270000D01*
X159895006Y-88770000D02*
X160250000Y-88415006D01*
X133187120Y-104771402D02*
X136386469Y-107970751D01*
X132010000Y-97340000D02*
X132010000Y-97520000D01*
%TO.N,A4*%
X158450000Y-89520000D02*
X158450000Y-88862500D01*
X138480271Y-108420271D02*
X140250000Y-110190000D01*
X132737600Y-99289628D02*
X132737600Y-104957600D01*
X132737600Y-104957600D02*
X136200271Y-108420271D01*
X129042972Y-95595000D02*
X132737600Y-99289628D01*
X158450000Y-88862500D02*
X159750000Y-87562500D01*
X128350000Y-95595000D02*
X129042972Y-95595000D01*
X136200271Y-108420271D02*
X138480271Y-108420271D01*
%TO.N,A3*%
X129075000Y-96865000D02*
X128350000Y-96865000D01*
X134790000Y-108050480D02*
X135095137Y-108050480D01*
X134790000Y-108050480D02*
X132288080Y-105548560D01*
X159750000Y-106937500D02*
X158912500Y-106937500D01*
X132288080Y-100078080D02*
X129075000Y-96865000D01*
X137429791Y-108869791D02*
X138750000Y-110190000D01*
X158912500Y-106937500D02*
X158600000Y-107250000D01*
X132288080Y-105548560D02*
X132288080Y-100078080D01*
X135095137Y-108050480D02*
X135914448Y-108869791D01*
X135914448Y-108869791D02*
X137429791Y-108869791D01*
%TO.N,A2*%
X136379311Y-109319311D02*
X137250000Y-110190000D01*
X135798252Y-109319311D02*
X136379311Y-109319311D01*
X129065000Y-98135000D02*
X128350000Y-98135000D01*
X134617138Y-108917138D02*
X135326077Y-108917138D01*
X131838560Y-100908560D02*
X129065000Y-98135000D01*
X133750000Y-108050000D02*
X131838560Y-106138560D01*
X131838560Y-106138560D02*
X131838560Y-100908560D01*
X158600000Y-108300000D02*
X159890000Y-108300000D01*
X135748753Y-109339814D02*
X135798252Y-109319311D01*
X159890000Y-108300000D02*
X160250000Y-107940000D01*
X135326077Y-108917138D02*
X135748753Y-109339814D01*
X133750000Y-108050000D02*
X134617138Y-108917138D01*
X160250000Y-107940000D02*
X160250000Y-106937500D01*
%TO.N,A1*%
X131389040Y-101749040D02*
X129045000Y-99405000D01*
X160750000Y-106080000D02*
X160750000Y-106937500D01*
X160000000Y-105834994D02*
X160009514Y-105825480D01*
X132710000Y-108050000D02*
X131389040Y-106729040D01*
X160495480Y-105825480D02*
X160750000Y-106080000D01*
X131389040Y-106729040D02*
X131389040Y-101749040D01*
X159990486Y-105825480D02*
X160000000Y-105834994D01*
X158964520Y-105825480D02*
X159990486Y-105825480D01*
X129045000Y-99405000D02*
X128350000Y-99405000D01*
X132710000Y-108050000D02*
X132710000Y-108054614D01*
X160009514Y-105825480D02*
X160495480Y-105825480D01*
X158600000Y-106190000D02*
X158964520Y-105825480D01*
X134926658Y-109366658D02*
X135750000Y-110190000D01*
X132710000Y-108054614D02*
X134022044Y-109366658D01*
X134022044Y-109366658D02*
X134926658Y-109366658D01*
%TO.N,A0*%
X132992033Y-109366647D02*
X133380929Y-109366647D01*
X131652535Y-108050000D02*
X131675386Y-108050000D01*
X130939520Y-107336985D02*
X130939520Y-102549520D01*
X129065000Y-100675000D02*
X128350000Y-100675000D01*
X134204282Y-110190000D02*
X134250000Y-110190000D01*
X161250000Y-105944282D02*
X160681678Y-105375960D01*
X131675386Y-108050000D02*
X132992033Y-109366647D01*
X161250000Y-106937500D02*
X161250000Y-105944282D01*
X130939520Y-102549520D02*
X129065000Y-100675000D01*
X133380929Y-109366647D02*
X134204282Y-110190000D01*
X158344040Y-105375960D02*
X157530000Y-106190000D01*
X160681678Y-105375960D02*
X158344040Y-105375960D01*
X131652535Y-108050000D02*
X130939520Y-107336985D01*
%TO.N,D0*%
X161750000Y-105808564D02*
X161750000Y-106937500D01*
X155287010Y-105399040D02*
X155759610Y-104926440D01*
X155759610Y-104926440D02*
X160867876Y-104926440D01*
X151400000Y-103812902D02*
X151400000Y-102175000D01*
X151443951Y-103856869D02*
X152986122Y-105399040D01*
X160867876Y-104926440D02*
X161750000Y-105808564D01*
X159560708Y-108879292D02*
X158250000Y-110190000D01*
X161750000Y-108150000D02*
X161020708Y-108879292D01*
X127533963Y-101945000D02*
X128350000Y-101945000D01*
X161750000Y-106937500D02*
X161750000Y-108150000D01*
X126930000Y-102548963D02*
X127533963Y-101945000D01*
X161020708Y-108879292D02*
X159560708Y-108879292D01*
X152986122Y-105399040D02*
X155287010Y-105399040D01*
%TO.N,D1*%
X160611188Y-109328812D02*
X159750000Y-110190000D01*
X126930000Y-103825988D02*
X127540988Y-103215000D01*
X153679520Y-104949520D02*
X155100812Y-104949520D01*
X161054074Y-104476920D02*
X162250000Y-105672846D01*
X155573412Y-104476920D02*
X161054074Y-104476920D01*
X162250000Y-105672846D02*
X162250000Y-106937500D01*
X127540988Y-103215000D02*
X128350000Y-103215000D01*
X126924856Y-103825988D02*
X126930000Y-103825988D01*
X161321188Y-109328812D02*
X160611188Y-109328812D01*
X152480000Y-103750000D02*
X152200000Y-103470000D01*
X152200000Y-103470000D02*
X152200000Y-102175000D01*
X162250000Y-106937500D02*
X162250000Y-108400000D01*
X155100812Y-104949520D02*
X155573412Y-104476920D01*
X162250000Y-108400000D02*
X161321188Y-109328812D01*
X152480000Y-103750000D02*
X153679520Y-104949520D01*
%TO.N,D2*%
X153000000Y-103182420D02*
X153000000Y-102175000D01*
X162750000Y-106937500D02*
X162750000Y-108650000D01*
X126930000Y-105100000D02*
X127545000Y-104485000D01*
X162750000Y-108650000D02*
X161250000Y-110150000D01*
X153570000Y-103752420D02*
X154317580Y-104500000D01*
X155387214Y-104027400D02*
X161240272Y-104027400D01*
X162750000Y-105537128D02*
X162750000Y-106937500D01*
X126920000Y-105100000D02*
X126930000Y-105100000D01*
X154317580Y-104500000D02*
X154914614Y-104500000D01*
X161240272Y-104027400D02*
X162750000Y-105537128D01*
X153570000Y-103752420D02*
X153000000Y-103182420D01*
X127545000Y-104485000D02*
X128350000Y-104485000D01*
X154914614Y-104500000D02*
X155387214Y-104027400D01*
%TO.N,D3*%
X163250000Y-108950000D02*
X163250000Y-106937500D01*
X162750000Y-110150000D02*
X162750000Y-109450000D01*
X140327789Y-105755000D02*
X137650000Y-105755000D01*
X154812120Y-103577880D02*
X161426469Y-103577880D01*
X154640000Y-103750000D02*
X153800000Y-102910000D01*
X163250000Y-105401410D02*
X163250000Y-106937500D01*
X153800000Y-102910000D02*
X153800000Y-102175000D01*
X162750000Y-109450000D02*
X163250000Y-108950000D01*
X161426469Y-103577880D02*
X163250000Y-105401410D01*
X140920000Y-106347211D02*
X140327789Y-105755000D01*
X154640000Y-103750000D02*
X154812120Y-103577880D01*
%TO.N,D4*%
X165250000Y-106937500D02*
X165250000Y-109150000D01*
X164250000Y-110150000D02*
X165250000Y-109150000D01*
X162668360Y-103128360D02*
X165250000Y-105710000D01*
X135200000Y-104480000D02*
X135205000Y-104485000D01*
X154649500Y-102719989D02*
X154649500Y-101325500D01*
X154649500Y-101325500D02*
X155175000Y-100800000D01*
X165250000Y-105710000D02*
X165250000Y-106937500D01*
X155057871Y-103128360D02*
X162668360Y-103128360D01*
X135205000Y-104485000D02*
X137650000Y-104485000D01*
X154649500Y-102719989D02*
X155057871Y-103128360D01*
%TO.N,D5*%
X135435000Y-103215000D02*
X137650000Y-103215000D01*
X165750000Y-105574282D02*
X165750000Y-106937500D01*
X155760717Y-100000000D02*
X155175000Y-100000000D01*
X135200000Y-103450000D02*
X135435000Y-103215000D01*
X162854558Y-102678840D02*
X165750000Y-105574282D01*
X156088840Y-102678840D02*
X162854558Y-102678840D01*
X165750000Y-106937500D02*
X165750000Y-110190000D01*
X155720000Y-101670000D02*
X156249520Y-101140480D01*
X156249520Y-101140480D02*
X156249520Y-100488803D01*
X155720000Y-102310000D02*
X155720000Y-101670000D01*
X155720000Y-102310000D02*
X156088840Y-102678840D01*
X156249520Y-100488803D02*
X155760717Y-100000000D01*
X165900000Y-110040000D02*
X165750000Y-110190000D01*
%TO.N,D6*%
X156699040Y-101829040D02*
X156699040Y-100138323D01*
X135665000Y-101945000D02*
X137650000Y-101945000D01*
X166250000Y-105438564D02*
X166250000Y-106937500D01*
X163040756Y-102229320D02*
X166250000Y-105438564D01*
X166250000Y-106937500D02*
X166250000Y-109150000D01*
X156790000Y-101920000D02*
X157099320Y-102229320D01*
X157099320Y-102229320D02*
X163040756Y-102229320D01*
X167250000Y-110150000D02*
X166250000Y-109150000D01*
X155760717Y-99200000D02*
X155175000Y-99200000D01*
X135200000Y-102410000D02*
X135665000Y-101945000D01*
X156699040Y-100138323D02*
X155760717Y-99200000D01*
X167374282Y-110190000D02*
X167250000Y-110190000D01*
X156790000Y-101920000D02*
X156699040Y-101829040D01*
%TO.N,A14*%
X149000000Y-102175000D02*
X149000000Y-103940000D01*
X149000000Y-103940000D02*
X155247500Y-110187500D01*
X155247500Y-110187500D02*
X155250000Y-110187500D01*
%TO.N,D7*%
X166750000Y-108160000D02*
X166750000Y-106937500D01*
X158164980Y-101779800D02*
X163226954Y-101779800D01*
X135200000Y-101350000D02*
X135875000Y-100675000D01*
X163226954Y-101779800D02*
X166750000Y-105302846D01*
X168740000Y-110150000D02*
X166750000Y-108160000D01*
X157148560Y-100763380D02*
X157148560Y-99531916D01*
X166750000Y-105302846D02*
X166750000Y-106937500D01*
X156016644Y-98400000D02*
X155175000Y-98400000D01*
X157890000Y-101504820D02*
X158164980Y-101779800D01*
X135875000Y-100675000D02*
X137650000Y-100675000D01*
X157148560Y-99531916D02*
X156016644Y-98400000D01*
X157890000Y-101504820D02*
X157148560Y-100763380D01*
%TO.N,RAMCS*%
X136074110Y-99405000D02*
X137650000Y-99405000D01*
X135204555Y-100274555D02*
X136074110Y-99405000D01*
X151917299Y-98734547D02*
X153851846Y-96800000D01*
X151917299Y-100345500D02*
X151917299Y-98734547D01*
X153851846Y-96800000D02*
X155175000Y-96800000D01*
%TO.N,RA20*%
X169250000Y-105895692D02*
X169250000Y-106937500D01*
X160714308Y-97360000D02*
X169250000Y-105895692D01*
X157839503Y-97546940D02*
X158026443Y-97360000D01*
X150600000Y-95720000D02*
X150600000Y-93825000D01*
X150980000Y-96100000D02*
X150600000Y-95720000D01*
X158026443Y-97360000D02*
X160714308Y-97360000D01*
%TO.N,RA21*%
X160988590Y-98270000D02*
X168750000Y-106031410D01*
X158141057Y-98270000D02*
X160988590Y-98270000D01*
X156840000Y-97572051D02*
X157539400Y-98271451D01*
X149800000Y-95949480D02*
X149800000Y-93825000D01*
X156840000Y-97546940D02*
X156840000Y-97572051D01*
X158139606Y-98271451D02*
X158141057Y-98270000D01*
X168750000Y-106031410D02*
X168750000Y-106937500D01*
X150990520Y-97140000D02*
X149800000Y-95949480D01*
X157539400Y-98271451D02*
X158139606Y-98271451D01*
%TO.N,AA14*%
X132884124Y-93064124D02*
X129065000Y-89245000D01*
X148380000Y-98400000D02*
X147580000Y-97600000D01*
X147580000Y-97600000D02*
X146825000Y-97600000D01*
X129065000Y-89245000D02*
X128350000Y-89245000D01*
%TO.N,AA13*%
X146825000Y-98400000D02*
X145530016Y-98400000D01*
X145530016Y-98400000D02*
X145112804Y-97982788D01*
X144617402Y-97982788D02*
X138419614Y-91785000D01*
X145112804Y-97982788D02*
X144617402Y-97982788D01*
X138419614Y-91785000D02*
X137650000Y-91785000D01*
%TO.N,WR*%
X145305402Y-99200000D02*
X144812701Y-98707299D01*
X129754004Y-108450000D02*
X129750000Y-108454004D01*
X135428246Y-90520000D02*
X135650000Y-90520000D01*
X139190000Y-91919668D02*
X139190000Y-91310000D01*
X134512796Y-91435450D02*
X135428246Y-90520000D01*
X146825000Y-99200000D02*
X145305402Y-99200000D01*
X144130332Y-96860000D02*
X139190000Y-91919668D01*
X135650000Y-90520000D02*
X135650000Y-90515000D01*
X138395000Y-90515000D02*
X137650000Y-90515000D01*
X145260000Y-96860000D02*
X144130332Y-96860000D01*
X135650000Y-90515000D02*
X137650000Y-90515000D01*
X139190000Y-91310000D02*
X138395000Y-90515000D01*
X129750000Y-108454004D02*
X129750000Y-110190000D01*
%TO.N,CS*%
X130928035Y-108368035D02*
X132750000Y-110190000D01*
X130490000Y-107525664D02*
X130928035Y-107963700D01*
X130215020Y-103000000D02*
X130490000Y-103274980D01*
X130928035Y-107963700D02*
X130928035Y-108368035D01*
X130490000Y-103274980D02*
X130490000Y-107525664D01*
X148370000Y-100000000D02*
X148380000Y-99990000D01*
X146825000Y-100000000D02*
X148370000Y-100000000D01*
%TO.N,RD*%
X151049520Y-100509520D02*
X151049520Y-98303803D01*
X151049520Y-98303803D02*
X149125717Y-96380000D01*
X167750000Y-105667128D02*
X167750000Y-106937500D01*
X149125717Y-96380000D02*
X148310000Y-96380000D01*
X134379525Y-92164124D02*
X135210000Y-92994599D01*
X157890000Y-100350000D02*
X158870280Y-101330280D01*
X129760000Y-107430000D02*
X129760000Y-107431382D01*
X153780000Y-100350000D02*
X153060000Y-101070000D01*
X153060000Y-101070000D02*
X151610000Y-101070000D01*
X163413152Y-101330280D02*
X167750000Y-105667128D01*
X129760000Y-107431382D02*
X130478515Y-108149897D01*
X158870280Y-101330280D02*
X163413152Y-101330280D01*
X135210000Y-92994599D02*
X135210000Y-97340000D01*
X130478515Y-108149897D02*
X130478515Y-109418515D01*
X130478515Y-109418515D02*
X131250000Y-110190000D01*
X151610000Y-101070000D02*
X151049520Y-100509520D01*
X133784124Y-92164124D02*
X134379525Y-92164124D01*
%TO.N,WE_SND*%
X171750000Y-110190000D02*
X171750000Y-108440000D01*
X168250000Y-106937500D02*
X168250000Y-108450000D01*
%TD*%
%TA.AperFunction,Conductor*%
%TO.N,GND*%
G36*
X174250000Y-110483810D02*
G01*
X174229998Y-110551931D01*
X174213095Y-110572905D01*
X174032905Y-110753095D01*
X173970593Y-110787121D01*
X173943810Y-110790000D01*
X173056190Y-110790000D01*
X172988069Y-110769998D01*
X172967095Y-110753095D01*
X172786905Y-110572905D01*
X172752879Y-110510593D01*
X172750000Y-110483810D01*
X172750000Y-109450000D01*
X174250000Y-109450000D01*
X174250000Y-110483810D01*
G37*
%TD.AperFunction*%
%TD*%
%TA.AperFunction,Conductor*%
%TO.N,GND*%
G36*
X174269000Y-109611109D02*
G01*
X174259500Y-109632250D01*
X174262159Y-109633445D01*
X174257854Y-109643026D01*
X174250000Y-109650000D01*
X174250000Y-109400000D01*
X174269000Y-109400000D01*
X174269000Y-109611109D01*
G37*
%TD.AperFunction*%
%TD*%
%TA.AperFunction,Conductor*%
%TO.N,+5V*%
G36*
X125750000Y-109700000D02*
G01*
X125741946Y-109693020D01*
X125737519Y-109683325D01*
X125740500Y-109681964D01*
X125731000Y-109661159D01*
X125731000Y-109450000D01*
X125750000Y-109450000D01*
X125750000Y-109700000D01*
G37*
%TD.AperFunction*%
%TD*%
%TA.AperFunction,Conductor*%
%TO.N,GND*%
G36*
X172750000Y-109650000D02*
G01*
X172500000Y-109400000D01*
X172750000Y-109400000D01*
X172750000Y-109650000D01*
G37*
%TD.AperFunction*%
%TD*%
%TA.AperFunction,Conductor*%
%TO.N,GND*%
G36*
X174479808Y-86272551D02*
G01*
X174500000Y-86275749D01*
X174509793Y-86274198D01*
X174519710Y-86274198D01*
X174519710Y-86275215D01*
X174534481Y-86274885D01*
X174623634Y-86284930D01*
X174651143Y-86291209D01*
X174755175Y-86327612D01*
X174780593Y-86339852D01*
X174873927Y-86398498D01*
X174895980Y-86416086D01*
X174973914Y-86494020D01*
X174991502Y-86516073D01*
X175050147Y-86609405D01*
X175062388Y-86634825D01*
X175098791Y-86738857D01*
X175105070Y-86766366D01*
X175115115Y-86855519D01*
X175114785Y-86870290D01*
X175115802Y-86870290D01*
X175115802Y-86880207D01*
X175114251Y-86890000D01*
X175115802Y-86899792D01*
X175117449Y-86910191D01*
X175119000Y-86929902D01*
X175119000Y-96150097D01*
X175117449Y-96169807D01*
X175114251Y-96189999D01*
X175112872Y-96189781D01*
X175095800Y-96247923D01*
X175042144Y-96294416D01*
X174999897Y-96303606D01*
X174999999Y-96304251D01*
X174990207Y-96305802D01*
X174979808Y-96307449D01*
X174960097Y-96309000D01*
X173739900Y-96309000D01*
X173720190Y-96307449D01*
X173709791Y-96305802D01*
X173699998Y-96304251D01*
X173690206Y-96305802D01*
X173679315Y-96307527D01*
X173673712Y-96308286D01*
X173576924Y-96319192D01*
X173576923Y-96319192D01*
X173569896Y-96319984D01*
X173563218Y-96322321D01*
X173563217Y-96322321D01*
X173544048Y-96329029D01*
X173446318Y-96363226D01*
X173440326Y-96366991D01*
X173348795Y-96424504D01*
X173335461Y-96432882D01*
X173242882Y-96525461D01*
X173239115Y-96531455D01*
X173239115Y-96531456D01*
X173210423Y-96577119D01*
X173173226Y-96636318D01*
X173129984Y-96759896D01*
X173129192Y-96766926D01*
X173125974Y-96795481D01*
X173123066Y-96808208D01*
X173123779Y-96808362D01*
X173122111Y-96816108D01*
X173119484Y-96823589D01*
X173119000Y-96829177D01*
X173119000Y-96850096D01*
X173117449Y-96869808D01*
X173114251Y-96889998D01*
X173115802Y-96899791D01*
X173117449Y-96910190D01*
X173119000Y-96929900D01*
X173119000Y-98150100D01*
X173117449Y-98169810D01*
X173114251Y-98190002D01*
X173115802Y-98199794D01*
X173117527Y-98210685D01*
X173118286Y-98216288D01*
X173129184Y-98313000D01*
X173129984Y-98320104D01*
X173132321Y-98326782D01*
X173132321Y-98326783D01*
X173136400Y-98338439D01*
X173173226Y-98443682D01*
X173176991Y-98449674D01*
X173227752Y-98530459D01*
X173242882Y-98554539D01*
X173335461Y-98647118D01*
X173341455Y-98650885D01*
X173341456Y-98650885D01*
X173390332Y-98681596D01*
X173446318Y-98716774D01*
X173569896Y-98760016D01*
X173587442Y-98761993D01*
X173605481Y-98764026D01*
X173618208Y-98766934D01*
X173618362Y-98766221D01*
X173626108Y-98767889D01*
X173633589Y-98770516D01*
X173639177Y-98771000D01*
X173660096Y-98771000D01*
X173679808Y-98772551D01*
X173699998Y-98775749D01*
X173720190Y-98772551D01*
X173739900Y-98771000D01*
X174960097Y-98771000D01*
X174979807Y-98772551D01*
X174997777Y-98775397D01*
X174999999Y-98775749D01*
X174999781Y-98777128D01*
X175057923Y-98794200D01*
X175104416Y-98847856D01*
X175113606Y-98890103D01*
X175114251Y-98890001D01*
X175117449Y-98910192D01*
X175119000Y-98929903D01*
X175119000Y-107150097D01*
X175117449Y-107169807D01*
X175114251Y-107189999D01*
X175112872Y-107189781D01*
X175095800Y-107247923D01*
X175042144Y-107294416D01*
X174999897Y-107303606D01*
X174999999Y-107304251D01*
X174990207Y-107305802D01*
X174979808Y-107307449D01*
X174960097Y-107309000D01*
X174889900Y-107309000D01*
X174870190Y-107307449D01*
X174859791Y-107305802D01*
X174849998Y-107304251D01*
X174840206Y-107305802D01*
X174829315Y-107307527D01*
X174823712Y-107308286D01*
X174726924Y-107319192D01*
X174726923Y-107319192D01*
X174719896Y-107319984D01*
X174596318Y-107363226D01*
X174590326Y-107366991D01*
X174517896Y-107412502D01*
X174485461Y-107432882D01*
X174392882Y-107525461D01*
X174389115Y-107531455D01*
X174389115Y-107531456D01*
X174367329Y-107566128D01*
X174323226Y-107636318D01*
X174279984Y-107759896D01*
X174279192Y-107766926D01*
X174275974Y-107795481D01*
X174273066Y-107808208D01*
X174273779Y-107808362D01*
X174272111Y-107816108D01*
X174269484Y-107823589D01*
X174269000Y-107829177D01*
X174269000Y-107850096D01*
X174267449Y-107869808D01*
X174264251Y-107889998D01*
X174265802Y-107899791D01*
X174267449Y-107910190D01*
X174269000Y-107929900D01*
X174269000Y-109450000D01*
X172255500Y-109450000D01*
X172187379Y-109429998D01*
X172140886Y-109376342D01*
X172129500Y-109324000D01*
X172129500Y-109044730D01*
X172149502Y-108976609D01*
X172173669Y-108948919D01*
X172229536Y-108901204D01*
X172235314Y-108896269D01*
X172327755Y-108767624D01*
X172386842Y-108620641D01*
X172399343Y-108532799D01*
X172408581Y-108467891D01*
X172408581Y-108467888D01*
X172409162Y-108463807D01*
X172409307Y-108450000D01*
X172390276Y-108292733D01*
X172334280Y-108144546D01*
X172310033Y-108109266D01*
X172248855Y-108020251D01*
X172248854Y-108020249D01*
X172244553Y-108013992D01*
X172237689Y-108007876D01*
X172168383Y-107946128D01*
X172126275Y-107908611D01*
X172118889Y-107904700D01*
X172036239Y-107860939D01*
X171986274Y-107834484D01*
X171832633Y-107795892D01*
X171825034Y-107795852D01*
X171825033Y-107795852D01*
X171759181Y-107795507D01*
X171674221Y-107795062D01*
X171666841Y-107796834D01*
X171666839Y-107796834D01*
X171527563Y-107830271D01*
X171527560Y-107830272D01*
X171520184Y-107832043D01*
X171379414Y-107904700D01*
X171260039Y-108008838D01*
X171168950Y-108138444D01*
X171152034Y-108181832D01*
X171133969Y-108228167D01*
X171111406Y-108286037D01*
X171110414Y-108293570D01*
X171110414Y-108293571D01*
X171098094Y-108387156D01*
X171090729Y-108443096D01*
X171099421Y-108521824D01*
X171107229Y-108592544D01*
X171108113Y-108600553D01*
X171110723Y-108607684D01*
X171110723Y-108607686D01*
X171153471Y-108724500D01*
X171162553Y-108749319D01*
X171166789Y-108755622D01*
X171166789Y-108755623D01*
X171221255Y-108836676D01*
X171250908Y-108880805D01*
X171256527Y-108885918D01*
X171256528Y-108885919D01*
X171329299Y-108952135D01*
X171366222Y-109012775D01*
X171370500Y-109045329D01*
X171370500Y-109324000D01*
X171350498Y-109392121D01*
X171296842Y-109438614D01*
X171244500Y-109450000D01*
X170447973Y-109450000D01*
X170411872Y-109444717D01*
X170397954Y-109440555D01*
X170325189Y-109429680D01*
X170254730Y-109429250D01*
X170186734Y-109408832D01*
X170140569Y-109354894D01*
X170129500Y-109303252D01*
X170129500Y-105813894D01*
X170132049Y-105789947D01*
X170132128Y-105788281D01*
X170134320Y-105778098D01*
X170133096Y-105767756D01*
X170133096Y-105767753D01*
X170130374Y-105744761D01*
X170130023Y-105738820D01*
X170129928Y-105738828D01*
X170129500Y-105733648D01*
X170129500Y-105728450D01*
X170128149Y-105720329D01*
X170126329Y-105709401D01*
X170125492Y-105703521D01*
X170120693Y-105662971D01*
X170120692Y-105662969D01*
X170119469Y-105652633D01*
X170115508Y-105644384D01*
X170114004Y-105635348D01*
X170109056Y-105626177D01*
X170089652Y-105590214D01*
X170086957Y-105584925D01*
X170068212Y-105545889D01*
X170064780Y-105538742D01*
X170061186Y-105534466D01*
X170059246Y-105532526D01*
X170057493Y-105530615D01*
X170057444Y-105530525D01*
X170057567Y-105530413D01*
X170057095Y-105529878D01*
X170054010Y-105524160D01*
X170034404Y-105506036D01*
X170014414Y-105487558D01*
X170010848Y-105484128D01*
X161121315Y-96594595D01*
X161087289Y-96532283D01*
X161092354Y-96461468D01*
X161134901Y-96404632D01*
X161201421Y-96379821D01*
X161210410Y-96379500D01*
X164930616Y-96379500D01*
X164998737Y-96399502D01*
X165019711Y-96416405D01*
X165473595Y-96870289D01*
X165507621Y-96932601D01*
X165510500Y-96959384D01*
X165510500Y-97425187D01*
X165490498Y-97493308D01*
X165467330Y-97520135D01*
X165400039Y-97578838D01*
X165308950Y-97708444D01*
X165284637Y-97770805D01*
X165276690Y-97791188D01*
X165251406Y-97856037D01*
X165250414Y-97863570D01*
X165250414Y-97863571D01*
X165231724Y-98005541D01*
X165230729Y-98013096D01*
X165237246Y-98072124D01*
X165247258Y-98162806D01*
X165248113Y-98170553D01*
X165250723Y-98177684D01*
X165250723Y-98177686D01*
X165299831Y-98311880D01*
X165302553Y-98319319D01*
X165306789Y-98325622D01*
X165306789Y-98325623D01*
X165386122Y-98443682D01*
X165390908Y-98450805D01*
X165396527Y-98455918D01*
X165396528Y-98455919D01*
X165478372Y-98530391D01*
X165508076Y-98557419D01*
X165647293Y-98633008D01*
X165800522Y-98673207D01*
X165884477Y-98674526D01*
X165951319Y-98675576D01*
X165951322Y-98675576D01*
X165958916Y-98675695D01*
X166113332Y-98640329D01*
X166189227Y-98602158D01*
X166248072Y-98572563D01*
X166248075Y-98572561D01*
X166254855Y-98569151D01*
X166260626Y-98564222D01*
X166260629Y-98564220D01*
X166369536Y-98471204D01*
X166369536Y-98471203D01*
X166375314Y-98466269D01*
X166467755Y-98337624D01*
X166470589Y-98330575D01*
X166470592Y-98330569D01*
X166500115Y-98257127D01*
X166544081Y-98201382D01*
X166611206Y-98178257D01*
X166680178Y-98195094D01*
X166729098Y-98246546D01*
X166735348Y-98260822D01*
X166752344Y-98307265D01*
X166757053Y-98320134D01*
X166761289Y-98326437D01*
X166761289Y-98326438D01*
X166840624Y-98444500D01*
X166845408Y-98451620D01*
X166851027Y-98456733D01*
X166851028Y-98456734D01*
X166933915Y-98532155D01*
X166962576Y-98558234D01*
X167101793Y-98633823D01*
X167255022Y-98674022D01*
X167338977Y-98675341D01*
X167405819Y-98676391D01*
X167405822Y-98676391D01*
X167413416Y-98676510D01*
X167567832Y-98641144D01*
X167661984Y-98593791D01*
X167702572Y-98573378D01*
X167702575Y-98573376D01*
X167709355Y-98569966D01*
X167715126Y-98565037D01*
X167715129Y-98565035D01*
X167824036Y-98472019D01*
X167824036Y-98472018D01*
X167829814Y-98467084D01*
X167922255Y-98338439D01*
X167951845Y-98264832D01*
X167995812Y-98209088D01*
X168062937Y-98185963D01*
X168131908Y-98202800D01*
X168180828Y-98254253D01*
X168187078Y-98268528D01*
X168201254Y-98307265D01*
X168206053Y-98320380D01*
X168210289Y-98326683D01*
X168210289Y-98326684D01*
X168288909Y-98443682D01*
X168294408Y-98451866D01*
X168300027Y-98456979D01*
X168300028Y-98456980D01*
X168404794Y-98552309D01*
X168411576Y-98558480D01*
X168550793Y-98634069D01*
X168704022Y-98674268D01*
X168787977Y-98675587D01*
X168854819Y-98676637D01*
X168854822Y-98676637D01*
X168862416Y-98676756D01*
X169016832Y-98641390D01*
X169101577Y-98598768D01*
X169151572Y-98573624D01*
X169151575Y-98573622D01*
X169158355Y-98570212D01*
X169164126Y-98565283D01*
X169164129Y-98565281D01*
X169273036Y-98472265D01*
X169273036Y-98472264D01*
X169278814Y-98467330D01*
X169371255Y-98338685D01*
X169430342Y-98191702D01*
X169438919Y-98131437D01*
X169452081Y-98038952D01*
X169452082Y-98038945D01*
X169452662Y-98034868D01*
X169452807Y-98021061D01*
X169451348Y-98009000D01*
X169443999Y-97948276D01*
X169433776Y-97863794D01*
X169377780Y-97715607D01*
X169340033Y-97660685D01*
X169292355Y-97591312D01*
X169292354Y-97591310D01*
X169288053Y-97585053D01*
X169281078Y-97578838D01*
X169215181Y-97520127D01*
X169177626Y-97459877D01*
X169173000Y-97426050D01*
X169173000Y-97067425D01*
X169175550Y-97043467D01*
X169175628Y-97041808D01*
X169177821Y-97031624D01*
X169176597Y-97021282D01*
X169176597Y-97021279D01*
X169173874Y-96998279D01*
X169173524Y-96992348D01*
X169173428Y-96992356D01*
X169173000Y-96987180D01*
X169173000Y-96981976D01*
X169169827Y-96962912D01*
X169168996Y-96957066D01*
X169165780Y-96929900D01*
X169162970Y-96906159D01*
X169159007Y-96897907D01*
X169157504Y-96888874D01*
X169133156Y-96843748D01*
X169130482Y-96838502D01*
X169108281Y-96792269D01*
X169104687Y-96787993D01*
X169102747Y-96786053D01*
X169100993Y-96784141D01*
X169100945Y-96784052D01*
X169101068Y-96783940D01*
X169100595Y-96783404D01*
X169097510Y-96777686D01*
X169057913Y-96741083D01*
X169054348Y-96737654D01*
X166663689Y-94346995D01*
X166629663Y-94284683D01*
X166634728Y-94213868D01*
X166677275Y-94157032D01*
X166743795Y-94132221D01*
X166752784Y-94131900D01*
X169046780Y-94131900D01*
X169070728Y-94134449D01*
X169072393Y-94134528D01*
X169082576Y-94136720D01*
X169092917Y-94135496D01*
X169115923Y-94132773D01*
X169121854Y-94132423D01*
X169121846Y-94132328D01*
X169127024Y-94131900D01*
X169132224Y-94131900D01*
X169137353Y-94131046D01*
X169137356Y-94131046D01*
X169151265Y-94128731D01*
X169157143Y-94127894D01*
X169197701Y-94123094D01*
X169197702Y-94123094D01*
X169208041Y-94121870D01*
X169216293Y-94117907D01*
X169225326Y-94116404D01*
X169234495Y-94111457D01*
X169234497Y-94111456D01*
X169270432Y-94092066D01*
X169275725Y-94089369D01*
X169314782Y-94070615D01*
X169314786Y-94070612D01*
X169321932Y-94067181D01*
X169326208Y-94063586D01*
X169328131Y-94061663D01*
X169330063Y-94059891D01*
X169330142Y-94059848D01*
X169330255Y-94059972D01*
X169330795Y-94059496D01*
X169336514Y-94056410D01*
X169373117Y-94016813D01*
X169376546Y-94013248D01*
X169760216Y-93629578D01*
X169778964Y-93614436D01*
X169780189Y-93613321D01*
X169788940Y-93607671D01*
X169795387Y-93599493D01*
X169795389Y-93599491D01*
X169809729Y-93581300D01*
X169813675Y-93576859D01*
X169813602Y-93576797D01*
X169816961Y-93572833D01*
X169820638Y-93569156D01*
X169831892Y-93553408D01*
X169835398Y-93548738D01*
X169867156Y-93508453D01*
X169870188Y-93499819D01*
X169875514Y-93492366D01*
X169890203Y-93443250D01*
X169892036Y-93437608D01*
X169906390Y-93396733D01*
X169906390Y-93396732D01*
X169909018Y-93389249D01*
X169909500Y-93383684D01*
X169909500Y-93380976D01*
X169909614Y-93378342D01*
X169909643Y-93378244D01*
X169909807Y-93378251D01*
X169909851Y-93377547D01*
X169911713Y-93371322D01*
X169909597Y-93317465D01*
X169909500Y-93312518D01*
X169909500Y-88774998D01*
X169912049Y-88751050D01*
X169912128Y-88749385D01*
X169914320Y-88739202D01*
X169910373Y-88705855D01*
X169910023Y-88699924D01*
X169909928Y-88699932D01*
X169909500Y-88694754D01*
X169909500Y-88689554D01*
X169907149Y-88675429D01*
X169906331Y-88670513D01*
X169905494Y-88664635D01*
X169900694Y-88624077D01*
X169900694Y-88624076D01*
X169899470Y-88613737D01*
X169895507Y-88605485D01*
X169894004Y-88596452D01*
X169869665Y-88551344D01*
X169866969Y-88546053D01*
X169848213Y-88506991D01*
X169848209Y-88506985D01*
X169844781Y-88499846D01*
X169841187Y-88495570D01*
X169839248Y-88493631D01*
X169837492Y-88491716D01*
X169837445Y-88491630D01*
X169837567Y-88491517D01*
X169837095Y-88490982D01*
X169834010Y-88485264D01*
X169794424Y-88448672D01*
X169790857Y-88445241D01*
X169691405Y-88345789D01*
X169657379Y-88283477D01*
X169654500Y-88256694D01*
X169654500Y-88125000D01*
X171155000Y-88125000D01*
X171905000Y-88125000D01*
X171905000Y-87375000D01*
X171155000Y-87375000D01*
X171155000Y-88125000D01*
X169654500Y-88125000D01*
X169654500Y-86811392D01*
X169648182Y-86763404D01*
X169599074Y-86658091D01*
X169516909Y-86575926D01*
X169506916Y-86571266D01*
X169420329Y-86530890D01*
X169420328Y-86530890D01*
X169411596Y-86526818D01*
X169402043Y-86525560D01*
X169402042Y-86525560D01*
X169374409Y-86521922D01*
X169309482Y-86493199D01*
X169270391Y-86433934D01*
X169269546Y-86362942D01*
X169307217Y-86302764D01*
X169371442Y-86272505D01*
X169390856Y-86271000D01*
X174460098Y-86271000D01*
X174479808Y-86272551D01*
G37*
%TD.AperFunction*%
%TA.AperFunction,Conductor*%
G36*
X164331512Y-107719020D02*
G01*
X164363195Y-107760994D01*
X164365195Y-107765283D01*
X164377000Y-107818533D01*
X164377000Y-107827498D01*
X164381475Y-107842737D01*
X164391782Y-107851669D01*
X164423150Y-107864991D01*
X164432312Y-107873295D01*
X164483091Y-107924074D01*
X164493083Y-107928733D01*
X164493084Y-107928734D01*
X164579671Y-107969110D01*
X164579672Y-107969110D01*
X164588404Y-107973182D01*
X164597957Y-107974440D01*
X164597958Y-107974440D01*
X164620016Y-107977344D01*
X164636392Y-107979500D01*
X164744500Y-107979500D01*
X164812621Y-107999502D01*
X164859114Y-108053158D01*
X164870500Y-108105500D01*
X164870500Y-108940616D01*
X164850498Y-109008737D01*
X164833595Y-109029711D01*
X164464435Y-109398871D01*
X164402123Y-109432897D01*
X164356717Y-109434392D01*
X164325189Y-109429680D01*
X164259555Y-109429279D01*
X164186097Y-109428830D01*
X164186091Y-109428830D01*
X164181611Y-109428803D01*
X164177168Y-109429412D01*
X164177162Y-109429412D01*
X164151724Y-109432897D01*
X164108719Y-109438788D01*
X164086461Y-109445149D01*
X164051838Y-109450000D01*
X163595335Y-109450000D01*
X163527214Y-109429998D01*
X163480721Y-109376342D01*
X163470617Y-109306068D01*
X163500111Y-109241488D01*
X163503320Y-109238200D01*
X163508940Y-109234571D01*
X163515387Y-109226392D01*
X163515390Y-109226390D01*
X163529729Y-109208200D01*
X163533675Y-109203759D01*
X163533602Y-109203697D01*
X163536961Y-109199733D01*
X163540638Y-109196056D01*
X163551892Y-109180308D01*
X163555398Y-109175638D01*
X163587156Y-109135353D01*
X163590188Y-109126719D01*
X163595514Y-109119266D01*
X163610203Y-109070150D01*
X163612036Y-109064508D01*
X163626390Y-109023633D01*
X163626390Y-109023632D01*
X163629018Y-109016149D01*
X163629500Y-109010584D01*
X163629500Y-109007876D01*
X163629614Y-109005242D01*
X163629643Y-109005144D01*
X163629807Y-109005151D01*
X163629851Y-109004447D01*
X163631713Y-108998222D01*
X163629597Y-108944365D01*
X163629500Y-108939418D01*
X163629500Y-107860939D01*
X163649502Y-107792818D01*
X163703158Y-107746325D01*
X163773432Y-107736221D01*
X163838012Y-107765715D01*
X163876396Y-107825441D01*
X163880641Y-107839899D01*
X163894506Y-107841515D01*
X163914136Y-107833384D01*
X163930000Y-107822784D01*
X163997753Y-107801570D01*
X164070000Y-107822784D01*
X164085864Y-107833384D01*
X164106567Y-107841959D01*
X164118106Y-107840926D01*
X164123000Y-107825773D01*
X164123000Y-107814244D01*
X164143002Y-107746123D01*
X164196658Y-107699630D01*
X164266932Y-107689526D01*
X164331512Y-107719020D01*
G37*
%TD.AperFunction*%
%TA.AperFunction,Conductor*%
G36*
X129777689Y-103488315D02*
G01*
X129789889Y-103498104D01*
X129796844Y-103504432D01*
X129833096Y-103537419D01*
X129972313Y-103613008D01*
X129979654Y-103614934D01*
X129979662Y-103614937D01*
X130016475Y-103624595D01*
X130077290Y-103661229D01*
X130108645Y-103724927D01*
X130110500Y-103746470D01*
X130110500Y-106681612D01*
X130090498Y-106749733D01*
X130036842Y-106796226D01*
X129966568Y-106806330D01*
X129953805Y-106803816D01*
X129850004Y-106777743D01*
X129850000Y-106777743D01*
X129842633Y-106775892D01*
X129835034Y-106775852D01*
X129835033Y-106775852D01*
X129769181Y-106775507D01*
X129684221Y-106775062D01*
X129676841Y-106776834D01*
X129676839Y-106776834D01*
X129537563Y-106810271D01*
X129537560Y-106810272D01*
X129530184Y-106812043D01*
X129389414Y-106884700D01*
X129270039Y-106988838D01*
X129178950Y-107118444D01*
X129158924Y-107169808D01*
X129127338Y-107250823D01*
X129121406Y-107266037D01*
X129120414Y-107273570D01*
X129120414Y-107273571D01*
X129102124Y-107412502D01*
X129100729Y-107423096D01*
X129108467Y-107493180D01*
X129096062Y-107563083D01*
X129047832Y-107615183D01*
X128979092Y-107632938D01*
X128911664Y-107610711D01*
X128870126Y-107562539D01*
X128864760Y-107551609D01*
X128852799Y-107534903D01*
X128784603Y-107466825D01*
X128767880Y-107454897D01*
X128680737Y-107412300D01*
X128662276Y-107406594D01*
X128607890Y-107398660D01*
X128598790Y-107398000D01*
X128490115Y-107398000D01*
X128474876Y-107402475D01*
X128473671Y-107403865D01*
X128472000Y-107411548D01*
X128472000Y-107854885D01*
X128476475Y-107870124D01*
X128477865Y-107871329D01*
X128485548Y-107873000D01*
X128903884Y-107873000D01*
X128919123Y-107868525D01*
X128920328Y-107867135D01*
X128921999Y-107859452D01*
X128921999Y-107755601D01*
X128942001Y-107687480D01*
X128995657Y-107640987D01*
X129065931Y-107630883D01*
X129130511Y-107660377D01*
X129166325Y-107712300D01*
X129172553Y-107729319D01*
X129176789Y-107735622D01*
X129176789Y-107735623D01*
X129260908Y-107860805D01*
X129259727Y-107861599D01*
X129285685Y-107918720D01*
X129275450Y-107988975D01*
X129264023Y-108008866D01*
X129172954Y-108138444D01*
X129170195Y-108145520D01*
X129170192Y-108145526D01*
X129162892Y-108164251D01*
X129119512Y-108220453D01*
X129052633Y-108244280D01*
X128983489Y-108228167D01*
X128934033Y-108177229D01*
X128924603Y-108153980D01*
X128917525Y-108129876D01*
X128916135Y-108128671D01*
X128908452Y-108127000D01*
X128490115Y-108127000D01*
X128474876Y-108131475D01*
X128473671Y-108132865D01*
X128472000Y-108140548D01*
X128472000Y-108583884D01*
X128476475Y-108599123D01*
X128477865Y-108600328D01*
X128485548Y-108601999D01*
X128598755Y-108601999D01*
X128607919Y-108601328D01*
X128662859Y-108593241D01*
X128681342Y-108587498D01*
X128768392Y-108544759D01*
X128785097Y-108532799D01*
X128853175Y-108464603D01*
X128871153Y-108439399D01*
X128873770Y-108441266D01*
X128909961Y-108401643D01*
X128978581Y-108383429D01*
X129046156Y-108405206D01*
X129091229Y-108460059D01*
X129100525Y-108495559D01*
X129111233Y-108592544D01*
X129112117Y-108600553D01*
X129114727Y-108607684D01*
X129114727Y-108607686D01*
X129157475Y-108724500D01*
X129166557Y-108749319D01*
X129170793Y-108755622D01*
X129170793Y-108755623D01*
X129225259Y-108836676D01*
X129254912Y-108880805D01*
X129329299Y-108948491D01*
X129366222Y-109009131D01*
X129370500Y-109041685D01*
X129370500Y-109324000D01*
X129350498Y-109392121D01*
X129296842Y-109438614D01*
X129244500Y-109450000D01*
X128447973Y-109450000D01*
X128411872Y-109444717D01*
X128397954Y-109440555D01*
X128325189Y-109429680D01*
X128259555Y-109429279D01*
X128186097Y-109428830D01*
X128186091Y-109428830D01*
X128181611Y-109428803D01*
X128177168Y-109429412D01*
X128177162Y-109429412D01*
X128151724Y-109432897D01*
X128108719Y-109438788D01*
X128086461Y-109445149D01*
X128051838Y-109450000D01*
X127926190Y-109450000D01*
X127858069Y-109429998D01*
X127837095Y-109413095D01*
X127656905Y-109232905D01*
X127622879Y-109170593D01*
X127620000Y-109143810D01*
X127620000Y-108552091D01*
X127640002Y-108483970D01*
X127693658Y-108437477D01*
X127763932Y-108427373D01*
X127828512Y-108456867D01*
X127835018Y-108462918D01*
X127905397Y-108533175D01*
X127922120Y-108545103D01*
X128009263Y-108587700D01*
X128027724Y-108593406D01*
X128082110Y-108601340D01*
X128091210Y-108602000D01*
X128199885Y-108602000D01*
X128215124Y-108597525D01*
X128216329Y-108596135D01*
X128218000Y-108588452D01*
X128218000Y-107416116D01*
X128213525Y-107400877D01*
X128212135Y-107399672D01*
X128204452Y-107398001D01*
X128091245Y-107398001D01*
X128082081Y-107398672D01*
X128027141Y-107406759D01*
X128008658Y-107412502D01*
X127921608Y-107455241D01*
X127904903Y-107467201D01*
X127835173Y-107537052D01*
X127772890Y-107571131D01*
X127702070Y-107566128D01*
X127645197Y-107523631D01*
X127620329Y-107457132D01*
X127620000Y-107448034D01*
X127620000Y-106308000D01*
X127640002Y-106239879D01*
X127693658Y-106193386D01*
X127746000Y-106182000D01*
X128204885Y-106182000D01*
X128220124Y-106177525D01*
X128221329Y-106176135D01*
X128223000Y-106168452D01*
X128223000Y-106163885D01*
X128477000Y-106163885D01*
X128481475Y-106179124D01*
X128482865Y-106180329D01*
X128490548Y-106182000D01*
X129262420Y-106182000D01*
X129269864Y-106181559D01*
X129280912Y-106180244D01*
X129298952Y-106175286D01*
X129373978Y-106141961D01*
X129392832Y-106129003D01*
X129449297Y-106072439D01*
X129462219Y-106053568D01*
X129495409Y-105978494D01*
X129500337Y-105960417D01*
X129501575Y-105949795D01*
X129502000Y-105942491D01*
X129502000Y-105900115D01*
X129497525Y-105884876D01*
X129496135Y-105883671D01*
X129488452Y-105882000D01*
X128495115Y-105882000D01*
X128479876Y-105886475D01*
X128478671Y-105887865D01*
X128477000Y-105895548D01*
X128477000Y-106163885D01*
X128223000Y-106163885D01*
X128223000Y-105609885D01*
X128477000Y-105609885D01*
X128481475Y-105625124D01*
X128482865Y-105626329D01*
X128490548Y-105628000D01*
X129483885Y-105628000D01*
X129499124Y-105623525D01*
X129500329Y-105622135D01*
X129502000Y-105614452D01*
X129502000Y-105567580D01*
X129501559Y-105560136D01*
X129500244Y-105549088D01*
X129495286Y-105531048D01*
X129461961Y-105456022D01*
X129449003Y-105437168D01*
X129392439Y-105380703D01*
X129373568Y-105367781D01*
X129298494Y-105334591D01*
X129280417Y-105329663D01*
X129269795Y-105328425D01*
X129262491Y-105328000D01*
X128495115Y-105328000D01*
X128479876Y-105332475D01*
X128478671Y-105333865D01*
X128477000Y-105341548D01*
X128477000Y-105609885D01*
X128223000Y-105609885D01*
X128223000Y-105346115D01*
X128218525Y-105330876D01*
X128217135Y-105329671D01*
X128209452Y-105328000D01*
X127746000Y-105328000D01*
X127677879Y-105307998D01*
X127631386Y-105254342D01*
X127620000Y-105202000D01*
X127620000Y-105165500D01*
X127640002Y-105097379D01*
X127693658Y-105050886D01*
X127746000Y-105039500D01*
X129256834Y-105039500D01*
X129351555Y-105024498D01*
X129465723Y-104966326D01*
X129556326Y-104875723D01*
X129614498Y-104761555D01*
X129629500Y-104666834D01*
X129629500Y-104303166D01*
X129614498Y-104208445D01*
X129556326Y-104094277D01*
X129465723Y-104003674D01*
X129388921Y-103964541D01*
X129384458Y-103962267D01*
X129332843Y-103913518D01*
X129315777Y-103844603D01*
X129338678Y-103777402D01*
X129384458Y-103737733D01*
X129398426Y-103730616D01*
X129465723Y-103696326D01*
X129556326Y-103605723D01*
X129561375Y-103595814D01*
X129592824Y-103534094D01*
X129641572Y-103482479D01*
X129710487Y-103465414D01*
X129777689Y-103488315D01*
G37*
%TD.AperFunction*%
%TA.AperFunction,Conductor*%
G36*
X164287621Y-106830502D02*
G01*
X164334114Y-106884158D01*
X164345500Y-106936500D01*
X164345500Y-106988149D01*
X164325498Y-107056270D01*
X164271842Y-107102763D01*
X164201568Y-107112867D01*
X164136988Y-107083374D01*
X164117135Y-107066171D01*
X164109452Y-107064500D01*
X163895115Y-107064500D01*
X163879876Y-107068975D01*
X163875724Y-107073766D01*
X163815998Y-107112149D01*
X163745001Y-107112149D01*
X163685275Y-107073765D01*
X163655782Y-107009184D01*
X163654500Y-106991253D01*
X163654500Y-106936500D01*
X163674502Y-106868379D01*
X163728158Y-106821886D01*
X163780500Y-106810500D01*
X164219500Y-106810500D01*
X164287621Y-106830502D01*
G37*
%TD.AperFunction*%
%TA.AperFunction,Conductor*%
G36*
X150168612Y-97976009D02*
G01*
X150214181Y-98005158D01*
X150633115Y-98424092D01*
X150667141Y-98486404D01*
X150670020Y-98513187D01*
X150670020Y-100455600D01*
X150667471Y-100479548D01*
X150667392Y-100481213D01*
X150665200Y-100491396D01*
X150666424Y-100501737D01*
X150669147Y-100524743D01*
X150669497Y-100530674D01*
X150669592Y-100530666D01*
X150670020Y-100535844D01*
X150670020Y-100541044D01*
X150670874Y-100546173D01*
X150670874Y-100546176D01*
X150673189Y-100560085D01*
X150674026Y-100565963D01*
X150677982Y-100599385D01*
X150680050Y-100616861D01*
X150684013Y-100625113D01*
X150685516Y-100634146D01*
X150690463Y-100643315D01*
X150690464Y-100643317D01*
X150709854Y-100679252D01*
X150712551Y-100684545D01*
X150731305Y-100723602D01*
X150731308Y-100723606D01*
X150734739Y-100730752D01*
X150738334Y-100735028D01*
X150740257Y-100736951D01*
X150742029Y-100738883D01*
X150742072Y-100738962D01*
X150741948Y-100739075D01*
X150742424Y-100739615D01*
X150745510Y-100745334D01*
X150753155Y-100752401D01*
X150785106Y-100781936D01*
X150788672Y-100785366D01*
X151057597Y-101054291D01*
X151091623Y-101116603D01*
X151086558Y-101187418D01*
X151049590Y-101235725D01*
X151051030Y-101237162D01*
X150988630Y-101299671D01*
X150987852Y-101300450D01*
X150925569Y-101334529D01*
X150854749Y-101329526D01*
X150841681Y-101322845D01*
X150811154Y-101310200D01*
X150755888Y-101299207D01*
X150744743Y-101298109D01*
X150729876Y-101302475D01*
X150728671Y-101303865D01*
X150727000Y-101311548D01*
X150727000Y-103033885D01*
X150731475Y-103049124D01*
X150732865Y-103050329D01*
X150740548Y-103052000D01*
X150743633Y-103052000D01*
X150755888Y-103050793D01*
X150811154Y-103039800D01*
X150845110Y-103025735D01*
X150846725Y-103029635D01*
X150892259Y-103015381D01*
X150960725Y-103034168D01*
X151008164Y-103086988D01*
X151020500Y-103141361D01*
X151020500Y-103155187D01*
X151000498Y-103223308D01*
X150977330Y-103250135D01*
X150910039Y-103308838D01*
X150818950Y-103438444D01*
X150816190Y-103445524D01*
X150810114Y-103461107D01*
X150766733Y-103517309D01*
X150699854Y-103541135D01*
X150630710Y-103525021D01*
X150603626Y-103504432D01*
X150366289Y-103267095D01*
X150332263Y-103204783D01*
X150337328Y-103133968D01*
X150379875Y-103077132D01*
X150446395Y-103052321D01*
X150454816Y-103052020D01*
X150470124Y-103047525D01*
X150471329Y-103046135D01*
X150473000Y-103038452D01*
X150473000Y-101316115D01*
X150468525Y-101300876D01*
X150467135Y-101299671D01*
X150459452Y-101298000D01*
X150456367Y-101298000D01*
X150444112Y-101299207D01*
X150388846Y-101310200D01*
X150354890Y-101324265D01*
X150353275Y-101320365D01*
X150307741Y-101334619D01*
X150239275Y-101315832D01*
X150191836Y-101263012D01*
X150179500Y-101208639D01*
X150179500Y-98853920D01*
X150182049Y-98829973D01*
X150182128Y-98828307D01*
X150184320Y-98818124D01*
X150183096Y-98807782D01*
X150183096Y-98807779D01*
X150180374Y-98784787D01*
X150180023Y-98778846D01*
X150179928Y-98778854D01*
X150179500Y-98773674D01*
X150179500Y-98768476D01*
X150178540Y-98762704D01*
X150176329Y-98749427D01*
X150175492Y-98743547D01*
X150170693Y-98702997D01*
X150170692Y-98702995D01*
X150169469Y-98692659D01*
X150165508Y-98684410D01*
X150164004Y-98675374D01*
X150154863Y-98658432D01*
X150139652Y-98630240D01*
X150136957Y-98624951D01*
X150118212Y-98585915D01*
X150114780Y-98578768D01*
X150111186Y-98574492D01*
X150109246Y-98572552D01*
X150107493Y-98570641D01*
X150107444Y-98570551D01*
X150107567Y-98570439D01*
X150107095Y-98569904D01*
X150104010Y-98564186D01*
X150096365Y-98557119D01*
X150090048Y-98548975D01*
X150064101Y-98482890D01*
X150064865Y-98454000D01*
X150069162Y-98423807D01*
X150069307Y-98410000D01*
X150068248Y-98401244D01*
X150060083Y-98333776D01*
X150050276Y-98252733D01*
X150007220Y-98138790D01*
X150001852Y-98067998D01*
X150035609Y-98005541D01*
X150097775Y-97971249D01*
X150168612Y-97976009D01*
G37*
%TD.AperFunction*%
%TA.AperFunction,Conductor*%
G36*
X148984454Y-96779502D02*
G01*
X149005428Y-96796405D01*
X149812882Y-97603859D01*
X149846908Y-97666171D01*
X149841843Y-97736986D01*
X149799296Y-97793822D01*
X149732776Y-97818633D01*
X149664829Y-97804308D01*
X149646274Y-97794484D01*
X149492633Y-97755892D01*
X149485034Y-97755852D01*
X149485033Y-97755852D01*
X149419181Y-97755507D01*
X149334221Y-97755062D01*
X149326841Y-97756834D01*
X149326839Y-97756834D01*
X149187563Y-97790271D01*
X149187560Y-97790272D01*
X149180184Y-97792043D01*
X149039414Y-97864700D01*
X149011386Y-97889151D01*
X148983513Y-97913466D01*
X148919031Y-97943174D01*
X148848723Y-97933305D01*
X148816864Y-97912593D01*
X148761951Y-97863667D01*
X148761945Y-97863663D01*
X148756275Y-97858611D01*
X148712908Y-97835649D01*
X148637125Y-97795524D01*
X148616274Y-97784484D01*
X148462633Y-97745892D01*
X148455034Y-97745852D01*
X148455033Y-97745852D01*
X148394626Y-97745536D01*
X148313335Y-97745110D01*
X148245321Y-97724752D01*
X148224901Y-97708207D01*
X147886478Y-97369784D01*
X147871336Y-97351036D01*
X147870221Y-97349811D01*
X147864571Y-97341060D01*
X147856393Y-97334613D01*
X147856391Y-97334611D01*
X147838200Y-97320271D01*
X147833759Y-97316325D01*
X147833697Y-97316398D01*
X147829734Y-97313040D01*
X147826056Y-97309362D01*
X147810356Y-97298143D01*
X147805643Y-97294605D01*
X147804161Y-97293437D01*
X147803318Y-97292773D01*
X147762189Y-97234904D01*
X147758875Y-97163985D01*
X147768096Y-97138468D01*
X147807116Y-97058640D01*
X147818712Y-97034918D01*
X147819688Y-97028227D01*
X147858001Y-96970427D01*
X147922993Y-96941851D01*
X147999278Y-96956079D01*
X148067293Y-96993008D01*
X148220522Y-97033207D01*
X148304477Y-97034526D01*
X148371319Y-97035576D01*
X148371322Y-97035576D01*
X148378916Y-97035695D01*
X148533332Y-97000329D01*
X148621314Y-96956079D01*
X148668072Y-96932563D01*
X148668075Y-96932561D01*
X148674855Y-96929151D01*
X148680626Y-96924222D01*
X148680629Y-96924220D01*
X148789542Y-96831199D01*
X148789543Y-96831198D01*
X148795314Y-96826269D01*
X148805586Y-96811974D01*
X148861581Y-96768326D01*
X148907909Y-96759500D01*
X148916333Y-96759500D01*
X148984454Y-96779502D01*
G37*
%TD.AperFunction*%
%TA.AperFunction,Conductor*%
G36*
X139526208Y-88770002D02*
G01*
X139572701Y-88823658D01*
X139582805Y-88893932D01*
X139574836Y-88919809D01*
X139575188Y-88919918D01*
X139566594Y-88947724D01*
X139558660Y-89002110D01*
X139558000Y-89011210D01*
X139558000Y-89119885D01*
X139562475Y-89135124D01*
X139563865Y-89136329D01*
X139571548Y-89138000D01*
X140743884Y-89138000D01*
X140759123Y-89133525D01*
X140760328Y-89132135D01*
X140761999Y-89124452D01*
X140761999Y-89011245D01*
X140761328Y-89002081D01*
X140753241Y-88947141D01*
X140744593Y-88919310D01*
X140746689Y-88918659D01*
X140736839Y-88861575D01*
X140764509Y-88796192D01*
X140823135Y-88756147D01*
X140862011Y-88750000D01*
X146056199Y-88750000D01*
X146124320Y-88770002D01*
X146170443Y-88822856D01*
X146184465Y-88853001D01*
X146206123Y-88889966D01*
X146388925Y-89201962D01*
X146388932Y-89201972D01*
X146390435Y-89204538D01*
X146628695Y-89535042D01*
X146709127Y-89626890D01*
X146894982Y-89839123D01*
X146897115Y-89841559D01*
X146899270Y-89843595D01*
X146899278Y-89843603D01*
X147100486Y-90033674D01*
X147193293Y-90121344D01*
X147514580Y-90371897D01*
X147517088Y-90373496D01*
X147517093Y-90373500D01*
X147762250Y-90529846D01*
X147808930Y-90583339D01*
X147820500Y-90636081D01*
X147820500Y-91164501D01*
X147800498Y-91232622D01*
X147746842Y-91279115D01*
X147694500Y-91290501D01*
X147664612Y-91290501D01*
X147661218Y-91290870D01*
X147661212Y-91290870D01*
X147613834Y-91296016D01*
X147613830Y-91296017D01*
X147605976Y-91296870D01*
X147477365Y-91345083D01*
X147470186Y-91350463D01*
X147470183Y-91350465D01*
X147379192Y-91418660D01*
X147367456Y-91427456D01*
X147362077Y-91434633D01*
X147290465Y-91530183D01*
X147290463Y-91530186D01*
X147285083Y-91537365D01*
X147281933Y-91545769D01*
X147281932Y-91545770D01*
X147239646Y-91658572D01*
X147236870Y-91665976D01*
X147230500Y-91724611D01*
X147230501Y-92315388D01*
X147230870Y-92318782D01*
X147230870Y-92318788D01*
X147235594Y-92362276D01*
X147236870Y-92374024D01*
X147264830Y-92448608D01*
X147281587Y-92493308D01*
X147285083Y-92502635D01*
X147290463Y-92509814D01*
X147290465Y-92509817D01*
X147357269Y-92598952D01*
X147367456Y-92612544D01*
X147374633Y-92617923D01*
X147470183Y-92689535D01*
X147470186Y-92689537D01*
X147477365Y-92694917D01*
X147485769Y-92698067D01*
X147485770Y-92698068D01*
X147598581Y-92740358D01*
X147598582Y-92740358D01*
X147605976Y-92743130D01*
X147613826Y-92743983D01*
X147613827Y-92743983D01*
X147661214Y-92749131D01*
X147664611Y-92749500D01*
X147684635Y-92749500D01*
X147752756Y-92769502D01*
X147799249Y-92823158D01*
X147809353Y-92893432D01*
X147779859Y-92958012D01*
X147773808Y-92964518D01*
X147761771Y-92976576D01*
X147706288Y-93090082D01*
X147704876Y-93099761D01*
X147697550Y-93149982D01*
X147695500Y-93164032D01*
X147695500Y-94485968D01*
X147698572Y-94506834D01*
X147706481Y-94560561D01*
X147703710Y-94560969D01*
X147704586Y-94616761D01*
X147667145Y-94677083D01*
X147603035Y-94707587D01*
X147560171Y-94704554D01*
X147559918Y-94706288D01*
X147490495Y-94696160D01*
X147490489Y-94696160D01*
X147485968Y-94695500D01*
X146164032Y-94695500D01*
X146136521Y-94699550D01*
X146099130Y-94705054D01*
X146099128Y-94705055D01*
X146089439Y-94706481D01*
X146034207Y-94733599D01*
X145985378Y-94757572D01*
X145985376Y-94757573D01*
X145976030Y-94762162D01*
X145886771Y-94851576D01*
X145882198Y-94860932D01*
X145882197Y-94860933D01*
X145873121Y-94879500D01*
X145831288Y-94965082D01*
X145829876Y-94974761D01*
X145821165Y-95034476D01*
X145820500Y-95039032D01*
X145820500Y-95360968D01*
X145831481Y-95435561D01*
X145865857Y-95505576D01*
X145884895Y-95544352D01*
X145896963Y-95614315D01*
X145884993Y-95655213D01*
X145831288Y-95765082D01*
X145829876Y-95774761D01*
X145822206Y-95827341D01*
X145820500Y-95839032D01*
X145820500Y-96160968D01*
X145825152Y-96192565D01*
X145815284Y-96262870D01*
X145768972Y-96316681D01*
X145700919Y-96336912D01*
X145637109Y-96317035D01*
X145636275Y-96318611D01*
X145606032Y-96302598D01*
X145496274Y-96244484D01*
X145342633Y-96205892D01*
X145335034Y-96205852D01*
X145335033Y-96205852D01*
X145269181Y-96205507D01*
X145184221Y-96205062D01*
X145176841Y-96206834D01*
X145176839Y-96206834D01*
X145037563Y-96240271D01*
X145037560Y-96240272D01*
X145030184Y-96242043D01*
X144889414Y-96314700D01*
X144770039Y-96418838D01*
X144765672Y-96425051D01*
X144765667Y-96425057D01*
X144764336Y-96426951D01*
X144763013Y-96428005D01*
X144760589Y-96430697D01*
X144760140Y-96430293D01*
X144708802Y-96471183D01*
X144661250Y-96480500D01*
X144339716Y-96480500D01*
X144271595Y-96460498D01*
X144250621Y-96443595D01*
X139606405Y-91799379D01*
X139572379Y-91737067D01*
X139569500Y-91710284D01*
X139569500Y-91363920D01*
X139572049Y-91339972D01*
X139572128Y-91338307D01*
X139574320Y-91328124D01*
X139570373Y-91294777D01*
X139570023Y-91288846D01*
X139569928Y-91288854D01*
X139569500Y-91283676D01*
X139569500Y-91278476D01*
X139568337Y-91271487D01*
X139566331Y-91259435D01*
X139565494Y-91253557D01*
X139560694Y-91212999D01*
X139560694Y-91212998D01*
X139559470Y-91202659D01*
X139555507Y-91194407D01*
X139554004Y-91185374D01*
X139529665Y-91140266D01*
X139526969Y-91134975D01*
X139508213Y-91095913D01*
X139508209Y-91095907D01*
X139504781Y-91088768D01*
X139501187Y-91084492D01*
X139499248Y-91082553D01*
X139497492Y-91080638D01*
X139497445Y-91080552D01*
X139497567Y-91080439D01*
X139497095Y-91079904D01*
X139494010Y-91074186D01*
X139475328Y-91056916D01*
X139454440Y-91037608D01*
X139450874Y-91034179D01*
X139232416Y-90815721D01*
X138966405Y-90549711D01*
X138932380Y-90487398D01*
X138929500Y-90460615D01*
X138929500Y-90333166D01*
X138914498Y-90238445D01*
X138856326Y-90124277D01*
X138765723Y-90033674D01*
X138684458Y-89992267D01*
X138632843Y-89943518D01*
X138615777Y-89874603D01*
X138638678Y-89807402D01*
X138684458Y-89767733D01*
X138702790Y-89758392D01*
X138765723Y-89726326D01*
X138856326Y-89635723D01*
X138914498Y-89521555D01*
X138914941Y-89518755D01*
X139558001Y-89518755D01*
X139558672Y-89527919D01*
X139566759Y-89582859D01*
X139572502Y-89601342D01*
X139615241Y-89688392D01*
X139627201Y-89705097D01*
X139695397Y-89773175D01*
X139712120Y-89785103D01*
X139799263Y-89827700D01*
X139817724Y-89833406D01*
X139872110Y-89841340D01*
X139881210Y-89842000D01*
X140014885Y-89842000D01*
X140030124Y-89837525D01*
X140031329Y-89836135D01*
X140033000Y-89828452D01*
X140033000Y-89823884D01*
X140287000Y-89823884D01*
X140291475Y-89839123D01*
X140292865Y-89840328D01*
X140300548Y-89841999D01*
X140438755Y-89841999D01*
X140447919Y-89841328D01*
X140502859Y-89833241D01*
X140521342Y-89827498D01*
X140608392Y-89784759D01*
X140625097Y-89772799D01*
X140693175Y-89704603D01*
X140705103Y-89687880D01*
X140747700Y-89600737D01*
X140753406Y-89582276D01*
X140761340Y-89527890D01*
X140762000Y-89518790D01*
X140762000Y-89410115D01*
X140757525Y-89394876D01*
X140756135Y-89393671D01*
X140748452Y-89392000D01*
X140305115Y-89392000D01*
X140289876Y-89396475D01*
X140288671Y-89397865D01*
X140287000Y-89405548D01*
X140287000Y-89823884D01*
X140033000Y-89823884D01*
X140033000Y-89410115D01*
X140028525Y-89394876D01*
X140027135Y-89393671D01*
X140019452Y-89392000D01*
X139576116Y-89392000D01*
X139560877Y-89396475D01*
X139559672Y-89397865D01*
X139558001Y-89405548D01*
X139558001Y-89518755D01*
X138914941Y-89518755D01*
X138929500Y-89426834D01*
X138929500Y-89063166D01*
X138914498Y-88968445D01*
X138909996Y-88959609D01*
X138896542Y-88933204D01*
X138883437Y-88863427D01*
X138910137Y-88797642D01*
X138968164Y-88756735D01*
X139008808Y-88750000D01*
X139458087Y-88750000D01*
X139526208Y-88770002D01*
G37*
%TD.AperFunction*%
%TA.AperFunction,Conductor*%
G36*
X156670426Y-88770002D02*
G01*
X156716919Y-88823658D01*
X156727023Y-88893932D01*
X156715504Y-88931334D01*
X156682302Y-88999257D01*
X156676594Y-89017724D01*
X156668660Y-89072110D01*
X156668000Y-89081210D01*
X156668000Y-89189885D01*
X156672475Y-89205124D01*
X156673865Y-89206329D01*
X156681548Y-89208000D01*
X157271000Y-89208000D01*
X157339121Y-89228002D01*
X157385614Y-89281658D01*
X157397000Y-89334000D01*
X157397000Y-89893884D01*
X157401475Y-89909123D01*
X157402865Y-89910328D01*
X157410548Y-89911999D01*
X157548755Y-89911999D01*
X157557919Y-89911328D01*
X157612859Y-89903241D01*
X157631342Y-89897498D01*
X157718392Y-89854758D01*
X157726268Y-89849120D01*
X157793301Y-89825728D01*
X157862338Y-89842291D01*
X157904197Y-89881294D01*
X157946667Y-89944495D01*
X157946671Y-89944499D01*
X157950908Y-89950805D01*
X157956527Y-89955918D01*
X157956528Y-89955919D01*
X157978050Y-89975502D01*
X158068076Y-90057419D01*
X158207293Y-90133008D01*
X158360522Y-90173207D01*
X158407652Y-90173947D01*
X158475449Y-90195016D01*
X158521094Y-90249395D01*
X158530595Y-90316377D01*
X158518653Y-90407090D01*
X158515229Y-90433096D01*
X158532613Y-90590553D01*
X158535223Y-90597684D01*
X158535223Y-90597686D01*
X158584442Y-90732183D01*
X158587053Y-90739319D01*
X158591289Y-90745622D01*
X158591289Y-90745623D01*
X158614734Y-90780512D01*
X158675408Y-90870805D01*
X158681027Y-90875918D01*
X158681028Y-90875919D01*
X158742007Y-90931405D01*
X158792576Y-90977419D01*
X158931793Y-91053008D01*
X159085022Y-91093207D01*
X159168977Y-91094526D01*
X159235819Y-91095576D01*
X159235822Y-91095576D01*
X159243416Y-91095695D01*
X159397832Y-91060329D01*
X159516142Y-91000826D01*
X159532572Y-90992563D01*
X159532575Y-90992561D01*
X159539355Y-90989151D01*
X159545126Y-90984222D01*
X159545129Y-90984220D01*
X159654036Y-90891204D01*
X159654036Y-90891203D01*
X159659814Y-90886269D01*
X159752255Y-90757624D01*
X159785295Y-90675435D01*
X159829262Y-90619691D01*
X159896387Y-90596566D01*
X159965358Y-90613403D01*
X160014278Y-90664856D01*
X160020528Y-90679132D01*
X160039941Y-90732183D01*
X160039942Y-90732185D01*
X160042553Y-90739319D01*
X160046789Y-90745622D01*
X160046789Y-90745623D01*
X160070234Y-90780512D01*
X160130908Y-90870805D01*
X160136527Y-90875918D01*
X160136528Y-90875919D01*
X160197507Y-90931405D01*
X160248076Y-90977419D01*
X160387293Y-91053008D01*
X160540522Y-91093207D01*
X160624477Y-91094526D01*
X160691319Y-91095576D01*
X160691322Y-91095576D01*
X160698916Y-91095695D01*
X160853332Y-91060329D01*
X160971642Y-91000826D01*
X160988072Y-90992563D01*
X160988075Y-90992561D01*
X160994855Y-90989151D01*
X161000626Y-90984222D01*
X161000629Y-90984220D01*
X161109536Y-90891204D01*
X161109536Y-90891203D01*
X161115314Y-90886269D01*
X161207755Y-90757624D01*
X161238469Y-90681220D01*
X161282434Y-90625479D01*
X161349559Y-90602353D01*
X161418530Y-90619190D01*
X161467450Y-90670642D01*
X161473701Y-90684918D01*
X161490998Y-90732183D01*
X161494171Y-90740855D01*
X161498407Y-90747158D01*
X161498407Y-90747159D01*
X161545670Y-90817493D01*
X161582526Y-90872341D01*
X161588145Y-90877454D01*
X161588146Y-90877455D01*
X161688113Y-90968417D01*
X161699694Y-90978955D01*
X161838911Y-91054544D01*
X161992140Y-91094743D01*
X162076095Y-91096062D01*
X162142937Y-91097112D01*
X162142940Y-91097112D01*
X162150534Y-91097231D01*
X162304950Y-91061865D01*
X162396581Y-91015780D01*
X162439690Y-90994099D01*
X162439693Y-90994097D01*
X162446473Y-90990687D01*
X162452244Y-90985758D01*
X162452247Y-90985756D01*
X162561154Y-90892740D01*
X162561154Y-90892739D01*
X162566932Y-90887805D01*
X162659373Y-90759160D01*
X162688665Y-90686294D01*
X162694216Y-90672487D01*
X162738183Y-90616743D01*
X162805308Y-90593618D01*
X162874279Y-90610455D01*
X162923199Y-90661908D01*
X162929449Y-90676184D01*
X162949941Y-90732183D01*
X162949942Y-90732185D01*
X162952553Y-90739319D01*
X162956789Y-90745622D01*
X162956789Y-90745623D01*
X162980234Y-90780512D01*
X163040908Y-90870805D01*
X163046527Y-90875918D01*
X163046528Y-90875919D01*
X163107507Y-90931405D01*
X163158076Y-90977419D01*
X163297293Y-91053008D01*
X163450522Y-91093207D01*
X163534477Y-91094526D01*
X163601319Y-91095576D01*
X163601322Y-91095576D01*
X163608916Y-91095695D01*
X163763332Y-91060329D01*
X163881642Y-91000826D01*
X163898072Y-90992563D01*
X163898075Y-90992561D01*
X163904855Y-90989151D01*
X163910626Y-90984222D01*
X163910629Y-90984220D01*
X164019536Y-90891204D01*
X164019536Y-90891203D01*
X164025314Y-90886269D01*
X164117755Y-90757624D01*
X164147916Y-90682597D01*
X164191883Y-90626853D01*
X164259008Y-90603728D01*
X164327979Y-90620565D01*
X164376899Y-90672018D01*
X164383149Y-90686294D01*
X164399941Y-90732183D01*
X164399942Y-90732185D01*
X164402553Y-90739319D01*
X164406789Y-90745622D01*
X164406789Y-90745623D01*
X164430234Y-90780512D01*
X164490908Y-90870805D01*
X164496527Y-90875918D01*
X164496528Y-90875919D01*
X164557507Y-90931405D01*
X164608076Y-90977419D01*
X164747293Y-91053008D01*
X164900522Y-91093207D01*
X164984477Y-91094526D01*
X165051319Y-91095576D01*
X165051322Y-91095576D01*
X165058916Y-91095695D01*
X165213332Y-91060329D01*
X165331642Y-91000826D01*
X165348072Y-90992563D01*
X165348075Y-90992561D01*
X165354855Y-90989151D01*
X165360626Y-90984222D01*
X165360629Y-90984220D01*
X165469536Y-90891204D01*
X165469536Y-90891203D01*
X165475314Y-90886269D01*
X165567755Y-90757624D01*
X165570589Y-90750575D01*
X165570592Y-90750569D01*
X165603150Y-90669577D01*
X165647116Y-90613832D01*
X165714241Y-90590707D01*
X165783213Y-90607544D01*
X165832133Y-90658996D01*
X165838383Y-90673272D01*
X165859942Y-90732185D01*
X165862553Y-90739319D01*
X165866789Y-90745622D01*
X165866789Y-90745623D01*
X165890234Y-90780512D01*
X165950908Y-90870805D01*
X165956527Y-90875918D01*
X165956528Y-90875919D01*
X166017507Y-90931405D01*
X166068076Y-90977419D01*
X166138728Y-91015780D01*
X166189049Y-91065863D01*
X166204305Y-91135201D01*
X166179652Y-91201780D01*
X166167700Y-91215606D01*
X165659784Y-91723522D01*
X165641036Y-91738664D01*
X165639811Y-91739779D01*
X165631060Y-91745429D01*
X165624613Y-91753607D01*
X165624611Y-91753609D01*
X165610271Y-91771800D01*
X165606325Y-91776241D01*
X165606398Y-91776303D01*
X165603039Y-91780267D01*
X165599362Y-91783944D01*
X165588108Y-91799692D01*
X165584602Y-91804362D01*
X165552844Y-91844647D01*
X165549812Y-91853281D01*
X165544486Y-91860734D01*
X165535697Y-91890124D01*
X165529799Y-91909844D01*
X165527964Y-91915492D01*
X165510982Y-91963851D01*
X165510500Y-91969416D01*
X165510500Y-91972124D01*
X165510386Y-91974758D01*
X165510357Y-91974856D01*
X165510193Y-91974849D01*
X165510149Y-91975553D01*
X165508287Y-91981778D01*
X165508696Y-91992183D01*
X165510403Y-92035635D01*
X165510500Y-92040582D01*
X165510500Y-92425187D01*
X165490498Y-92493308D01*
X165467330Y-92520135D01*
X165400039Y-92578838D01*
X165308950Y-92708444D01*
X165285305Y-92769091D01*
X165258296Y-92838366D01*
X165251406Y-92856037D01*
X165250414Y-92863570D01*
X165250414Y-92863571D01*
X165232140Y-93002382D01*
X165230729Y-93013096D01*
X165234640Y-93048519D01*
X165246042Y-93151793D01*
X165248113Y-93170553D01*
X165250723Y-93177684D01*
X165250723Y-93177686D01*
X165260206Y-93203599D01*
X165264832Y-93274445D01*
X165230422Y-93336545D01*
X165167900Y-93370184D01*
X165141880Y-93372900D01*
X157229655Y-93372900D01*
X157161534Y-93352898D01*
X157140560Y-93335995D01*
X155425788Y-91621224D01*
X155410646Y-91602476D01*
X155409531Y-91601251D01*
X155403881Y-91592500D01*
X155395703Y-91586053D01*
X155395701Y-91586051D01*
X155377510Y-91571711D01*
X155373069Y-91567765D01*
X155373007Y-91567838D01*
X155369043Y-91564479D01*
X155365366Y-91560802D01*
X155349618Y-91549548D01*
X155344948Y-91546042D01*
X155304663Y-91514284D01*
X155296029Y-91511252D01*
X155288576Y-91505926D01*
X155239460Y-91491237D01*
X155233818Y-91489404D01*
X155192943Y-91475050D01*
X155192942Y-91475050D01*
X155185459Y-91472422D01*
X155179894Y-91471940D01*
X155177186Y-91471940D01*
X155174552Y-91471826D01*
X155174454Y-91471797D01*
X155174461Y-91471633D01*
X155173757Y-91471589D01*
X155167532Y-91469727D01*
X155113675Y-91471843D01*
X155108728Y-91471940D01*
X152642485Y-91471940D01*
X152618527Y-91469390D01*
X152616868Y-91469312D01*
X152606684Y-91467119D01*
X152596342Y-91468343D01*
X152596339Y-91468343D01*
X152573339Y-91471066D01*
X152567408Y-91471416D01*
X152567416Y-91471512D01*
X152562240Y-91471940D01*
X152557036Y-91471940D01*
X152537972Y-91475113D01*
X152532126Y-91475944D01*
X152520677Y-91477299D01*
X152481219Y-91481970D01*
X152472967Y-91485933D01*
X152463934Y-91487436D01*
X152454765Y-91492383D01*
X152454763Y-91492384D01*
X152418828Y-91511774D01*
X152413536Y-91514471D01*
X152367328Y-91536659D01*
X152363053Y-91540253D01*
X152361128Y-91542178D01*
X152359198Y-91543949D01*
X152359113Y-91543995D01*
X152359001Y-91543872D01*
X152358466Y-91544344D01*
X152352746Y-91547430D01*
X152345679Y-91555075D01*
X152316144Y-91587026D01*
X152312714Y-91590592D01*
X151169784Y-92733522D01*
X151151036Y-92748664D01*
X151149811Y-92749779D01*
X151141060Y-92755429D01*
X151134613Y-92763607D01*
X151134611Y-92763609D01*
X151120271Y-92781800D01*
X151116325Y-92786241D01*
X151116398Y-92786303D01*
X151113039Y-92790267D01*
X151109362Y-92793944D01*
X151098108Y-92809692D01*
X151094607Y-92814356D01*
X151075677Y-92838368D01*
X151017798Y-92879479D01*
X150946878Y-92882773D01*
X150921397Y-92873560D01*
X150900962Y-92863571D01*
X150834918Y-92831288D01*
X150824005Y-92829696D01*
X150765495Y-92821160D01*
X150765489Y-92821160D01*
X150760968Y-92820500D01*
X150439032Y-92820500D01*
X150409367Y-92824867D01*
X150374130Y-92830054D01*
X150374128Y-92830055D01*
X150364439Y-92831481D01*
X150255647Y-92884895D01*
X150185685Y-92896963D01*
X150144787Y-92884993D01*
X150034918Y-92831288D01*
X150024005Y-92829696D01*
X149965495Y-92821160D01*
X149965489Y-92821160D01*
X149960968Y-92820500D01*
X149930034Y-92820500D01*
X149861913Y-92800498D01*
X149815420Y-92746842D01*
X149805316Y-92676568D01*
X149834810Y-92611988D01*
X149874504Y-92581397D01*
X149908390Y-92564760D01*
X149925097Y-92552799D01*
X149993175Y-92484603D01*
X150005103Y-92467880D01*
X150047700Y-92380737D01*
X150053406Y-92362276D01*
X150061340Y-92307890D01*
X150062000Y-92298790D01*
X150062000Y-92165115D01*
X150057525Y-92149876D01*
X150056135Y-92148671D01*
X150048452Y-92147000D01*
X149630115Y-92147000D01*
X149614876Y-92151475D01*
X149613671Y-92152865D01*
X149612000Y-92160548D01*
X149612000Y-92603884D01*
X149617664Y-92623172D01*
X149651669Y-92676085D01*
X149651669Y-92747082D01*
X149613286Y-92806808D01*
X149570547Y-92830582D01*
X149564439Y-92831481D01*
X149555649Y-92835797D01*
X149555648Y-92835797D01*
X149460378Y-92882572D01*
X149460376Y-92882573D01*
X149451030Y-92887162D01*
X149388630Y-92949671D01*
X149387852Y-92950450D01*
X149325569Y-92984529D01*
X149254749Y-92979526D01*
X149241681Y-92972845D01*
X149211154Y-92960200D01*
X149155888Y-92949207D01*
X149144743Y-92948109D01*
X149129876Y-92952475D01*
X149128671Y-92953865D01*
X149127000Y-92961548D01*
X149127000Y-94683885D01*
X149131475Y-94699124D01*
X149132865Y-94700329D01*
X149140548Y-94702000D01*
X149143633Y-94702000D01*
X149155888Y-94700793D01*
X149211154Y-94689800D01*
X149245110Y-94675735D01*
X149246725Y-94679635D01*
X149292259Y-94665381D01*
X149360725Y-94684168D01*
X149408164Y-94736988D01*
X149420500Y-94791361D01*
X149420500Y-95895560D01*
X149417679Y-95922073D01*
X149416207Y-95928909D01*
X149382316Y-95991292D01*
X149320077Y-96025451D01*
X149256935Y-96023107D01*
X149245827Y-96019785D01*
X149240225Y-96017964D01*
X149199350Y-96003610D01*
X149199349Y-96003610D01*
X149191866Y-96000982D01*
X149186301Y-96000500D01*
X149183593Y-96000500D01*
X149180959Y-96000386D01*
X149180861Y-96000357D01*
X149180868Y-96000193D01*
X149180164Y-96000149D01*
X149173939Y-95998287D01*
X149120082Y-96000403D01*
X149115135Y-96000500D01*
X148909682Y-96000500D01*
X148841561Y-95980498D01*
X148815114Y-95954860D01*
X148813878Y-95955949D01*
X148808855Y-95950251D01*
X148804553Y-95943992D01*
X148686275Y-95838611D01*
X148678889Y-95834700D01*
X148563289Y-95773493D01*
X148546274Y-95764484D01*
X148392633Y-95725892D01*
X148385034Y-95725852D01*
X148385033Y-95725852D01*
X148319181Y-95725507D01*
X148234221Y-95725062D01*
X148226841Y-95726834D01*
X148226839Y-95726834D01*
X148087563Y-95760271D01*
X148087560Y-95760272D01*
X148080184Y-95762043D01*
X148051527Y-95776834D01*
X147984719Y-95811316D01*
X147915011Y-95824785D01*
X147849088Y-95798430D01*
X147813826Y-95754881D01*
X147799593Y-95725892D01*
X147765105Y-95655647D01*
X147753037Y-95585684D01*
X147765007Y-95544787D01*
X147818712Y-95434918D01*
X147825113Y-95391042D01*
X147828840Y-95365495D01*
X147828840Y-95365489D01*
X147829500Y-95360968D01*
X147829500Y-95039032D01*
X147818519Y-94964439D01*
X147821290Y-94964031D01*
X147820414Y-94908239D01*
X147857855Y-94847917D01*
X147921965Y-94817413D01*
X147964829Y-94820446D01*
X147965082Y-94818712D01*
X148034505Y-94828840D01*
X148034511Y-94828840D01*
X148039032Y-94829500D01*
X148360968Y-94829500D01*
X148392745Y-94824822D01*
X148425870Y-94819946D01*
X148425872Y-94819945D01*
X148435561Y-94818519D01*
X148490875Y-94791361D01*
X148539622Y-94767428D01*
X148539624Y-94767427D01*
X148548970Y-94762838D01*
X148612149Y-94699550D01*
X148674431Y-94665471D01*
X148745251Y-94670474D01*
X148758319Y-94677155D01*
X148788846Y-94689800D01*
X148844112Y-94700793D01*
X148855257Y-94701891D01*
X148870124Y-94697525D01*
X148871329Y-94696135D01*
X148873000Y-94688452D01*
X148873000Y-92966115D01*
X148868525Y-92950876D01*
X148867135Y-92949671D01*
X148859452Y-92948000D01*
X148856367Y-92948000D01*
X148844112Y-92949207D01*
X148788846Y-92960200D01*
X148754890Y-92974265D01*
X148753275Y-92970365D01*
X148707741Y-92984619D01*
X148639275Y-92965832D01*
X148591836Y-92913012D01*
X148579500Y-92858639D01*
X148579500Y-92539926D01*
X148587518Y-92495698D01*
X148630357Y-92381422D01*
X148630358Y-92381420D01*
X148633130Y-92374024D01*
X148639500Y-92315389D01*
X148639500Y-92298755D01*
X148908001Y-92298755D01*
X148908672Y-92307919D01*
X148916759Y-92362859D01*
X148922502Y-92381342D01*
X148965241Y-92468392D01*
X148977201Y-92485097D01*
X149045397Y-92553175D01*
X149062120Y-92565103D01*
X149149263Y-92607700D01*
X149167724Y-92613406D01*
X149222110Y-92621340D01*
X149231210Y-92622000D01*
X149339885Y-92622000D01*
X149355124Y-92617525D01*
X149356329Y-92616135D01*
X149358000Y-92608452D01*
X149358000Y-92165115D01*
X149353525Y-92149876D01*
X149352135Y-92148671D01*
X149344452Y-92147000D01*
X148926116Y-92147000D01*
X148910877Y-92151475D01*
X148909672Y-92152865D01*
X148908001Y-92160548D01*
X148908001Y-92298755D01*
X148639500Y-92298755D01*
X148639499Y-91874885D01*
X148908000Y-91874885D01*
X148912475Y-91890124D01*
X148913865Y-91891329D01*
X148921548Y-91893000D01*
X149339885Y-91893000D01*
X149355124Y-91888525D01*
X149356329Y-91887135D01*
X149358000Y-91879452D01*
X149358000Y-91874885D01*
X149612000Y-91874885D01*
X149616475Y-91890124D01*
X149617865Y-91891329D01*
X149625548Y-91893000D01*
X150043884Y-91893000D01*
X150059123Y-91888525D01*
X150060328Y-91887135D01*
X150061999Y-91879452D01*
X150061999Y-91741245D01*
X150061328Y-91732081D01*
X150053241Y-91677141D01*
X150047498Y-91658658D01*
X150004759Y-91571608D01*
X149992799Y-91554903D01*
X149924603Y-91486825D01*
X149907880Y-91474897D01*
X149820737Y-91432300D01*
X149802276Y-91426594D01*
X149747890Y-91418660D01*
X149738790Y-91418000D01*
X149630115Y-91418000D01*
X149614876Y-91422475D01*
X149613671Y-91423865D01*
X149612000Y-91431548D01*
X149612000Y-91874885D01*
X149358000Y-91874885D01*
X149358000Y-91436116D01*
X149353525Y-91420877D01*
X149352135Y-91419672D01*
X149344452Y-91418001D01*
X149231245Y-91418001D01*
X149222081Y-91418672D01*
X149167141Y-91426759D01*
X149148658Y-91432502D01*
X149061608Y-91475241D01*
X149044903Y-91487201D01*
X148976825Y-91555397D01*
X148964897Y-91572120D01*
X148922300Y-91659263D01*
X148916594Y-91677724D01*
X148908660Y-91732110D01*
X148908000Y-91741210D01*
X148908000Y-91874885D01*
X148639499Y-91874885D01*
X148639499Y-91724612D01*
X148637943Y-91710284D01*
X148633984Y-91673834D01*
X148633983Y-91673830D01*
X148633130Y-91665976D01*
X148630356Y-91658576D01*
X148630355Y-91658572D01*
X148587518Y-91544302D01*
X148579500Y-91500074D01*
X148579500Y-91089375D01*
X148599502Y-91021254D01*
X148653158Y-90974761D01*
X148723432Y-90964657D01*
X148740787Y-90968417D01*
X148966207Y-91034179D01*
X148990510Y-91041269D01*
X148993433Y-91041829D01*
X148993442Y-91041831D01*
X149387749Y-91117352D01*
X149387754Y-91117353D01*
X149390669Y-91117911D01*
X149393630Y-91118192D01*
X149393637Y-91118193D01*
X149570477Y-91134975D01*
X149796280Y-91156404D01*
X150203712Y-91156404D01*
X150420454Y-91135835D01*
X150606355Y-91118194D01*
X150606362Y-91118193D01*
X150609323Y-91117912D01*
X150612238Y-91117354D01*
X150612243Y-91117353D01*
X151006550Y-91041833D01*
X151006559Y-91041831D01*
X151009482Y-91041271D01*
X151400611Y-90927166D01*
X151558206Y-90864500D01*
X151776435Y-90777724D01*
X151776445Y-90777720D01*
X151779210Y-90776620D01*
X152103477Y-90610641D01*
X152139243Y-90592334D01*
X152139244Y-90592333D01*
X152141892Y-90590978D01*
X152144397Y-90589380D01*
X152144403Y-90589377D01*
X152482901Y-90373504D01*
X152482906Y-90373500D01*
X152485414Y-90371901D01*
X152806701Y-90121349D01*
X152943346Y-89992267D01*
X153100716Y-89843608D01*
X153100724Y-89843600D01*
X153102879Y-89841564D01*
X153107634Y-89836135D01*
X153252637Y-89670553D01*
X153324269Y-89588755D01*
X156668001Y-89588755D01*
X156668672Y-89597919D01*
X156676759Y-89652859D01*
X156682502Y-89671342D01*
X156725241Y-89758392D01*
X156737201Y-89775097D01*
X156805397Y-89843175D01*
X156822120Y-89855103D01*
X156909263Y-89897700D01*
X156927724Y-89903406D01*
X156982110Y-89911340D01*
X156991210Y-89912000D01*
X157124885Y-89912000D01*
X157140124Y-89907525D01*
X157141329Y-89906135D01*
X157143000Y-89898452D01*
X157143000Y-89480115D01*
X157138525Y-89464876D01*
X157137135Y-89463671D01*
X157129452Y-89462000D01*
X156686116Y-89462000D01*
X156670877Y-89466475D01*
X156669672Y-89467865D01*
X156668001Y-89475548D01*
X156668001Y-89588755D01*
X153324269Y-89588755D01*
X153371300Y-89535049D01*
X153609561Y-89204544D01*
X153815532Y-88853008D01*
X153829557Y-88822857D01*
X153876423Y-88769529D01*
X153943801Y-88750000D01*
X156602305Y-88750000D01*
X156670426Y-88770002D01*
G37*
%TD.AperFunction*%
%TA.AperFunction,Conductor*%
G36*
X165677265Y-86291002D02*
G01*
X165723758Y-86344658D01*
X165733862Y-86414932D01*
X165704368Y-86479512D01*
X165644642Y-86517896D01*
X165625591Y-86521922D01*
X165588404Y-86526818D01*
X165553248Y-86543211D01*
X165483058Y-86553872D01*
X165446754Y-86543212D01*
X165411596Y-86526818D01*
X165374409Y-86521922D01*
X165309482Y-86493199D01*
X165270391Y-86433934D01*
X165269546Y-86362942D01*
X165307217Y-86302764D01*
X165371442Y-86272505D01*
X165390856Y-86271000D01*
X165609144Y-86271000D01*
X165677265Y-86291002D01*
G37*
%TD.AperFunction*%
%TD*%
%TA.AperFunction,NonConductor*%
G36*
X166177265Y-86291002D02*
G01*
X166223758Y-86344658D01*
X166233862Y-86414932D01*
X166204368Y-86479512D01*
X166144642Y-86517896D01*
X166125591Y-86521922D01*
X166088404Y-86526818D01*
X166053248Y-86543211D01*
X165983058Y-86553872D01*
X165946754Y-86543212D01*
X165911596Y-86526818D01*
X165874409Y-86521922D01*
X165809482Y-86493199D01*
X165770391Y-86433934D01*
X165769546Y-86362942D01*
X165807217Y-86302764D01*
X165871442Y-86272505D01*
X165890856Y-86271000D01*
X166109144Y-86271000D01*
X166177265Y-86291002D01*
G37*
%TD.AperFunction*%
%TA.AperFunction,NonConductor*%
G36*
X167177265Y-86291002D02*
G01*
X167223758Y-86344658D01*
X167233862Y-86414932D01*
X167204368Y-86479512D01*
X167144642Y-86517896D01*
X167125591Y-86521922D01*
X167088404Y-86526818D01*
X167053248Y-86543211D01*
X166983058Y-86553872D01*
X166946754Y-86543212D01*
X166911596Y-86526818D01*
X166874409Y-86521922D01*
X166809482Y-86493199D01*
X166770391Y-86433934D01*
X166769546Y-86362942D01*
X166807217Y-86302764D01*
X166871442Y-86272505D01*
X166890856Y-86271000D01*
X167109144Y-86271000D01*
X167177265Y-86291002D01*
G37*
%TD.AperFunction*%
%TA.AperFunction,NonConductor*%
G36*
X168677265Y-86291002D02*
G01*
X168723758Y-86344658D01*
X168733862Y-86414932D01*
X168704368Y-86479512D01*
X168644642Y-86517896D01*
X168625591Y-86521922D01*
X168588404Y-86526818D01*
X168553248Y-86543211D01*
X168483058Y-86553872D01*
X168446754Y-86543212D01*
X168411596Y-86526818D01*
X168374409Y-86521922D01*
X168309482Y-86493199D01*
X168270391Y-86433934D01*
X168269546Y-86362942D01*
X168307217Y-86302764D01*
X168371442Y-86272505D01*
X168390856Y-86271000D01*
X168609144Y-86271000D01*
X168677265Y-86291002D01*
G37*
%TD.AperFunction*%
%TA.AperFunction,NonConductor*%
G36*
X169177265Y-86291002D02*
G01*
X169223758Y-86344658D01*
X169233862Y-86414932D01*
X169204368Y-86479512D01*
X169144642Y-86517896D01*
X169125591Y-86521922D01*
X169088404Y-86526818D01*
X169053248Y-86543211D01*
X168983058Y-86553872D01*
X168946754Y-86543212D01*
X168911596Y-86526818D01*
X168874409Y-86521922D01*
X168809482Y-86493199D01*
X168770391Y-86433934D01*
X168769546Y-86362942D01*
X168807217Y-86302764D01*
X168871442Y-86272505D01*
X168890856Y-86271000D01*
X169109144Y-86271000D01*
X169177265Y-86291002D01*
G37*
%TD.AperFunction*%
%TA.AperFunction,NonConductor*%
G36*
X167677265Y-86291002D02*
G01*
X167723758Y-86344658D01*
X167733862Y-86414932D01*
X167704368Y-86479512D01*
X167644642Y-86517896D01*
X167625591Y-86521922D01*
X167588404Y-86526818D01*
X167553248Y-86543211D01*
X167483058Y-86553872D01*
X167446754Y-86543212D01*
X167411596Y-86526818D01*
X167374409Y-86521922D01*
X167309482Y-86493199D01*
X167270391Y-86433934D01*
X167269546Y-86362942D01*
X167307217Y-86302764D01*
X167371442Y-86272505D01*
X167390856Y-86271000D01*
X167609144Y-86271000D01*
X167677265Y-86291002D01*
G37*
%TD.AperFunction*%
%TA.AperFunction,NonConductor*%
G36*
X168177265Y-86291002D02*
G01*
X168223758Y-86344658D01*
X168233862Y-86414932D01*
X168204368Y-86479512D01*
X168144642Y-86517896D01*
X168125591Y-86521922D01*
X168088404Y-86526818D01*
X168053248Y-86543211D01*
X167983058Y-86553872D01*
X167946754Y-86543212D01*
X167911596Y-86526818D01*
X167874409Y-86521922D01*
X167809482Y-86493199D01*
X167770391Y-86433934D01*
X167769546Y-86362942D01*
X167807217Y-86302764D01*
X167871442Y-86272505D01*
X167890856Y-86271000D01*
X168109144Y-86271000D01*
X168177265Y-86291002D01*
G37*
%TD.AperFunction*%
%TA.AperFunction,NonConductor*%
G36*
X166677265Y-86291002D02*
G01*
X166723758Y-86344658D01*
X166733862Y-86414932D01*
X166704368Y-86479512D01*
X166644642Y-86517896D01*
X166625591Y-86521922D01*
X166588404Y-86526818D01*
X166553248Y-86543211D01*
X166483058Y-86553872D01*
X166446754Y-86543212D01*
X166411596Y-86526818D01*
X166374409Y-86521922D01*
X166309482Y-86493199D01*
X166270391Y-86433934D01*
X166269546Y-86362942D01*
X166307217Y-86302764D01*
X166371442Y-86272505D01*
X166390856Y-86271000D01*
X166609144Y-86271000D01*
X166677265Y-86291002D01*
G37*
%TD.AperFunction*%
%TA.AperFunction,NonConductor*%
G36*
X158012621Y-88770002D02*
G01*
X158059114Y-88823658D01*
X158070500Y-88876000D01*
X158070500Y-88889966D01*
X158050498Y-88958087D01*
X157996842Y-89004580D01*
X157926568Y-89014684D01*
X157861988Y-88985190D01*
X157831397Y-88945497D01*
X157824540Y-88931531D01*
X157812472Y-88861568D01*
X157840145Y-88796186D01*
X157898773Y-88756145D01*
X157937643Y-88750000D01*
X157944500Y-88750000D01*
X158012621Y-88770002D01*
G37*
%TD.AperFunction*%
%TA.AperFunction,NonConductor*%
G36*
X136359313Y-88770002D02*
G01*
X136405806Y-88823658D01*
X136415910Y-88893932D01*
X136403458Y-88933204D01*
X136390004Y-88959609D01*
X136385502Y-88968445D01*
X136370500Y-89063166D01*
X136370500Y-89426834D01*
X136385502Y-89521555D01*
X136443674Y-89635723D01*
X136534277Y-89726326D01*
X136597210Y-89758392D01*
X136615542Y-89767733D01*
X136667157Y-89816482D01*
X136684223Y-89885397D01*
X136661322Y-89952598D01*
X136615542Y-89992267D01*
X136534277Y-90033674D01*
X136469356Y-90098595D01*
X136407044Y-90132621D01*
X136380261Y-90135500D01*
X135672146Y-90135500D01*
X135661274Y-90135030D01*
X135648804Y-90133950D01*
X135619813Y-90131439D01*
X135605357Y-90135030D01*
X135598296Y-90136784D01*
X135567920Y-90140500D01*
X135482166Y-90140500D01*
X135458218Y-90137951D01*
X135456553Y-90137872D01*
X135446370Y-90135680D01*
X135436029Y-90136904D01*
X135413023Y-90139627D01*
X135407092Y-90139977D01*
X135407100Y-90140072D01*
X135401922Y-90140500D01*
X135396722Y-90140500D01*
X135391593Y-90141354D01*
X135391590Y-90141354D01*
X135377681Y-90143669D01*
X135371803Y-90144506D01*
X135331245Y-90149306D01*
X135331244Y-90149306D01*
X135320905Y-90150530D01*
X135312653Y-90154493D01*
X135303620Y-90155996D01*
X135294451Y-90160943D01*
X135294449Y-90160944D01*
X135258514Y-90180334D01*
X135253221Y-90183031D01*
X135214159Y-90201787D01*
X135214153Y-90201791D01*
X135207014Y-90205219D01*
X135202738Y-90208813D01*
X135200799Y-90210752D01*
X135198884Y-90212508D01*
X135198798Y-90212555D01*
X135198685Y-90212433D01*
X135198150Y-90212905D01*
X135192432Y-90215990D01*
X135185364Y-90223636D01*
X135185363Y-90223637D01*
X135155842Y-90255573D01*
X135152412Y-90259139D01*
X134667206Y-90744345D01*
X134604894Y-90778371D01*
X134577453Y-90781248D01*
X134437017Y-90780512D01*
X134429637Y-90782284D01*
X134429635Y-90782284D01*
X134290359Y-90815721D01*
X134290356Y-90815722D01*
X134282980Y-90817493D01*
X134142210Y-90890150D01*
X134022835Y-90994288D01*
X133931746Y-91123894D01*
X133925362Y-91140268D01*
X133877797Y-91262267D01*
X133874202Y-91271487D01*
X133873210Y-91279020D01*
X133873210Y-91279021D01*
X133857315Y-91399757D01*
X133828593Y-91464684D01*
X133769327Y-91503776D01*
X133731733Y-91509309D01*
X133708345Y-91509186D01*
X133700965Y-91510958D01*
X133700963Y-91510958D01*
X133561687Y-91544395D01*
X133561684Y-91544396D01*
X133554308Y-91546167D01*
X133413538Y-91618824D01*
X133294163Y-91722962D01*
X133203074Y-91852568D01*
X133189597Y-91887135D01*
X133151597Y-91984601D01*
X133145530Y-92000161D01*
X133144538Y-92007694D01*
X133144538Y-92007695D01*
X133134545Y-92083603D01*
X133124853Y-92157220D01*
X133125687Y-92164770D01*
X133138174Y-92277874D01*
X133125768Y-92347778D01*
X133077539Y-92399878D01*
X133008798Y-92417633D01*
X132982242Y-92413906D01*
X132966757Y-92410016D01*
X132959158Y-92409976D01*
X132959157Y-92409976D01*
X132898750Y-92409660D01*
X132817459Y-92409234D01*
X132749445Y-92388876D01*
X132729025Y-92372331D01*
X129666405Y-89309711D01*
X129632379Y-89247399D01*
X129629500Y-89220616D01*
X129629500Y-89063166D01*
X129614498Y-88968445D01*
X129609996Y-88959609D01*
X129596542Y-88933204D01*
X129583437Y-88863427D01*
X129610137Y-88797642D01*
X129668164Y-88756735D01*
X129708808Y-88750000D01*
X136291192Y-88750000D01*
X136359313Y-88770002D01*
G37*
%TD.AperFunction*%
%TA.AperFunction,NonConductor*%
G36*
X154605652Y-93149982D02*
G01*
X154626626Y-93166885D01*
X155490626Y-94030885D01*
X155524652Y-94093197D01*
X155519587Y-94164012D01*
X155477040Y-94220848D01*
X155410520Y-94245659D01*
X155401531Y-94245980D01*
X154809864Y-94245980D01*
X154741743Y-94225978D01*
X154720769Y-94209075D01*
X154341405Y-93829711D01*
X154307379Y-93767399D01*
X154304500Y-93740616D01*
X154304500Y-93255980D01*
X154324502Y-93187859D01*
X154378158Y-93141366D01*
X154430500Y-93129980D01*
X154537531Y-93129980D01*
X154605652Y-93149982D01*
G37*
%TD.AperFunction*%
%TA.AperFunction,NonConductor*%
G36*
X134326466Y-92658553D02*
G01*
X134362402Y-92683695D01*
X134793595Y-93114888D01*
X134827621Y-93177200D01*
X134830500Y-93203983D01*
X134830500Y-96745187D01*
X134810498Y-96813308D01*
X134787329Y-96840136D01*
X134732366Y-96888083D01*
X134667884Y-96917791D01*
X134597577Y-96907921D01*
X134565717Y-96887210D01*
X134557292Y-96879703D01*
X134552672Y-96875587D01*
X134505728Y-96833761D01*
X134468173Y-96773510D01*
X134464422Y-96754496D01*
X134460694Y-96723003D01*
X134460693Y-96722999D01*
X134459469Y-96712659D01*
X134455508Y-96704410D01*
X134454004Y-96695374D01*
X134448888Y-96685892D01*
X134429652Y-96650240D01*
X134426957Y-96644951D01*
X134408212Y-96605915D01*
X134404780Y-96598768D01*
X134401186Y-96594492D01*
X134399246Y-96592552D01*
X134397493Y-96590641D01*
X134397444Y-96590551D01*
X134397567Y-96590439D01*
X134397095Y-96589904D01*
X134394010Y-96584186D01*
X134354413Y-96547583D01*
X134350848Y-96544154D01*
X131830037Y-94023343D01*
X131796011Y-93961031D01*
X131801076Y-93890216D01*
X131843623Y-93833380D01*
X131891003Y-93811428D01*
X131967752Y-93793850D01*
X131975157Y-93792154D01*
X132077630Y-93740616D01*
X132109897Y-93724388D01*
X132109900Y-93724386D01*
X132116680Y-93720976D01*
X132122451Y-93716047D01*
X132122454Y-93716045D01*
X132231361Y-93623029D01*
X132231361Y-93623028D01*
X132237139Y-93618094D01*
X132266600Y-93577095D01*
X132322591Y-93533449D01*
X132393295Y-93527003D01*
X132453719Y-93557429D01*
X132494458Y-93594498D01*
X132502200Y-93601543D01*
X132641417Y-93677132D01*
X132794646Y-93717331D01*
X132878601Y-93718650D01*
X132945443Y-93719700D01*
X132945446Y-93719700D01*
X132953040Y-93719819D01*
X133107456Y-93684453D01*
X133222720Y-93626482D01*
X133242196Y-93616687D01*
X133242199Y-93616685D01*
X133248979Y-93613275D01*
X133254750Y-93608346D01*
X133254753Y-93608344D01*
X133363660Y-93515328D01*
X133363660Y-93515327D01*
X133369438Y-93510393D01*
X133461879Y-93381748D01*
X133520966Y-93234765D01*
X133535879Y-93129980D01*
X133542705Y-93082015D01*
X133542705Y-93082012D01*
X133543286Y-93077931D01*
X133543431Y-93064124D01*
X133529902Y-92952326D01*
X133541576Y-92882298D01*
X133589258Y-92829696D01*
X133657809Y-92811224D01*
X133686959Y-92815315D01*
X133687292Y-92815402D01*
X133687294Y-92815402D01*
X133694646Y-92817331D01*
X133778601Y-92818650D01*
X133845443Y-92819700D01*
X133845446Y-92819700D01*
X133853040Y-92819819D01*
X134007456Y-92784453D01*
X134082238Y-92746842D01*
X134142196Y-92716687D01*
X134142199Y-92716685D01*
X134148979Y-92713275D01*
X134154750Y-92708346D01*
X134154753Y-92708344D01*
X134191476Y-92676979D01*
X134256266Y-92647948D01*
X134326466Y-92658553D01*
G37*
%TD.AperFunction*%
%TA.AperFunction,NonConductor*%
G36*
X136448382Y-90914502D02*
G01*
X136469356Y-90931405D01*
X136534277Y-90996326D01*
X136583201Y-91021254D01*
X136615542Y-91037733D01*
X136667157Y-91086482D01*
X136684223Y-91155397D01*
X136661322Y-91222598D01*
X136615542Y-91262267D01*
X136534277Y-91303674D01*
X136443674Y-91394277D01*
X136385502Y-91508445D01*
X136370500Y-91603166D01*
X136370500Y-91966834D01*
X136385502Y-92061555D01*
X136443674Y-92175723D01*
X136534277Y-92266326D01*
X136597922Y-92298755D01*
X136615542Y-92307733D01*
X136667157Y-92356482D01*
X136684223Y-92425397D01*
X136661322Y-92492598D01*
X136615542Y-92532267D01*
X136534277Y-92573674D01*
X136443674Y-92664277D01*
X136385502Y-92778445D01*
X136370500Y-92873166D01*
X136370500Y-93236834D01*
X136385502Y-93331555D01*
X136443674Y-93445723D01*
X136534277Y-93536326D01*
X136575694Y-93557429D01*
X136615542Y-93577733D01*
X136667157Y-93626482D01*
X136684223Y-93695397D01*
X136661322Y-93762598D01*
X136615542Y-93802267D01*
X136534277Y-93843674D01*
X136443674Y-93934277D01*
X136385502Y-94048445D01*
X136370500Y-94143166D01*
X136370500Y-94506834D01*
X136385502Y-94601555D01*
X136443674Y-94715723D01*
X136534277Y-94806326D01*
X136608620Y-94844206D01*
X136615542Y-94847733D01*
X136667157Y-94896482D01*
X136684223Y-94965397D01*
X136661322Y-95032598D01*
X136615542Y-95072267D01*
X136534277Y-95113674D01*
X136443674Y-95204277D01*
X136385502Y-95318445D01*
X136370500Y-95413166D01*
X136370500Y-95776834D01*
X136385502Y-95871555D01*
X136443674Y-95985723D01*
X136534277Y-96076326D01*
X136588853Y-96104134D01*
X136615542Y-96117733D01*
X136667157Y-96166482D01*
X136684223Y-96235397D01*
X136661322Y-96302598D01*
X136615542Y-96342267D01*
X136534277Y-96383674D01*
X136443674Y-96474277D01*
X136385502Y-96588445D01*
X136370500Y-96683166D01*
X136370500Y-96830616D01*
X136350498Y-96898737D01*
X136333595Y-96919711D01*
X136329711Y-96923595D01*
X136267399Y-96957621D01*
X136240616Y-96960500D01*
X135809682Y-96960500D01*
X135741561Y-96940498D01*
X135715114Y-96914860D01*
X135713878Y-96915949D01*
X135708855Y-96910251D01*
X135704553Y-96903992D01*
X135631681Y-96839065D01*
X135594126Y-96778816D01*
X135589500Y-96744989D01*
X135589500Y-93048519D01*
X135592049Y-93024571D01*
X135592128Y-93022906D01*
X135594320Y-93012723D01*
X135590373Y-92979376D01*
X135590023Y-92973445D01*
X135589928Y-92973453D01*
X135589500Y-92968275D01*
X135589500Y-92963075D01*
X135587711Y-92952328D01*
X135586331Y-92944034D01*
X135585494Y-92938156D01*
X135580694Y-92897598D01*
X135580694Y-92897597D01*
X135579470Y-92887258D01*
X135575507Y-92879006D01*
X135574004Y-92869973D01*
X135567889Y-92858639D01*
X135549666Y-92824867D01*
X135546969Y-92819574D01*
X135528215Y-92780517D01*
X135528212Y-92780513D01*
X135524781Y-92773367D01*
X135521186Y-92769091D01*
X135519263Y-92767168D01*
X135517491Y-92765236D01*
X135517448Y-92765157D01*
X135517572Y-92765044D01*
X135517096Y-92764504D01*
X135514010Y-92758785D01*
X135474413Y-92722182D01*
X135470848Y-92718753D01*
X134898010Y-92145915D01*
X134863984Y-92083603D01*
X134869049Y-92012788D01*
X134905274Y-91961009D01*
X134992332Y-91886654D01*
X134992332Y-91886653D01*
X134998110Y-91881719D01*
X135090551Y-91753074D01*
X135149638Y-91606091D01*
X135157680Y-91549582D01*
X135171377Y-91453341D01*
X135171377Y-91453338D01*
X135171958Y-91449257D01*
X135172103Y-91435450D01*
X135166233Y-91386946D01*
X135177905Y-91316918D01*
X135202225Y-91282715D01*
X135547756Y-90937184D01*
X135610068Y-90903158D01*
X135647722Y-90900749D01*
X135680187Y-90903561D01*
X135701705Y-90898216D01*
X135732080Y-90894500D01*
X136380261Y-90894500D01*
X136448382Y-90914502D01*
G37*
%TD.AperFunction*%
%TA.AperFunction,NonConductor*%
G36*
X139153737Y-95994502D02*
G01*
X139174711Y-96011405D01*
X140703711Y-97540405D01*
X140737737Y-97602717D01*
X140732672Y-97673532D01*
X140690125Y-97730368D01*
X140623605Y-97755179D01*
X140614616Y-97755500D01*
X138919739Y-97755500D01*
X138851618Y-97735498D01*
X138830644Y-97718595D01*
X138765723Y-97653674D01*
X138684458Y-97612267D01*
X138632843Y-97563518D01*
X138615777Y-97494603D01*
X138638678Y-97427402D01*
X138684458Y-97387733D01*
X138719684Y-97369784D01*
X138765723Y-97346326D01*
X138856326Y-97255723D01*
X138914498Y-97141555D01*
X138929500Y-97046834D01*
X138929500Y-96683166D01*
X138914498Y-96588445D01*
X138856326Y-96474277D01*
X138765723Y-96383674D01*
X138684458Y-96342267D01*
X138632843Y-96293518D01*
X138615777Y-96224603D01*
X138638678Y-96157402D01*
X138684458Y-96117733D01*
X138711147Y-96104134D01*
X138765723Y-96076326D01*
X138830644Y-96011405D01*
X138892956Y-95977379D01*
X138919739Y-95974500D01*
X139085616Y-95974500D01*
X139153737Y-95994502D01*
G37*
%TD.AperFunction*%
%TA.AperFunction,NonConductor*%
G36*
X145760997Y-97406034D02*
G01*
X145808302Y-97458975D01*
X145820500Y-97513058D01*
X145820500Y-97760968D01*
X145823962Y-97784484D01*
X145830054Y-97825871D01*
X145830055Y-97825874D01*
X145830807Y-97830982D01*
X145830807Y-97830985D01*
X145831481Y-97835561D01*
X145830880Y-97835649D01*
X145831874Y-97899139D01*
X145794430Y-97959458D01*
X145730319Y-97989959D01*
X145659895Y-97980956D01*
X145621342Y-97954632D01*
X145419282Y-97752572D01*
X145404140Y-97733824D01*
X145403026Y-97732599D01*
X145397375Y-97723848D01*
X145384120Y-97713399D01*
X145343007Y-97655520D01*
X145339712Y-97584600D01*
X145375282Y-97523157D01*
X145433995Y-97491629D01*
X145475929Y-97482025D01*
X145475933Y-97482024D01*
X145483332Y-97480329D01*
X145624855Y-97409151D01*
X145626815Y-97407477D01*
X145692579Y-97387073D01*
X145760997Y-97406034D01*
G37*
%TD.AperFunction*%
%TA.AperFunction,NonConductor*%
G36*
X153455213Y-94765007D02*
G01*
X153565082Y-94818712D01*
X153574761Y-94820124D01*
X153634505Y-94828840D01*
X153634511Y-94828840D01*
X153639032Y-94829500D01*
X153960968Y-94829500D01*
X154035561Y-94818519D01*
X154035969Y-94821290D01*
X154091761Y-94820414D01*
X154152083Y-94857855D01*
X154182587Y-94921965D01*
X154179554Y-94964829D01*
X154181288Y-94965082D01*
X154171165Y-95034476D01*
X154170500Y-95039032D01*
X154170500Y-95360968D01*
X154181481Y-95435561D01*
X154215857Y-95505576D01*
X154234895Y-95544352D01*
X154246963Y-95614315D01*
X154234993Y-95655213D01*
X154181288Y-95765082D01*
X154179876Y-95774761D01*
X154172206Y-95827341D01*
X154170500Y-95839032D01*
X154170500Y-96160968D01*
X154172564Y-96174988D01*
X154179868Y-96224603D01*
X154181481Y-96235561D01*
X154185797Y-96244352D01*
X154188703Y-96253703D01*
X154185849Y-96254590D01*
X154195221Y-96308940D01*
X154167544Y-96374320D01*
X154108913Y-96414357D01*
X154070051Y-96420500D01*
X153905771Y-96420500D01*
X153881813Y-96417950D01*
X153880154Y-96417872D01*
X153869970Y-96415679D01*
X153859628Y-96416903D01*
X153859625Y-96416903D01*
X153836625Y-96419626D01*
X153830694Y-96419976D01*
X153830702Y-96420072D01*
X153825526Y-96420500D01*
X153820322Y-96420500D01*
X153801258Y-96423673D01*
X153795412Y-96424504D01*
X153790741Y-96425057D01*
X153744505Y-96430530D01*
X153736253Y-96434493D01*
X153727220Y-96435996D01*
X153718051Y-96440943D01*
X153718049Y-96440944D01*
X153682114Y-96460334D01*
X153676822Y-96463031D01*
X153630614Y-96485219D01*
X153626339Y-96488813D01*
X153624414Y-96490738D01*
X153622484Y-96492509D01*
X153622399Y-96492555D01*
X153622287Y-96492432D01*
X153621752Y-96492904D01*
X153616032Y-96495990D01*
X153608965Y-96503635D01*
X153579430Y-96535586D01*
X153576000Y-96539152D01*
X151687083Y-98428069D01*
X151668335Y-98443211D01*
X151667110Y-98444325D01*
X151658359Y-98449976D01*
X151651910Y-98458157D01*
X151644209Y-98465164D01*
X151642724Y-98463532D01*
X151596095Y-98496656D01*
X151525175Y-98499953D01*
X151463731Y-98464385D01*
X151431270Y-98401244D01*
X151429020Y-98377539D01*
X151429020Y-98357723D01*
X151431569Y-98333776D01*
X151431648Y-98332110D01*
X151433840Y-98321927D01*
X151432616Y-98311585D01*
X151432616Y-98311582D01*
X151429894Y-98288590D01*
X151429543Y-98282649D01*
X151429448Y-98282657D01*
X151429020Y-98277477D01*
X151429020Y-98272279D01*
X151427781Y-98264832D01*
X151425849Y-98253230D01*
X151425012Y-98247350D01*
X151420213Y-98206800D01*
X151420212Y-98206798D01*
X151418989Y-98196462D01*
X151415028Y-98188213D01*
X151413524Y-98179177D01*
X151406943Y-98166980D01*
X151389172Y-98134043D01*
X151386477Y-98128754D01*
X151367732Y-98089718D01*
X151364300Y-98082571D01*
X151360706Y-98078295D01*
X151358766Y-98076355D01*
X151357013Y-98074444D01*
X151356964Y-98074354D01*
X151357087Y-98074242D01*
X151356615Y-98073707D01*
X151353530Y-98067989D01*
X151338923Y-98054486D01*
X151313934Y-98031387D01*
X151310368Y-98027957D01*
X151223308Y-97940897D01*
X151189282Y-97878585D01*
X151194347Y-97807770D01*
X151236894Y-97750934D01*
X151255789Y-97739237D01*
X151348592Y-97692563D01*
X151348595Y-97692561D01*
X151355375Y-97689151D01*
X151361146Y-97684222D01*
X151361149Y-97684220D01*
X151470056Y-97591204D01*
X151470056Y-97591203D01*
X151475834Y-97586269D01*
X151568275Y-97457624D01*
X151627362Y-97310641D01*
X151640191Y-97220500D01*
X151649101Y-97157891D01*
X151649101Y-97157888D01*
X151649682Y-97153807D01*
X151649827Y-97140000D01*
X151630796Y-96982733D01*
X151574800Y-96834546D01*
X151485073Y-96703992D01*
X151479398Y-96698936D01*
X151477597Y-96696893D01*
X151447552Y-96632567D01*
X151457053Y-96562209D01*
X151469789Y-96540041D01*
X151471698Y-96537385D01*
X151557755Y-96417624D01*
X151616842Y-96270641D01*
X151633105Y-96156366D01*
X151638581Y-96117891D01*
X151638581Y-96117888D01*
X151639162Y-96113807D01*
X151639307Y-96100000D01*
X151636453Y-96076411D01*
X151634082Y-96056821D01*
X151620276Y-95942733D01*
X151564280Y-95794546D01*
X151474553Y-95663992D01*
X151460618Y-95651576D01*
X151361946Y-95563664D01*
X151356275Y-95558611D01*
X151216274Y-95484484D01*
X151116351Y-95459385D01*
X151074804Y-95448949D01*
X151013609Y-95412954D01*
X150981588Y-95349589D01*
X150979500Y-95326745D01*
X150979500Y-94929835D01*
X150999502Y-94861714D01*
X151053158Y-94815221D01*
X151123432Y-94805117D01*
X151146720Y-94812289D01*
X151146955Y-94811530D01*
X151156294Y-94814417D01*
X151165082Y-94818712D01*
X151174761Y-94820124D01*
X151234505Y-94828840D01*
X151234511Y-94828840D01*
X151239032Y-94829500D01*
X151560968Y-94829500D01*
X151592745Y-94824822D01*
X151625870Y-94819946D01*
X151625872Y-94819945D01*
X151635561Y-94818519D01*
X151744353Y-94765105D01*
X151814315Y-94753037D01*
X151855213Y-94765007D01*
X151965082Y-94818712D01*
X151974761Y-94820124D01*
X152034505Y-94828840D01*
X152034511Y-94828840D01*
X152039032Y-94829500D01*
X152360968Y-94829500D01*
X152392745Y-94824822D01*
X152425870Y-94819946D01*
X152425872Y-94819945D01*
X152435561Y-94818519D01*
X152544353Y-94765105D01*
X152614315Y-94753037D01*
X152655213Y-94765007D01*
X152765082Y-94818712D01*
X152774761Y-94820124D01*
X152834505Y-94828840D01*
X152834511Y-94828840D01*
X152839032Y-94829500D01*
X153160968Y-94829500D01*
X153192745Y-94824822D01*
X153225870Y-94819946D01*
X153225872Y-94819945D01*
X153235561Y-94818519D01*
X153344353Y-94765105D01*
X153414315Y-94753037D01*
X153455213Y-94765007D01*
G37*
%TD.AperFunction*%
%TA.AperFunction,NonConductor*%
G36*
X140348132Y-98534502D02*
G01*
X140394625Y-98588158D01*
X140404729Y-98658432D01*
X140375235Y-98723012D01*
X140309425Y-98763019D01*
X140237563Y-98780271D01*
X140237560Y-98780272D01*
X140230184Y-98782043D01*
X140089414Y-98854700D01*
X140083695Y-98859689D01*
X140022789Y-98912821D01*
X139958306Y-98942529D01*
X139887999Y-98932660D01*
X139856140Y-98911948D01*
X139801951Y-98863667D01*
X139801945Y-98863663D01*
X139796275Y-98858611D01*
X139788889Y-98854700D01*
X139674624Y-98794200D01*
X139656274Y-98784484D01*
X139648911Y-98782635D01*
X139648907Y-98782633D01*
X139569565Y-98762704D01*
X139508369Y-98726709D01*
X139476348Y-98663344D01*
X139483668Y-98592726D01*
X139528006Y-98537275D01*
X139600260Y-98514500D01*
X140280011Y-98514500D01*
X140348132Y-98534502D01*
G37*
%TD.AperFunction*%
%TA.AperFunction,NonConductor*%
G36*
X139308132Y-98534502D02*
G01*
X139354625Y-98588158D01*
X139364729Y-98658432D01*
X139335235Y-98723012D01*
X139269425Y-98763019D01*
X139197563Y-98780271D01*
X139197560Y-98780272D01*
X139190184Y-98782043D01*
X139049414Y-98854700D01*
X139043695Y-98859689D01*
X139035717Y-98866649D01*
X138956468Y-98935783D01*
X138949757Y-98941637D01*
X138885275Y-98971345D01*
X138814967Y-98961476D01*
X138777832Y-98935783D01*
X138765723Y-98923674D01*
X138684458Y-98882267D01*
X138632843Y-98833518D01*
X138615777Y-98764603D01*
X138638678Y-98697402D01*
X138684458Y-98657733D01*
X138690711Y-98654547D01*
X138765723Y-98616326D01*
X138830644Y-98551405D01*
X138892956Y-98517379D01*
X138919739Y-98514500D01*
X139240011Y-98514500D01*
X139308132Y-98534502D01*
G37*
%TD.AperFunction*%
%TA.AperFunction,NonConductor*%
G36*
X136328103Y-97739502D02*
G01*
X136374596Y-97793158D01*
X136384431Y-97865209D01*
X136370500Y-97953166D01*
X136370500Y-98316834D01*
X136385502Y-98411555D01*
X136443674Y-98525723D01*
X136534277Y-98616326D01*
X136609289Y-98654547D01*
X136615542Y-98657733D01*
X136667157Y-98706482D01*
X136684223Y-98775397D01*
X136661322Y-98842598D01*
X136615542Y-98882267D01*
X136534277Y-98923674D01*
X136469356Y-98988595D01*
X136407044Y-99022621D01*
X136380261Y-99025500D01*
X136128030Y-99025500D01*
X136104083Y-99022951D01*
X136102417Y-99022872D01*
X136092234Y-99020680D01*
X136081892Y-99021904D01*
X136081889Y-99021904D01*
X136058897Y-99024626D01*
X136052956Y-99024977D01*
X136052964Y-99025072D01*
X136047784Y-99025500D01*
X136042586Y-99025500D01*
X136037464Y-99026353D01*
X136037459Y-99026353D01*
X136023537Y-99028671D01*
X136017660Y-99029508D01*
X136011159Y-99030277D01*
X135977107Y-99034307D01*
X135977105Y-99034308D01*
X135966769Y-99035531D01*
X135958520Y-99039492D01*
X135949484Y-99040996D01*
X135940315Y-99045943D01*
X135940313Y-99045944D01*
X135904350Y-99065348D01*
X135899061Y-99068043D01*
X135860025Y-99086788D01*
X135852878Y-99090220D01*
X135848602Y-99093814D01*
X135846662Y-99095754D01*
X135844751Y-99097507D01*
X135844661Y-99097556D01*
X135844549Y-99097433D01*
X135844014Y-99097905D01*
X135838296Y-99100990D01*
X135831229Y-99108635D01*
X135801694Y-99140586D01*
X135798264Y-99144152D01*
X135358966Y-99583450D01*
X135296654Y-99617476D01*
X135269213Y-99620353D01*
X135128776Y-99619617D01*
X135121396Y-99621389D01*
X135121394Y-99621389D01*
X134982118Y-99654826D01*
X134982115Y-99654827D01*
X134974739Y-99656598D01*
X134833969Y-99729255D01*
X134714594Y-99833393D01*
X134710227Y-99839606D01*
X134710222Y-99839612D01*
X134694746Y-99861632D01*
X134639212Y-99905864D01*
X134568580Y-99913049D01*
X134505275Y-99880907D01*
X134469398Y-99819643D01*
X134465660Y-99789181D01*
X134465660Y-97938010D01*
X134485662Y-97869889D01*
X134509829Y-97842199D01*
X134569555Y-97791188D01*
X134634345Y-97762157D01*
X134704545Y-97772762D01*
X134736185Y-97793805D01*
X134821389Y-97871334D01*
X134828076Y-97877419D01*
X134967293Y-97953008D01*
X135120522Y-97993207D01*
X135204477Y-97994526D01*
X135271319Y-97995576D01*
X135271322Y-97995576D01*
X135278916Y-97995695D01*
X135433332Y-97960329D01*
X135526510Y-97913466D01*
X135568072Y-97892563D01*
X135568075Y-97892561D01*
X135574855Y-97889151D01*
X135580626Y-97884222D01*
X135580629Y-97884220D01*
X135689542Y-97791199D01*
X135689543Y-97791198D01*
X135695314Y-97786269D01*
X135705586Y-97771974D01*
X135761581Y-97728326D01*
X135807909Y-97719500D01*
X136259982Y-97719500D01*
X136328103Y-97739502D01*
G37*
%TD.AperFunction*%
%TA.AperFunction,NonConductor*%
G36*
X148942451Y-98877254D02*
G01*
X148974091Y-98898297D01*
X149022460Y-98942309D01*
X149028076Y-98947419D01*
X149167293Y-99023008D01*
X149291888Y-99055695D01*
X149320522Y-99063207D01*
X149320085Y-99064872D01*
X149376371Y-99090121D01*
X149415155Y-99149588D01*
X149420500Y-99185898D01*
X149420500Y-99990589D01*
X149400498Y-100058710D01*
X149346842Y-100105203D01*
X149276568Y-100115307D01*
X149263804Y-100112793D01*
X149131582Y-100079581D01*
X149070387Y-100043586D01*
X149038366Y-99980221D01*
X149037191Y-99972514D01*
X149031636Y-99926609D01*
X149020276Y-99832733D01*
X148964280Y-99684546D01*
X148941620Y-99651576D01*
X148878855Y-99560251D01*
X148878854Y-99560249D01*
X148874553Y-99553992D01*
X148868386Y-99548497D01*
X148808633Y-99495260D01*
X148756275Y-99448611D01*
X148748889Y-99444700D01*
X148679010Y-99407701D01*
X148616274Y-99374484D01*
X148462633Y-99335892D01*
X148455034Y-99335852D01*
X148455033Y-99335852D01*
X148389181Y-99335507D01*
X148304221Y-99335062D01*
X148296841Y-99336834D01*
X148296839Y-99336834D01*
X148157563Y-99370271D01*
X148157560Y-99370272D01*
X148150184Y-99372043D01*
X148143439Y-99375524D01*
X148143440Y-99375524D01*
X148013290Y-99442699D01*
X147943582Y-99456168D01*
X147877659Y-99429813D01*
X147836449Y-99372000D01*
X147829500Y-99330733D01*
X147829500Y-99057677D01*
X147849502Y-98989556D01*
X147903158Y-98943063D01*
X147973432Y-98932959D01*
X148015622Y-98946946D01*
X148037714Y-98958941D01*
X148137293Y-99013008D01*
X148290522Y-99053207D01*
X148374477Y-99054526D01*
X148441319Y-99055576D01*
X148441322Y-99055576D01*
X148448916Y-99055695D01*
X148603332Y-99020329D01*
X148702902Y-98970251D01*
X148738072Y-98952563D01*
X148738075Y-98952561D01*
X148744855Y-98949151D01*
X148807462Y-98895680D01*
X148872251Y-98866649D01*
X148942451Y-98877254D01*
G37*
%TD.AperFunction*%
%TA.AperFunction,NonConductor*%
G36*
X138916860Y-99839355D02*
G01*
X138957627Y-99864217D01*
X138999299Y-99902135D01*
X139036222Y-99962775D01*
X139040500Y-99995329D01*
X139040500Y-100164261D01*
X139020498Y-100232382D01*
X138966842Y-100278875D01*
X138896568Y-100288979D01*
X138831988Y-100259485D01*
X138825405Y-100253356D01*
X138765723Y-100193674D01*
X138684458Y-100152267D01*
X138632843Y-100103518D01*
X138615777Y-100034603D01*
X138638678Y-99967402D01*
X138684458Y-99927733D01*
X138699142Y-99920251D01*
X138765723Y-99886326D01*
X138783733Y-99868316D01*
X138846045Y-99834290D01*
X138916860Y-99839355D01*
G37*
%TD.AperFunction*%
%TA.AperFunction,NonConductor*%
G36*
X136448382Y-99804502D02*
G01*
X136469355Y-99821404D01*
X136534277Y-99886326D01*
X136600858Y-99920251D01*
X136615542Y-99927733D01*
X136667157Y-99976482D01*
X136684223Y-100045397D01*
X136661322Y-100112598D01*
X136615542Y-100152267D01*
X136534277Y-100193674D01*
X136469356Y-100258595D01*
X136407044Y-100292621D01*
X136380261Y-100295500D01*
X136024495Y-100295500D01*
X135956374Y-100275498D01*
X135909881Y-100221842D01*
X135899777Y-100151568D01*
X135929271Y-100086988D01*
X135935400Y-100080404D01*
X136043291Y-99972514D01*
X136194401Y-99821404D01*
X136256713Y-99787379D01*
X136283496Y-99784500D01*
X136380261Y-99784500D01*
X136448382Y-99804502D01*
G37*
%TD.AperFunction*%
%TA.AperFunction,NonConductor*%
G36*
X153157109Y-98135597D02*
G01*
X153217658Y-98183376D01*
X153300908Y-98307265D01*
X153306527Y-98312378D01*
X153306528Y-98312379D01*
X153409298Y-98405892D01*
X153418076Y-98413879D01*
X153557293Y-98489468D01*
X153710522Y-98529667D01*
X153794477Y-98530986D01*
X153861319Y-98532036D01*
X153861322Y-98532036D01*
X153868916Y-98532155D01*
X154023332Y-98496789D01*
X154024080Y-98500054D01*
X154079920Y-98496689D01*
X154141847Y-98531410D01*
X154176415Y-98601150D01*
X154179312Y-98620826D01*
X154181481Y-98635561D01*
X154234895Y-98744352D01*
X154246963Y-98814315D01*
X154234993Y-98855213D01*
X154181288Y-98965082D01*
X154179876Y-98974761D01*
X154172350Y-99026353D01*
X154170500Y-99039032D01*
X154170500Y-99360968D01*
X154172490Y-99374484D01*
X154179864Y-99424575D01*
X154181481Y-99435561D01*
X154233969Y-99542466D01*
X154234895Y-99544352D01*
X154246963Y-99614315D01*
X154234993Y-99655213D01*
X154216391Y-99693269D01*
X154168506Y-99745684D01*
X154099883Y-99763891D01*
X154044237Y-99749289D01*
X154016274Y-99734484D01*
X153862633Y-99695892D01*
X153855034Y-99695852D01*
X153855033Y-99695852D01*
X153789181Y-99695507D01*
X153704221Y-99695062D01*
X153696841Y-99696834D01*
X153696839Y-99696834D01*
X153557563Y-99730271D01*
X153557560Y-99730272D01*
X153550184Y-99732043D01*
X153409414Y-99804700D01*
X153290039Y-99908838D01*
X153198950Y-100038444D01*
X153182591Y-100080404D01*
X153149404Y-100165524D01*
X153141406Y-100186037D01*
X153140414Y-100193570D01*
X153140414Y-100193571D01*
X153125226Y-100308940D01*
X153120729Y-100343096D01*
X153122519Y-100359307D01*
X153126963Y-100399566D01*
X153114557Y-100469470D01*
X153090819Y-100502487D01*
X152939711Y-100653595D01*
X152877399Y-100687621D01*
X152850616Y-100690500D01*
X152670500Y-100690500D01*
X152602379Y-100670498D01*
X152555886Y-100616842D01*
X152545782Y-100546568D01*
X152550045Y-100530715D01*
X152549341Y-100530526D01*
X152551305Y-100523195D01*
X152554141Y-100516141D01*
X152565869Y-100433732D01*
X152575880Y-100363391D01*
X152575880Y-100363388D01*
X152576461Y-100359307D01*
X152576606Y-100345500D01*
X152557575Y-100188233D01*
X152501579Y-100040046D01*
X152467588Y-99990589D01*
X152416154Y-99915751D01*
X152416153Y-99915749D01*
X152411852Y-99909492D01*
X152399989Y-99898922D01*
X152353386Y-99857401D01*
X152338980Y-99844565D01*
X152301425Y-99784316D01*
X152296799Y-99750489D01*
X152296799Y-98943931D01*
X152316801Y-98875810D01*
X152333704Y-98854836D01*
X153023982Y-98164558D01*
X153086294Y-98130532D01*
X153157109Y-98135597D01*
G37*
%TD.AperFunction*%
%TA.AperFunction,NonConductor*%
G36*
X156662408Y-98177031D02*
G01*
X156743171Y-98198219D01*
X156743175Y-98198220D01*
X156750522Y-98200147D01*
X156883260Y-98202232D01*
X156951058Y-98223301D01*
X156970376Y-98239121D01*
X157232922Y-98501667D01*
X157248064Y-98520415D01*
X157249179Y-98521640D01*
X157254829Y-98530391D01*
X157263007Y-98536838D01*
X157263009Y-98536840D01*
X157281200Y-98551180D01*
X157285641Y-98555126D01*
X157285703Y-98555053D01*
X157289667Y-98558412D01*
X157293344Y-98562089D01*
X157309092Y-98573343D01*
X157313762Y-98576849D01*
X157354047Y-98608607D01*
X157362681Y-98611639D01*
X157370134Y-98616965D01*
X157419250Y-98631654D01*
X157424892Y-98633487D01*
X157465226Y-98647651D01*
X157473251Y-98650469D01*
X157478816Y-98650951D01*
X157481524Y-98650951D01*
X157484158Y-98651065D01*
X157484256Y-98651094D01*
X157484249Y-98651258D01*
X157484953Y-98651302D01*
X157491178Y-98653164D01*
X157545035Y-98651048D01*
X157549982Y-98650951D01*
X158085686Y-98650951D01*
X158109634Y-98653500D01*
X158111299Y-98653579D01*
X158121482Y-98655771D01*
X158131823Y-98654547D01*
X158154829Y-98651824D01*
X158160758Y-98651475D01*
X158160750Y-98651379D01*
X158165928Y-98650951D01*
X158171130Y-98650951D01*
X158176263Y-98650097D01*
X158178304Y-98649928D01*
X158188684Y-98649500D01*
X160779206Y-98649500D01*
X160847327Y-98669502D01*
X160868301Y-98686405D01*
X162917581Y-100735685D01*
X162951607Y-100797997D01*
X162946542Y-100868812D01*
X162903995Y-100925648D01*
X162837475Y-100950459D01*
X162828486Y-100950780D01*
X159079664Y-100950780D01*
X159011543Y-100930778D01*
X158990569Y-100913875D01*
X158580143Y-100503449D01*
X158546117Y-100441137D01*
X158544495Y-100396601D01*
X158548581Y-100367892D01*
X158548581Y-100367886D01*
X158549162Y-100363807D01*
X158549307Y-100350000D01*
X158548763Y-100345500D01*
X158542562Y-100294260D01*
X158530276Y-100192733D01*
X158474280Y-100044546D01*
X158440043Y-99994730D01*
X158388855Y-99920251D01*
X158388854Y-99920249D01*
X158384553Y-99913992D01*
X158266275Y-99808611D01*
X158258889Y-99804700D01*
X158154234Y-99749288D01*
X158126274Y-99734484D01*
X157972633Y-99695892D01*
X157965034Y-99695852D01*
X157965033Y-99695852D01*
X157899181Y-99695507D01*
X157814221Y-99695062D01*
X157806841Y-99696834D01*
X157806839Y-99696834D01*
X157760430Y-99707976D01*
X157683473Y-99726452D01*
X157612567Y-99722905D01*
X157554832Y-99681585D01*
X157528602Y-99615612D01*
X157528060Y-99603933D01*
X157528060Y-99585836D01*
X157530609Y-99561888D01*
X157530688Y-99560223D01*
X157532880Y-99550040D01*
X157528933Y-99516693D01*
X157528583Y-99510762D01*
X157528488Y-99510770D01*
X157528060Y-99505592D01*
X157528060Y-99500392D01*
X157526940Y-99493662D01*
X157524891Y-99481351D01*
X157524054Y-99475473D01*
X157519254Y-99434915D01*
X157519254Y-99434914D01*
X157518030Y-99424575D01*
X157514067Y-99416323D01*
X157512564Y-99407290D01*
X157500031Y-99384061D01*
X157488226Y-99362184D01*
X157485529Y-99356891D01*
X157466775Y-99317834D01*
X157466772Y-99317830D01*
X157463341Y-99310684D01*
X157459746Y-99306408D01*
X157457823Y-99304485D01*
X157456051Y-99302553D01*
X157456008Y-99302474D01*
X157456132Y-99302361D01*
X157455656Y-99301821D01*
X157452570Y-99296102D01*
X157412973Y-99259499D01*
X157409408Y-99256070D01*
X156541340Y-98388002D01*
X156507314Y-98325690D01*
X156512379Y-98254875D01*
X156554926Y-98198039D01*
X156621446Y-98173228D01*
X156662408Y-98177031D01*
G37*
%TD.AperFunction*%
%TA.AperFunction,NonConductor*%
G36*
X134674172Y-100666690D02*
G01*
X134696241Y-100691637D01*
X134701224Y-100699053D01*
X134701228Y-100699058D01*
X134705463Y-100705360D01*
X134717270Y-100716103D01*
X134754193Y-100776742D01*
X134752472Y-100847718D01*
X134719861Y-100897312D01*
X134720846Y-100898199D01*
X134715761Y-100903846D01*
X134710039Y-100908838D01*
X134705672Y-100915051D01*
X134705667Y-100915057D01*
X134694746Y-100930596D01*
X134639212Y-100974828D01*
X134568580Y-100982013D01*
X134505275Y-100949871D01*
X134469398Y-100888607D01*
X134465660Y-100858145D01*
X134465660Y-100761914D01*
X134485662Y-100693793D01*
X134539318Y-100647300D01*
X134609592Y-100637196D01*
X134674172Y-100666690D01*
G37*
%TD.AperFunction*%
%TA.AperFunction,NonConductor*%
G36*
X148015623Y-100536946D02*
G01*
X148137293Y-100603008D01*
X148210643Y-100622251D01*
X148267610Y-100637196D01*
X148283657Y-100641406D01*
X148290522Y-100643207D01*
X148290222Y-100644351D01*
X148348240Y-100670375D01*
X148387025Y-100729841D01*
X148391610Y-100752328D01*
X148394999Y-100783026D01*
X148382593Y-100852930D01*
X148358855Y-100885947D01*
X148109870Y-101134932D01*
X148047558Y-101168958D01*
X148038988Y-101170203D01*
X148039032Y-101170500D01*
X147964439Y-101181481D01*
X147964031Y-101178710D01*
X147908239Y-101179586D01*
X147847917Y-101142145D01*
X147817413Y-101078035D01*
X147820446Y-101035171D01*
X147818712Y-101034918D01*
X147828840Y-100965495D01*
X147828840Y-100965489D01*
X147829500Y-100960968D01*
X147829500Y-100647677D01*
X147849502Y-100579556D01*
X147903158Y-100533063D01*
X147973432Y-100522959D01*
X148015623Y-100536946D01*
G37*
%TD.AperFunction*%
%TA.AperFunction,NonConductor*%
G36*
X138958532Y-101067683D02*
G01*
X139015368Y-101110230D01*
X139040179Y-101176750D01*
X139040500Y-101185739D01*
X139040500Y-101434261D01*
X139020498Y-101502382D01*
X138966842Y-101548875D01*
X138896568Y-101558979D01*
X138831988Y-101529485D01*
X138825405Y-101523356D01*
X138765723Y-101463674D01*
X138684458Y-101422267D01*
X138632843Y-101373518D01*
X138615777Y-101304603D01*
X138638678Y-101237402D01*
X138684458Y-101197733D01*
X138707997Y-101185739D01*
X138765723Y-101156326D01*
X138825405Y-101096644D01*
X138887717Y-101062618D01*
X138958532Y-101067683D01*
G37*
%TD.AperFunction*%
%TA.AperFunction,NonConductor*%
G36*
X136448382Y-101074502D02*
G01*
X136469356Y-101091405D01*
X136534277Y-101156326D01*
X136592003Y-101185739D01*
X136615542Y-101197733D01*
X136667157Y-101246482D01*
X136684223Y-101315397D01*
X136661322Y-101382598D01*
X136615542Y-101422267D01*
X136534277Y-101463674D01*
X136469356Y-101528595D01*
X136407044Y-101562621D01*
X136380261Y-101565500D01*
X135975659Y-101565500D01*
X135907538Y-101545498D01*
X135861045Y-101491842D01*
X135850916Y-101421747D01*
X135851502Y-101417634D01*
X135859162Y-101363807D01*
X135859307Y-101350000D01*
X135853437Y-101301496D01*
X135865109Y-101231468D01*
X135889429Y-101197265D01*
X135995289Y-101091405D01*
X136057601Y-101057379D01*
X136084384Y-101054500D01*
X136380261Y-101054500D01*
X136448382Y-101074502D01*
G37*
%TD.AperFunction*%
%TA.AperFunction,NonConductor*%
G36*
X155338611Y-101324502D02*
G01*
X155385104Y-101378158D01*
X155395208Y-101448432D01*
X155384805Y-101482159D01*
X155382844Y-101484647D01*
X155379812Y-101493281D01*
X155374486Y-101500734D01*
X155362715Y-101540095D01*
X155359799Y-101549844D01*
X155357964Y-101555492D01*
X155355461Y-101562621D01*
X155340982Y-101603851D01*
X155340500Y-101609416D01*
X155340500Y-101612124D01*
X155340386Y-101614758D01*
X155340357Y-101614856D01*
X155340193Y-101614849D01*
X155340149Y-101615553D01*
X155338287Y-101621778D01*
X155339369Y-101649319D01*
X155340403Y-101675635D01*
X155340500Y-101680582D01*
X155340500Y-101715187D01*
X155320498Y-101783308D01*
X155297329Y-101810136D01*
X155237829Y-101862041D01*
X155173347Y-101891749D01*
X155103040Y-101881879D01*
X155049230Y-101835565D01*
X155029000Y-101767092D01*
X155029000Y-101534884D01*
X155049002Y-101466763D01*
X155065905Y-101445789D01*
X155170289Y-101341405D01*
X155232601Y-101307379D01*
X155259384Y-101304500D01*
X155270490Y-101304500D01*
X155338611Y-101324502D01*
G37*
%TD.AperFunction*%
%TA.AperFunction,NonConductor*%
G36*
X134674172Y-101748913D02*
G01*
X134696243Y-101773863D01*
X134696673Y-101774504D01*
X134696677Y-101774509D01*
X134700908Y-101780805D01*
X134706522Y-101785913D01*
X134706526Y-101785918D01*
X134706960Y-101786313D01*
X134707183Y-101786679D01*
X134711490Y-101791669D01*
X134710658Y-101792387D01*
X134743879Y-101846956D01*
X134742152Y-101917932D01*
X134715792Y-101963811D01*
X134715757Y-101963850D01*
X134710039Y-101968838D01*
X134705675Y-101975048D01*
X134705670Y-101975053D01*
X134694746Y-101990596D01*
X134639212Y-102034828D01*
X134568580Y-102042013D01*
X134505275Y-102009871D01*
X134469398Y-101948607D01*
X134465660Y-101918145D01*
X134465660Y-101844137D01*
X134485662Y-101776016D01*
X134539318Y-101729523D01*
X134609592Y-101719419D01*
X134674172Y-101748913D01*
G37*
%TD.AperFunction*%
%TA.AperFunction,NonConductor*%
G36*
X129838012Y-101985160D02*
G01*
X129844595Y-101991289D01*
X130029468Y-102176162D01*
X130063494Y-102238474D01*
X130058429Y-102309289D01*
X130015882Y-102366125D01*
X129987875Y-102381402D01*
X129985204Y-102382043D01*
X129844434Y-102454700D01*
X129725059Y-102558838D01*
X129633970Y-102688444D01*
X129633295Y-102687969D01*
X129587790Y-102734174D01*
X129518533Y-102749794D01*
X129466982Y-102731204D01*
X129465723Y-102733674D01*
X129384458Y-102692267D01*
X129332843Y-102643518D01*
X129315777Y-102574603D01*
X129338678Y-102507402D01*
X129384458Y-102467733D01*
X129410036Y-102454700D01*
X129465723Y-102426326D01*
X129556326Y-102335723D01*
X129614498Y-102221555D01*
X129629500Y-102126834D01*
X129629500Y-102080384D01*
X129649502Y-102012263D01*
X129703158Y-101965770D01*
X129773432Y-101955666D01*
X129838012Y-101985160D01*
G37*
%TD.AperFunction*%
%TA.AperFunction,NonConductor*%
G36*
X138958532Y-102337683D02*
G01*
X139015368Y-102380230D01*
X139040179Y-102446750D01*
X139040500Y-102455739D01*
X139040500Y-102704261D01*
X139020498Y-102772382D01*
X138966842Y-102818875D01*
X138896568Y-102828979D01*
X138831988Y-102799485D01*
X138825405Y-102793356D01*
X138765723Y-102733674D01*
X138684458Y-102692267D01*
X138632843Y-102643518D01*
X138615777Y-102574603D01*
X138638678Y-102507402D01*
X138684458Y-102467733D01*
X138710036Y-102454700D01*
X138765723Y-102426326D01*
X138825405Y-102366644D01*
X138887717Y-102332618D01*
X138958532Y-102337683D01*
G37*
%TD.AperFunction*%
%TA.AperFunction,NonConductor*%
G36*
X136448382Y-102344502D02*
G01*
X136469356Y-102361405D01*
X136534277Y-102426326D01*
X136589964Y-102454700D01*
X136615542Y-102467733D01*
X136667157Y-102516482D01*
X136684223Y-102585397D01*
X136661322Y-102652598D01*
X136615542Y-102692267D01*
X136534277Y-102733674D01*
X136469356Y-102798595D01*
X136407044Y-102832621D01*
X136380261Y-102835500D01*
X135920841Y-102835500D01*
X135852720Y-102815498D01*
X135806227Y-102761842D01*
X135796123Y-102691568D01*
X135803933Y-102662504D01*
X135804739Y-102660500D01*
X135836842Y-102580641D01*
X135850668Y-102483493D01*
X135857890Y-102432747D01*
X135887291Y-102368124D01*
X135946962Y-102329655D01*
X135982633Y-102324500D01*
X136380261Y-102324500D01*
X136448382Y-102344502D01*
G37*
%TD.AperFunction*%
%TA.AperFunction,NonConductor*%
G36*
X134674172Y-102808913D02*
G01*
X134696243Y-102833863D01*
X134696670Y-102834499D01*
X134696672Y-102834502D01*
X134700908Y-102840805D01*
X134706529Y-102845920D01*
X134708059Y-102847692D01*
X134737431Y-102912328D01*
X134727196Y-102982583D01*
X134709965Y-103008786D01*
X134710038Y-103008838D01*
X134708371Y-103011209D01*
X134708347Y-103011245D01*
X134705669Y-103015055D01*
X134705667Y-103015058D01*
X134694746Y-103030596D01*
X134639212Y-103074828D01*
X134568580Y-103082013D01*
X134505275Y-103049871D01*
X134469398Y-102988607D01*
X134465660Y-102958145D01*
X134465660Y-102904137D01*
X134485662Y-102836016D01*
X134539318Y-102789523D01*
X134609592Y-102779419D01*
X134674172Y-102808913D01*
G37*
%TD.AperFunction*%
%TA.AperFunction,NonConductor*%
G36*
X136448382Y-103614502D02*
G01*
X136469356Y-103631405D01*
X136534277Y-103696326D01*
X136601574Y-103730616D01*
X136615542Y-103737733D01*
X136667157Y-103786482D01*
X136684223Y-103855397D01*
X136661322Y-103922598D01*
X136615542Y-103962267D01*
X136611079Y-103964541D01*
X136534277Y-104003674D01*
X136469356Y-104068595D01*
X136407044Y-104102621D01*
X136380261Y-104105500D01*
X135803118Y-104105500D01*
X135734997Y-104085498D01*
X135704217Y-104055655D01*
X135703880Y-104055952D01*
X135700096Y-104051660D01*
X135699278Y-104050867D01*
X135698858Y-104050256D01*
X135694553Y-104043992D01*
X135694876Y-104043770D01*
X135666787Y-103983634D01*
X135676287Y-103913275D01*
X135689024Y-103891106D01*
X135701414Y-103873863D01*
X135777755Y-103767624D01*
X135815592Y-103673503D01*
X135859559Y-103617759D01*
X135932499Y-103594500D01*
X136380261Y-103594500D01*
X136448382Y-103614502D01*
G37*
%TD.AperFunction*%
%TA.AperFunction,NonConductor*%
G36*
X134674172Y-103848913D02*
G01*
X134696243Y-103873863D01*
X134696670Y-103874499D01*
X134696672Y-103874502D01*
X134700908Y-103880805D01*
X134704208Y-103883808D01*
X134733024Y-103947229D01*
X134722785Y-104017483D01*
X134709152Y-104038215D01*
X134710038Y-104038838D01*
X134694746Y-104060596D01*
X134639212Y-104104828D01*
X134568580Y-104112013D01*
X134505275Y-104079871D01*
X134469398Y-104018607D01*
X134465660Y-103988145D01*
X134465660Y-103944137D01*
X134485662Y-103876016D01*
X134539318Y-103829523D01*
X134609592Y-103819419D01*
X134674172Y-103848913D01*
G37*
%TD.AperFunction*%
%TA.AperFunction,NonConductor*%
G36*
X162527097Y-103527862D02*
G01*
X162548071Y-103544765D01*
X163717591Y-104714285D01*
X163751617Y-104776597D01*
X163746552Y-104847412D01*
X163704005Y-104904248D01*
X163686286Y-104915346D01*
X163629414Y-104944700D01*
X163564900Y-105000980D01*
X163558189Y-105006834D01*
X163493707Y-105036542D01*
X163423399Y-105026673D01*
X163386264Y-105000980D01*
X162748691Y-104363407D01*
X162108238Y-103722955D01*
X162074213Y-103660643D01*
X162079277Y-103589828D01*
X162121824Y-103532992D01*
X162188344Y-103508181D01*
X162197333Y-103507860D01*
X162458976Y-103507860D01*
X162527097Y-103527862D01*
G37*
%TD.AperFunction*%
%TA.AperFunction,NonConductor*%
G36*
X139059766Y-103523488D02*
G01*
X139097131Y-103567649D01*
X139097484Y-103567421D01*
X139099245Y-103570149D01*
X139100750Y-103571927D01*
X139101784Y-103574079D01*
X139105219Y-103581232D01*
X139108814Y-103585508D01*
X139110737Y-103587431D01*
X139112509Y-103589363D01*
X139112552Y-103589442D01*
X139112428Y-103589555D01*
X139112904Y-103590095D01*
X139115990Y-103595814D01*
X139123635Y-103602881D01*
X139155586Y-103632416D01*
X139159152Y-103635846D01*
X141000836Y-105477530D01*
X141034862Y-105539842D01*
X141029797Y-105610657D01*
X140987250Y-105667493D01*
X140920730Y-105692304D01*
X140911082Y-105692623D01*
X140877962Y-105692450D01*
X140853336Y-105692321D01*
X140785322Y-105671963D01*
X140764901Y-105655418D01*
X140634267Y-105524784D01*
X140619125Y-105506036D01*
X140618010Y-105504811D01*
X140612360Y-105496060D01*
X140604182Y-105489613D01*
X140604180Y-105489611D01*
X140585989Y-105475271D01*
X140581548Y-105471325D01*
X140581486Y-105471398D01*
X140577522Y-105468039D01*
X140573845Y-105464362D01*
X140558097Y-105453108D01*
X140553427Y-105449602D01*
X140513142Y-105417844D01*
X140504508Y-105414812D01*
X140497055Y-105409486D01*
X140447939Y-105394797D01*
X140442297Y-105392964D01*
X140401422Y-105378610D01*
X140401421Y-105378610D01*
X140393938Y-105375982D01*
X140388373Y-105375500D01*
X140385665Y-105375500D01*
X140383031Y-105375386D01*
X140382933Y-105375357D01*
X140382940Y-105375193D01*
X140382236Y-105375149D01*
X140376011Y-105373287D01*
X140322154Y-105375403D01*
X140317207Y-105375500D01*
X138919739Y-105375500D01*
X138851618Y-105355498D01*
X138830644Y-105338595D01*
X138765723Y-105273674D01*
X138684458Y-105232267D01*
X138632843Y-105183518D01*
X138615777Y-105114603D01*
X138638678Y-105047402D01*
X138684458Y-105007733D01*
X138710572Y-104994427D01*
X138765723Y-104966326D01*
X138856326Y-104875723D01*
X138914498Y-104761555D01*
X138929500Y-104666834D01*
X138929500Y-104303166D01*
X138914498Y-104208445D01*
X138856326Y-104094277D01*
X138765723Y-104003674D01*
X138688921Y-103964541D01*
X138684458Y-103962267D01*
X138632843Y-103913518D01*
X138615777Y-103844603D01*
X138638678Y-103777402D01*
X138684458Y-103737733D01*
X138698426Y-103730616D01*
X138765723Y-103696326D01*
X138856326Y-103605723D01*
X138862045Y-103594500D01*
X138874901Y-103569268D01*
X138923650Y-103517653D01*
X138992565Y-103500587D01*
X139059766Y-103523488D01*
G37*
%TD.AperFunction*%
%TA.AperFunction,NonConductor*%
G36*
X136448382Y-104884502D02*
G01*
X136469356Y-104901405D01*
X136534277Y-104966326D01*
X136589428Y-104994427D01*
X136615542Y-105007733D01*
X136667157Y-105056482D01*
X136684223Y-105125397D01*
X136661322Y-105192598D01*
X136615542Y-105232267D01*
X136534277Y-105273674D01*
X136443674Y-105364277D01*
X136385502Y-105478445D01*
X136370500Y-105573166D01*
X136370500Y-105842462D01*
X136350498Y-105910583D01*
X136296842Y-105957076D01*
X136226568Y-105967180D01*
X136161988Y-105937686D01*
X136155405Y-105931557D01*
X135480665Y-105256817D01*
X135446639Y-105194505D01*
X135451704Y-105123690D01*
X135494251Y-105066854D01*
X135513137Y-105055162D01*
X135564855Y-105029151D01*
X135570626Y-105024222D01*
X135570629Y-105024220D01*
X135679537Y-104931203D01*
X135685314Y-104926269D01*
X135691994Y-104916973D01*
X135694212Y-104915244D01*
X135694887Y-104914510D01*
X135695009Y-104914623D01*
X135747989Y-104873326D01*
X135794316Y-104864500D01*
X136380261Y-104864500D01*
X136448382Y-104884502D01*
G37*
%TD.AperFunction*%
%TA.AperFunction,NonConductor*%
G36*
X140186526Y-106154502D02*
G01*
X140207500Y-106171405D01*
X140230249Y-106194154D01*
X140264275Y-106256466D01*
X140266076Y-106299693D01*
X140260729Y-106340307D01*
X140269421Y-106419036D01*
X140277181Y-106489319D01*
X140278113Y-106497764D01*
X140280723Y-106504895D01*
X140280723Y-106504897D01*
X140287315Y-106522910D01*
X140291941Y-106593756D01*
X140257531Y-106655856D01*
X140195009Y-106689495D01*
X140168989Y-106692211D01*
X136968249Y-106692211D01*
X136900128Y-106672209D01*
X136879154Y-106655306D01*
X136748443Y-106524595D01*
X136714417Y-106462283D01*
X136719482Y-106391468D01*
X136762029Y-106334632D01*
X136828549Y-106309821D01*
X136837538Y-106309500D01*
X138556834Y-106309500D01*
X138651555Y-106294498D01*
X138765723Y-106236326D01*
X138830644Y-106171405D01*
X138892956Y-106137379D01*
X138919739Y-106134500D01*
X140118405Y-106134500D01*
X140186526Y-106154502D01*
G37*
%TD.AperFunction*%
%TA.AperFunction,NonConductor*%
G36*
X159310021Y-107630208D02*
G01*
X159345255Y-107691845D01*
X159347602Y-107704577D01*
X159351818Y-107736596D01*
X159355890Y-107745329D01*
X159358589Y-107754588D01*
X159356124Y-107755307D01*
X159364648Y-107811446D01*
X159335666Y-107876258D01*
X159276245Y-107915112D01*
X159239793Y-107920500D01*
X159199682Y-107920500D01*
X159131561Y-107900498D01*
X159105115Y-107874861D01*
X159103879Y-107875950D01*
X159098855Y-107870251D01*
X159094553Y-107863992D01*
X159088883Y-107858940D01*
X159088338Y-107858322D01*
X159058293Y-107793996D01*
X159067794Y-107723638D01*
X159085639Y-107696502D01*
X159085314Y-107696269D01*
X159120359Y-107647499D01*
X159176353Y-107603851D01*
X159247057Y-107597405D01*
X159310021Y-107630208D01*
G37*
%TD.AperFunction*%
%TA.AperFunction,NonConductor*%
G36*
X167553246Y-107956788D02*
G01*
X167588404Y-107973182D01*
X167590485Y-107973456D01*
X167646859Y-108009530D01*
X167676478Y-108074053D01*
X167667433Y-108137852D01*
X167668950Y-108138444D01*
X167625751Y-108249244D01*
X167582371Y-108305445D01*
X167515491Y-108329272D01*
X167446348Y-108313159D01*
X167419263Y-108292569D01*
X167316808Y-108190114D01*
X167282782Y-108127802D01*
X167287847Y-108056987D01*
X167330394Y-108000151D01*
X167389456Y-107976097D01*
X167392842Y-107975651D01*
X167411596Y-107973182D01*
X167446752Y-107956789D01*
X167516942Y-107946128D01*
X167553246Y-107956788D01*
G37*
%TD.AperFunction*%
%TA.AperFunction,NonConductor*%
G36*
X161053246Y-107956788D02*
G01*
X161088404Y-107973182D01*
X161097957Y-107974440D01*
X161097965Y-107974442D01*
X161101712Y-107974935D01*
X161105678Y-107976690D01*
X161107216Y-107977138D01*
X161107156Y-107977344D01*
X161166638Y-108003660D01*
X161205727Y-108062927D01*
X161206568Y-108133919D01*
X161174355Y-108188951D01*
X160900419Y-108462887D01*
X160838107Y-108496913D01*
X160811324Y-108499792D01*
X160531092Y-108499792D01*
X160462971Y-108479790D01*
X160416478Y-108426134D01*
X160406374Y-108355860D01*
X160435868Y-108291280D01*
X160441997Y-108284697D01*
X160480216Y-108246478D01*
X160498964Y-108231336D01*
X160500189Y-108230221D01*
X160508940Y-108224571D01*
X160515387Y-108216393D01*
X160515389Y-108216391D01*
X160529729Y-108198200D01*
X160533675Y-108193759D01*
X160533602Y-108193697D01*
X160536961Y-108189733D01*
X160540638Y-108186056D01*
X160551892Y-108170308D01*
X160555398Y-108165638D01*
X160587156Y-108125353D01*
X160590188Y-108116719D01*
X160595514Y-108109266D01*
X160607437Y-108069397D01*
X160646118Y-108009864D01*
X160710846Y-107980694D01*
X160728154Y-107979500D01*
X160863608Y-107979500D01*
X160911596Y-107973182D01*
X160946752Y-107956789D01*
X161016942Y-107946128D01*
X161053246Y-107956788D01*
G37*
%TD.AperFunction*%
%TA.AperFunction,NonConductor*%
G36*
X166838012Y-108785160D02*
G01*
X166844595Y-108791289D01*
X167267289Y-109213983D01*
X167301315Y-109276295D01*
X167296250Y-109347110D01*
X167253703Y-109403946D01*
X167186381Y-109428812D01*
X167186098Y-109428830D01*
X167181611Y-109428803D01*
X167141454Y-109434304D01*
X167071250Y-109423733D01*
X167035259Y-109398565D01*
X166666405Y-109029711D01*
X166632379Y-108967399D01*
X166629500Y-108940616D01*
X166629500Y-108880384D01*
X166649502Y-108812263D01*
X166703158Y-108765770D01*
X166773432Y-108755666D01*
X166838012Y-108785160D01*
G37*
%TD.AperFunction*%
%TA.AperFunction,NonConductor*%
G36*
X141028117Y-99872410D02*
G01*
X141059758Y-99893453D01*
X141069302Y-99902138D01*
X141106222Y-99962777D01*
X141110500Y-99995329D01*
X141110500Y-102376080D01*
X141107951Y-102400028D01*
X141107872Y-102401693D01*
X141105680Y-102411876D01*
X141106904Y-102422217D01*
X141109627Y-102445223D01*
X141109977Y-102451154D01*
X141110072Y-102451146D01*
X141110500Y-102456324D01*
X141110500Y-102461524D01*
X141111354Y-102466653D01*
X141111354Y-102466656D01*
X141113669Y-102480565D01*
X141114506Y-102486443D01*
X141116987Y-102507402D01*
X141120530Y-102537341D01*
X141124493Y-102545593D01*
X141125996Y-102554626D01*
X141130943Y-102563795D01*
X141130944Y-102563797D01*
X141150334Y-102599732D01*
X141153031Y-102605025D01*
X141171785Y-102644082D01*
X141171788Y-102644086D01*
X141175219Y-102651232D01*
X141178814Y-102655508D01*
X141180737Y-102657431D01*
X141182509Y-102659363D01*
X141182552Y-102659442D01*
X141182428Y-102659555D01*
X141182904Y-102660095D01*
X141185990Y-102665814D01*
X141193635Y-102672881D01*
X141225586Y-102702416D01*
X141229152Y-102705846D01*
X147740039Y-109216733D01*
X147774065Y-109279045D01*
X147769000Y-109349860D01*
X147726453Y-109406696D01*
X147668044Y-109430661D01*
X147629503Y-109435941D01*
X147608718Y-109438788D01*
X147608502Y-109437214D01*
X147544459Y-109432180D01*
X147500226Y-109403532D01*
X140876405Y-102779711D01*
X140842379Y-102717399D01*
X140839500Y-102690616D01*
X140839500Y-99994730D01*
X140859502Y-99926609D01*
X140883666Y-99898922D01*
X140893127Y-99890841D01*
X140957916Y-99861807D01*
X141028117Y-99872410D01*
G37*
%TD.AperFunction*%
%TA.AperFunction,NonConductor*%
G36*
X131066527Y-109043675D02*
G01*
X131073110Y-109049804D01*
X131240039Y-109216733D01*
X131274065Y-109279045D01*
X131269000Y-109349860D01*
X131226453Y-109406696D01*
X131168044Y-109430661D01*
X131129503Y-109435941D01*
X131108718Y-109438788D01*
X131108502Y-109437214D01*
X131044459Y-109432180D01*
X131000226Y-109403532D01*
X130894920Y-109298226D01*
X130860894Y-109235914D01*
X130858015Y-109209131D01*
X130858015Y-109138899D01*
X130878017Y-109070778D01*
X130931673Y-109024285D01*
X131001947Y-109014181D01*
X131066527Y-109043675D01*
G37*
%TD.AperFunction*%
%TA.AperFunction,NonConductor*%
G36*
X139389488Y-108370253D02*
G01*
X139410462Y-108387156D01*
X140240039Y-109216733D01*
X140274065Y-109279045D01*
X140269000Y-109349860D01*
X140226453Y-109406696D01*
X140168044Y-109430661D01*
X140129503Y-109435941D01*
X140108718Y-109438788D01*
X140108502Y-109437214D01*
X140044459Y-109432180D01*
X140000226Y-109403532D01*
X139162040Y-108565346D01*
X139128014Y-108503034D01*
X139133079Y-108432219D01*
X139175626Y-108375383D01*
X139242146Y-108350572D01*
X139251135Y-108350251D01*
X139321367Y-108350251D01*
X139389488Y-108370253D01*
G37*
%TD.AperFunction*%
%TA.AperFunction,NonConductor*%
G36*
X147560969Y-101296290D02*
G01*
X147616761Y-101295414D01*
X147677083Y-101332855D01*
X147707587Y-101396965D01*
X147704554Y-101439829D01*
X147706288Y-101440082D01*
X147697200Y-101502382D01*
X147695500Y-101514032D01*
X147695500Y-102835968D01*
X147696171Y-102840524D01*
X147703781Y-102892217D01*
X147706481Y-102910561D01*
X147726122Y-102950565D01*
X147755897Y-103011209D01*
X147762162Y-103023970D01*
X147783518Y-103045289D01*
X147817597Y-103107572D01*
X147820500Y-103134462D01*
X147820500Y-104586080D01*
X147817951Y-104610028D01*
X147817872Y-104611693D01*
X147815680Y-104621876D01*
X147816904Y-104632217D01*
X147819627Y-104655223D01*
X147819977Y-104661154D01*
X147820072Y-104661146D01*
X147820500Y-104666324D01*
X147820500Y-104671524D01*
X147821354Y-104676653D01*
X147821354Y-104676656D01*
X147823669Y-104690565D01*
X147824506Y-104696443D01*
X147829073Y-104735028D01*
X147830530Y-104747341D01*
X147834493Y-104755593D01*
X147835996Y-104764626D01*
X147840943Y-104773795D01*
X147840944Y-104773797D01*
X147860334Y-104809732D01*
X147863031Y-104815025D01*
X147881785Y-104854082D01*
X147881788Y-104854086D01*
X147885219Y-104861232D01*
X147888814Y-104865508D01*
X147890737Y-104867431D01*
X147892509Y-104869363D01*
X147892552Y-104869442D01*
X147892428Y-104869555D01*
X147892904Y-104870095D01*
X147895990Y-104875814D01*
X147903635Y-104882881D01*
X147935586Y-104912416D01*
X147939152Y-104915846D01*
X152240039Y-109216733D01*
X152274065Y-109279045D01*
X152269000Y-109349860D01*
X152226453Y-109406696D01*
X152168044Y-109430661D01*
X152129503Y-109435941D01*
X152108718Y-109438788D01*
X152108502Y-109437214D01*
X152044459Y-109432180D01*
X152000226Y-109403532D01*
X147241405Y-104644711D01*
X147207379Y-104582399D01*
X147204500Y-104555616D01*
X147204500Y-101430500D01*
X147224502Y-101362379D01*
X147278158Y-101315886D01*
X147330500Y-101304500D01*
X147485968Y-101304500D01*
X147560561Y-101293519D01*
X147560969Y-101296290D01*
G37*
%TD.AperFunction*%
%TA.AperFunction,NonConductor*%
G36*
X141788690Y-106265713D02*
G01*
X141794274Y-106270968D01*
X144740039Y-109216733D01*
X144774065Y-109279045D01*
X144769000Y-109349860D01*
X144726453Y-109406696D01*
X144668044Y-109430661D01*
X144629503Y-109435941D01*
X144608718Y-109438788D01*
X144608502Y-109437214D01*
X144544459Y-109432180D01*
X144500226Y-109403532D01*
X141938189Y-106841495D01*
X141923047Y-106822747D01*
X141921932Y-106821522D01*
X141916282Y-106812771D01*
X141908104Y-106806324D01*
X141908102Y-106806322D01*
X141889911Y-106791982D01*
X141885470Y-106788036D01*
X141885408Y-106788109D01*
X141881444Y-106784750D01*
X141877767Y-106781073D01*
X141862019Y-106769819D01*
X141857349Y-106766313D01*
X141817064Y-106734555D01*
X141808430Y-106731523D01*
X141800977Y-106726197D01*
X141751861Y-106711508D01*
X141746219Y-106709675D01*
X141705344Y-106695321D01*
X141705343Y-106695321D01*
X141697860Y-106692693D01*
X141692295Y-106692211D01*
X141689587Y-106692211D01*
X141686953Y-106692097D01*
X141686855Y-106692068D01*
X141686862Y-106691904D01*
X141686158Y-106691860D01*
X141679933Y-106689998D01*
X141669528Y-106690407D01*
X141659192Y-106689101D01*
X141659683Y-106685212D01*
X141610023Y-106672721D01*
X141561464Y-106620927D01*
X141548616Y-106551103D01*
X141552233Y-106531524D01*
X141554006Y-106524906D01*
X141556842Y-106517852D01*
X141564750Y-106462283D01*
X141578581Y-106365102D01*
X141578581Y-106365099D01*
X141579162Y-106361018D01*
X141579205Y-106356894D01*
X141579518Y-106352783D01*
X141580969Y-106352893D01*
X141599905Y-106290829D01*
X141654047Y-106244904D01*
X141724424Y-106235541D01*
X141788690Y-106265713D01*
G37*
%TD.AperFunction*%
%TA.AperFunction,NonConductor*%
G36*
X142058117Y-99872410D02*
G01*
X142089758Y-99893453D01*
X142099302Y-99902138D01*
X142136222Y-99962777D01*
X142140500Y-99995329D01*
X142140500Y-101906080D01*
X142137951Y-101930028D01*
X142137872Y-101931693D01*
X142135680Y-101941876D01*
X142136904Y-101952217D01*
X142139627Y-101975223D01*
X142139977Y-101981154D01*
X142140072Y-101981146D01*
X142140500Y-101986324D01*
X142140500Y-101991524D01*
X142141354Y-101996653D01*
X142141354Y-101996656D01*
X142143669Y-102010565D01*
X142144506Y-102016443D01*
X142150530Y-102067341D01*
X142154493Y-102075593D01*
X142155996Y-102084626D01*
X142160943Y-102093795D01*
X142160944Y-102093797D01*
X142180334Y-102129732D01*
X142183031Y-102135025D01*
X142201785Y-102174082D01*
X142201788Y-102174086D01*
X142205219Y-102181232D01*
X142208814Y-102185508D01*
X142210737Y-102187431D01*
X142212509Y-102189363D01*
X142212552Y-102189442D01*
X142212428Y-102189555D01*
X142212904Y-102190095D01*
X142215990Y-102195814D01*
X142223635Y-102202881D01*
X142255586Y-102232416D01*
X142259152Y-102235846D01*
X149240039Y-109216733D01*
X149274065Y-109279045D01*
X149269000Y-109349860D01*
X149226453Y-109406696D01*
X149168044Y-109430661D01*
X149129503Y-109435941D01*
X149108718Y-109438788D01*
X149108502Y-109437214D01*
X149044459Y-109432180D01*
X149000226Y-109403532D01*
X141906405Y-102309711D01*
X141872379Y-102247399D01*
X141869500Y-102220616D01*
X141869500Y-99994730D01*
X141889502Y-99926609D01*
X141913666Y-99898922D01*
X141923127Y-99890841D01*
X141987916Y-99861807D01*
X142058117Y-99872410D01*
G37*
%TD.AperFunction*%
%TA.AperFunction,NonConductor*%
G36*
X148788012Y-104265160D02*
G01*
X148794595Y-104271289D01*
X153740039Y-109216733D01*
X153774065Y-109279045D01*
X153769000Y-109349860D01*
X153726453Y-109406696D01*
X153668044Y-109430661D01*
X153629503Y-109435941D01*
X153608718Y-109438788D01*
X153608502Y-109437214D01*
X153544459Y-109432180D01*
X153500226Y-109403532D01*
X148616405Y-104519711D01*
X148582379Y-104457399D01*
X148579500Y-104430616D01*
X148579500Y-104360384D01*
X148599502Y-104292263D01*
X148653158Y-104245770D01*
X148723432Y-104235666D01*
X148788012Y-104265160D01*
G37*
%TD.AperFunction*%
%TA.AperFunction,NonConductor*%
G36*
X141223257Y-95127078D02*
G01*
X141236552Y-95138632D01*
X144264900Y-98166980D01*
X144298926Y-98229292D01*
X144293861Y-98300107D01*
X144278892Y-98328526D01*
X144231651Y-98395743D01*
X144206210Y-98460997D01*
X144178241Y-98532734D01*
X144174107Y-98543336D01*
X144173115Y-98550869D01*
X144173115Y-98550870D01*
X144155272Y-98686405D01*
X144153430Y-98700395D01*
X144161052Y-98769435D01*
X144169336Y-98844461D01*
X144170814Y-98857852D01*
X144173424Y-98864983D01*
X144173424Y-98864985D01*
X144218659Y-98988595D01*
X144225254Y-99006618D01*
X144229490Y-99012921D01*
X144229490Y-99012922D01*
X144293807Y-99108635D01*
X144313609Y-99138104D01*
X144319228Y-99143217D01*
X144319229Y-99143218D01*
X144420790Y-99235631D01*
X144430777Y-99244718D01*
X144569994Y-99320307D01*
X144723223Y-99360506D01*
X144819839Y-99362024D01*
X144881473Y-99362992D01*
X144949271Y-99384061D01*
X144968589Y-99399881D01*
X144998924Y-99430216D01*
X145014066Y-99448964D01*
X145015181Y-99450189D01*
X145020831Y-99458940D01*
X145029009Y-99465387D01*
X145029011Y-99465389D01*
X145047202Y-99479729D01*
X145051646Y-99483678D01*
X145051708Y-99483604D01*
X145055665Y-99486957D01*
X145059346Y-99490638D01*
X145075056Y-99501865D01*
X145079782Y-99505413D01*
X145120049Y-99537156D01*
X145128686Y-99540189D01*
X145136136Y-99545513D01*
X145146112Y-99548497D01*
X145146113Y-99548497D01*
X145161448Y-99553083D01*
X145185251Y-99560202D01*
X145190888Y-99562034D01*
X145220484Y-99572427D01*
X145239253Y-99579018D01*
X145244818Y-99579500D01*
X145247526Y-99579500D01*
X145250160Y-99579614D01*
X145250258Y-99579643D01*
X145250251Y-99579807D01*
X145250955Y-99579851D01*
X145257180Y-99581713D01*
X145311037Y-99579597D01*
X145315984Y-99579500D01*
X145720165Y-99579500D01*
X145788286Y-99599502D01*
X145834779Y-99653158D01*
X145844883Y-99723432D01*
X145837711Y-99746720D01*
X145838470Y-99746955D01*
X145835583Y-99756294D01*
X145831288Y-99765082D01*
X145829876Y-99774761D01*
X145821192Y-99834290D01*
X145820500Y-99839032D01*
X145820500Y-100160968D01*
X145831481Y-100235561D01*
X145835797Y-100244352D01*
X145838703Y-100253703D01*
X145835849Y-100254590D01*
X145845221Y-100308940D01*
X145817544Y-100374320D01*
X145758913Y-100414357D01*
X145720051Y-100420500D01*
X145633920Y-100420500D01*
X145609972Y-100417951D01*
X145608307Y-100417872D01*
X145598124Y-100415680D01*
X145587783Y-100416904D01*
X145564777Y-100419627D01*
X145558846Y-100419977D01*
X145558854Y-100420072D01*
X145553676Y-100420500D01*
X145548476Y-100420500D01*
X145543347Y-100421354D01*
X145543344Y-100421354D01*
X145529435Y-100423669D01*
X145523557Y-100424506D01*
X145482999Y-100429306D01*
X145482998Y-100429306D01*
X145472659Y-100430530D01*
X145464407Y-100434493D01*
X145455374Y-100435996D01*
X145446205Y-100440943D01*
X145437808Y-100443818D01*
X145377838Y-100446328D01*
X145377539Y-100448695D01*
X145370001Y-100447743D01*
X145362633Y-100445892D01*
X145355034Y-100445852D01*
X145355033Y-100445852D01*
X145289181Y-100445507D01*
X145204221Y-100445062D01*
X145196841Y-100446834D01*
X145196839Y-100446834D01*
X145057563Y-100480271D01*
X145057560Y-100480272D01*
X145050184Y-100482043D01*
X144909414Y-100554700D01*
X144790039Y-100658838D01*
X144698950Y-100788444D01*
X144677616Y-100843163D01*
X144649586Y-100915057D01*
X144641406Y-100936037D01*
X144640414Y-100943570D01*
X144640414Y-100943571D01*
X144622712Y-101078035D01*
X144620729Y-101093096D01*
X144626898Y-101148970D01*
X144637017Y-101240623D01*
X144638113Y-101250553D01*
X144640723Y-101257684D01*
X144640723Y-101257686D01*
X144689326Y-101390500D01*
X144692553Y-101399319D01*
X144696789Y-101405622D01*
X144696789Y-101405623D01*
X144761809Y-101502382D01*
X144780908Y-101530805D01*
X144786527Y-101535918D01*
X144786528Y-101535919D01*
X144885275Y-101625771D01*
X144898076Y-101637419D01*
X145037293Y-101713008D01*
X145190522Y-101753207D01*
X145274477Y-101754526D01*
X145341319Y-101755576D01*
X145341322Y-101755576D01*
X145348916Y-101755695D01*
X145503332Y-101720329D01*
X145606493Y-101668445D01*
X145638072Y-101652563D01*
X145638075Y-101652561D01*
X145644855Y-101649151D01*
X145650626Y-101644222D01*
X145650629Y-101644220D01*
X145759536Y-101551204D01*
X145759536Y-101551203D01*
X145765314Y-101546269D01*
X145857755Y-101417624D01*
X145887012Y-101344845D01*
X145930979Y-101289101D01*
X145998103Y-101265976D01*
X146059252Y-101278642D01*
X146090082Y-101293712D01*
X146099761Y-101295124D01*
X146159505Y-101303840D01*
X146159511Y-101303840D01*
X146164032Y-101304500D01*
X146319500Y-101304500D01*
X146387621Y-101324502D01*
X146434114Y-101378158D01*
X146445500Y-101430500D01*
X146445500Y-104711080D01*
X146442951Y-104735028D01*
X146442872Y-104736693D01*
X146440680Y-104746876D01*
X146441904Y-104757217D01*
X146444627Y-104780223D01*
X146444977Y-104786154D01*
X146445072Y-104786146D01*
X146445500Y-104791324D01*
X146445500Y-104796524D01*
X146446354Y-104801653D01*
X146446354Y-104801656D01*
X146448669Y-104815565D01*
X146449506Y-104821443D01*
X146452580Y-104847412D01*
X146455530Y-104872341D01*
X146459493Y-104880593D01*
X146460996Y-104889626D01*
X146465943Y-104898795D01*
X146465944Y-104898797D01*
X146485334Y-104934732D01*
X146488031Y-104940025D01*
X146506785Y-104979082D01*
X146506788Y-104979086D01*
X146510219Y-104986232D01*
X146513814Y-104990508D01*
X146515737Y-104992431D01*
X146517509Y-104994363D01*
X146517552Y-104994442D01*
X146517428Y-104994555D01*
X146517904Y-104995095D01*
X146520990Y-105000814D01*
X146559641Y-105036542D01*
X146560586Y-105037416D01*
X146564152Y-105040846D01*
X150740039Y-109216733D01*
X150774065Y-109279045D01*
X150769000Y-109349860D01*
X150726453Y-109406696D01*
X150668044Y-109430661D01*
X150629503Y-109435941D01*
X150608718Y-109438788D01*
X150608502Y-109437214D01*
X150544459Y-109432180D01*
X150500226Y-109403532D01*
X142936405Y-101839711D01*
X142902379Y-101777399D01*
X142899500Y-101750616D01*
X142899500Y-99994730D01*
X142919502Y-99926609D01*
X142943669Y-99898919D01*
X142999536Y-99851204D01*
X143005314Y-99846269D01*
X143097755Y-99717624D01*
X143156842Y-99570641D01*
X143174209Y-99448611D01*
X143178581Y-99417891D01*
X143178581Y-99417888D01*
X143179162Y-99413807D01*
X143179307Y-99400000D01*
X143176650Y-99378039D01*
X143167507Y-99302489D01*
X143160276Y-99242733D01*
X143104280Y-99094546D01*
X143066443Y-99039492D01*
X143018855Y-98970251D01*
X143018854Y-98970249D01*
X143014553Y-98963992D01*
X142990217Y-98942309D01*
X142943669Y-98900837D01*
X142906113Y-98840586D01*
X142902362Y-98821573D01*
X142900374Y-98804780D01*
X142900024Y-98798846D01*
X142899928Y-98798854D01*
X142899500Y-98793676D01*
X142899500Y-98788476D01*
X142898646Y-98783344D01*
X142896331Y-98769435D01*
X142895494Y-98763557D01*
X142890694Y-98722999D01*
X142890694Y-98722998D01*
X142889470Y-98712659D01*
X142885507Y-98704407D01*
X142884004Y-98695374D01*
X142878089Y-98684410D01*
X142860317Y-98651475D01*
X142859665Y-98650266D01*
X142856969Y-98644975D01*
X142838215Y-98605919D01*
X142838214Y-98605918D01*
X142834781Y-98598768D01*
X142831187Y-98594493D01*
X142829262Y-98592568D01*
X142827491Y-98590638D01*
X142827445Y-98590553D01*
X142827568Y-98590441D01*
X142827096Y-98589906D01*
X142824010Y-98584186D01*
X142803293Y-98565035D01*
X142784414Y-98547584D01*
X142780848Y-98544154D01*
X139678099Y-95441405D01*
X139644073Y-95379093D01*
X139649138Y-95308278D01*
X139691685Y-95251442D01*
X139758205Y-95226631D01*
X139767194Y-95226310D01*
X139857387Y-95226310D01*
X139925508Y-95246312D01*
X139952767Y-95269978D01*
X139956674Y-95274504D01*
X139960908Y-95280805D01*
X139966524Y-95285915D01*
X140054014Y-95365524D01*
X140078076Y-95387419D01*
X140217293Y-95463008D01*
X140370522Y-95503207D01*
X140454477Y-95504526D01*
X140521319Y-95505576D01*
X140521322Y-95505576D01*
X140528916Y-95505695D01*
X140683332Y-95470329D01*
X140753742Y-95434917D01*
X140818072Y-95402563D01*
X140818075Y-95402561D01*
X140824855Y-95399151D01*
X140830626Y-95394222D01*
X140830629Y-95394220D01*
X140939536Y-95301204D01*
X140939536Y-95301203D01*
X140945314Y-95296269D01*
X141037755Y-95167624D01*
X141038631Y-95165445D01*
X141087392Y-95116965D01*
X141156809Y-95102075D01*
X141223257Y-95127078D01*
G37*
%TD.AperFunction*%
%TA.AperFunction,NonConductor*%
G36*
X138339008Y-108819773D02*
G01*
X138359982Y-108836676D01*
X138740039Y-109216733D01*
X138774065Y-109279045D01*
X138769000Y-109349860D01*
X138726453Y-109406696D01*
X138668044Y-109430661D01*
X138629503Y-109435941D01*
X138608718Y-109438788D01*
X138608502Y-109437214D01*
X138544459Y-109432180D01*
X138500226Y-109403532D01*
X138111560Y-109014866D01*
X138077534Y-108952554D01*
X138082599Y-108881739D01*
X138125146Y-108824903D01*
X138191666Y-108800092D01*
X138200655Y-108799771D01*
X138270887Y-108799771D01*
X138339008Y-108819773D01*
G37*
%TD.AperFunction*%
%TA.AperFunction,NonConductor*%
G36*
X141490448Y-107471213D02*
G01*
X141511422Y-107488116D01*
X143240039Y-109216733D01*
X143274065Y-109279045D01*
X143269000Y-109349860D01*
X143226453Y-109406696D01*
X143168044Y-109430661D01*
X143129503Y-109435941D01*
X143108718Y-109438788D01*
X143108502Y-109437214D01*
X143044459Y-109432180D01*
X143000226Y-109403532D01*
X141263000Y-107666306D01*
X141228974Y-107603994D01*
X141234039Y-107533179D01*
X141276586Y-107476343D01*
X141343106Y-107451532D01*
X141352095Y-107451211D01*
X141422327Y-107451211D01*
X141490448Y-107471213D01*
G37*
%TD.AperFunction*%
%TA.AperFunction,NonConductor*%
G36*
X140439968Y-107920733D02*
G01*
X140460942Y-107937636D01*
X141740039Y-109216733D01*
X141774065Y-109279045D01*
X141769000Y-109349860D01*
X141726453Y-109406696D01*
X141668044Y-109430661D01*
X141629503Y-109435941D01*
X141608718Y-109438788D01*
X141608502Y-109437214D01*
X141544459Y-109432180D01*
X141500226Y-109403532D01*
X140212520Y-108115826D01*
X140178494Y-108053514D01*
X140183559Y-107982699D01*
X140226106Y-107925863D01*
X140292626Y-107901052D01*
X140301615Y-107900731D01*
X140371847Y-107900731D01*
X140439968Y-107920733D01*
G37*
%TD.AperFunction*%
%TA.AperFunction,NonConductor*%
G36*
X139993282Y-99868008D02*
G01*
X140024920Y-99889051D01*
X140039300Y-99902136D01*
X140076222Y-99962777D01*
X140080500Y-99995329D01*
X140080500Y-102846080D01*
X140077951Y-102870028D01*
X140077872Y-102871693D01*
X140075680Y-102881876D01*
X140076904Y-102892217D01*
X140079627Y-102915223D01*
X140079977Y-102921154D01*
X140080072Y-102921146D01*
X140080500Y-102926324D01*
X140080500Y-102931524D01*
X140081354Y-102936653D01*
X140081354Y-102936656D01*
X140083669Y-102950565D01*
X140084506Y-102956443D01*
X140087267Y-102979768D01*
X140090530Y-103007341D01*
X140094493Y-103015593D01*
X140095996Y-103024626D01*
X140100943Y-103033795D01*
X140100944Y-103033797D01*
X140120334Y-103069732D01*
X140123031Y-103075025D01*
X140141785Y-103114082D01*
X140141788Y-103114086D01*
X140145219Y-103121232D01*
X140148814Y-103125508D01*
X140150737Y-103127431D01*
X140152509Y-103129363D01*
X140152552Y-103129442D01*
X140152428Y-103129555D01*
X140152904Y-103130095D01*
X140155990Y-103135814D01*
X140163635Y-103142881D01*
X140195586Y-103172416D01*
X140199152Y-103175846D01*
X146240039Y-109216733D01*
X146274065Y-109279045D01*
X146269000Y-109349860D01*
X146226453Y-109406696D01*
X146168044Y-109430661D01*
X146129503Y-109435941D01*
X146108718Y-109438788D01*
X146108502Y-109437214D01*
X146044459Y-109432180D01*
X146000226Y-109403532D01*
X139836405Y-103239711D01*
X139802379Y-103177399D01*
X139799500Y-103150616D01*
X139799500Y-99994730D01*
X139819502Y-99926609D01*
X139843672Y-99898917D01*
X139858292Y-99886431D01*
X139923083Y-99857401D01*
X139993282Y-99868008D01*
G37*
%TD.AperFunction*%
%TA.AperFunction,NonConductor*%
G36*
X149588012Y-103562660D02*
G01*
X149594595Y-103568789D01*
X155242237Y-109216431D01*
X155276263Y-109278743D01*
X155271198Y-109349558D01*
X155228651Y-109406394D01*
X155170243Y-109430360D01*
X155140810Y-109434392D01*
X155108720Y-109438788D01*
X155108504Y-109437214D01*
X155044459Y-109432180D01*
X155000226Y-109403532D01*
X149416405Y-103819711D01*
X149382379Y-103757399D01*
X149379500Y-103730616D01*
X149379500Y-103657884D01*
X149399502Y-103589763D01*
X149453158Y-103543270D01*
X149523432Y-103533166D01*
X149588012Y-103562660D01*
G37*
%TD.AperFunction*%
%TA.AperFunction,NonConductor*%
G36*
X157412134Y-105325942D02*
G01*
X157458627Y-105379598D01*
X157468731Y-105449872D01*
X157439237Y-105514452D01*
X157373427Y-105554459D01*
X157307563Y-105570271D01*
X157307560Y-105570272D01*
X157300184Y-105572043D01*
X157159414Y-105644700D01*
X157040039Y-105748838D01*
X156948950Y-105878444D01*
X156891406Y-106026037D01*
X156890414Y-106033570D01*
X156890414Y-106033571D01*
X156872657Y-106168452D01*
X156870729Y-106183096D01*
X156871563Y-106190646D01*
X156887255Y-106332778D01*
X156888113Y-106340553D01*
X156890723Y-106347684D01*
X156890723Y-106347686D01*
X156897097Y-106365102D01*
X156942553Y-106489319D01*
X156946789Y-106495622D01*
X156946789Y-106495623D01*
X156970914Y-106531524D01*
X157030908Y-106620805D01*
X157036527Y-106625918D01*
X157036528Y-106625919D01*
X157130592Y-106711510D01*
X157148076Y-106727419D01*
X157287293Y-106803008D01*
X157440522Y-106843207D01*
X157524477Y-106844526D01*
X157591319Y-106845576D01*
X157591322Y-106845576D01*
X157598916Y-106845695D01*
X157753332Y-106810329D01*
X157856585Y-106758399D01*
X157926427Y-106745661D01*
X157992071Y-106772705D01*
X158032673Y-106830946D01*
X158035342Y-106901892D01*
X158024243Y-106930502D01*
X158023314Y-106932234D01*
X158018950Y-106938444D01*
X158016192Y-106945519D01*
X157966191Y-107073765D01*
X157961406Y-107086037D01*
X157960414Y-107093570D01*
X157960414Y-107093571D01*
X157941724Y-107235539D01*
X157940729Y-107243096D01*
X157947891Y-107307969D01*
X157954408Y-107366991D01*
X157958113Y-107400553D01*
X157960723Y-107407684D01*
X157960723Y-107407686D01*
X158007278Y-107534903D01*
X158012553Y-107549319D01*
X158100908Y-107680805D01*
X158106527Y-107685918D01*
X158111489Y-107691666D01*
X158109209Y-107693635D01*
X158138927Y-107742438D01*
X158137208Y-107813414D01*
X158112192Y-107856960D01*
X158110039Y-107858838D01*
X158018950Y-107988444D01*
X158008621Y-108014937D01*
X157964617Y-108127802D01*
X157961406Y-108136037D01*
X157960414Y-108143570D01*
X157960414Y-108143571D01*
X157941835Y-108284697D01*
X157940729Y-108293096D01*
X157949421Y-108371825D01*
X157957088Y-108441266D01*
X157958113Y-108450553D01*
X157960723Y-108457684D01*
X157960723Y-108457686D01*
X158006905Y-108583884D01*
X158012553Y-108599319D01*
X158016789Y-108605622D01*
X158016789Y-108605623D01*
X158095751Y-108723130D01*
X158100908Y-108730805D01*
X158106527Y-108735918D01*
X158106528Y-108735919D01*
X158139334Y-108765770D01*
X158218076Y-108837419D01*
X158357293Y-108913008D01*
X158510522Y-108953207D01*
X158577993Y-108954267D01*
X158645779Y-108955332D01*
X158713577Y-108976401D01*
X158759222Y-109030781D01*
X158768220Y-109101205D01*
X158732895Y-109170411D01*
X158499234Y-109404072D01*
X158436922Y-109438098D01*
X158391517Y-109439593D01*
X158325189Y-109429680D01*
X158259555Y-109429279D01*
X158186097Y-109428830D01*
X158186091Y-109428830D01*
X158181611Y-109428803D01*
X158177168Y-109429412D01*
X158177162Y-109429412D01*
X158151724Y-109432897D01*
X158108719Y-109438788D01*
X158086461Y-109445149D01*
X158051838Y-109450000D01*
X156947973Y-109450000D01*
X156911872Y-109444717D01*
X156897954Y-109440555D01*
X156825189Y-109429680D01*
X156759555Y-109429279D01*
X156686097Y-109428830D01*
X156686091Y-109428830D01*
X156681611Y-109428803D01*
X156677168Y-109429412D01*
X156677162Y-109429412D01*
X156608719Y-109438788D01*
X156608417Y-109436584D01*
X156546641Y-109431790D01*
X156502292Y-109403098D01*
X153092829Y-105993635D01*
X153058803Y-105931323D01*
X153063868Y-105860508D01*
X153106415Y-105803672D01*
X153172935Y-105778861D01*
X153181924Y-105778540D01*
X155233090Y-105778540D01*
X155257038Y-105781089D01*
X155258703Y-105781168D01*
X155268886Y-105783360D01*
X155279227Y-105782136D01*
X155302233Y-105779413D01*
X155308164Y-105779063D01*
X155308156Y-105778968D01*
X155313334Y-105778540D01*
X155318534Y-105778540D01*
X155323663Y-105777686D01*
X155323666Y-105777686D01*
X155337575Y-105775371D01*
X155343453Y-105774534D01*
X155384011Y-105769734D01*
X155384012Y-105769734D01*
X155394351Y-105768510D01*
X155402603Y-105764547D01*
X155411636Y-105763044D01*
X155420805Y-105758097D01*
X155420807Y-105758096D01*
X155456742Y-105738706D01*
X155462035Y-105736009D01*
X155501092Y-105717255D01*
X155501096Y-105717252D01*
X155508242Y-105713821D01*
X155512518Y-105710226D01*
X155514441Y-105708303D01*
X155516373Y-105706531D01*
X155516452Y-105706488D01*
X155516565Y-105706612D01*
X155517105Y-105706136D01*
X155522824Y-105703050D01*
X155532758Y-105692304D01*
X155559426Y-105663454D01*
X155562856Y-105659888D01*
X155879899Y-105342845D01*
X155942211Y-105308819D01*
X155968994Y-105305940D01*
X157344013Y-105305940D01*
X157412134Y-105325942D01*
G37*
%TD.AperFunction*%
%TA.AperFunction,NonConductor*%
G36*
X169053246Y-107956788D02*
G01*
X169088404Y-107973182D01*
X169136392Y-107979500D01*
X169244500Y-107979500D01*
X169312621Y-107999502D01*
X169359114Y-108053158D01*
X169370500Y-108105500D01*
X169370500Y-109324000D01*
X169350498Y-109392121D01*
X169296842Y-109438614D01*
X169244500Y-109450000D01*
X168947973Y-109450000D01*
X168911872Y-109444717D01*
X168897954Y-109440555D01*
X168825189Y-109429680D01*
X168759555Y-109429279D01*
X168686097Y-109428830D01*
X168686091Y-109428830D01*
X168681611Y-109428803D01*
X168632658Y-109435509D01*
X168562455Y-109424938D01*
X168526464Y-109399770D01*
X168409577Y-109282883D01*
X168375551Y-109220571D01*
X168380616Y-109149756D01*
X168423163Y-109092920D01*
X168459342Y-109076157D01*
X168458781Y-109074598D01*
X168465928Y-109072025D01*
X168473332Y-109070329D01*
X168566178Y-109023633D01*
X168608072Y-109002563D01*
X168608075Y-109002561D01*
X168614855Y-108999151D01*
X168620626Y-108994222D01*
X168620629Y-108994220D01*
X168729536Y-108901204D01*
X168729536Y-108901203D01*
X168735314Y-108896269D01*
X168827755Y-108767624D01*
X168886842Y-108620641D01*
X168899343Y-108532799D01*
X168908581Y-108467891D01*
X168908581Y-108467888D01*
X168909162Y-108463807D01*
X168909307Y-108450000D01*
X168890276Y-108292733D01*
X168861428Y-108216391D01*
X168836964Y-108151648D01*
X168836963Y-108151646D01*
X168834280Y-108144546D01*
X168835158Y-108144214D01*
X168822599Y-108080998D01*
X168848610Y-108014937D01*
X168909687Y-107973433D01*
X168911596Y-107973182D01*
X168946752Y-107956789D01*
X169016942Y-107946128D01*
X169053246Y-107956788D01*
G37*
%TD.AperFunction*%
%TA.AperFunction,Conductor*%
%TO.N,+5V*%
G36*
X127089512Y-99709801D02*
G01*
X127119267Y-99747822D01*
X127143674Y-99795723D01*
X127213095Y-99865144D01*
X127247121Y-99927456D01*
X127250000Y-99954239D01*
X127250000Y-100125761D01*
X127229998Y-100193882D01*
X127213095Y-100214856D01*
X127143674Y-100284277D01*
X127085502Y-100398445D01*
X127070500Y-100493166D01*
X127070500Y-100856834D01*
X127085502Y-100951555D01*
X127143674Y-101065723D01*
X127213095Y-101135144D01*
X127247121Y-101197456D01*
X127250000Y-101224239D01*
X127250000Y-101395761D01*
X127229998Y-101463882D01*
X127213095Y-101484856D01*
X127143674Y-101554277D01*
X127085502Y-101668445D01*
X127070500Y-101763166D01*
X127070500Y-101768497D01*
X127070460Y-101768635D01*
X127070112Y-101773051D01*
X127069184Y-101772978D01*
X127050498Y-101836618D01*
X126996842Y-101883111D01*
X126943841Y-101894495D01*
X126854221Y-101894025D01*
X126846841Y-101895797D01*
X126846839Y-101895797D01*
X126707563Y-101929234D01*
X126707560Y-101929235D01*
X126700184Y-101931006D01*
X126559414Y-102003663D01*
X126440039Y-102107801D01*
X126348950Y-102237407D01*
X126291406Y-102385000D01*
X126290414Y-102392533D01*
X126290414Y-102392534D01*
X126281332Y-102461524D01*
X126270729Y-102542059D01*
X126272771Y-102560553D01*
X126286891Y-102688444D01*
X126288113Y-102699516D01*
X126290723Y-102706647D01*
X126290723Y-102706649D01*
X126339817Y-102840805D01*
X126342553Y-102848282D01*
X126430908Y-102979768D01*
X126436527Y-102984881D01*
X126436528Y-102984882D01*
X126462856Y-103008838D01*
X126548076Y-103086382D01*
X126549170Y-103086976D01*
X126591433Y-103140614D01*
X126598249Y-103211283D01*
X126565776Y-103274418D01*
X126557333Y-103282503D01*
X126440039Y-103384826D01*
X126348950Y-103514432D01*
X126339988Y-103537419D01*
X126302302Y-103634079D01*
X126291406Y-103662025D01*
X126290414Y-103669558D01*
X126290414Y-103669559D01*
X126277257Y-103769500D01*
X126270729Y-103819084D01*
X126271563Y-103826634D01*
X126286574Y-103962599D01*
X126288113Y-103976541D01*
X126290723Y-103983672D01*
X126290723Y-103983674D01*
X126335305Y-104105500D01*
X126342553Y-104125307D01*
X126346789Y-104131610D01*
X126346789Y-104131611D01*
X126366694Y-104161232D01*
X126430908Y-104256793D01*
X126547323Y-104362722D01*
X126547324Y-104362723D01*
X126548076Y-104363407D01*
X126547962Y-104363532D01*
X126589528Y-104416281D01*
X126596347Y-104486949D01*
X126563876Y-104550086D01*
X126555430Y-104558175D01*
X126541852Y-104570020D01*
X126440039Y-104658838D01*
X126348950Y-104788444D01*
X126291406Y-104936037D01*
X126290414Y-104943570D01*
X126290414Y-104943571D01*
X126280413Y-105019540D01*
X126270729Y-105093096D01*
X126288113Y-105250553D01*
X126290723Y-105257684D01*
X126290723Y-105257686D01*
X126333837Y-105375500D01*
X126342553Y-105399319D01*
X126346789Y-105405622D01*
X126346789Y-105405623D01*
X126395724Y-105478445D01*
X126430908Y-105530805D01*
X126436527Y-105535918D01*
X126436528Y-105535919D01*
X126444173Y-105542875D01*
X126548076Y-105637419D01*
X126687293Y-105713008D01*
X126840522Y-105753207D01*
X126946480Y-105754871D01*
X127014277Y-105775940D01*
X127059921Y-105830319D01*
X127070500Y-105880855D01*
X127070500Y-105936834D01*
X127085502Y-106031555D01*
X127143674Y-106145723D01*
X127213095Y-106215144D01*
X127247121Y-106277456D01*
X127250000Y-106304239D01*
X127250000Y-107280971D01*
X127229998Y-107349092D01*
X127176342Y-107395585D01*
X127105812Y-107405651D01*
X127057892Y-107398661D01*
X127048790Y-107398000D01*
X126940115Y-107398000D01*
X126924876Y-107402475D01*
X126923671Y-107403865D01*
X126922000Y-107411548D01*
X126922000Y-108583884D01*
X126926475Y-108599123D01*
X126927865Y-108600328D01*
X126935548Y-108601999D01*
X127048755Y-108601999D01*
X127057916Y-108601328D01*
X127105650Y-108594302D01*
X127175958Y-108604171D01*
X127229769Y-108650483D01*
X127250000Y-108718959D01*
X127250000Y-110443810D01*
X127229998Y-110511931D01*
X127213095Y-110532905D01*
X127032905Y-110713095D01*
X126970593Y-110747121D01*
X126943810Y-110750000D01*
X126056190Y-110750000D01*
X125988069Y-110729998D01*
X125967095Y-110713095D01*
X125786905Y-110532905D01*
X125752879Y-110470593D01*
X125750000Y-110443810D01*
X125750000Y-109450000D01*
X125731000Y-109450000D01*
X125731000Y-108278755D01*
X126218001Y-108278755D01*
X126218672Y-108287919D01*
X126226759Y-108342859D01*
X126232502Y-108361342D01*
X126275241Y-108448392D01*
X126287201Y-108465097D01*
X126355397Y-108533175D01*
X126372120Y-108545103D01*
X126459263Y-108587700D01*
X126477724Y-108593406D01*
X126532110Y-108601340D01*
X126541210Y-108602000D01*
X126649885Y-108602000D01*
X126665124Y-108597525D01*
X126666329Y-108596135D01*
X126668000Y-108588452D01*
X126668000Y-108145115D01*
X126663525Y-108129876D01*
X126662135Y-108128671D01*
X126654452Y-108127000D01*
X126236116Y-108127000D01*
X126220877Y-108131475D01*
X126219672Y-108132865D01*
X126218001Y-108140548D01*
X126218001Y-108278755D01*
X125731000Y-108278755D01*
X125731000Y-107929900D01*
X125732551Y-107910190D01*
X125734198Y-107899791D01*
X125735749Y-107889998D01*
X125732473Y-107869315D01*
X125731714Y-107863712D01*
X125730719Y-107854885D01*
X126218000Y-107854885D01*
X126222475Y-107870124D01*
X126223865Y-107871329D01*
X126231548Y-107873000D01*
X126649885Y-107873000D01*
X126665124Y-107868525D01*
X126666329Y-107867135D01*
X126668000Y-107859452D01*
X126668000Y-107416116D01*
X126663525Y-107400877D01*
X126662135Y-107399672D01*
X126654452Y-107398001D01*
X126541245Y-107398001D01*
X126532081Y-107398672D01*
X126477141Y-107406759D01*
X126458658Y-107412502D01*
X126371608Y-107455241D01*
X126354903Y-107467201D01*
X126286825Y-107535397D01*
X126274897Y-107552120D01*
X126232300Y-107639263D01*
X126226594Y-107657724D01*
X126218660Y-107712110D01*
X126218000Y-107721210D01*
X126218000Y-107854885D01*
X125730719Y-107854885D01*
X125720808Y-107766924D01*
X125720808Y-107766923D01*
X125720016Y-107759896D01*
X125676774Y-107636318D01*
X125607118Y-107525461D01*
X125514539Y-107432882D01*
X125482105Y-107412502D01*
X125409674Y-107366991D01*
X125403682Y-107363226D01*
X125280104Y-107319984D01*
X125262558Y-107318007D01*
X125244519Y-107315974D01*
X125231792Y-107313066D01*
X125231638Y-107313779D01*
X125223892Y-107312111D01*
X125216411Y-107309484D01*
X125210823Y-107309000D01*
X125189904Y-107309000D01*
X125170192Y-107307449D01*
X125159794Y-107305802D01*
X125150002Y-107304251D01*
X125140209Y-107305802D01*
X125129810Y-107307449D01*
X125110100Y-107309000D01*
X125039903Y-107309000D01*
X125020192Y-107307449D01*
X125009794Y-107305802D01*
X125000001Y-107304251D01*
X125000219Y-107302872D01*
X124942077Y-107285800D01*
X124895584Y-107232144D01*
X124886394Y-107189897D01*
X124885749Y-107189999D01*
X124882551Y-107169808D01*
X124881000Y-107150097D01*
X124881000Y-100629903D01*
X124882551Y-100610192D01*
X124885749Y-100590001D01*
X124887128Y-100590219D01*
X124904200Y-100532077D01*
X124957856Y-100485584D01*
X125000103Y-100476394D01*
X125000001Y-100475749D01*
X125020193Y-100472551D01*
X125039903Y-100471000D01*
X126260100Y-100471000D01*
X126279810Y-100472551D01*
X126300002Y-100475749D01*
X126309794Y-100474198D01*
X126320685Y-100472473D01*
X126326288Y-100471714D01*
X126423076Y-100460808D01*
X126423077Y-100460808D01*
X126430104Y-100460016D01*
X126553682Y-100416774D01*
X126580397Y-100399988D01*
X126658544Y-100350885D01*
X126658545Y-100350885D01*
X126664539Y-100347118D01*
X126757118Y-100254539D01*
X126782053Y-100214856D01*
X126823009Y-100149674D01*
X126826774Y-100143682D01*
X126870016Y-100020104D01*
X126874026Y-99984519D01*
X126876934Y-99971792D01*
X126876221Y-99971638D01*
X126877889Y-99963892D01*
X126880516Y-99956411D01*
X126881000Y-99950823D01*
X126881000Y-99929904D01*
X126882551Y-99910192D01*
X126884198Y-99899794D01*
X126885749Y-99890002D01*
X126882551Y-99869810D01*
X126881000Y-99850100D01*
X126881000Y-99805025D01*
X126901002Y-99736904D01*
X126954658Y-99690411D01*
X127024932Y-99680307D01*
X127089512Y-99709801D01*
G37*
%TD.AperFunction*%
%TA.AperFunction,Conductor*%
G36*
X146279807Y-86272551D02*
G01*
X146299999Y-86275749D01*
X146299781Y-86277128D01*
X146357923Y-86294200D01*
X146404416Y-86347856D01*
X146413606Y-86390103D01*
X146414251Y-86390001D01*
X146417449Y-86410192D01*
X146419000Y-86429903D01*
X146419000Y-86750098D01*
X146417449Y-86769808D01*
X146414251Y-86790000D01*
X146414467Y-86791365D01*
X146414937Y-86800635D01*
X146419469Y-86890000D01*
X146432795Y-87152749D01*
X146433278Y-87155903D01*
X146433279Y-87155911D01*
X146444034Y-87226116D01*
X146487795Y-87511776D01*
X146488593Y-87514858D01*
X146574455Y-87846475D01*
X146578836Y-87863397D01*
X146704983Y-88204003D01*
X146736626Y-88268511D01*
X146748667Y-88338479D01*
X146720970Y-88403850D01*
X146662327Y-88443869D01*
X146623502Y-88450000D01*
X140700190Y-88450000D01*
X140632069Y-88429998D01*
X140585576Y-88376342D01*
X140575472Y-88306068D01*
X140604966Y-88241488D01*
X140621321Y-88226582D01*
X140693175Y-88154603D01*
X140705103Y-88137880D01*
X140747700Y-88050737D01*
X140753406Y-88032276D01*
X140761340Y-87977890D01*
X140762000Y-87968790D01*
X140762000Y-87860115D01*
X140757525Y-87844876D01*
X140756135Y-87843671D01*
X140748452Y-87842000D01*
X139576116Y-87842000D01*
X139560877Y-87846475D01*
X139559672Y-87847865D01*
X139558001Y-87855548D01*
X139558001Y-87968755D01*
X139558672Y-87977919D01*
X139566759Y-88032859D01*
X139572502Y-88051342D01*
X139615241Y-88138392D01*
X139627201Y-88155097D01*
X139702766Y-88230531D01*
X139701269Y-88232031D01*
X139736782Y-88277261D01*
X139743475Y-88347942D01*
X139710894Y-88411021D01*
X139649382Y-88446471D01*
X139619771Y-88450000D01*
X139012494Y-88450000D01*
X138941855Y-88428337D01*
X138900000Y-88400000D01*
X138880000Y-88350000D01*
X127250000Y-88350000D01*
X127250000Y-88695761D01*
X127229998Y-88763882D01*
X127213095Y-88784856D01*
X127143674Y-88854277D01*
X127085502Y-88968445D01*
X127070500Y-89063166D01*
X127070500Y-89426834D01*
X127085502Y-89521555D01*
X127143674Y-89635723D01*
X127213095Y-89705144D01*
X127247121Y-89767456D01*
X127250000Y-89794239D01*
X127250000Y-89965761D01*
X127229998Y-90033882D01*
X127213095Y-90054856D01*
X127143674Y-90124277D01*
X127085502Y-90238445D01*
X127070500Y-90333166D01*
X127070500Y-90696834D01*
X127085502Y-90791555D01*
X127143674Y-90905723D01*
X127213095Y-90975144D01*
X127247121Y-91037456D01*
X127250000Y-91064239D01*
X127250000Y-91235761D01*
X127229998Y-91303882D01*
X127213095Y-91324856D01*
X127143674Y-91394277D01*
X127085502Y-91508445D01*
X127070500Y-91603166D01*
X127070500Y-91966834D01*
X127085502Y-92061555D01*
X127143674Y-92175723D01*
X127213095Y-92245144D01*
X127247121Y-92307456D01*
X127250000Y-92334239D01*
X127250000Y-92505761D01*
X127229998Y-92573882D01*
X127213095Y-92594856D01*
X127143674Y-92664277D01*
X127085502Y-92778445D01*
X127070500Y-92873166D01*
X127070500Y-93236834D01*
X127085502Y-93331555D01*
X127143674Y-93445723D01*
X127213095Y-93515144D01*
X127247121Y-93577456D01*
X127250000Y-93604239D01*
X127250000Y-93775761D01*
X127229998Y-93843882D01*
X127213095Y-93864856D01*
X127143674Y-93934277D01*
X127085502Y-94048445D01*
X127070500Y-94143166D01*
X127070500Y-94506834D01*
X127085502Y-94601555D01*
X127143674Y-94715723D01*
X127213095Y-94785144D01*
X127247121Y-94847456D01*
X127250000Y-94874239D01*
X127250000Y-95045761D01*
X127229998Y-95113882D01*
X127213095Y-95134856D01*
X127143674Y-95204277D01*
X127085502Y-95318445D01*
X127070500Y-95413166D01*
X127070500Y-95776834D01*
X127085502Y-95871555D01*
X127143674Y-95985723D01*
X127213095Y-96055144D01*
X127247121Y-96117456D01*
X127250000Y-96144239D01*
X127250000Y-96315761D01*
X127229998Y-96383882D01*
X127213095Y-96404856D01*
X127143674Y-96474277D01*
X127085502Y-96588445D01*
X127070500Y-96683166D01*
X127070500Y-97046834D01*
X127085502Y-97141555D01*
X127143674Y-97255723D01*
X127213095Y-97325144D01*
X127247121Y-97387456D01*
X127250000Y-97414239D01*
X127250000Y-97585761D01*
X127229998Y-97653882D01*
X127213095Y-97674856D01*
X127143674Y-97744277D01*
X127085502Y-97858445D01*
X127070500Y-97953166D01*
X127070500Y-98292205D01*
X127050498Y-98360326D01*
X126996842Y-98406819D01*
X126926568Y-98416923D01*
X126861988Y-98387429D01*
X126830978Y-98346874D01*
X126829111Y-98342998D01*
X126826774Y-98336318D01*
X126757118Y-98225461D01*
X126664539Y-98132882D01*
X126637150Y-98115672D01*
X126559674Y-98066991D01*
X126553682Y-98063226D01*
X126430104Y-98019984D01*
X126412558Y-98018007D01*
X126394519Y-98015974D01*
X126381792Y-98013066D01*
X126381638Y-98013779D01*
X126373892Y-98012111D01*
X126366411Y-98009484D01*
X126360823Y-98009000D01*
X126339904Y-98009000D01*
X126320192Y-98007449D01*
X126309794Y-98005802D01*
X126300002Y-98004251D01*
X126290209Y-98005802D01*
X126279810Y-98007449D01*
X126260100Y-98009000D01*
X125039903Y-98009000D01*
X125020192Y-98007449D01*
X125009794Y-98005802D01*
X125000001Y-98004251D01*
X125000219Y-98002872D01*
X124942077Y-97985800D01*
X124895584Y-97932144D01*
X124886394Y-97889897D01*
X124885749Y-97889999D01*
X124884153Y-97879923D01*
X124882551Y-97869807D01*
X124881000Y-97850097D01*
X124881000Y-87569885D01*
X139558000Y-87569885D01*
X139562475Y-87585124D01*
X139563865Y-87586329D01*
X139571548Y-87588000D01*
X140014885Y-87588000D01*
X140030124Y-87583525D01*
X140031329Y-87582135D01*
X140033000Y-87574452D01*
X140033000Y-87569885D01*
X140287000Y-87569885D01*
X140291475Y-87585124D01*
X140292865Y-87586329D01*
X140300548Y-87588000D01*
X140743884Y-87588000D01*
X140759123Y-87583525D01*
X140760328Y-87582135D01*
X140761999Y-87574452D01*
X140761999Y-87461245D01*
X140761328Y-87452081D01*
X140753241Y-87397141D01*
X140747498Y-87378658D01*
X140704759Y-87291608D01*
X140692799Y-87274903D01*
X140624603Y-87206825D01*
X140607880Y-87194897D01*
X140520737Y-87152300D01*
X140502276Y-87146594D01*
X140447890Y-87138660D01*
X140438790Y-87138000D01*
X140305115Y-87138000D01*
X140289876Y-87142475D01*
X140288671Y-87143865D01*
X140287000Y-87151548D01*
X140287000Y-87569885D01*
X140033000Y-87569885D01*
X140033000Y-87156116D01*
X140028525Y-87140877D01*
X140027135Y-87139672D01*
X140019452Y-87138001D01*
X139881245Y-87138001D01*
X139872081Y-87138672D01*
X139817141Y-87146759D01*
X139798658Y-87152502D01*
X139711608Y-87195241D01*
X139694903Y-87207201D01*
X139626825Y-87275397D01*
X139614897Y-87292120D01*
X139572300Y-87379263D01*
X139566594Y-87397724D01*
X139558660Y-87452110D01*
X139558000Y-87461210D01*
X139558000Y-87569885D01*
X124881000Y-87569885D01*
X124881000Y-86929902D01*
X124882551Y-86910191D01*
X124884198Y-86899792D01*
X124885749Y-86890000D01*
X124884198Y-86880207D01*
X124884198Y-86870290D01*
X124885215Y-86870290D01*
X124884885Y-86855519D01*
X124894930Y-86766366D01*
X124901209Y-86738857D01*
X124937612Y-86634825D01*
X124949853Y-86609405D01*
X125008498Y-86516073D01*
X125026086Y-86494020D01*
X125104020Y-86416086D01*
X125126073Y-86398498D01*
X125219407Y-86339852D01*
X125244825Y-86327612D01*
X125348857Y-86291209D01*
X125376366Y-86284930D01*
X125465519Y-86274885D01*
X125480290Y-86275215D01*
X125480290Y-86274198D01*
X125490207Y-86274198D01*
X125500000Y-86275749D01*
X125520192Y-86272551D01*
X125539902Y-86271000D01*
X146260097Y-86271000D01*
X146279807Y-86272551D01*
G37*
%TD.AperFunction*%
%TA.AperFunction,Conductor*%
G36*
X159677265Y-86291002D02*
G01*
X159723758Y-86344658D01*
X159733862Y-86414932D01*
X159704368Y-86479512D01*
X159644642Y-86517896D01*
X159625591Y-86521922D01*
X159597958Y-86525560D01*
X159597957Y-86525560D01*
X159588404Y-86526818D01*
X159579672Y-86530890D01*
X159579671Y-86530890D01*
X159493425Y-86571107D01*
X159483091Y-86575926D01*
X159400926Y-86658091D01*
X159396267Y-86668083D01*
X159396266Y-86668084D01*
X159358023Y-86750098D01*
X159351818Y-86763404D01*
X159345500Y-86811392D01*
X159345500Y-87378116D01*
X159325498Y-87446237D01*
X159308595Y-87467211D01*
X158362711Y-88413095D01*
X158300399Y-88447121D01*
X158273616Y-88450000D01*
X157881987Y-88450000D01*
X157813866Y-88429998D01*
X157767373Y-88376342D01*
X157757269Y-88306068D01*
X157786763Y-88241488D01*
X157792814Y-88234982D01*
X157803175Y-88224603D01*
X157815103Y-88207880D01*
X157857700Y-88120737D01*
X157863406Y-88102276D01*
X157871340Y-88047890D01*
X157872000Y-88038790D01*
X157872000Y-87930115D01*
X157867525Y-87914876D01*
X157866135Y-87913671D01*
X157858452Y-87912000D01*
X156686116Y-87912000D01*
X156670877Y-87916475D01*
X156669672Y-87917865D01*
X156668001Y-87925548D01*
X156668001Y-88038755D01*
X156668672Y-88047919D01*
X156676759Y-88102859D01*
X156682502Y-88121342D01*
X156725241Y-88208392D01*
X156737201Y-88225097D01*
X156746947Y-88234826D01*
X156781027Y-88297109D01*
X156776024Y-88367929D01*
X156733527Y-88424802D01*
X156667029Y-88449671D01*
X156657930Y-88450000D01*
X153376498Y-88450000D01*
X153308377Y-88429998D01*
X153261884Y-88376342D01*
X153251780Y-88306068D01*
X153263374Y-88268511D01*
X153295017Y-88204003D01*
X153421164Y-87863397D01*
X153425546Y-87846475D01*
X153479035Y-87639885D01*
X156668000Y-87639885D01*
X156672475Y-87655124D01*
X156673865Y-87656329D01*
X156681548Y-87658000D01*
X157124885Y-87658000D01*
X157140124Y-87653525D01*
X157141329Y-87652135D01*
X157143000Y-87644452D01*
X157143000Y-87639885D01*
X157397000Y-87639885D01*
X157401475Y-87655124D01*
X157402865Y-87656329D01*
X157410548Y-87658000D01*
X157853884Y-87658000D01*
X157869123Y-87653525D01*
X157870328Y-87652135D01*
X157871999Y-87644452D01*
X157871999Y-87531245D01*
X157871328Y-87522081D01*
X157863241Y-87467141D01*
X157857498Y-87448658D01*
X157814759Y-87361608D01*
X157802799Y-87344903D01*
X157734603Y-87276825D01*
X157717880Y-87264897D01*
X157630737Y-87222300D01*
X157612276Y-87216594D01*
X157557890Y-87208660D01*
X157548790Y-87208000D01*
X157415115Y-87208000D01*
X157399876Y-87212475D01*
X157398671Y-87213865D01*
X157397000Y-87221548D01*
X157397000Y-87639885D01*
X157143000Y-87639885D01*
X157143000Y-87226116D01*
X157138525Y-87210877D01*
X157137135Y-87209672D01*
X157129452Y-87208001D01*
X156991245Y-87208001D01*
X156982081Y-87208672D01*
X156927141Y-87216759D01*
X156908658Y-87222502D01*
X156821608Y-87265241D01*
X156804903Y-87277201D01*
X156736825Y-87345397D01*
X156724897Y-87362120D01*
X156682300Y-87449263D01*
X156676594Y-87467724D01*
X156668660Y-87522110D01*
X156668000Y-87531210D01*
X156668000Y-87639885D01*
X153479035Y-87639885D01*
X153511407Y-87514858D01*
X153512205Y-87511776D01*
X153555966Y-87226116D01*
X153566721Y-87155911D01*
X153566722Y-87155903D01*
X153567205Y-87152749D01*
X153580531Y-86890000D01*
X153585000Y-86801878D01*
X153585000Y-86801877D01*
X153585533Y-86791365D01*
X153585749Y-86790000D01*
X153582551Y-86769808D01*
X153581000Y-86750098D01*
X153581000Y-86429903D01*
X153582551Y-86410192D01*
X153585749Y-86390001D01*
X153587128Y-86390219D01*
X153604200Y-86332077D01*
X153657856Y-86285584D01*
X153700103Y-86276394D01*
X153700001Y-86275749D01*
X153720193Y-86272551D01*
X153739903Y-86271000D01*
X159609144Y-86271000D01*
X159677265Y-86291002D01*
G37*
%TD.AperFunction*%
%TA.AperFunction,Conductor*%
G36*
X164778273Y-86291002D02*
G01*
X164824766Y-86344658D01*
X164835682Y-86407872D01*
X164833749Y-86430187D01*
X164836260Y-86440295D01*
X164857753Y-86526818D01*
X164864207Y-86552801D01*
X164869853Y-86561546D01*
X164873991Y-86571107D01*
X164871200Y-86572315D01*
X164886608Y-86624353D01*
X164880510Y-86663360D01*
X164877000Y-86674228D01*
X164877000Y-86681467D01*
X164865190Y-86734727D01*
X164864190Y-86736871D01*
X164817268Y-86790152D01*
X164748989Y-86809607D01*
X164681031Y-86789059D01*
X164635810Y-86736871D01*
X164634810Y-86734727D01*
X164623000Y-86681467D01*
X164623000Y-86672502D01*
X164618525Y-86657263D01*
X164608218Y-86648331D01*
X164576850Y-86635009D01*
X164567688Y-86626705D01*
X164516909Y-86575926D01*
X164506575Y-86571107D01*
X164420329Y-86530890D01*
X164420328Y-86530890D01*
X164411596Y-86526818D01*
X164402043Y-86525560D01*
X164402042Y-86525560D01*
X164374409Y-86521922D01*
X164309482Y-86493199D01*
X164270391Y-86433934D01*
X164269546Y-86362942D01*
X164307217Y-86302764D01*
X164371442Y-86272505D01*
X164390856Y-86271000D01*
X164710152Y-86271000D01*
X164778273Y-86291002D01*
G37*
%TD.AperFunction*%
%TD*%
M02*
