%TF.GenerationSoftware,KiCad,Pcbnew,(6.0.2)*%
%TF.CreationDate,2022-03-12T15:23:06-05:00*%
%TF.ProjectId,MBC5_Short,4d424335-5f53-4686-9f72-742e6b696361,rev?*%
%TF.SameCoordinates,Original*%
%TF.FileFunction,Soldermask,Top*%
%TF.FilePolarity,Negative*%
%FSLAX46Y46*%
G04 Gerber Fmt 4.6, Leading zero omitted, Abs format (unit mm)*
G04 Created by KiCad (PCBNEW (6.0.2)) date 2022-03-12 15:23:06*
%MOMM*%
%LPD*%
G01*
G04 APERTURE LIST*
G04 Aperture macros list*
%AMRoundRect*
0 Rectangle with rounded corners*
0 $1 Rounding radius*
0 $2 $3 $4 $5 $6 $7 $8 $9 X,Y pos of 4 corners*
0 Add a 4 corners polygon primitive as box body*
4,1,4,$2,$3,$4,$5,$6,$7,$8,$9,$2,$3,0*
0 Add four circle primitives for the rounded corners*
1,1,$1+$1,$2,$3*
1,1,$1+$1,$4,$5*
1,1,$1+$1,$6,$7*
1,1,$1+$1,$8,$9*
0 Add four rect primitives between the rounded corners*
20,1,$1+$1,$2,$3,$4,$5,0*
20,1,$1+$1,$4,$5,$6,$7,0*
20,1,$1+$1,$6,$7,$8,$9,0*
20,1,$1+$1,$8,$9,$2,$3,0*%
G04 Aperture macros list end*
%ADD10C,0.056250*%
%ADD11C,0.100000*%
%ADD12C,0.140000*%
%ADD13C,0.200000*%
%ADD14C,0.180000*%
%ADD15C,0.300000*%
%ADD16R,2.250000X0.750000*%
%ADD17R,0.750000X2.250000*%
%ADD18RoundRect,0.275800X-0.250000X0.225000X-0.250000X-0.225000X0.250000X-0.225000X0.250000X0.225000X0*%
%ADD19RoundRect,0.275800X-0.225000X-0.250000X0.225000X-0.250000X0.225000X0.250000X-0.225000X0.250000X0*%
%ADD20RoundRect,0.125800X0.075000X-0.712500X0.075000X0.712500X-0.075000X0.712500X-0.075000X-0.712500X0*%
%ADD21RoundRect,0.200800X-0.875000X-0.150000X0.875000X-0.150000X0.875000X0.150000X-0.875000X0.150000X0*%
%ADD22RoundRect,0.175800X0.125000X-0.625000X0.125000X0.625000X-0.125000X0.625000X-0.125000X-0.625000X0*%
%ADD23RoundRect,0.175800X0.625000X-0.125000X0.625000X0.125000X-0.625000X0.125000X-0.625000X-0.125000X0*%
%ADD24C,0.901600*%
G04 APERTURE END LIST*
D10*
X126101428Y-110303095D02*
X125958571Y-110303095D01*
X126030000Y-110303095D02*
X126030000Y-110053095D01*
X126006190Y-110088809D01*
X125982380Y-110112619D01*
X125958571Y-110124523D01*
X173797619Y-110053095D02*
X173952380Y-110053095D01*
X173869047Y-110148333D01*
X173904761Y-110148333D01*
X173928571Y-110160238D01*
X173940476Y-110172142D01*
X173952380Y-110195952D01*
X173952380Y-110255476D01*
X173940476Y-110279285D01*
X173928571Y-110291190D01*
X173904761Y-110303095D01*
X173833333Y-110303095D01*
X173809523Y-110291190D01*
X173797619Y-110279285D01*
X174047619Y-110076904D02*
X174059523Y-110065000D01*
X174083333Y-110053095D01*
X174142857Y-110053095D01*
X174166666Y-110065000D01*
X174178571Y-110076904D01*
X174190476Y-110100714D01*
X174190476Y-110124523D01*
X174178571Y-110160238D01*
X174035714Y-110303095D01*
X174190476Y-110303095D01*
D11*
X170827142Y-107192857D02*
X170493809Y-107311904D01*
X170827142Y-107430952D01*
X170493809Y-107883333D02*
X170493809Y-107597619D01*
X170493809Y-107740476D02*
X170993809Y-107740476D01*
X170922380Y-107692857D01*
X170874761Y-107645238D01*
X170850952Y-107597619D01*
X125863333Y-108936190D02*
X126030000Y-109436190D01*
X126196666Y-108936190D01*
X126649047Y-109388571D02*
X126625238Y-109412380D01*
X126553809Y-109436190D01*
X126506190Y-109436190D01*
X126434761Y-109412380D01*
X126387142Y-109364761D01*
X126363333Y-109317142D01*
X126339523Y-109221904D01*
X126339523Y-109150476D01*
X126363333Y-109055238D01*
X126387142Y-109007619D01*
X126434761Y-108960000D01*
X126506190Y-108936190D01*
X126553809Y-108936190D01*
X126625238Y-108960000D01*
X126649047Y-108983809D01*
X127149047Y-109388571D02*
X127125238Y-109412380D01*
X127053809Y-109436190D01*
X127006190Y-109436190D01*
X126934761Y-109412380D01*
X126887142Y-109364761D01*
X126863333Y-109317142D01*
X126839523Y-109221904D01*
X126839523Y-109150476D01*
X126863333Y-109055238D01*
X126887142Y-109007619D01*
X126934761Y-108960000D01*
X127006190Y-108936190D01*
X127053809Y-108936190D01*
X127125238Y-108960000D01*
X127149047Y-108983809D01*
X173019047Y-108960000D02*
X172971428Y-108936190D01*
X172900000Y-108936190D01*
X172828571Y-108960000D01*
X172780952Y-109007619D01*
X172757142Y-109055238D01*
X172733333Y-109150476D01*
X172733333Y-109221904D01*
X172757142Y-109317142D01*
X172780952Y-109364761D01*
X172828571Y-109412380D01*
X172900000Y-109436190D01*
X172947619Y-109436190D01*
X173019047Y-109412380D01*
X173042857Y-109388571D01*
X173042857Y-109221904D01*
X172947619Y-109221904D01*
X173257142Y-109436190D02*
X173257142Y-108936190D01*
X173542857Y-109436190D01*
X173542857Y-108936190D01*
X173780952Y-109436190D02*
X173780952Y-108936190D01*
X173900000Y-108936190D01*
X173971428Y-108960000D01*
X174019047Y-109007619D01*
X174042857Y-109055238D01*
X174066666Y-109150476D01*
X174066666Y-109221904D01*
X174042857Y-109317142D01*
X174019047Y-109364761D01*
X173971428Y-109412380D01*
X173900000Y-109436190D01*
X173780952Y-109436190D01*
%TO.C,kibuzzard-622CFB3C*%
G36*
X170144940Y-90443524D02*
G01*
X170164981Y-90308421D01*
X170198168Y-90175934D01*
X170244180Y-90047337D01*
X170302576Y-89923869D01*
X170372793Y-89806719D01*
X170454154Y-89697017D01*
X170545876Y-89595817D01*
X170647076Y-89504095D01*
X170756779Y-89422733D01*
X170873928Y-89352517D01*
X170997396Y-89294121D01*
X171125993Y-89248108D01*
X171258481Y-89214922D01*
X171393584Y-89194881D01*
X171530000Y-89188179D01*
X171666416Y-89194881D01*
X171801519Y-89214922D01*
X171934007Y-89248108D01*
X172062604Y-89294121D01*
X172186072Y-89352517D01*
X172303221Y-89422733D01*
X172412924Y-89504095D01*
X172514124Y-89595817D01*
X172605846Y-89697017D01*
X172687207Y-89806719D01*
X172757424Y-89923869D01*
X172815820Y-90047337D01*
X172861832Y-90175934D01*
X172895019Y-90308421D01*
X172915060Y-90443524D01*
X172921761Y-90579941D01*
X172921761Y-107431821D01*
X170138239Y-106596764D01*
X170138239Y-105733243D01*
X170717994Y-105733243D01*
X172072211Y-105733243D01*
X172072211Y-106160201D01*
X172339387Y-106160201D01*
X172339387Y-104981483D01*
X172072211Y-104981483D01*
X172072211Y-105408441D01*
X170717994Y-105408441D01*
X170717994Y-105733243D01*
X170138239Y-105733243D01*
X170138239Y-104887185D01*
X170717994Y-104887185D01*
X170889563Y-104812533D01*
X171070300Y-104722165D01*
X171243178Y-104625248D01*
X171393793Y-104530950D01*
X171467790Y-104645548D01*
X171569291Y-104722165D01*
X171691092Y-104765384D01*
X171825989Y-104779791D01*
X171953356Y-104768986D01*
X172063043Y-104736571D01*
X172229373Y-104612151D01*
X172286345Y-104523092D01*
X172326290Y-104418317D01*
X172349864Y-104299135D01*
X172357723Y-104166857D01*
X172355103Y-104075179D01*
X172348555Y-103965165D01*
X172335458Y-103851222D01*
X172315813Y-103747757D01*
X170717994Y-103747757D01*
X170717994Y-104069940D01*
X171315211Y-104069940D01*
X171315211Y-104237580D01*
X171166889Y-104326311D01*
X171020532Y-104409149D01*
X170872209Y-104484129D01*
X170717994Y-104549286D01*
X170717994Y-104887185D01*
X170138239Y-104887185D01*
X170138239Y-103582736D01*
X170717994Y-103582736D01*
X170901821Y-103539517D01*
X171080306Y-103495773D01*
X171253446Y-103451506D01*
X171421244Y-103406714D01*
X171583697Y-103361399D01*
X171780723Y-103304346D01*
X171972347Y-103247129D01*
X172158568Y-103189748D01*
X172339387Y-103132204D01*
X172339387Y-102781208D01*
X172160042Y-102725710D01*
X171975621Y-102669229D01*
X171786126Y-102611767D01*
X171591555Y-102553322D01*
X171430464Y-102506278D01*
X171262562Y-102459444D01*
X171087850Y-102412819D01*
X170906327Y-102366403D01*
X170717994Y-102320198D01*
X170717994Y-102655478D01*
X171092564Y-102728820D01*
X171092564Y-103161017D01*
X170717994Y-103236979D01*
X170717994Y-103582736D01*
X170138239Y-103582736D01*
X170138239Y-101762271D01*
X170683942Y-101762271D01*
X170692782Y-101905354D01*
X170719303Y-102030757D01*
X170796575Y-102215423D01*
X171050654Y-102134222D01*
X170993028Y-102001944D01*
X170964215Y-101793703D01*
X171001214Y-101606745D01*
X171112210Y-101480688D01*
X171225279Y-101427573D01*
X171367162Y-101395704D01*
X171537858Y-101385081D01*
X171684543Y-101393921D01*
X171805034Y-101420442D01*
X171976603Y-101512120D01*
X172068282Y-101640470D01*
X172095785Y-101788465D01*
X172068282Y-101983608D01*
X172001488Y-102128983D01*
X172258186Y-102212803D01*
X172289619Y-102159106D01*
X172328909Y-102071357D01*
X172361652Y-101949556D01*
X172376058Y-101793703D01*
X172361979Y-101640142D01*
X172319742Y-101499024D01*
X172250328Y-101373294D01*
X172154721Y-101265899D01*
X172033902Y-101178478D01*
X171888854Y-101112666D01*
X171720560Y-101071411D01*
X171530000Y-101057659D01*
X171338622Y-101068955D01*
X171170491Y-101102843D01*
X171025607Y-101159323D01*
X170903969Y-101238396D01*
X170781732Y-101376932D01*
X170708389Y-101551557D01*
X170683942Y-101762271D01*
X170138239Y-101762271D01*
X170138239Y-100869064D01*
X170717994Y-100869064D01*
X172339387Y-100869064D01*
X172339387Y-100546881D01*
X171700259Y-100546881D01*
X171700259Y-100117303D01*
X172339387Y-100117303D01*
X172339387Y-99795120D01*
X170717994Y-99795120D01*
X170717994Y-100117303D01*
X171433083Y-100117303D01*
X171433083Y-100546881D01*
X170717994Y-100546881D01*
X170717994Y-100869064D01*
X170138239Y-100869064D01*
X170138239Y-98975256D01*
X170683942Y-98975256D01*
X170697766Y-99159049D01*
X170739240Y-99308790D01*
X170808362Y-99424479D01*
X170958649Y-99535475D01*
X171160668Y-99572473D01*
X171282796Y-99561341D01*
X171382005Y-99527944D01*
X171528690Y-99414001D01*
X171622988Y-99262077D01*
X171687163Y-99103605D01*
X171726453Y-99002759D01*
X171774912Y-98911081D01*
X171837777Y-98844287D01*
X171920287Y-98818093D01*
X172023607Y-98846615D01*
X172085599Y-98932182D01*
X172106263Y-99074792D01*
X172080069Y-99259458D01*
X172017204Y-99404833D01*
X172266044Y-99499131D01*
X172342006Y-99311845D01*
X172367545Y-99191027D01*
X172376058Y-99051218D01*
X172361797Y-98890708D01*
X172319014Y-98754937D01*
X172247709Y-98643905D01*
X172094475Y-98532909D01*
X171891474Y-98495910D01*
X171698950Y-98537820D01*
X171569291Y-98643905D01*
X171482851Y-98786661D01*
X171422606Y-98938585D01*
X171376767Y-99048598D01*
X171321760Y-99148135D01*
X171252346Y-99221477D01*
X171163288Y-99250290D01*
X171086016Y-99238503D01*
X171017912Y-99195283D01*
X170970763Y-99110154D01*
X170953738Y-98975256D01*
X170962905Y-98844614D01*
X170990409Y-98735583D01*
X171068990Y-98566633D01*
X170807053Y-98472336D01*
X170727162Y-98653073D01*
X170694747Y-98793864D01*
X170683942Y-98975256D01*
X170138239Y-98975256D01*
X170138239Y-98343986D01*
X170717994Y-98343986D01*
X170901821Y-98300767D01*
X171080306Y-98257023D01*
X171253446Y-98212756D01*
X171421244Y-98167964D01*
X171583697Y-98122649D01*
X171780723Y-98065596D01*
X171972347Y-98008379D01*
X172158568Y-97950998D01*
X172339387Y-97893454D01*
X172339387Y-97542458D01*
X172160042Y-97486960D01*
X171975621Y-97430479D01*
X171786126Y-97373017D01*
X171591555Y-97314572D01*
X171430464Y-97267528D01*
X171262562Y-97220694D01*
X171087850Y-97174069D01*
X170906327Y-97127653D01*
X170717994Y-97081448D01*
X170717994Y-97416728D01*
X171092564Y-97490070D01*
X171092564Y-97922267D01*
X170717994Y-97998229D01*
X170717994Y-98343986D01*
X170138239Y-98343986D01*
X170138239Y-96953098D01*
X170717994Y-96953098D01*
X170985170Y-96953098D01*
X170985170Y-96258964D01*
X172339387Y-96258964D01*
X172339387Y-95934161D01*
X170717994Y-95934161D01*
X170717994Y-96953098D01*
X170138239Y-96953098D01*
X170138239Y-94925702D01*
X170717994Y-94925702D01*
X171412128Y-94925702D01*
X171412128Y-95512442D01*
X171679304Y-95512442D01*
X171679304Y-94925702D01*
X172072211Y-94925702D01*
X172072211Y-95596262D01*
X172339387Y-95596262D01*
X172339387Y-94603519D01*
X170717994Y-94603519D01*
X170717994Y-94925702D01*
X170138239Y-94925702D01*
X170138239Y-92411102D01*
X170697039Y-92411102D01*
X170703260Y-92540434D01*
X170721923Y-92661252D01*
X170755320Y-92769956D01*
X170805743Y-92862944D01*
X170962905Y-92997842D01*
X171073246Y-93035168D01*
X171207817Y-93047610D01*
X171317831Y-93032876D01*
X171422606Y-92988674D01*
X171514284Y-92903217D01*
X171585007Y-92764718D01*
X171726453Y-92915332D01*
X171822060Y-92957569D01*
X171930764Y-92971648D01*
X172082688Y-92948074D01*
X172220205Y-92859015D01*
X172319742Y-92678278D01*
X172348227Y-92546000D01*
X172357723Y-92379670D01*
X172345935Y-92162261D01*
X172318432Y-91960570D01*
X170744188Y-91960570D01*
X170723560Y-92073857D01*
X170708826Y-92188455D01*
X170699986Y-92301743D01*
X170697039Y-92411102D01*
X170138239Y-92411102D01*
X170138239Y-91242861D01*
X170683942Y-91242861D01*
X170690490Y-91402970D01*
X170710136Y-91537540D01*
X170757284Y-91716968D01*
X171566671Y-91716968D01*
X171566671Y-91394785D01*
X170974693Y-91394785D01*
X170966834Y-91331920D01*
X170964215Y-91269055D01*
X170998594Y-91112547D01*
X171101732Y-90999259D01*
X171210436Y-90948327D01*
X171353192Y-90917767D01*
X171530000Y-90907581D01*
X171650164Y-90913147D01*
X171759195Y-90929845D01*
X171937313Y-91003188D01*
X172053875Y-91132847D01*
X172095785Y-91326681D01*
X172066972Y-91499560D01*
X172001488Y-91641006D01*
X172258186Y-91724826D01*
X172289619Y-91671129D01*
X172328909Y-91580760D01*
X172361652Y-91451101D01*
X172376058Y-91282151D01*
X172362634Y-91140050D01*
X172322361Y-91007117D01*
X172255239Y-90887281D01*
X172161269Y-90784470D01*
X172041106Y-90699995D01*
X171895403Y-90635166D01*
X171724816Y-90593911D01*
X171530000Y-90580159D01*
X171333219Y-90591946D01*
X171161978Y-90627308D01*
X171016602Y-90684279D01*
X170897421Y-90760896D01*
X170804433Y-90856176D01*
X170737639Y-90969136D01*
X170697366Y-91098468D01*
X170683942Y-91242861D01*
X170138239Y-91242861D01*
X170138239Y-90579941D01*
X170144940Y-90443524D01*
G37*
G36*
X171527381Y-97583058D02*
G01*
X171688472Y-97619729D01*
X171850873Y-97661639D01*
X172025062Y-97710098D01*
X171850873Y-97758556D01*
X171688472Y-97800466D01*
X171527381Y-97835828D01*
X171359741Y-97867260D01*
X171359741Y-97550316D01*
X171527381Y-97583058D01*
G37*
G36*
X171527381Y-102821808D02*
G01*
X171688472Y-102858479D01*
X171850873Y-102900389D01*
X172025062Y-102948848D01*
X171850873Y-102997306D01*
X171688472Y-103039216D01*
X171527381Y-103074578D01*
X171359741Y-103106010D01*
X171359741Y-102789066D01*
X171527381Y-102821808D01*
G37*
G36*
X171427844Y-92455631D02*
G01*
X171376767Y-92656014D01*
X171207817Y-92730666D01*
X171091255Y-92704472D01*
X171020532Y-92637678D01*
X170986480Y-92544690D01*
X170977312Y-92437296D01*
X170979931Y-92357405D01*
X170987789Y-92282753D01*
X171427844Y-92282753D01*
X171427844Y-92455631D01*
G37*
G36*
X172076140Y-104122328D02*
G01*
X172077449Y-104166857D01*
X172062388Y-104282764D01*
X172017204Y-104373788D01*
X171939932Y-104432724D01*
X171828609Y-104452369D01*
X171646562Y-104379026D01*
X171598431Y-104282764D01*
X171582388Y-104140663D01*
X171582388Y-104069940D01*
X172069591Y-104069940D01*
X172076140Y-104122328D01*
G37*
G36*
X172074830Y-92353476D02*
G01*
X172077449Y-92429438D01*
X172070901Y-92515877D01*
X172044707Y-92589220D01*
X171989700Y-92638988D01*
X171896713Y-92657323D01*
X171748718Y-92594458D01*
X171695021Y-92408483D01*
X171695021Y-92282753D01*
X172066972Y-92282753D01*
X172074830Y-92353476D01*
G37*
%TO.C,GNDPAD*%
X171905000Y-88125000D02*
X171155000Y-88125000D01*
X171155000Y-88125000D02*
X171155000Y-87375000D01*
X171155000Y-87375000D02*
X171905000Y-87375000D01*
X171905000Y-87375000D02*
X171905000Y-88125000D01*
G36*
X171905000Y-88125000D02*
G01*
X171155000Y-88125000D01*
X171155000Y-87375000D01*
X171905000Y-87375000D01*
X171905000Y-88125000D01*
G37*
X171905000Y-88125000D02*
X171155000Y-88125000D01*
X171155000Y-87375000D01*
X171905000Y-87375000D01*
X171905000Y-88125000D01*
D12*
%TO.C,C3*%
X141453333Y-88060000D02*
X141420000Y-88093333D01*
X141320000Y-88126666D01*
X141253333Y-88126666D01*
X141153333Y-88093333D01*
X141086666Y-88026666D01*
X141053333Y-87960000D01*
X141020000Y-87826666D01*
X141020000Y-87726666D01*
X141053333Y-87593333D01*
X141086666Y-87526666D01*
X141153333Y-87460000D01*
X141253333Y-87426666D01*
X141320000Y-87426666D01*
X141420000Y-87460000D01*
X141453333Y-87493333D01*
X141686666Y-87426666D02*
X142120000Y-87426666D01*
X141886666Y-87693333D01*
X141986666Y-87693333D01*
X142053333Y-87726666D01*
X142086666Y-87760000D01*
X142120000Y-87826666D01*
X142120000Y-87993333D01*
X142086666Y-88060000D01*
X142053333Y-88093333D01*
X141986666Y-88126666D01*
X141786666Y-88126666D01*
X141720000Y-88093333D01*
X141686666Y-88060000D01*
%TO.C,C1*%
X126013333Y-106900000D02*
X125980000Y-106933333D01*
X125880000Y-106966666D01*
X125813333Y-106966666D01*
X125713333Y-106933333D01*
X125646666Y-106866666D01*
X125613333Y-106800000D01*
X125580000Y-106666666D01*
X125580000Y-106566666D01*
X125613333Y-106433333D01*
X125646666Y-106366666D01*
X125713333Y-106300000D01*
X125813333Y-106266666D01*
X125880000Y-106266666D01*
X125980000Y-106300000D01*
X126013333Y-106333333D01*
X126680000Y-106966666D02*
X126280000Y-106966666D01*
X126480000Y-106966666D02*
X126480000Y-106266666D01*
X126413333Y-106366666D01*
X126346666Y-106433333D01*
X126280000Y-106466666D01*
%TO.C,C2*%
X150663333Y-92270000D02*
X150630000Y-92303333D01*
X150530000Y-92336666D01*
X150463333Y-92336666D01*
X150363333Y-92303333D01*
X150296666Y-92236666D01*
X150263333Y-92170000D01*
X150230000Y-92036666D01*
X150230000Y-91936666D01*
X150263333Y-91803333D01*
X150296666Y-91736666D01*
X150363333Y-91670000D01*
X150463333Y-91636666D01*
X150530000Y-91636666D01*
X150630000Y-91670000D01*
X150663333Y-91703333D01*
X150930000Y-91703333D02*
X150963333Y-91670000D01*
X151030000Y-91636666D01*
X151196666Y-91636666D01*
X151263333Y-91670000D01*
X151296666Y-91703333D01*
X151330000Y-91770000D01*
X151330000Y-91836666D01*
X151296666Y-91936666D01*
X150896666Y-92336666D01*
X151330000Y-92336666D01*
%TO.C,C4*%
X155773333Y-88060000D02*
X155740000Y-88093333D01*
X155640000Y-88126666D01*
X155573333Y-88126666D01*
X155473333Y-88093333D01*
X155406666Y-88026666D01*
X155373333Y-87960000D01*
X155340000Y-87826666D01*
X155340000Y-87726666D01*
X155373333Y-87593333D01*
X155406666Y-87526666D01*
X155473333Y-87460000D01*
X155573333Y-87426666D01*
X155640000Y-87426666D01*
X155740000Y-87460000D01*
X155773333Y-87493333D01*
X156373333Y-87660000D02*
X156373333Y-88126666D01*
X156206666Y-87393333D02*
X156040000Y-87893333D01*
X156473333Y-87893333D01*
D13*
%TO.C,U1*%
X156978095Y-91792380D02*
X156978095Y-92601904D01*
X157025714Y-92697142D01*
X157073333Y-92744761D01*
X157168571Y-92792380D01*
X157359047Y-92792380D01*
X157454285Y-92744761D01*
X157501904Y-92697142D01*
X157549523Y-92601904D01*
X157549523Y-91792380D01*
X158549523Y-92792380D02*
X157978095Y-92792380D01*
X158263809Y-92792380D02*
X158263809Y-91792380D01*
X158168571Y-91935238D01*
X158073333Y-92030476D01*
X157978095Y-92078095D01*
D14*
X153682857Y-90442857D02*
X153725714Y-90400000D01*
X153811428Y-90357142D01*
X154025714Y-90357142D01*
X154111428Y-90400000D01*
X154154285Y-90442857D01*
X154197142Y-90528571D01*
X154197142Y-90614285D01*
X154154285Y-90742857D01*
X153640000Y-91257142D01*
X154197142Y-91257142D01*
X154625714Y-91257142D02*
X154797142Y-91257142D01*
X154882857Y-91214285D01*
X154925714Y-91171428D01*
X155011428Y-91042857D01*
X155054285Y-90871428D01*
X155054285Y-90528571D01*
X155011428Y-90442857D01*
X154968571Y-90400000D01*
X154882857Y-90357142D01*
X154711428Y-90357142D01*
X154625714Y-90400000D01*
X154582857Y-90442857D01*
X154540000Y-90528571D01*
X154540000Y-90742857D01*
X154582857Y-90828571D01*
X154625714Y-90871428D01*
X154711428Y-90914285D01*
X154882857Y-90914285D01*
X154968571Y-90871428D01*
X155011428Y-90828571D01*
X155054285Y-90742857D01*
X155740000Y-90785714D02*
X155440000Y-90785714D01*
X155440000Y-91257142D02*
X155440000Y-90357142D01*
X155868571Y-90357142D01*
X156382857Y-90357142D02*
X156468571Y-90357142D01*
X156554285Y-90400000D01*
X156597142Y-90442857D01*
X156640000Y-90528571D01*
X156682857Y-90700000D01*
X156682857Y-90914285D01*
X156640000Y-91085714D01*
X156597142Y-91171428D01*
X156554285Y-91214285D01*
X156468571Y-91257142D01*
X156382857Y-91257142D01*
X156297142Y-91214285D01*
X156254285Y-91171428D01*
X156211428Y-91085714D01*
X156168571Y-90914285D01*
X156168571Y-90700000D01*
X156211428Y-90528571D01*
X156254285Y-90442857D01*
X156297142Y-90400000D01*
X156382857Y-90357142D01*
X156982857Y-90357142D02*
X157540000Y-90357142D01*
X157240000Y-90700000D01*
X157368571Y-90700000D01*
X157454285Y-90742857D01*
X157497142Y-90785714D01*
X157540000Y-90871428D01*
X157540000Y-91085714D01*
X157497142Y-91171428D01*
X157454285Y-91214285D01*
X157368571Y-91257142D01*
X157111428Y-91257142D01*
X157025714Y-91214285D01*
X156982857Y-91171428D01*
X157840000Y-90357142D02*
X158397142Y-90357142D01*
X158097142Y-90700000D01*
X158225714Y-90700000D01*
X158311428Y-90742857D01*
X158354285Y-90785714D01*
X158397142Y-90871428D01*
X158397142Y-91085714D01*
X158354285Y-91171428D01*
X158311428Y-91214285D01*
X158225714Y-91257142D01*
X157968571Y-91257142D01*
X157882857Y-91214285D01*
X157840000Y-91171428D01*
D13*
%TO.C,U3*%
X128378095Y-86752380D02*
X128378095Y-87561904D01*
X128425714Y-87657142D01*
X128473333Y-87704761D01*
X128568571Y-87752380D01*
X128759047Y-87752380D01*
X128854285Y-87704761D01*
X128901904Y-87657142D01*
X128949523Y-87561904D01*
X128949523Y-86752380D01*
X129330476Y-86752380D02*
X129949523Y-86752380D01*
X129616190Y-87133333D01*
X129759047Y-87133333D01*
X129854285Y-87180952D01*
X129901904Y-87228571D01*
X129949523Y-87323809D01*
X129949523Y-87561904D01*
X129901904Y-87657142D01*
X129854285Y-87704761D01*
X129759047Y-87752380D01*
X129473333Y-87752380D01*
X129378095Y-87704761D01*
X129330476Y-87657142D01*
X131385238Y-87228571D02*
X131051904Y-87228571D01*
X131051904Y-87752380D02*
X131051904Y-86752380D01*
X131528095Y-86752380D01*
X131909047Y-87752380D02*
X131909047Y-86752380D01*
X132242380Y-87466666D01*
X132575714Y-86752380D01*
X132575714Y-87752380D01*
X133575714Y-87752380D02*
X133004285Y-87752380D01*
X133290000Y-87752380D02*
X133290000Y-86752380D01*
X133194761Y-86895238D01*
X133099523Y-86990476D01*
X133004285Y-87038095D01*
X134147142Y-87180952D02*
X134051904Y-87133333D01*
X134004285Y-87085714D01*
X133956666Y-86990476D01*
X133956666Y-86942857D01*
X134004285Y-86847619D01*
X134051904Y-86800000D01*
X134147142Y-86752380D01*
X134337619Y-86752380D01*
X134432857Y-86800000D01*
X134480476Y-86847619D01*
X134528095Y-86942857D01*
X134528095Y-86990476D01*
X134480476Y-87085714D01*
X134432857Y-87133333D01*
X134337619Y-87180952D01*
X134147142Y-87180952D01*
X134051904Y-87228571D01*
X134004285Y-87276190D01*
X133956666Y-87371428D01*
X133956666Y-87561904D01*
X134004285Y-87657142D01*
X134051904Y-87704761D01*
X134147142Y-87752380D01*
X134337619Y-87752380D01*
X134432857Y-87704761D01*
X134480476Y-87657142D01*
X134528095Y-87561904D01*
X134528095Y-87371428D01*
X134480476Y-87276190D01*
X134432857Y-87228571D01*
X134337619Y-87180952D01*
X134861428Y-86752380D02*
X135099523Y-87752380D01*
X135290000Y-87038095D01*
X135480476Y-87752380D01*
X135718571Y-86752380D01*
X136290000Y-86752380D02*
X136385238Y-86752380D01*
X136480476Y-86800000D01*
X136528095Y-86847619D01*
X136575714Y-86942857D01*
X136623333Y-87133333D01*
X136623333Y-87371428D01*
X136575714Y-87561904D01*
X136528095Y-87657142D01*
X136480476Y-87704761D01*
X136385238Y-87752380D01*
X136290000Y-87752380D01*
X136194761Y-87704761D01*
X136147142Y-87657142D01*
X136099523Y-87561904D01*
X136051904Y-87371428D01*
X136051904Y-87133333D01*
X136099523Y-86942857D01*
X136147142Y-86847619D01*
X136194761Y-86800000D01*
X136290000Y-86752380D01*
X137194761Y-87180952D02*
X137099523Y-87133333D01*
X137051904Y-87085714D01*
X137004285Y-86990476D01*
X137004285Y-86942857D01*
X137051904Y-86847619D01*
X137099523Y-86800000D01*
X137194761Y-86752380D01*
X137385238Y-86752380D01*
X137480476Y-86800000D01*
X137528095Y-86847619D01*
X137575714Y-86942857D01*
X137575714Y-86990476D01*
X137528095Y-87085714D01*
X137480476Y-87133333D01*
X137385238Y-87180952D01*
X137194761Y-87180952D01*
X137099523Y-87228571D01*
X137051904Y-87276190D01*
X137004285Y-87371428D01*
X137004285Y-87561904D01*
X137051904Y-87657142D01*
X137099523Y-87704761D01*
X137194761Y-87752380D01*
X137385238Y-87752380D01*
X137480476Y-87704761D01*
X137528095Y-87657142D01*
X137575714Y-87561904D01*
X137575714Y-87371428D01*
X137528095Y-87276190D01*
X137480476Y-87228571D01*
X137385238Y-87180952D01*
%TO.C,U2*%
X143278095Y-93502380D02*
X143278095Y-94311904D01*
X143325714Y-94407142D01*
X143373333Y-94454761D01*
X143468571Y-94502380D01*
X143659047Y-94502380D01*
X143754285Y-94454761D01*
X143801904Y-94407142D01*
X143849523Y-94311904D01*
X143849523Y-93502380D01*
X144278095Y-93597619D02*
X144325714Y-93550000D01*
X144420952Y-93502380D01*
X144659047Y-93502380D01*
X144754285Y-93550000D01*
X144801904Y-93597619D01*
X144849523Y-93692857D01*
X144849523Y-93788095D01*
X144801904Y-93930952D01*
X144230476Y-94502380D01*
X144849523Y-94502380D01*
D15*
X141235714Y-92808571D02*
X141235714Y-91308571D01*
X141735714Y-92380000D01*
X142235714Y-91308571D01*
X142235714Y-92808571D01*
X143450000Y-92022857D02*
X143664285Y-92094285D01*
X143735714Y-92165714D01*
X143807142Y-92308571D01*
X143807142Y-92522857D01*
X143735714Y-92665714D01*
X143664285Y-92737142D01*
X143521428Y-92808571D01*
X142950000Y-92808571D01*
X142950000Y-91308571D01*
X143450000Y-91308571D01*
X143592857Y-91380000D01*
X143664285Y-91451428D01*
X143735714Y-91594285D01*
X143735714Y-91737142D01*
X143664285Y-91880000D01*
X143592857Y-91951428D01*
X143450000Y-92022857D01*
X142950000Y-92022857D01*
X145307142Y-92665714D02*
X145235714Y-92737142D01*
X145021428Y-92808571D01*
X144878571Y-92808571D01*
X144664285Y-92737142D01*
X144521428Y-92594285D01*
X144450000Y-92451428D01*
X144378571Y-92165714D01*
X144378571Y-91951428D01*
X144450000Y-91665714D01*
X144521428Y-91522857D01*
X144664285Y-91380000D01*
X144878571Y-91308571D01*
X145021428Y-91308571D01*
X145235714Y-91380000D01*
X145307142Y-91451428D01*
X146664285Y-91308571D02*
X145950000Y-91308571D01*
X145878571Y-92022857D01*
X145950000Y-91951428D01*
X146092857Y-91880000D01*
X146450000Y-91880000D01*
X146592857Y-91951428D01*
X146664285Y-92022857D01*
X146735714Y-92165714D01*
X146735714Y-92522857D01*
X146664285Y-92665714D01*
X146592857Y-92737142D01*
X146450000Y-92808571D01*
X146092857Y-92808571D01*
X145950000Y-92737142D01*
X145878571Y-92665714D01*
%TO.C,J1*%
G36*
X148250000Y-115590000D02*
G01*
X147250000Y-115590000D01*
X147250000Y-110890000D01*
X148250000Y-110890000D01*
X148250000Y-115590000D01*
G37*
G36*
X127250000Y-115890000D02*
G01*
X126250000Y-115890000D01*
X125750000Y-115390000D01*
X125750000Y-110890000D01*
X127250000Y-110890000D01*
X127250000Y-115890000D01*
G37*
G36*
X160250000Y-115590000D02*
G01*
X159250000Y-115590000D01*
X159250000Y-110890000D01*
X160250000Y-110890000D01*
X160250000Y-115590000D01*
G37*
G36*
X134750000Y-115590000D02*
G01*
X133750000Y-115590000D01*
X133750000Y-110890000D01*
X134750000Y-110890000D01*
X134750000Y-115590000D01*
G37*
G36*
X142250000Y-115590000D02*
G01*
X141250000Y-115590000D01*
X141250000Y-110890000D01*
X142250000Y-110890000D01*
X142250000Y-115590000D01*
G37*
G36*
X174900000Y-116840000D02*
G01*
X125100000Y-116840000D01*
X125100000Y-110890000D01*
X174900000Y-110890000D01*
X174900000Y-116840000D01*
G37*
G36*
X137750000Y-115590000D02*
G01*
X136750000Y-115590000D01*
X136750000Y-110890000D01*
X137750000Y-110890000D01*
X137750000Y-115590000D01*
G37*
G36*
X146750000Y-115590000D02*
G01*
X145750000Y-115590000D01*
X145750000Y-110890000D01*
X146750000Y-110890000D01*
X146750000Y-115590000D01*
G37*
G36*
X161750000Y-115590000D02*
G01*
X160750000Y-115590000D01*
X160750000Y-110890000D01*
X161750000Y-110890000D01*
X161750000Y-115590000D01*
G37*
G36*
X166250000Y-115590000D02*
G01*
X165250000Y-115590000D01*
X165250000Y-110890000D01*
X166250000Y-110890000D01*
X166250000Y-115590000D01*
G37*
G36*
X131750000Y-115590000D02*
G01*
X130750000Y-115590000D01*
X130750000Y-110890000D01*
X131750000Y-110890000D01*
X131750000Y-115590000D01*
G37*
G36*
X155750000Y-115590000D02*
G01*
X154750000Y-115590000D01*
X154750000Y-110890000D01*
X155750000Y-110890000D01*
X155750000Y-115590000D01*
G37*
G36*
X172250000Y-115590000D02*
G01*
X171250000Y-115590000D01*
X171250000Y-110890000D01*
X172250000Y-110890000D01*
X172250000Y-115590000D01*
G37*
G36*
X149750000Y-115590000D02*
G01*
X148750000Y-115590000D01*
X148750000Y-110890000D01*
X149750000Y-110890000D01*
X149750000Y-115590000D01*
G37*
G36*
X151250000Y-115590000D02*
G01*
X150250000Y-115590000D01*
X150250000Y-110890000D01*
X151250000Y-110890000D01*
X151250000Y-115590000D01*
G37*
G36*
X130250000Y-115590000D02*
G01*
X129250000Y-115590000D01*
X129250000Y-110890000D01*
X130250000Y-110890000D01*
X130250000Y-115590000D01*
G37*
G36*
X140750000Y-115590000D02*
G01*
X139750000Y-115590000D01*
X139750000Y-110890000D01*
X140750000Y-110890000D01*
X140750000Y-115590000D01*
G37*
G36*
X174250000Y-115390000D02*
G01*
X173750000Y-115890000D01*
X172750000Y-115890000D01*
X172750000Y-110890000D01*
X174250000Y-110890000D01*
X174250000Y-115390000D01*
G37*
G36*
X170750000Y-115590000D02*
G01*
X169750000Y-115590000D01*
X169750000Y-110890000D01*
X170750000Y-110890000D01*
X170750000Y-115590000D01*
G37*
G36*
X163250000Y-115590000D02*
G01*
X162250000Y-115590000D01*
X162250000Y-110890000D01*
X163250000Y-110890000D01*
X163250000Y-115590000D01*
G37*
G36*
X158750000Y-115590000D02*
G01*
X157750000Y-115590000D01*
X157750000Y-110890000D01*
X158750000Y-110890000D01*
X158750000Y-115590000D01*
G37*
G36*
X143750000Y-115590000D02*
G01*
X142750000Y-115590000D01*
X142750000Y-110890000D01*
X143750000Y-110890000D01*
X143750000Y-115590000D01*
G37*
G36*
X169250000Y-115590000D02*
G01*
X168250000Y-115590000D01*
X168250000Y-110890000D01*
X169250000Y-110890000D01*
X169250000Y-115590000D01*
G37*
G36*
X128750000Y-115590000D02*
G01*
X127750000Y-115590000D01*
X127750000Y-110890000D01*
X128750000Y-110890000D01*
X128750000Y-115590000D01*
G37*
G36*
X164750000Y-115590000D02*
G01*
X163750000Y-115590000D01*
X163750000Y-110890000D01*
X164750000Y-110890000D01*
X164750000Y-115590000D01*
G37*
G36*
X152750000Y-115590000D02*
G01*
X151750000Y-115590000D01*
X151750000Y-110890000D01*
X152750000Y-110890000D01*
X152750000Y-115590000D01*
G37*
G36*
X139250000Y-115590000D02*
G01*
X138250000Y-115590000D01*
X138250000Y-110890000D01*
X139250000Y-110890000D01*
X139250000Y-115590000D01*
G37*
G36*
X154250000Y-115590000D02*
G01*
X153250000Y-115590000D01*
X153250000Y-110890000D01*
X154250000Y-110890000D01*
X154250000Y-115590000D01*
G37*
G36*
X167750000Y-115590000D02*
G01*
X166750000Y-115590000D01*
X166750000Y-110890000D01*
X167750000Y-110890000D01*
X167750000Y-115590000D01*
G37*
G36*
X133250000Y-115590000D02*
G01*
X132250000Y-115590000D01*
X132250000Y-110890000D01*
X133250000Y-110890000D01*
X133250000Y-115590000D01*
G37*
G36*
X136250000Y-115590000D02*
G01*
X135250000Y-115590000D01*
X135250000Y-110890000D01*
X136250000Y-110890000D01*
X136250000Y-115590000D01*
G37*
G36*
X157250000Y-115590000D02*
G01*
X156250000Y-115590000D01*
X156250000Y-110890000D01*
X157250000Y-110890000D01*
X157250000Y-115590000D01*
G37*
G36*
X145250000Y-115590000D02*
G01*
X144250000Y-115590000D01*
X144250000Y-110890000D01*
X145250000Y-110890000D01*
X145250000Y-115590000D01*
G37*
D10*
X126101428Y-110303095D02*
X125958571Y-110303095D01*
X126030000Y-110303095D02*
X126030000Y-110053095D01*
X126006190Y-110088809D01*
X125982380Y-110112619D01*
X125958571Y-110124523D01*
X173797619Y-110053095D02*
X173952380Y-110053095D01*
X173869047Y-110148333D01*
X173904761Y-110148333D01*
X173928571Y-110160238D01*
X173940476Y-110172142D01*
X173952380Y-110195952D01*
X173952380Y-110255476D01*
X173940476Y-110279285D01*
X173928571Y-110291190D01*
X173904761Y-110303095D01*
X173833333Y-110303095D01*
X173809523Y-110291190D01*
X173797619Y-110279285D01*
X174047619Y-110076904D02*
X174059523Y-110065000D01*
X174083333Y-110053095D01*
X174142857Y-110053095D01*
X174166666Y-110065000D01*
X174178571Y-110076904D01*
X174190476Y-110100714D01*
X174190476Y-110124523D01*
X174178571Y-110160238D01*
X174035714Y-110303095D01*
X174190476Y-110303095D01*
D11*
X170827142Y-107192857D02*
X170493809Y-107311904D01*
X170827142Y-107430952D01*
X170493809Y-107883333D02*
X170493809Y-107597619D01*
X170493809Y-107740476D02*
X170993809Y-107740476D01*
X170922380Y-107692857D01*
X170874761Y-107645238D01*
X170850952Y-107597619D01*
X125863333Y-108936190D02*
X126030000Y-109436190D01*
X126196666Y-108936190D01*
X126649047Y-109388571D02*
X126625238Y-109412380D01*
X126553809Y-109436190D01*
X126506190Y-109436190D01*
X126434761Y-109412380D01*
X126387142Y-109364761D01*
X126363333Y-109317142D01*
X126339523Y-109221904D01*
X126339523Y-109150476D01*
X126363333Y-109055238D01*
X126387142Y-109007619D01*
X126434761Y-108960000D01*
X126506190Y-108936190D01*
X126553809Y-108936190D01*
X126625238Y-108960000D01*
X126649047Y-108983809D01*
X127149047Y-109388571D02*
X127125238Y-109412380D01*
X127053809Y-109436190D01*
X127006190Y-109436190D01*
X126934761Y-109412380D01*
X126887142Y-109364761D01*
X126863333Y-109317142D01*
X126839523Y-109221904D01*
X126839523Y-109150476D01*
X126863333Y-109055238D01*
X126887142Y-109007619D01*
X126934761Y-108960000D01*
X127006190Y-108936190D01*
X127053809Y-108936190D01*
X127125238Y-108960000D01*
X127149047Y-108983809D01*
X173019047Y-108960000D02*
X172971428Y-108936190D01*
X172900000Y-108936190D01*
X172828571Y-108960000D01*
X172780952Y-109007619D01*
X172757142Y-109055238D01*
X172733333Y-109150476D01*
X172733333Y-109221904D01*
X172757142Y-109317142D01*
X172780952Y-109364761D01*
X172828571Y-109412380D01*
X172900000Y-109436190D01*
X172947619Y-109436190D01*
X173019047Y-109412380D01*
X173042857Y-109388571D01*
X173042857Y-109221904D01*
X172947619Y-109221904D01*
X173257142Y-109436190D02*
X173257142Y-108936190D01*
X173542857Y-109436190D01*
X173542857Y-108936190D01*
X173780952Y-109436190D02*
X173780952Y-108936190D01*
X173900000Y-108936190D01*
X173971428Y-108960000D01*
X174019047Y-109007619D01*
X174042857Y-109055238D01*
X174066666Y-109150476D01*
X174066666Y-109221904D01*
X174042857Y-109317142D01*
X174019047Y-109364761D01*
X173971428Y-109412380D01*
X173900000Y-109436190D01*
X173780952Y-109436190D01*
D12*
%TO.C,C3*%
X141453333Y-88060000D02*
X141420000Y-88093333D01*
X141320000Y-88126666D01*
X141253333Y-88126666D01*
X141153333Y-88093333D01*
X141086666Y-88026666D01*
X141053333Y-87960000D01*
X141020000Y-87826666D01*
X141020000Y-87726666D01*
X141053333Y-87593333D01*
X141086666Y-87526666D01*
X141153333Y-87460000D01*
X141253333Y-87426666D01*
X141320000Y-87426666D01*
X141420000Y-87460000D01*
X141453333Y-87493333D01*
X141686666Y-87426666D02*
X142120000Y-87426666D01*
X141886666Y-87693333D01*
X141986666Y-87693333D01*
X142053333Y-87726666D01*
X142086666Y-87760000D01*
X142120000Y-87826666D01*
X142120000Y-87993333D01*
X142086666Y-88060000D01*
X142053333Y-88093333D01*
X141986666Y-88126666D01*
X141786666Y-88126666D01*
X141720000Y-88093333D01*
X141686666Y-88060000D01*
%TO.C,C1*%
X126013333Y-106900000D02*
X125980000Y-106933333D01*
X125880000Y-106966666D01*
X125813333Y-106966666D01*
X125713333Y-106933333D01*
X125646666Y-106866666D01*
X125613333Y-106800000D01*
X125580000Y-106666666D01*
X125580000Y-106566666D01*
X125613333Y-106433333D01*
X125646666Y-106366666D01*
X125713333Y-106300000D01*
X125813333Y-106266666D01*
X125880000Y-106266666D01*
X125980000Y-106300000D01*
X126013333Y-106333333D01*
X126680000Y-106966666D02*
X126280000Y-106966666D01*
X126480000Y-106966666D02*
X126480000Y-106266666D01*
X126413333Y-106366666D01*
X126346666Y-106433333D01*
X126280000Y-106466666D01*
%TO.C,C2*%
X150663333Y-92270000D02*
X150630000Y-92303333D01*
X150530000Y-92336666D01*
X150463333Y-92336666D01*
X150363333Y-92303333D01*
X150296666Y-92236666D01*
X150263333Y-92170000D01*
X150230000Y-92036666D01*
X150230000Y-91936666D01*
X150263333Y-91803333D01*
X150296666Y-91736666D01*
X150363333Y-91670000D01*
X150463333Y-91636666D01*
X150530000Y-91636666D01*
X150630000Y-91670000D01*
X150663333Y-91703333D01*
X150930000Y-91703333D02*
X150963333Y-91670000D01*
X151030000Y-91636666D01*
X151196666Y-91636666D01*
X151263333Y-91670000D01*
X151296666Y-91703333D01*
X151330000Y-91770000D01*
X151330000Y-91836666D01*
X151296666Y-91936666D01*
X150896666Y-92336666D01*
X151330000Y-92336666D01*
%TO.C,C4*%
X155773333Y-88060000D02*
X155740000Y-88093333D01*
X155640000Y-88126666D01*
X155573333Y-88126666D01*
X155473333Y-88093333D01*
X155406666Y-88026666D01*
X155373333Y-87960000D01*
X155340000Y-87826666D01*
X155340000Y-87726666D01*
X155373333Y-87593333D01*
X155406666Y-87526666D01*
X155473333Y-87460000D01*
X155573333Y-87426666D01*
X155640000Y-87426666D01*
X155740000Y-87460000D01*
X155773333Y-87493333D01*
X156373333Y-87660000D02*
X156373333Y-88126666D01*
X156206666Y-87393333D02*
X156040000Y-87893333D01*
X156473333Y-87893333D01*
D13*
%TO.C,U1*%
X156978095Y-91792380D02*
X156978095Y-92601904D01*
X157025714Y-92697142D01*
X157073333Y-92744761D01*
X157168571Y-92792380D01*
X157359047Y-92792380D01*
X157454285Y-92744761D01*
X157501904Y-92697142D01*
X157549523Y-92601904D01*
X157549523Y-91792380D01*
X158549523Y-92792380D02*
X157978095Y-92792380D01*
X158263809Y-92792380D02*
X158263809Y-91792380D01*
X158168571Y-91935238D01*
X158073333Y-92030476D01*
X157978095Y-92078095D01*
D14*
X153682857Y-90442857D02*
X153725714Y-90400000D01*
X153811428Y-90357142D01*
X154025714Y-90357142D01*
X154111428Y-90400000D01*
X154154285Y-90442857D01*
X154197142Y-90528571D01*
X154197142Y-90614285D01*
X154154285Y-90742857D01*
X153640000Y-91257142D01*
X154197142Y-91257142D01*
X154625714Y-91257142D02*
X154797142Y-91257142D01*
X154882857Y-91214285D01*
X154925714Y-91171428D01*
X155011428Y-91042857D01*
X155054285Y-90871428D01*
X155054285Y-90528571D01*
X155011428Y-90442857D01*
X154968571Y-90400000D01*
X154882857Y-90357142D01*
X154711428Y-90357142D01*
X154625714Y-90400000D01*
X154582857Y-90442857D01*
X154540000Y-90528571D01*
X154540000Y-90742857D01*
X154582857Y-90828571D01*
X154625714Y-90871428D01*
X154711428Y-90914285D01*
X154882857Y-90914285D01*
X154968571Y-90871428D01*
X155011428Y-90828571D01*
X155054285Y-90742857D01*
X155740000Y-90785714D02*
X155440000Y-90785714D01*
X155440000Y-91257142D02*
X155440000Y-90357142D01*
X155868571Y-90357142D01*
X156382857Y-90357142D02*
X156468571Y-90357142D01*
X156554285Y-90400000D01*
X156597142Y-90442857D01*
X156640000Y-90528571D01*
X156682857Y-90700000D01*
X156682857Y-90914285D01*
X156640000Y-91085714D01*
X156597142Y-91171428D01*
X156554285Y-91214285D01*
X156468571Y-91257142D01*
X156382857Y-91257142D01*
X156297142Y-91214285D01*
X156254285Y-91171428D01*
X156211428Y-91085714D01*
X156168571Y-90914285D01*
X156168571Y-90700000D01*
X156211428Y-90528571D01*
X156254285Y-90442857D01*
X156297142Y-90400000D01*
X156382857Y-90357142D01*
X156982857Y-90357142D02*
X157540000Y-90357142D01*
X157240000Y-90700000D01*
X157368571Y-90700000D01*
X157454285Y-90742857D01*
X157497142Y-90785714D01*
X157540000Y-90871428D01*
X157540000Y-91085714D01*
X157497142Y-91171428D01*
X157454285Y-91214285D01*
X157368571Y-91257142D01*
X157111428Y-91257142D01*
X157025714Y-91214285D01*
X156982857Y-91171428D01*
X157840000Y-90357142D02*
X158397142Y-90357142D01*
X158097142Y-90700000D01*
X158225714Y-90700000D01*
X158311428Y-90742857D01*
X158354285Y-90785714D01*
X158397142Y-90871428D01*
X158397142Y-91085714D01*
X158354285Y-91171428D01*
X158311428Y-91214285D01*
X158225714Y-91257142D01*
X157968571Y-91257142D01*
X157882857Y-91214285D01*
X157840000Y-91171428D01*
D13*
%TO.C,U3*%
X128378095Y-86752380D02*
X128378095Y-87561904D01*
X128425714Y-87657142D01*
X128473333Y-87704761D01*
X128568571Y-87752380D01*
X128759047Y-87752380D01*
X128854285Y-87704761D01*
X128901904Y-87657142D01*
X128949523Y-87561904D01*
X128949523Y-86752380D01*
X129330476Y-86752380D02*
X129949523Y-86752380D01*
X129616190Y-87133333D01*
X129759047Y-87133333D01*
X129854285Y-87180952D01*
X129901904Y-87228571D01*
X129949523Y-87323809D01*
X129949523Y-87561904D01*
X129901904Y-87657142D01*
X129854285Y-87704761D01*
X129759047Y-87752380D01*
X129473333Y-87752380D01*
X129378095Y-87704761D01*
X129330476Y-87657142D01*
X131385238Y-87228571D02*
X131051904Y-87228571D01*
X131051904Y-87752380D02*
X131051904Y-86752380D01*
X131528095Y-86752380D01*
X131909047Y-87752380D02*
X131909047Y-86752380D01*
X132242380Y-87466666D01*
X132575714Y-86752380D01*
X132575714Y-87752380D01*
X133575714Y-87752380D02*
X133004285Y-87752380D01*
X133290000Y-87752380D02*
X133290000Y-86752380D01*
X133194761Y-86895238D01*
X133099523Y-86990476D01*
X133004285Y-87038095D01*
X134147142Y-87180952D02*
X134051904Y-87133333D01*
X134004285Y-87085714D01*
X133956666Y-86990476D01*
X133956666Y-86942857D01*
X134004285Y-86847619D01*
X134051904Y-86800000D01*
X134147142Y-86752380D01*
X134337619Y-86752380D01*
X134432857Y-86800000D01*
X134480476Y-86847619D01*
X134528095Y-86942857D01*
X134528095Y-86990476D01*
X134480476Y-87085714D01*
X134432857Y-87133333D01*
X134337619Y-87180952D01*
X134147142Y-87180952D01*
X134051904Y-87228571D01*
X134004285Y-87276190D01*
X133956666Y-87371428D01*
X133956666Y-87561904D01*
X134004285Y-87657142D01*
X134051904Y-87704761D01*
X134147142Y-87752380D01*
X134337619Y-87752380D01*
X134432857Y-87704761D01*
X134480476Y-87657142D01*
X134528095Y-87561904D01*
X134528095Y-87371428D01*
X134480476Y-87276190D01*
X134432857Y-87228571D01*
X134337619Y-87180952D01*
X134861428Y-86752380D02*
X135099523Y-87752380D01*
X135290000Y-87038095D01*
X135480476Y-87752380D01*
X135718571Y-86752380D01*
X136290000Y-86752380D02*
X136385238Y-86752380D01*
X136480476Y-86800000D01*
X136528095Y-86847619D01*
X136575714Y-86942857D01*
X136623333Y-87133333D01*
X136623333Y-87371428D01*
X136575714Y-87561904D01*
X136528095Y-87657142D01*
X136480476Y-87704761D01*
X136385238Y-87752380D01*
X136290000Y-87752380D01*
X136194761Y-87704761D01*
X136147142Y-87657142D01*
X136099523Y-87561904D01*
X136051904Y-87371428D01*
X136051904Y-87133333D01*
X136099523Y-86942857D01*
X136147142Y-86847619D01*
X136194761Y-86800000D01*
X136290000Y-86752380D01*
X137194761Y-87180952D02*
X137099523Y-87133333D01*
X137051904Y-87085714D01*
X137004285Y-86990476D01*
X137004285Y-86942857D01*
X137051904Y-86847619D01*
X137099523Y-86800000D01*
X137194761Y-86752380D01*
X137385238Y-86752380D01*
X137480476Y-86800000D01*
X137528095Y-86847619D01*
X137575714Y-86942857D01*
X137575714Y-86990476D01*
X137528095Y-87085714D01*
X137480476Y-87133333D01*
X137385238Y-87180952D01*
X137194761Y-87180952D01*
X137099523Y-87228571D01*
X137051904Y-87276190D01*
X137004285Y-87371428D01*
X137004285Y-87561904D01*
X137051904Y-87657142D01*
X137099523Y-87704761D01*
X137194761Y-87752380D01*
X137385238Y-87752380D01*
X137480476Y-87704761D01*
X137528095Y-87657142D01*
X137575714Y-87561904D01*
X137575714Y-87371428D01*
X137528095Y-87276190D01*
X137480476Y-87228571D01*
X137385238Y-87180952D01*
%TO.C,U2*%
X143278095Y-93502380D02*
X143278095Y-94311904D01*
X143325714Y-94407142D01*
X143373333Y-94454761D01*
X143468571Y-94502380D01*
X143659047Y-94502380D01*
X143754285Y-94454761D01*
X143801904Y-94407142D01*
X143849523Y-94311904D01*
X143849523Y-93502380D01*
X144278095Y-93597619D02*
X144325714Y-93550000D01*
X144420952Y-93502380D01*
X144659047Y-93502380D01*
X144754285Y-93550000D01*
X144801904Y-93597619D01*
X144849523Y-93692857D01*
X144849523Y-93788095D01*
X144801904Y-93930952D01*
X144230476Y-94502380D01*
X144849523Y-94502380D01*
D15*
X141235714Y-92808571D02*
X141235714Y-91308571D01*
X141735714Y-92380000D01*
X142235714Y-91308571D01*
X142235714Y-92808571D01*
X143450000Y-92022857D02*
X143664285Y-92094285D01*
X143735714Y-92165714D01*
X143807142Y-92308571D01*
X143807142Y-92522857D01*
X143735714Y-92665714D01*
X143664285Y-92737142D01*
X143521428Y-92808571D01*
X142950000Y-92808571D01*
X142950000Y-91308571D01*
X143450000Y-91308571D01*
X143592857Y-91380000D01*
X143664285Y-91451428D01*
X143735714Y-91594285D01*
X143735714Y-91737142D01*
X143664285Y-91880000D01*
X143592857Y-91951428D01*
X143450000Y-92022857D01*
X142950000Y-92022857D01*
X145307142Y-92665714D02*
X145235714Y-92737142D01*
X145021428Y-92808571D01*
X144878571Y-92808571D01*
X144664285Y-92737142D01*
X144521428Y-92594285D01*
X144450000Y-92451428D01*
X144378571Y-92165714D01*
X144378571Y-91951428D01*
X144450000Y-91665714D01*
X144521428Y-91522857D01*
X144664285Y-91380000D01*
X144878571Y-91308571D01*
X145021428Y-91308571D01*
X145235714Y-91380000D01*
X145307142Y-91451428D01*
X146664285Y-91308571D02*
X145950000Y-91308571D01*
X145878571Y-92022857D01*
X145950000Y-91951428D01*
X146092857Y-91880000D01*
X146450000Y-91880000D01*
X146592857Y-91951428D01*
X146664285Y-92022857D01*
X146735714Y-92165714D01*
X146735714Y-92522857D01*
X146664285Y-92665714D01*
X146592857Y-92737142D01*
X146450000Y-92808571D01*
X146092857Y-92808571D01*
X145950000Y-92737142D01*
X145878571Y-92665714D01*
%TO.C,kibuzzard-622CFB3C*%
G36*
X170144940Y-90443524D02*
G01*
X170164981Y-90308421D01*
X170198168Y-90175934D01*
X170244180Y-90047337D01*
X170302576Y-89923869D01*
X170372793Y-89806719D01*
X170454154Y-89697017D01*
X170545876Y-89595817D01*
X170647076Y-89504095D01*
X170756779Y-89422733D01*
X170873928Y-89352517D01*
X170997396Y-89294121D01*
X171125993Y-89248108D01*
X171258481Y-89214922D01*
X171393584Y-89194881D01*
X171530000Y-89188179D01*
X171666416Y-89194881D01*
X171801519Y-89214922D01*
X171934007Y-89248108D01*
X172062604Y-89294121D01*
X172186072Y-89352517D01*
X172303221Y-89422733D01*
X172412924Y-89504095D01*
X172514124Y-89595817D01*
X172605846Y-89697017D01*
X172687207Y-89806719D01*
X172757424Y-89923869D01*
X172815820Y-90047337D01*
X172861832Y-90175934D01*
X172895019Y-90308421D01*
X172915060Y-90443524D01*
X172921761Y-90579941D01*
X172921761Y-107431821D01*
X170138239Y-106596764D01*
X170138239Y-105733243D01*
X170717994Y-105733243D01*
X172072211Y-105733243D01*
X172072211Y-106160201D01*
X172339387Y-106160201D01*
X172339387Y-104981483D01*
X172072211Y-104981483D01*
X172072211Y-105408441D01*
X170717994Y-105408441D01*
X170717994Y-105733243D01*
X170138239Y-105733243D01*
X170138239Y-104887185D01*
X170717994Y-104887185D01*
X170889563Y-104812533D01*
X171070300Y-104722165D01*
X171243178Y-104625248D01*
X171393793Y-104530950D01*
X171467790Y-104645548D01*
X171569291Y-104722165D01*
X171691092Y-104765384D01*
X171825989Y-104779791D01*
X171953356Y-104768986D01*
X172063043Y-104736571D01*
X172229373Y-104612151D01*
X172286345Y-104523092D01*
X172326290Y-104418317D01*
X172349864Y-104299135D01*
X172357723Y-104166857D01*
X172355103Y-104075179D01*
X172348555Y-103965165D01*
X172335458Y-103851222D01*
X172315813Y-103747757D01*
X170717994Y-103747757D01*
X170717994Y-104069940D01*
X171315211Y-104069940D01*
X171315211Y-104237580D01*
X171166889Y-104326311D01*
X171020532Y-104409149D01*
X170872209Y-104484129D01*
X170717994Y-104549286D01*
X170717994Y-104887185D01*
X170138239Y-104887185D01*
X170138239Y-103582736D01*
X170717994Y-103582736D01*
X170901821Y-103539517D01*
X171080306Y-103495773D01*
X171253446Y-103451506D01*
X171421244Y-103406714D01*
X171583697Y-103361399D01*
X171780723Y-103304346D01*
X171972347Y-103247129D01*
X172158568Y-103189748D01*
X172339387Y-103132204D01*
X172339387Y-102781208D01*
X172160042Y-102725710D01*
X171975621Y-102669229D01*
X171786126Y-102611767D01*
X171591555Y-102553322D01*
X171430464Y-102506278D01*
X171262562Y-102459444D01*
X171087850Y-102412819D01*
X170906327Y-102366403D01*
X170717994Y-102320198D01*
X170717994Y-102655478D01*
X171092564Y-102728820D01*
X171092564Y-103161017D01*
X170717994Y-103236979D01*
X170717994Y-103582736D01*
X170138239Y-103582736D01*
X170138239Y-101762271D01*
X170683942Y-101762271D01*
X170692782Y-101905354D01*
X170719303Y-102030757D01*
X170796575Y-102215423D01*
X171050654Y-102134222D01*
X170993028Y-102001944D01*
X170964215Y-101793703D01*
X171001214Y-101606745D01*
X171112210Y-101480688D01*
X171225279Y-101427573D01*
X171367162Y-101395704D01*
X171537858Y-101385081D01*
X171684543Y-101393921D01*
X171805034Y-101420442D01*
X171976603Y-101512120D01*
X172068282Y-101640470D01*
X172095785Y-101788465D01*
X172068282Y-101983608D01*
X172001488Y-102128983D01*
X172258186Y-102212803D01*
X172289619Y-102159106D01*
X172328909Y-102071357D01*
X172361652Y-101949556D01*
X172376058Y-101793703D01*
X172361979Y-101640142D01*
X172319742Y-101499024D01*
X172250328Y-101373294D01*
X172154721Y-101265899D01*
X172033902Y-101178478D01*
X171888854Y-101112666D01*
X171720560Y-101071411D01*
X171530000Y-101057659D01*
X171338622Y-101068955D01*
X171170491Y-101102843D01*
X171025607Y-101159323D01*
X170903969Y-101238396D01*
X170781732Y-101376932D01*
X170708389Y-101551557D01*
X170683942Y-101762271D01*
X170138239Y-101762271D01*
X170138239Y-100869064D01*
X170717994Y-100869064D01*
X172339387Y-100869064D01*
X172339387Y-100546881D01*
X171700259Y-100546881D01*
X171700259Y-100117303D01*
X172339387Y-100117303D01*
X172339387Y-99795120D01*
X170717994Y-99795120D01*
X170717994Y-100117303D01*
X171433083Y-100117303D01*
X171433083Y-100546881D01*
X170717994Y-100546881D01*
X170717994Y-100869064D01*
X170138239Y-100869064D01*
X170138239Y-98975256D01*
X170683942Y-98975256D01*
X170697766Y-99159049D01*
X170739240Y-99308790D01*
X170808362Y-99424479D01*
X170958649Y-99535475D01*
X171160668Y-99572473D01*
X171282796Y-99561341D01*
X171382005Y-99527944D01*
X171528690Y-99414001D01*
X171622988Y-99262077D01*
X171687163Y-99103605D01*
X171726453Y-99002759D01*
X171774912Y-98911081D01*
X171837777Y-98844287D01*
X171920287Y-98818093D01*
X172023607Y-98846615D01*
X172085599Y-98932182D01*
X172106263Y-99074792D01*
X172080069Y-99259458D01*
X172017204Y-99404833D01*
X172266044Y-99499131D01*
X172342006Y-99311845D01*
X172367545Y-99191027D01*
X172376058Y-99051218D01*
X172361797Y-98890708D01*
X172319014Y-98754937D01*
X172247709Y-98643905D01*
X172094475Y-98532909D01*
X171891474Y-98495910D01*
X171698950Y-98537820D01*
X171569291Y-98643905D01*
X171482851Y-98786661D01*
X171422606Y-98938585D01*
X171376767Y-99048598D01*
X171321760Y-99148135D01*
X171252346Y-99221477D01*
X171163288Y-99250290D01*
X171086016Y-99238503D01*
X171017912Y-99195283D01*
X170970763Y-99110154D01*
X170953738Y-98975256D01*
X170962905Y-98844614D01*
X170990409Y-98735583D01*
X171068990Y-98566633D01*
X170807053Y-98472336D01*
X170727162Y-98653073D01*
X170694747Y-98793864D01*
X170683942Y-98975256D01*
X170138239Y-98975256D01*
X170138239Y-98343986D01*
X170717994Y-98343986D01*
X170901821Y-98300767D01*
X171080306Y-98257023D01*
X171253446Y-98212756D01*
X171421244Y-98167964D01*
X171583697Y-98122649D01*
X171780723Y-98065596D01*
X171972347Y-98008379D01*
X172158568Y-97950998D01*
X172339387Y-97893454D01*
X172339387Y-97542458D01*
X172160042Y-97486960D01*
X171975621Y-97430479D01*
X171786126Y-97373017D01*
X171591555Y-97314572D01*
X171430464Y-97267528D01*
X171262562Y-97220694D01*
X171087850Y-97174069D01*
X170906327Y-97127653D01*
X170717994Y-97081448D01*
X170717994Y-97416728D01*
X171092564Y-97490070D01*
X171092564Y-97922267D01*
X170717994Y-97998229D01*
X170717994Y-98343986D01*
X170138239Y-98343986D01*
X170138239Y-96953098D01*
X170717994Y-96953098D01*
X170985170Y-96953098D01*
X170985170Y-96258964D01*
X172339387Y-96258964D01*
X172339387Y-95934161D01*
X170717994Y-95934161D01*
X170717994Y-96953098D01*
X170138239Y-96953098D01*
X170138239Y-94925702D01*
X170717994Y-94925702D01*
X171412128Y-94925702D01*
X171412128Y-95512442D01*
X171679304Y-95512442D01*
X171679304Y-94925702D01*
X172072211Y-94925702D01*
X172072211Y-95596262D01*
X172339387Y-95596262D01*
X172339387Y-94603519D01*
X170717994Y-94603519D01*
X170717994Y-94925702D01*
X170138239Y-94925702D01*
X170138239Y-92411102D01*
X170697039Y-92411102D01*
X170703260Y-92540434D01*
X170721923Y-92661252D01*
X170755320Y-92769956D01*
X170805743Y-92862944D01*
X170962905Y-92997842D01*
X171073246Y-93035168D01*
X171207817Y-93047610D01*
X171317831Y-93032876D01*
X171422606Y-92988674D01*
X171514284Y-92903217D01*
X171585007Y-92764718D01*
X171726453Y-92915332D01*
X171822060Y-92957569D01*
X171930764Y-92971648D01*
X172082688Y-92948074D01*
X172220205Y-92859015D01*
X172319742Y-92678278D01*
X172348227Y-92546000D01*
X172357723Y-92379670D01*
X172345935Y-92162261D01*
X172318432Y-91960570D01*
X170744188Y-91960570D01*
X170723560Y-92073857D01*
X170708826Y-92188455D01*
X170699986Y-92301743D01*
X170697039Y-92411102D01*
X170138239Y-92411102D01*
X170138239Y-91242861D01*
X170683942Y-91242861D01*
X170690490Y-91402970D01*
X170710136Y-91537540D01*
X170757284Y-91716968D01*
X171566671Y-91716968D01*
X171566671Y-91394785D01*
X170974693Y-91394785D01*
X170966834Y-91331920D01*
X170964215Y-91269055D01*
X170998594Y-91112547D01*
X171101732Y-90999259D01*
X171210436Y-90948327D01*
X171353192Y-90917767D01*
X171530000Y-90907581D01*
X171650164Y-90913147D01*
X171759195Y-90929845D01*
X171937313Y-91003188D01*
X172053875Y-91132847D01*
X172095785Y-91326681D01*
X172066972Y-91499560D01*
X172001488Y-91641006D01*
X172258186Y-91724826D01*
X172289619Y-91671129D01*
X172328909Y-91580760D01*
X172361652Y-91451101D01*
X172376058Y-91282151D01*
X172362634Y-91140050D01*
X172322361Y-91007117D01*
X172255239Y-90887281D01*
X172161269Y-90784470D01*
X172041106Y-90699995D01*
X171895403Y-90635166D01*
X171724816Y-90593911D01*
X171530000Y-90580159D01*
X171333219Y-90591946D01*
X171161978Y-90627308D01*
X171016602Y-90684279D01*
X170897421Y-90760896D01*
X170804433Y-90856176D01*
X170737639Y-90969136D01*
X170697366Y-91098468D01*
X170683942Y-91242861D01*
X170138239Y-91242861D01*
X170138239Y-90579941D01*
X170144940Y-90443524D01*
G37*
G36*
X171527381Y-97583058D02*
G01*
X171688472Y-97619729D01*
X171850873Y-97661639D01*
X172025062Y-97710098D01*
X171850873Y-97758556D01*
X171688472Y-97800466D01*
X171527381Y-97835828D01*
X171359741Y-97867260D01*
X171359741Y-97550316D01*
X171527381Y-97583058D01*
G37*
G36*
X171527381Y-102821808D02*
G01*
X171688472Y-102858479D01*
X171850873Y-102900389D01*
X172025062Y-102948848D01*
X171850873Y-102997306D01*
X171688472Y-103039216D01*
X171527381Y-103074578D01*
X171359741Y-103106010D01*
X171359741Y-102789066D01*
X171527381Y-102821808D01*
G37*
G36*
X171427844Y-92455631D02*
G01*
X171376767Y-92656014D01*
X171207817Y-92730666D01*
X171091255Y-92704472D01*
X171020532Y-92637678D01*
X170986480Y-92544690D01*
X170977312Y-92437296D01*
X170979931Y-92357405D01*
X170987789Y-92282753D01*
X171427844Y-92282753D01*
X171427844Y-92455631D01*
G37*
G36*
X172076140Y-104122328D02*
G01*
X172077449Y-104166857D01*
X172062388Y-104282764D01*
X172017204Y-104373788D01*
X171939932Y-104432724D01*
X171828609Y-104452369D01*
X171646562Y-104379026D01*
X171598431Y-104282764D01*
X171582388Y-104140663D01*
X171582388Y-104069940D01*
X172069591Y-104069940D01*
X172076140Y-104122328D01*
G37*
G36*
X172074830Y-92353476D02*
G01*
X172077449Y-92429438D01*
X172070901Y-92515877D01*
X172044707Y-92589220D01*
X171989700Y-92638988D01*
X171896713Y-92657323D01*
X171748718Y-92594458D01*
X171695021Y-92408483D01*
X171695021Y-92282753D01*
X172066972Y-92282753D01*
X172074830Y-92353476D01*
G37*
D11*
%TO.C,GNDPAD*%
X171905000Y-88125000D02*
X171155000Y-88125000D01*
X171155000Y-88125000D02*
X171155000Y-87375000D01*
X171155000Y-87375000D02*
X171905000Y-87375000D01*
X171905000Y-87375000D02*
X171905000Y-88125000D01*
G36*
X171905000Y-88125000D02*
G01*
X171155000Y-88125000D01*
X171155000Y-87375000D01*
X171905000Y-87375000D01*
X171905000Y-88125000D01*
G37*
X171905000Y-88125000D02*
X171155000Y-88125000D01*
X171155000Y-87375000D01*
X171905000Y-87375000D01*
X171905000Y-88125000D01*
%TO.C,J1*%
G36*
X148250000Y-115590000D02*
G01*
X147250000Y-115590000D01*
X147250000Y-110890000D01*
X148250000Y-110890000D01*
X148250000Y-115590000D01*
G37*
G36*
X127250000Y-115890000D02*
G01*
X126250000Y-115890000D01*
X125750000Y-115390000D01*
X125750000Y-110890000D01*
X127250000Y-110890000D01*
X127250000Y-115890000D01*
G37*
G36*
X160250000Y-115590000D02*
G01*
X159250000Y-115590000D01*
X159250000Y-110890000D01*
X160250000Y-110890000D01*
X160250000Y-115590000D01*
G37*
G36*
X134750000Y-115590000D02*
G01*
X133750000Y-115590000D01*
X133750000Y-110890000D01*
X134750000Y-110890000D01*
X134750000Y-115590000D01*
G37*
G36*
X142250000Y-115590000D02*
G01*
X141250000Y-115590000D01*
X141250000Y-110890000D01*
X142250000Y-110890000D01*
X142250000Y-115590000D01*
G37*
G36*
X174900000Y-116840000D02*
G01*
X125100000Y-116840000D01*
X125100000Y-110890000D01*
X174900000Y-110890000D01*
X174900000Y-116840000D01*
G37*
G36*
X137750000Y-115590000D02*
G01*
X136750000Y-115590000D01*
X136750000Y-110890000D01*
X137750000Y-110890000D01*
X137750000Y-115590000D01*
G37*
G36*
X146750000Y-115590000D02*
G01*
X145750000Y-115590000D01*
X145750000Y-110890000D01*
X146750000Y-110890000D01*
X146750000Y-115590000D01*
G37*
G36*
X161750000Y-115590000D02*
G01*
X160750000Y-115590000D01*
X160750000Y-110890000D01*
X161750000Y-110890000D01*
X161750000Y-115590000D01*
G37*
G36*
X166250000Y-115590000D02*
G01*
X165250000Y-115590000D01*
X165250000Y-110890000D01*
X166250000Y-110890000D01*
X166250000Y-115590000D01*
G37*
G36*
X131750000Y-115590000D02*
G01*
X130750000Y-115590000D01*
X130750000Y-110890000D01*
X131750000Y-110890000D01*
X131750000Y-115590000D01*
G37*
G36*
X155750000Y-115590000D02*
G01*
X154750000Y-115590000D01*
X154750000Y-110890000D01*
X155750000Y-110890000D01*
X155750000Y-115590000D01*
G37*
G36*
X172250000Y-115590000D02*
G01*
X171250000Y-115590000D01*
X171250000Y-110890000D01*
X172250000Y-110890000D01*
X172250000Y-115590000D01*
G37*
G36*
X149750000Y-115590000D02*
G01*
X148750000Y-115590000D01*
X148750000Y-110890000D01*
X149750000Y-110890000D01*
X149750000Y-115590000D01*
G37*
G36*
X151250000Y-115590000D02*
G01*
X150250000Y-115590000D01*
X150250000Y-110890000D01*
X151250000Y-110890000D01*
X151250000Y-115590000D01*
G37*
G36*
X130250000Y-115590000D02*
G01*
X129250000Y-115590000D01*
X129250000Y-110890000D01*
X130250000Y-110890000D01*
X130250000Y-115590000D01*
G37*
G36*
X140750000Y-115590000D02*
G01*
X139750000Y-115590000D01*
X139750000Y-110890000D01*
X140750000Y-110890000D01*
X140750000Y-115590000D01*
G37*
G36*
X174250000Y-115390000D02*
G01*
X173750000Y-115890000D01*
X172750000Y-115890000D01*
X172750000Y-110890000D01*
X174250000Y-110890000D01*
X174250000Y-115390000D01*
G37*
G36*
X170750000Y-115590000D02*
G01*
X169750000Y-115590000D01*
X169750000Y-110890000D01*
X170750000Y-110890000D01*
X170750000Y-115590000D01*
G37*
G36*
X163250000Y-115590000D02*
G01*
X162250000Y-115590000D01*
X162250000Y-110890000D01*
X163250000Y-110890000D01*
X163250000Y-115590000D01*
G37*
G36*
X158750000Y-115590000D02*
G01*
X157750000Y-115590000D01*
X157750000Y-110890000D01*
X158750000Y-110890000D01*
X158750000Y-115590000D01*
G37*
G36*
X143750000Y-115590000D02*
G01*
X142750000Y-115590000D01*
X142750000Y-110890000D01*
X143750000Y-110890000D01*
X143750000Y-115590000D01*
G37*
G36*
X169250000Y-115590000D02*
G01*
X168250000Y-115590000D01*
X168250000Y-110890000D01*
X169250000Y-110890000D01*
X169250000Y-115590000D01*
G37*
G36*
X128750000Y-115590000D02*
G01*
X127750000Y-115590000D01*
X127750000Y-110890000D01*
X128750000Y-110890000D01*
X128750000Y-115590000D01*
G37*
G36*
X164750000Y-115590000D02*
G01*
X163750000Y-115590000D01*
X163750000Y-110890000D01*
X164750000Y-110890000D01*
X164750000Y-115590000D01*
G37*
G36*
X152750000Y-115590000D02*
G01*
X151750000Y-115590000D01*
X151750000Y-110890000D01*
X152750000Y-110890000D01*
X152750000Y-115590000D01*
G37*
G36*
X139250000Y-115590000D02*
G01*
X138250000Y-115590000D01*
X138250000Y-110890000D01*
X139250000Y-110890000D01*
X139250000Y-115590000D01*
G37*
G36*
X154250000Y-115590000D02*
G01*
X153250000Y-115590000D01*
X153250000Y-110890000D01*
X154250000Y-110890000D01*
X154250000Y-115590000D01*
G37*
G36*
X167750000Y-115590000D02*
G01*
X166750000Y-115590000D01*
X166750000Y-110890000D01*
X167750000Y-110890000D01*
X167750000Y-115590000D01*
G37*
G36*
X133250000Y-115590000D02*
G01*
X132250000Y-115590000D01*
X132250000Y-110890000D01*
X133250000Y-110890000D01*
X133250000Y-115590000D01*
G37*
G36*
X136250000Y-115590000D02*
G01*
X135250000Y-115590000D01*
X135250000Y-110890000D01*
X136250000Y-110890000D01*
X136250000Y-115590000D01*
G37*
G36*
X157250000Y-115590000D02*
G01*
X156250000Y-115590000D01*
X156250000Y-110890000D01*
X157250000Y-110890000D01*
X157250000Y-115590000D01*
G37*
G36*
X145250000Y-115590000D02*
G01*
X144250000Y-115590000D01*
X144250000Y-110890000D01*
X145250000Y-110890000D01*
X145250000Y-115590000D01*
G37*
%TD*%
D16*
%TO.C,GNDPAD*%
X171530000Y-87000000D03*
D17*
X170780000Y-87750000D03*
D16*
X171530000Y-88500000D03*
D17*
X172280000Y-87750000D03*
%TD*%
D18*
%TO.C,C3*%
X140160000Y-87715000D03*
X140160000Y-89265000D03*
%TD*%
D19*
%TO.C,C1*%
X126795000Y-108000000D03*
X128345000Y-108000000D03*
%TD*%
%TO.C,C2*%
X147935000Y-92020000D03*
X149485000Y-92020000D03*
%TD*%
D18*
%TO.C,C4*%
X157270000Y-87785000D03*
X157270000Y-89335000D03*
%TD*%
D20*
%TO.C,U1*%
X159750000Y-106937500D03*
X160250000Y-106937500D03*
X160750000Y-106937500D03*
X161250000Y-106937500D03*
X161750000Y-106937500D03*
X162250000Y-106937500D03*
X162750000Y-106937500D03*
X163250000Y-106937500D03*
X163750000Y-106937500D03*
X164250000Y-106937500D03*
X164750000Y-106937500D03*
X165250000Y-106937500D03*
X165750000Y-106937500D03*
X166250000Y-106937500D03*
X166750000Y-106937500D03*
X167250000Y-106937500D03*
X167750000Y-106937500D03*
X168250000Y-106937500D03*
X168750000Y-106937500D03*
X169250000Y-106937500D03*
X169250000Y-87562500D03*
X168750000Y-87562500D03*
X168250000Y-87562500D03*
X167750000Y-87562500D03*
X167250000Y-87562500D03*
X166750000Y-87562500D03*
X166250000Y-87562500D03*
X165750000Y-87562500D03*
X165250000Y-87562500D03*
X164750000Y-87562500D03*
X164250000Y-87562500D03*
X163750000Y-87562500D03*
X163250000Y-87562500D03*
X162750000Y-87562500D03*
X162250000Y-87562500D03*
X161750000Y-87562500D03*
X161250000Y-87562500D03*
X160750000Y-87562500D03*
X160250000Y-87562500D03*
X159750000Y-87562500D03*
%TD*%
D21*
%TO.C,U3*%
X128350000Y-89245000D03*
X128350000Y-90515000D03*
X128350000Y-91785000D03*
X128350000Y-93055000D03*
X128350000Y-94325000D03*
X128350000Y-95595000D03*
X128350000Y-96865000D03*
X128350000Y-98135000D03*
X128350000Y-99405000D03*
X128350000Y-100675000D03*
X128350000Y-101945000D03*
X128350000Y-103215000D03*
X128350000Y-104485000D03*
X128350000Y-105755000D03*
X137650000Y-105755000D03*
X137650000Y-104485000D03*
X137650000Y-103215000D03*
X137650000Y-101945000D03*
X137650000Y-100675000D03*
X137650000Y-99405000D03*
X137650000Y-98135000D03*
X137650000Y-96865000D03*
X137650000Y-95595000D03*
X137650000Y-94325000D03*
X137650000Y-93055000D03*
X137650000Y-91785000D03*
X137650000Y-90515000D03*
X137650000Y-89245000D03*
%TD*%
D22*
%TO.C,U2*%
X148200000Y-102175000D03*
X149000000Y-102175000D03*
X149800000Y-102175000D03*
X150600000Y-102175000D03*
X151400000Y-102175000D03*
X152200000Y-102175000D03*
X153000000Y-102175000D03*
X153800000Y-102175000D03*
D23*
X155175000Y-100800000D03*
X155175000Y-100000000D03*
X155175000Y-99200000D03*
X155175000Y-98400000D03*
X155175000Y-97600000D03*
X155175000Y-96800000D03*
X155175000Y-96000000D03*
X155175000Y-95200000D03*
D22*
X153800000Y-93825000D03*
X153000000Y-93825000D03*
X152200000Y-93825000D03*
X151400000Y-93825000D03*
X150600000Y-93825000D03*
X149800000Y-93825000D03*
X149000000Y-93825000D03*
X148200000Y-93825000D03*
D23*
X146825000Y-95200000D03*
X146825000Y-96000000D03*
X146825000Y-96800000D03*
X146825000Y-97600000D03*
X146825000Y-98400000D03*
X146825000Y-99200000D03*
X146825000Y-100000000D03*
X146825000Y-100800000D03*
%TD*%
D24*
%TO.C,J1*%
X126750000Y-110190000D03*
X128250000Y-110190000D03*
X129750000Y-110190000D03*
X131250000Y-110190000D03*
X132750000Y-110190000D03*
X134250000Y-110190000D03*
X135750000Y-110190000D03*
X137250000Y-110190000D03*
X138750000Y-110190000D03*
X140250000Y-110190000D03*
X141750000Y-110190000D03*
X143250000Y-110190000D03*
X144750000Y-110190000D03*
X146250000Y-110190000D03*
X147750000Y-110190000D03*
X149250000Y-110190000D03*
X150750000Y-110190000D03*
X152250000Y-110190000D03*
X153750000Y-110190000D03*
X155250000Y-110190000D03*
X156750000Y-110190000D03*
X158250000Y-110190000D03*
X159750000Y-110190000D03*
X161250000Y-110190000D03*
X162750000Y-110190000D03*
X164250000Y-110190000D03*
X165750000Y-110190000D03*
X167250000Y-110190000D03*
X168750000Y-110190000D03*
X170250000Y-110190000D03*
X171750000Y-110190000D03*
X173250000Y-110190000D03*
%TD*%
G36*
X161952463Y-106227706D02*
G01*
X161973144Y-106258660D01*
X162009428Y-106265878D01*
X162040371Y-106245203D01*
X162047352Y-106228351D01*
X162048939Y-106227133D01*
X162050787Y-106227899D01*
X162051200Y-106229116D01*
X162051200Y-107646183D01*
X162050200Y-107647915D01*
X162048200Y-107647915D01*
X162047537Y-107647294D01*
X162026856Y-107616340D01*
X161990572Y-107609122D01*
X161959629Y-107629797D01*
X161952648Y-107646649D01*
X161951061Y-107647867D01*
X161949213Y-107647101D01*
X161948800Y-107645884D01*
X161948800Y-106228817D01*
X161949800Y-106227085D01*
X161951800Y-106227085D01*
X161952463Y-106227706D01*
G37*
G36*
X166952463Y-106227706D02*
G01*
X166973144Y-106258660D01*
X167009428Y-106265878D01*
X167040371Y-106245203D01*
X167047352Y-106228351D01*
X167048939Y-106227133D01*
X167050787Y-106227899D01*
X167051200Y-106229116D01*
X167051200Y-107646183D01*
X167050200Y-107647915D01*
X167048200Y-107647915D01*
X167047537Y-107647294D01*
X167026856Y-107616340D01*
X166990572Y-107609122D01*
X166959629Y-107629797D01*
X166952648Y-107646649D01*
X166951061Y-107647867D01*
X166949213Y-107647101D01*
X166948800Y-107645884D01*
X166948800Y-106228817D01*
X166949800Y-106227085D01*
X166951800Y-106227085D01*
X166952463Y-106227706D01*
G37*
G36*
X167952463Y-106227706D02*
G01*
X167973144Y-106258660D01*
X168009428Y-106265878D01*
X168040371Y-106245203D01*
X168047352Y-106228351D01*
X168048939Y-106227133D01*
X168050787Y-106227899D01*
X168051200Y-106229116D01*
X168051200Y-107646183D01*
X168050200Y-107647915D01*
X168048200Y-107647915D01*
X168047537Y-107647294D01*
X168026856Y-107616340D01*
X167990572Y-107609122D01*
X167959629Y-107629797D01*
X167952648Y-107646649D01*
X167951061Y-107647867D01*
X167949213Y-107647101D01*
X167948800Y-107645884D01*
X167948800Y-106228817D01*
X167949800Y-106227085D01*
X167951800Y-106227085D01*
X167952463Y-106227706D01*
G37*
G36*
X164952463Y-106227706D02*
G01*
X164973144Y-106258660D01*
X165009428Y-106265878D01*
X165040371Y-106245203D01*
X165047352Y-106228351D01*
X165048939Y-106227133D01*
X165050787Y-106227899D01*
X165051200Y-106229116D01*
X165051200Y-107646183D01*
X165050200Y-107647915D01*
X165048200Y-107647915D01*
X165047537Y-107647294D01*
X165026856Y-107616340D01*
X164990572Y-107609122D01*
X164959629Y-107629797D01*
X164952648Y-107646649D01*
X164951061Y-107647867D01*
X164949213Y-107647101D01*
X164948800Y-107645884D01*
X164948800Y-106228817D01*
X164949800Y-106227085D01*
X164951800Y-106227085D01*
X164952463Y-106227706D01*
G37*
G36*
X161452463Y-106227706D02*
G01*
X161473144Y-106258660D01*
X161509428Y-106265878D01*
X161540371Y-106245203D01*
X161547352Y-106228351D01*
X161548939Y-106227133D01*
X161550787Y-106227899D01*
X161551200Y-106229116D01*
X161551200Y-107646183D01*
X161550200Y-107647915D01*
X161548200Y-107647915D01*
X161547537Y-107647294D01*
X161526856Y-107616340D01*
X161490572Y-107609122D01*
X161459629Y-107629797D01*
X161452648Y-107646649D01*
X161451061Y-107647867D01*
X161449213Y-107647101D01*
X161448800Y-107645884D01*
X161448800Y-106228817D01*
X161449800Y-106227085D01*
X161451800Y-106227085D01*
X161452463Y-106227706D01*
G37*
G36*
X160452463Y-106227706D02*
G01*
X160473144Y-106258660D01*
X160509428Y-106265878D01*
X160540371Y-106245203D01*
X160547352Y-106228351D01*
X160548939Y-106227133D01*
X160550787Y-106227899D01*
X160551200Y-106229116D01*
X160551200Y-107646183D01*
X160550200Y-107647915D01*
X160548200Y-107647915D01*
X160547537Y-107647294D01*
X160526856Y-107616340D01*
X160490572Y-107609122D01*
X160459629Y-107629797D01*
X160452648Y-107646649D01*
X160451061Y-107647867D01*
X160449213Y-107647101D01*
X160448800Y-107645884D01*
X160448800Y-106228817D01*
X160449800Y-106227085D01*
X160451800Y-106227085D01*
X160452463Y-106227706D01*
G37*
G36*
X167452463Y-106227706D02*
G01*
X167473144Y-106258660D01*
X167509428Y-106265878D01*
X167540371Y-106245203D01*
X167547352Y-106228351D01*
X167548939Y-106227133D01*
X167550787Y-106227899D01*
X167551200Y-106229116D01*
X167551200Y-107646183D01*
X167550200Y-107647915D01*
X167548200Y-107647915D01*
X167547537Y-107647294D01*
X167526856Y-107616340D01*
X167490572Y-107609122D01*
X167459629Y-107629797D01*
X167452648Y-107646649D01*
X167451061Y-107647867D01*
X167449213Y-107647101D01*
X167448800Y-107645884D01*
X167448800Y-106228817D01*
X167449800Y-106227085D01*
X167451800Y-106227085D01*
X167452463Y-106227706D01*
G37*
G36*
X166452463Y-106227706D02*
G01*
X166473144Y-106258660D01*
X166509428Y-106265878D01*
X166540371Y-106245203D01*
X166547352Y-106228351D01*
X166548939Y-106227133D01*
X166550787Y-106227899D01*
X166551200Y-106229116D01*
X166551200Y-107646183D01*
X166550200Y-107647915D01*
X166548200Y-107647915D01*
X166547537Y-107647294D01*
X166526856Y-107616340D01*
X166490572Y-107609122D01*
X166459629Y-107629797D01*
X166452648Y-107646649D01*
X166451061Y-107647867D01*
X166449213Y-107647101D01*
X166448800Y-107645884D01*
X166448800Y-106228817D01*
X166449800Y-106227085D01*
X166451800Y-106227085D01*
X166452463Y-106227706D01*
G37*
G36*
X163952463Y-106227706D02*
G01*
X163973144Y-106258660D01*
X164009428Y-106265878D01*
X164040371Y-106245203D01*
X164047352Y-106228351D01*
X164048939Y-106227133D01*
X164050787Y-106227899D01*
X164051200Y-106229116D01*
X164051200Y-107646183D01*
X164050200Y-107647915D01*
X164048200Y-107647915D01*
X164047537Y-107647294D01*
X164026856Y-107616340D01*
X163990572Y-107609122D01*
X163959629Y-107629797D01*
X163952648Y-107646649D01*
X163951061Y-107647867D01*
X163949213Y-107647101D01*
X163948800Y-107645884D01*
X163948800Y-106228817D01*
X163949800Y-106227085D01*
X163951800Y-106227085D01*
X163952463Y-106227706D01*
G37*
G36*
X160952463Y-106227706D02*
G01*
X160973144Y-106258660D01*
X161009428Y-106265878D01*
X161040371Y-106245203D01*
X161047352Y-106228351D01*
X161048939Y-106227133D01*
X161050787Y-106227899D01*
X161051200Y-106229116D01*
X161051200Y-107646183D01*
X161050200Y-107647915D01*
X161048200Y-107647915D01*
X161047537Y-107647294D01*
X161026856Y-107616340D01*
X160990572Y-107609122D01*
X160959629Y-107629797D01*
X160952648Y-107646649D01*
X160951061Y-107647867D01*
X160949213Y-107647101D01*
X160948800Y-107645884D01*
X160948800Y-106228817D01*
X160949800Y-106227085D01*
X160951800Y-106227085D01*
X160952463Y-106227706D01*
G37*
G36*
X164452463Y-106227706D02*
G01*
X164473144Y-106258660D01*
X164509428Y-106265878D01*
X164540371Y-106245203D01*
X164547352Y-106228351D01*
X164548939Y-106227133D01*
X164550787Y-106227899D01*
X164551200Y-106229116D01*
X164551200Y-107646183D01*
X164550200Y-107647915D01*
X164548200Y-107647915D01*
X164547537Y-107647294D01*
X164526856Y-107616340D01*
X164490572Y-107609122D01*
X164459629Y-107629797D01*
X164452648Y-107646649D01*
X164451061Y-107647867D01*
X164449213Y-107647101D01*
X164448800Y-107645884D01*
X164448800Y-106228817D01*
X164449800Y-106227085D01*
X164451800Y-106227085D01*
X164452463Y-106227706D01*
G37*
G36*
X168452463Y-106227706D02*
G01*
X168473144Y-106258660D01*
X168509428Y-106265878D01*
X168540371Y-106245203D01*
X168547352Y-106228351D01*
X168548939Y-106227133D01*
X168550787Y-106227899D01*
X168551200Y-106229116D01*
X168551200Y-107646183D01*
X168550200Y-107647915D01*
X168548200Y-107647915D01*
X168547537Y-107647294D01*
X168526856Y-107616340D01*
X168490572Y-107609122D01*
X168459629Y-107629797D01*
X168452648Y-107646649D01*
X168451061Y-107647867D01*
X168449213Y-107647101D01*
X168448800Y-107645884D01*
X168448800Y-106228817D01*
X168449800Y-106227085D01*
X168451800Y-106227085D01*
X168452463Y-106227706D01*
G37*
G36*
X165452463Y-106227706D02*
G01*
X165473144Y-106258660D01*
X165509428Y-106265878D01*
X165540371Y-106245203D01*
X165547352Y-106228351D01*
X165548939Y-106227133D01*
X165550787Y-106227899D01*
X165551200Y-106229116D01*
X165551200Y-107646183D01*
X165550200Y-107647915D01*
X165548200Y-107647915D01*
X165547537Y-107647294D01*
X165526856Y-107616340D01*
X165490572Y-107609122D01*
X165459629Y-107629797D01*
X165452648Y-107646649D01*
X165451061Y-107647867D01*
X165449213Y-107647101D01*
X165448800Y-107645884D01*
X165448800Y-106228817D01*
X165449800Y-106227085D01*
X165451800Y-106227085D01*
X165452463Y-106227706D01*
G37*
G36*
X165952463Y-106227706D02*
G01*
X165973144Y-106258660D01*
X166009428Y-106265878D01*
X166040371Y-106245203D01*
X166047352Y-106228351D01*
X166048939Y-106227133D01*
X166050787Y-106227899D01*
X166051200Y-106229116D01*
X166051200Y-107646183D01*
X166050200Y-107647915D01*
X166048200Y-107647915D01*
X166047537Y-107647294D01*
X166026856Y-107616340D01*
X165990572Y-107609122D01*
X165959629Y-107629797D01*
X165952648Y-107646649D01*
X165951061Y-107647867D01*
X165949213Y-107647101D01*
X165948800Y-107645884D01*
X165948800Y-106228817D01*
X165949800Y-106227085D01*
X165951800Y-106227085D01*
X165952463Y-106227706D01*
G37*
G36*
X162952463Y-106227706D02*
G01*
X162973144Y-106258660D01*
X163009428Y-106265878D01*
X163040371Y-106245203D01*
X163047352Y-106228351D01*
X163048939Y-106227133D01*
X163050787Y-106227899D01*
X163051200Y-106229116D01*
X163051200Y-107646183D01*
X163050200Y-107647915D01*
X163048200Y-107647915D01*
X163047537Y-107647294D01*
X163026856Y-107616340D01*
X162990572Y-107609122D01*
X162959629Y-107629797D01*
X162952648Y-107646649D01*
X162951061Y-107647867D01*
X162949213Y-107647101D01*
X162948800Y-107645884D01*
X162948800Y-106228817D01*
X162949800Y-106227085D01*
X162951800Y-106227085D01*
X162952463Y-106227706D01*
G37*
G36*
X163452463Y-106227706D02*
G01*
X163473144Y-106258660D01*
X163509428Y-106265878D01*
X163540371Y-106245203D01*
X163547352Y-106228351D01*
X163548939Y-106227133D01*
X163550787Y-106227899D01*
X163551200Y-106229116D01*
X163551200Y-107646183D01*
X163550200Y-107647915D01*
X163548200Y-107647915D01*
X163547537Y-107647294D01*
X163526856Y-107616340D01*
X163490572Y-107609122D01*
X163459629Y-107629797D01*
X163452648Y-107646649D01*
X163451061Y-107647867D01*
X163449213Y-107647101D01*
X163448800Y-107645884D01*
X163448800Y-106228817D01*
X163449800Y-106227085D01*
X163451800Y-106227085D01*
X163452463Y-106227706D01*
G37*
G36*
X162452463Y-106227706D02*
G01*
X162473144Y-106258660D01*
X162509428Y-106265878D01*
X162540371Y-106245203D01*
X162547352Y-106228351D01*
X162548939Y-106227133D01*
X162550787Y-106227899D01*
X162551200Y-106229116D01*
X162551200Y-107646183D01*
X162550200Y-107647915D01*
X162548200Y-107647915D01*
X162547537Y-107647294D01*
X162526856Y-107616340D01*
X162490572Y-107609122D01*
X162459629Y-107629797D01*
X162452648Y-107646649D01*
X162451061Y-107647867D01*
X162449213Y-107647101D01*
X162448800Y-107645884D01*
X162448800Y-106228817D01*
X162449800Y-106227085D01*
X162451800Y-106227085D01*
X162452463Y-106227706D01*
G37*
G36*
X168952463Y-106227706D02*
G01*
X168973144Y-106258660D01*
X169009428Y-106265878D01*
X169040371Y-106245203D01*
X169047352Y-106228351D01*
X169048939Y-106227133D01*
X169050787Y-106227899D01*
X169051200Y-106229116D01*
X169051200Y-107646183D01*
X169050200Y-107647915D01*
X169048200Y-107647915D01*
X169047537Y-107647294D01*
X169026856Y-107616340D01*
X168990572Y-107609122D01*
X168959629Y-107629797D01*
X168952648Y-107646649D01*
X168951061Y-107647867D01*
X168949213Y-107647101D01*
X168948800Y-107645884D01*
X168948800Y-106228817D01*
X168949800Y-106227085D01*
X168951800Y-106227085D01*
X168952463Y-106227706D01*
G37*
G36*
X159952463Y-106227706D02*
G01*
X159973144Y-106258660D01*
X160009428Y-106265878D01*
X160040371Y-106245203D01*
X160047352Y-106228351D01*
X160048939Y-106227133D01*
X160050787Y-106227899D01*
X160051200Y-106229116D01*
X160051200Y-107646183D01*
X160050200Y-107647915D01*
X160048200Y-107647915D01*
X160047537Y-107647294D01*
X160026856Y-107616340D01*
X159990572Y-107609122D01*
X159959629Y-107629797D01*
X159952648Y-107646649D01*
X159951061Y-107647867D01*
X159949213Y-107647101D01*
X159948800Y-107645884D01*
X159948800Y-106228817D01*
X159949800Y-106227085D01*
X159951800Y-106227085D01*
X159952463Y-106227706D01*
G37*
G36*
X167452463Y-86852706D02*
G01*
X167473144Y-86883660D01*
X167509428Y-86890878D01*
X167540371Y-86870203D01*
X167547352Y-86853351D01*
X167548939Y-86852133D01*
X167550787Y-86852899D01*
X167551200Y-86854116D01*
X167551200Y-88271183D01*
X167550200Y-88272915D01*
X167548200Y-88272915D01*
X167547537Y-88272294D01*
X167526856Y-88241340D01*
X167490572Y-88234122D01*
X167459629Y-88254797D01*
X167452648Y-88271649D01*
X167451061Y-88272867D01*
X167449213Y-88272101D01*
X167448800Y-88270884D01*
X167448800Y-86853817D01*
X167449800Y-86852085D01*
X167451800Y-86852085D01*
X167452463Y-86852706D01*
G37*
G36*
X165952463Y-86852706D02*
G01*
X165973144Y-86883660D01*
X166009428Y-86890878D01*
X166040371Y-86870203D01*
X166047352Y-86853351D01*
X166048939Y-86852133D01*
X166050787Y-86852899D01*
X166051200Y-86854116D01*
X166051200Y-88271183D01*
X166050200Y-88272915D01*
X166048200Y-88272915D01*
X166047537Y-88272294D01*
X166026856Y-88241340D01*
X165990572Y-88234122D01*
X165959629Y-88254797D01*
X165952648Y-88271649D01*
X165951061Y-88272867D01*
X165949213Y-88272101D01*
X165948800Y-88270884D01*
X165948800Y-86853817D01*
X165949800Y-86852085D01*
X165951800Y-86852085D01*
X165952463Y-86852706D01*
G37*
G36*
X164952463Y-86852706D02*
G01*
X164973144Y-86883660D01*
X165009428Y-86890878D01*
X165040371Y-86870203D01*
X165047352Y-86853351D01*
X165048939Y-86852133D01*
X165050787Y-86852899D01*
X165051200Y-86854116D01*
X165051200Y-88271183D01*
X165050200Y-88272915D01*
X165048200Y-88272915D01*
X165047537Y-88272294D01*
X165026856Y-88241340D01*
X164990572Y-88234122D01*
X164959629Y-88254797D01*
X164952648Y-88271649D01*
X164951061Y-88272867D01*
X164949213Y-88272101D01*
X164948800Y-88270884D01*
X164948800Y-86853817D01*
X164949800Y-86852085D01*
X164951800Y-86852085D01*
X164952463Y-86852706D01*
G37*
G36*
X160952463Y-86852706D02*
G01*
X160973144Y-86883660D01*
X161009428Y-86890878D01*
X161040371Y-86870203D01*
X161047352Y-86853351D01*
X161048939Y-86852133D01*
X161050787Y-86852899D01*
X161051200Y-86854116D01*
X161051200Y-88271183D01*
X161050200Y-88272915D01*
X161048200Y-88272915D01*
X161047537Y-88272294D01*
X161026856Y-88241340D01*
X160990572Y-88234122D01*
X160959629Y-88254797D01*
X160952648Y-88271649D01*
X160951061Y-88272867D01*
X160949213Y-88272101D01*
X160948800Y-88270884D01*
X160948800Y-86853817D01*
X160949800Y-86852085D01*
X160951800Y-86852085D01*
X160952463Y-86852706D01*
G37*
G36*
X162452463Y-86852706D02*
G01*
X162473144Y-86883660D01*
X162509428Y-86890878D01*
X162540371Y-86870203D01*
X162547352Y-86853351D01*
X162548939Y-86852133D01*
X162550787Y-86852899D01*
X162551200Y-86854116D01*
X162551200Y-88271183D01*
X162550200Y-88272915D01*
X162548200Y-88272915D01*
X162547537Y-88272294D01*
X162526856Y-88241340D01*
X162490572Y-88234122D01*
X162459629Y-88254797D01*
X162452648Y-88271649D01*
X162451061Y-88272867D01*
X162449213Y-88272101D01*
X162448800Y-88270884D01*
X162448800Y-86853817D01*
X162449800Y-86852085D01*
X162451800Y-86852085D01*
X162452463Y-86852706D01*
G37*
G36*
X168452463Y-86852706D02*
G01*
X168473144Y-86883660D01*
X168509428Y-86890878D01*
X168540371Y-86870203D01*
X168547352Y-86853351D01*
X168548939Y-86852133D01*
X168550787Y-86852899D01*
X168551200Y-86854116D01*
X168551200Y-88271183D01*
X168550200Y-88272915D01*
X168548200Y-88272915D01*
X168547537Y-88272294D01*
X168526856Y-88241340D01*
X168490572Y-88234122D01*
X168459629Y-88254797D01*
X168452648Y-88271649D01*
X168451061Y-88272867D01*
X168449213Y-88272101D01*
X168448800Y-88270884D01*
X168448800Y-86853817D01*
X168449800Y-86852085D01*
X168451800Y-86852085D01*
X168452463Y-86852706D01*
G37*
G36*
X166452463Y-86852706D02*
G01*
X166473144Y-86883660D01*
X166509428Y-86890878D01*
X166540371Y-86870203D01*
X166547352Y-86853351D01*
X166548939Y-86852133D01*
X166550787Y-86852899D01*
X166551200Y-86854116D01*
X166551200Y-88271183D01*
X166550200Y-88272915D01*
X166548200Y-88272915D01*
X166547537Y-88272294D01*
X166526856Y-88241340D01*
X166490572Y-88234122D01*
X166459629Y-88254797D01*
X166452648Y-88271649D01*
X166451061Y-88272867D01*
X166449213Y-88272101D01*
X166448800Y-88270884D01*
X166448800Y-86853817D01*
X166449800Y-86852085D01*
X166451800Y-86852085D01*
X166452463Y-86852706D01*
G37*
G36*
X161952463Y-86852706D02*
G01*
X161973144Y-86883660D01*
X162009428Y-86890878D01*
X162040371Y-86870203D01*
X162047352Y-86853351D01*
X162048939Y-86852133D01*
X162050787Y-86852899D01*
X162051200Y-86854116D01*
X162051200Y-88271183D01*
X162050200Y-88272915D01*
X162048200Y-88272915D01*
X162047537Y-88272294D01*
X162026856Y-88241340D01*
X161990572Y-88234122D01*
X161959629Y-88254797D01*
X161952648Y-88271649D01*
X161951061Y-88272867D01*
X161949213Y-88272101D01*
X161948800Y-88270884D01*
X161948800Y-86853817D01*
X161949800Y-86852085D01*
X161951800Y-86852085D01*
X161952463Y-86852706D01*
G37*
G36*
X163952463Y-86852706D02*
G01*
X163973144Y-86883660D01*
X164009428Y-86890878D01*
X164040371Y-86870203D01*
X164047352Y-86853351D01*
X164048939Y-86852133D01*
X164050787Y-86852899D01*
X164051200Y-86854116D01*
X164051200Y-88271183D01*
X164050200Y-88272915D01*
X164048200Y-88272915D01*
X164047537Y-88272294D01*
X164026856Y-88241340D01*
X163990572Y-88234122D01*
X163959629Y-88254797D01*
X163952648Y-88271649D01*
X163951061Y-88272867D01*
X163949213Y-88272101D01*
X163948800Y-88270884D01*
X163948800Y-86853817D01*
X163949800Y-86852085D01*
X163951800Y-86852085D01*
X163952463Y-86852706D01*
G37*
G36*
X163452463Y-86852706D02*
G01*
X163473144Y-86883660D01*
X163509428Y-86890878D01*
X163540371Y-86870203D01*
X163547352Y-86853351D01*
X163548939Y-86852133D01*
X163550787Y-86852899D01*
X163551200Y-86854116D01*
X163551200Y-88271183D01*
X163550200Y-88272915D01*
X163548200Y-88272915D01*
X163547537Y-88272294D01*
X163526856Y-88241340D01*
X163490572Y-88234122D01*
X163459629Y-88254797D01*
X163452648Y-88271649D01*
X163451061Y-88272867D01*
X163449213Y-88272101D01*
X163448800Y-88270884D01*
X163448800Y-86853817D01*
X163449800Y-86852085D01*
X163451800Y-86852085D01*
X163452463Y-86852706D01*
G37*
G36*
X164452463Y-86852706D02*
G01*
X164473144Y-86883660D01*
X164509428Y-86890878D01*
X164540371Y-86870203D01*
X164547352Y-86853351D01*
X164548939Y-86852133D01*
X164550787Y-86852899D01*
X164551200Y-86854116D01*
X164551200Y-88271183D01*
X164550200Y-88272915D01*
X164548200Y-88272915D01*
X164547537Y-88272294D01*
X164526856Y-88241340D01*
X164490572Y-88234122D01*
X164459629Y-88254797D01*
X164452648Y-88271649D01*
X164451061Y-88272867D01*
X164449213Y-88272101D01*
X164448800Y-88270884D01*
X164448800Y-86853817D01*
X164449800Y-86852085D01*
X164451800Y-86852085D01*
X164452463Y-86852706D01*
G37*
G36*
X167952463Y-86852706D02*
G01*
X167973144Y-86883660D01*
X168009428Y-86890878D01*
X168040371Y-86870203D01*
X168047352Y-86853351D01*
X168048939Y-86852133D01*
X168050787Y-86852899D01*
X168051200Y-86854116D01*
X168051200Y-88271183D01*
X168050200Y-88272915D01*
X168048200Y-88272915D01*
X168047537Y-88272294D01*
X168026856Y-88241340D01*
X167990572Y-88234122D01*
X167959629Y-88254797D01*
X167952648Y-88271649D01*
X167951061Y-88272867D01*
X167949213Y-88272101D01*
X167948800Y-88270884D01*
X167948800Y-86853817D01*
X167949800Y-86852085D01*
X167951800Y-86852085D01*
X167952463Y-86852706D01*
G37*
G36*
X160452463Y-86852706D02*
G01*
X160473144Y-86883660D01*
X160509428Y-86890878D01*
X160540371Y-86870203D01*
X160547352Y-86853351D01*
X160548939Y-86852133D01*
X160550787Y-86852899D01*
X160551200Y-86854116D01*
X160551200Y-88271183D01*
X160550200Y-88272915D01*
X160548200Y-88272915D01*
X160547537Y-88272294D01*
X160526856Y-88241340D01*
X160490572Y-88234122D01*
X160459629Y-88254797D01*
X160452648Y-88271649D01*
X160451061Y-88272867D01*
X160449213Y-88272101D01*
X160448800Y-88270884D01*
X160448800Y-86853817D01*
X160449800Y-86852085D01*
X160451800Y-86852085D01*
X160452463Y-86852706D01*
G37*
G36*
X159952463Y-86852706D02*
G01*
X159973144Y-86883660D01*
X160009428Y-86890878D01*
X160040371Y-86870203D01*
X160047352Y-86853351D01*
X160048939Y-86852133D01*
X160050787Y-86852899D01*
X160051200Y-86854116D01*
X160051200Y-88271183D01*
X160050200Y-88272915D01*
X160048200Y-88272915D01*
X160047537Y-88272294D01*
X160026856Y-88241340D01*
X159990572Y-88234122D01*
X159959629Y-88254797D01*
X159952648Y-88271649D01*
X159951061Y-88272867D01*
X159949213Y-88272101D01*
X159948800Y-88270884D01*
X159948800Y-86853817D01*
X159949800Y-86852085D01*
X159951800Y-86852085D01*
X159952463Y-86852706D01*
G37*
G36*
X168952463Y-86852706D02*
G01*
X168973144Y-86883660D01*
X169009428Y-86890878D01*
X169040371Y-86870203D01*
X169047352Y-86853351D01*
X169048939Y-86852133D01*
X169050787Y-86852899D01*
X169051200Y-86854116D01*
X169051200Y-88271183D01*
X169050200Y-88272915D01*
X169048200Y-88272915D01*
X169047537Y-88272294D01*
X169026856Y-88241340D01*
X168990572Y-88234122D01*
X168959629Y-88254797D01*
X168952648Y-88271649D01*
X168951061Y-88272867D01*
X168949213Y-88272101D01*
X168948800Y-88270884D01*
X168948800Y-86853817D01*
X168949800Y-86852085D01*
X168951800Y-86852085D01*
X168952463Y-86852706D01*
G37*
G36*
X165452463Y-86852706D02*
G01*
X165473144Y-86883660D01*
X165509428Y-86890878D01*
X165540371Y-86870203D01*
X165547352Y-86853351D01*
X165548939Y-86852133D01*
X165550787Y-86852899D01*
X165551200Y-86854116D01*
X165551200Y-88271183D01*
X165550200Y-88272915D01*
X165548200Y-88272915D01*
X165547537Y-88272294D01*
X165526856Y-88241340D01*
X165490572Y-88234122D01*
X165459629Y-88254797D01*
X165452648Y-88271649D01*
X165451061Y-88272867D01*
X165449213Y-88272101D01*
X165448800Y-88270884D01*
X165448800Y-86853817D01*
X165449800Y-86852085D01*
X165451800Y-86852085D01*
X165452463Y-86852706D01*
G37*
G36*
X162952463Y-86852706D02*
G01*
X162973144Y-86883660D01*
X163009428Y-86890878D01*
X163040371Y-86870203D01*
X163047352Y-86853351D01*
X163048939Y-86852133D01*
X163050787Y-86852899D01*
X163051200Y-86854116D01*
X163051200Y-88271183D01*
X163050200Y-88272915D01*
X163048200Y-88272915D01*
X163047537Y-88272294D01*
X163026856Y-88241340D01*
X162990572Y-88234122D01*
X162959629Y-88254797D01*
X162952648Y-88271649D01*
X162951061Y-88272867D01*
X162949213Y-88272101D01*
X162948800Y-88270884D01*
X162948800Y-86853817D01*
X162949800Y-86852085D01*
X162951800Y-86852085D01*
X162952463Y-86852706D01*
G37*
G36*
X161452463Y-86852706D02*
G01*
X161473144Y-86883660D01*
X161509428Y-86890878D01*
X161540371Y-86870203D01*
X161547352Y-86853351D01*
X161548939Y-86852133D01*
X161550787Y-86852899D01*
X161551200Y-86854116D01*
X161551200Y-88271183D01*
X161550200Y-88272915D01*
X161548200Y-88272915D01*
X161547537Y-88272294D01*
X161526856Y-88241340D01*
X161490572Y-88234122D01*
X161459629Y-88254797D01*
X161452648Y-88271649D01*
X161451061Y-88272867D01*
X161449213Y-88272101D01*
X161448800Y-88270884D01*
X161448800Y-86853817D01*
X161449800Y-86852085D01*
X161451800Y-86852085D01*
X161452463Y-86852706D01*
G37*
G36*
X166952463Y-86852706D02*
G01*
X166973144Y-86883660D01*
X167009428Y-86890878D01*
X167040371Y-86870203D01*
X167047352Y-86853351D01*
X167048939Y-86852133D01*
X167050787Y-86852899D01*
X167051200Y-86854116D01*
X167051200Y-88271183D01*
X167050200Y-88272915D01*
X167048200Y-88272915D01*
X167047537Y-88272294D01*
X167026856Y-88241340D01*
X166990572Y-88234122D01*
X166959629Y-88254797D01*
X166952648Y-88271649D01*
X166951061Y-88272867D01*
X166949213Y-88272101D01*
X166948800Y-88270884D01*
X166948800Y-86853817D01*
X166949800Y-86852085D01*
X166951800Y-86852085D01*
X166952463Y-86852706D01*
G37*
M02*
