%TF.GenerationSoftware,KiCad,Pcbnew,(6.0.2)*%
%TF.CreationDate,2022-03-12T15:23:06-05:00*%
%TF.ProjectId,MBC5_Short,4d424335-5f53-4686-9f72-742e6b696361,rev?*%
%TF.SameCoordinates,Original*%
%TF.FileFunction,Legend,Top*%
%TF.FilePolarity,Positive*%
%FSLAX46Y46*%
G04 Gerber Fmt 4.6, Leading zero omitted, Abs format (unit mm)*
G04 Created by KiCad (PCBNEW (6.0.2)) date 2022-03-12 15:23:06*
%MOMM*%
%LPD*%
G01*
G04 APERTURE LIST*
%ADD10C,0.475000*%
%ADD11C,0.120000*%
G04 APERTURE END LIST*
D10*
X130362500Y-89300000D02*
G75*
G03*
X130362500Y-89300000I-237500J0D01*
G01*
X160437500Y-105400000D02*
G75*
G03*
X160437500Y-105400000I-237500J0D01*
G01*
X148537500Y-100700000D02*
G75*
G03*
X148537500Y-100700000I-237500J0D01*
G01*
%TO.C,kibuzzard-622CFB40*%
G36*
X172389387Y-95546082D02*
G01*
X172122211Y-95546082D01*
X172122211Y-94875522D01*
X171729304Y-94875522D01*
X171729304Y-95462262D01*
X171462128Y-95462262D01*
X171462128Y-94875522D01*
X170767994Y-94875522D01*
X170767994Y-94553339D01*
X172389387Y-94553339D01*
X172389387Y-95546082D01*
G37*
G36*
X172389387Y-96208784D02*
G01*
X171035170Y-96208784D01*
X171035170Y-96902918D01*
X170767994Y-96902918D01*
X170767994Y-95883981D01*
X172389387Y-95883981D01*
X172389387Y-96208784D01*
G37*
G36*
X172389387Y-100067123D02*
G01*
X171750259Y-100067123D01*
X171750259Y-100496701D01*
X172389387Y-100496701D01*
X172389387Y-100818884D01*
X170767994Y-100818884D01*
X170767994Y-100496701D01*
X171483083Y-100496701D01*
X171483083Y-100067123D01*
X170767994Y-100067123D01*
X170767994Y-99744940D01*
X172389387Y-99744940D01*
X172389387Y-100067123D01*
G37*
G36*
X170749986Y-92251563D02*
G01*
X170758826Y-92138275D01*
X170773560Y-92023677D01*
X170794188Y-91910389D01*
X172368432Y-91910389D01*
X172395935Y-92112081D01*
X172407723Y-92329489D01*
X172398227Y-92495820D01*
X172369742Y-92628098D01*
X172270205Y-92808835D01*
X172132688Y-92897894D01*
X171980764Y-92921468D01*
X171872060Y-92907389D01*
X171776453Y-92865152D01*
X171635007Y-92714537D01*
X171564284Y-92853037D01*
X171472606Y-92938494D01*
X171367831Y-92982696D01*
X171257817Y-92997430D01*
X171123246Y-92984988D01*
X171012905Y-92947662D01*
X170855743Y-92812764D01*
X170805320Y-92719776D01*
X170771923Y-92611072D01*
X170753260Y-92490254D01*
X170748299Y-92387116D01*
X171027312Y-92387116D01*
X171036480Y-92494510D01*
X171070532Y-92587498D01*
X171141255Y-92654292D01*
X171257817Y-92680486D01*
X171426767Y-92605833D01*
X171477844Y-92405451D01*
X171477844Y-92358302D01*
X171745021Y-92358302D01*
X171798718Y-92544278D01*
X171946713Y-92607143D01*
X172039700Y-92588807D01*
X172094707Y-92539039D01*
X172120901Y-92465697D01*
X172127449Y-92379257D01*
X172124830Y-92303296D01*
X172116972Y-92232573D01*
X171745021Y-92232573D01*
X171745021Y-92358302D01*
X171477844Y-92358302D01*
X171477000Y-92233000D01*
X171037789Y-92232573D01*
X171029931Y-92307225D01*
X171027312Y-92387116D01*
X170748299Y-92387116D01*
X170747039Y-92360922D01*
X170749986Y-92251563D01*
G37*
G36*
X172385458Y-103801042D02*
G01*
X172398555Y-103914985D01*
X172405103Y-104024999D01*
X172407723Y-104116677D01*
X172399864Y-104248955D01*
X172376290Y-104368137D01*
X172336345Y-104472912D01*
X172279373Y-104561971D01*
X172113043Y-104686391D01*
X172003356Y-104718806D01*
X171875989Y-104729611D01*
X171741092Y-104715204D01*
X171619291Y-104671984D01*
X171517790Y-104595368D01*
X171443793Y-104480770D01*
X171293178Y-104575068D01*
X171120300Y-104671984D01*
X170939563Y-104762353D01*
X170767994Y-104837005D01*
X170767994Y-104499106D01*
X170922209Y-104433949D01*
X171070532Y-104358969D01*
X171216889Y-104276131D01*
X171365211Y-104187400D01*
X171365211Y-104090483D01*
X171632388Y-104090483D01*
X171648431Y-104232584D01*
X171696562Y-104328846D01*
X171878609Y-104402189D01*
X171989932Y-104382543D01*
X172067204Y-104323607D01*
X172112388Y-104232584D01*
X172127449Y-104116677D01*
X172126140Y-104072147D01*
X172119591Y-104019760D01*
X171632388Y-104019760D01*
X171632388Y-104090483D01*
X171365211Y-104090483D01*
X171365211Y-104019760D01*
X170767994Y-104019760D01*
X170767994Y-103697577D01*
X172365813Y-103697577D01*
X172385458Y-103801042D01*
G37*
G36*
X172389387Y-106110021D02*
G01*
X172122211Y-106110021D01*
X172122211Y-105683063D01*
X170767994Y-105683063D01*
X170767994Y-105358261D01*
X172122211Y-105358261D01*
X172122211Y-104931302D01*
X172389387Y-104931302D01*
X172389387Y-106110021D01*
G37*
G36*
X171118990Y-98516453D02*
G01*
X171040409Y-98685403D01*
X171012905Y-98794434D01*
X171003738Y-98925076D01*
X171020763Y-99059973D01*
X171067912Y-99145103D01*
X171136016Y-99188323D01*
X171213288Y-99200110D01*
X171302346Y-99171297D01*
X171371760Y-99097954D01*
X171426767Y-98998418D01*
X171472606Y-98888404D01*
X171532851Y-98736481D01*
X171619291Y-98593725D01*
X171748950Y-98487640D01*
X171941474Y-98445730D01*
X172144475Y-98482729D01*
X172297709Y-98593725D01*
X172369014Y-98704757D01*
X172411797Y-98840528D01*
X172426058Y-99001037D01*
X172417545Y-99140847D01*
X172392006Y-99261665D01*
X172316044Y-99448951D01*
X172067204Y-99354653D01*
X172130069Y-99209278D01*
X172156263Y-99024612D01*
X172135599Y-98882001D01*
X172073607Y-98796435D01*
X171970287Y-98767913D01*
X171887777Y-98794107D01*
X171824912Y-98860901D01*
X171776453Y-98952579D01*
X171737163Y-99053425D01*
X171672988Y-99211897D01*
X171578690Y-99363821D01*
X171432005Y-99477764D01*
X171332796Y-99511161D01*
X171210668Y-99522293D01*
X171008649Y-99485294D01*
X170858362Y-99374298D01*
X170789240Y-99258609D01*
X170747766Y-99108868D01*
X170733942Y-98925076D01*
X170744747Y-98743684D01*
X170777162Y-98602892D01*
X170857053Y-98422156D01*
X171118990Y-98516453D01*
G37*
G36*
X171774816Y-90543730D02*
G01*
X171945403Y-90584986D01*
X172091106Y-90649815D01*
X172211269Y-90734290D01*
X172305239Y-90837100D01*
X172372361Y-90956937D01*
X172412634Y-91089870D01*
X172426058Y-91231971D01*
X172411652Y-91400921D01*
X172378909Y-91530580D01*
X172339619Y-91620948D01*
X172308186Y-91674646D01*
X172051488Y-91590826D01*
X172116972Y-91449379D01*
X172145785Y-91276501D01*
X172103875Y-91082667D01*
X171987313Y-90953008D01*
X171809195Y-90879665D01*
X171700164Y-90862967D01*
X171580000Y-90857401D01*
X171403192Y-90867587D01*
X171260436Y-90898146D01*
X171151732Y-90949079D01*
X171048594Y-91062367D01*
X171014215Y-91218874D01*
X171016834Y-91281739D01*
X171024693Y-91344604D01*
X171616671Y-91344604D01*
X171616671Y-91666788D01*
X170807284Y-91666788D01*
X170760136Y-91487360D01*
X170740490Y-91352790D01*
X170733942Y-91192681D01*
X170747366Y-91048288D01*
X170787639Y-90918956D01*
X170854433Y-90805995D01*
X170947421Y-90710716D01*
X171066602Y-90634099D01*
X171211978Y-90577127D01*
X171383219Y-90541766D01*
X171580000Y-90529979D01*
X171774816Y-90543730D01*
G37*
G36*
X171770560Y-101021230D02*
G01*
X171938854Y-101062486D01*
X172083902Y-101128297D01*
X172204721Y-101215719D01*
X172300328Y-101323113D01*
X172369742Y-101448843D01*
X172411979Y-101589962D01*
X172426058Y-101743523D01*
X172411652Y-101899376D01*
X172378909Y-102021177D01*
X172339619Y-102108926D01*
X172308186Y-102162623D01*
X172051488Y-102078803D01*
X172118282Y-101933428D01*
X172145785Y-101738284D01*
X172118282Y-101590290D01*
X172026603Y-101461940D01*
X171855034Y-101370262D01*
X171734543Y-101343741D01*
X171587858Y-101334901D01*
X171417162Y-101345524D01*
X171275279Y-101377393D01*
X171162210Y-101430508D01*
X171051214Y-101556565D01*
X171014215Y-101743523D01*
X171043028Y-101951763D01*
X171100654Y-102084042D01*
X170846575Y-102165242D01*
X170769303Y-101980577D01*
X170742782Y-101855174D01*
X170733942Y-101712091D01*
X170758389Y-101501376D01*
X170831732Y-101326751D01*
X170953969Y-101188216D01*
X171075607Y-101109143D01*
X171220491Y-101052663D01*
X171388622Y-101018775D01*
X171580000Y-101007479D01*
X171770560Y-101021230D01*
G37*
G36*
X170767994Y-97366547D02*
G01*
X170767994Y-97031268D01*
X170956327Y-97077473D01*
X171137850Y-97123889D01*
X171312562Y-97170513D01*
X171480464Y-97217348D01*
X171641555Y-97264392D01*
X171836126Y-97322837D01*
X172025621Y-97380299D01*
X172210042Y-97436779D01*
X172389387Y-97492277D01*
X172389387Y-97843274D01*
X172208568Y-97900818D01*
X172022347Y-97958199D01*
X171830723Y-98015416D01*
X171633697Y-98072469D01*
X171471244Y-98117784D01*
X171303446Y-98162576D01*
X171130306Y-98206843D01*
X170951821Y-98250587D01*
X170767994Y-98293806D01*
X170767994Y-97948049D01*
X171142564Y-97872087D01*
X171142564Y-97817080D01*
X171409741Y-97817080D01*
X171577381Y-97785647D01*
X171738472Y-97750286D01*
X171900873Y-97708376D01*
X172075062Y-97659917D01*
X171900873Y-97611459D01*
X171738472Y-97569549D01*
X171577381Y-97532878D01*
X171409741Y-97500136D01*
X171409741Y-97817080D01*
X171142564Y-97817080D01*
X171142564Y-97439890D01*
X170767994Y-97366547D01*
G37*
G36*
X170767994Y-102605298D02*
G01*
X170767994Y-102270017D01*
X170956327Y-102316223D01*
X171137850Y-102362639D01*
X171312562Y-102409263D01*
X171480464Y-102456098D01*
X171641555Y-102503142D01*
X171836126Y-102561587D01*
X172025621Y-102619049D01*
X172210042Y-102675529D01*
X172389387Y-102731027D01*
X172389387Y-103082024D01*
X172208568Y-103139568D01*
X172022347Y-103196949D01*
X171830723Y-103254166D01*
X171633697Y-103311219D01*
X171471244Y-103356534D01*
X171303446Y-103401326D01*
X171130306Y-103445593D01*
X170951821Y-103489337D01*
X170767994Y-103532556D01*
X170767994Y-103186799D01*
X171142564Y-103110837D01*
X171142564Y-103055830D01*
X171409741Y-103055830D01*
X171577381Y-103024398D01*
X171738472Y-102989036D01*
X171900873Y-102947126D01*
X172075062Y-102898667D01*
X171900873Y-102850209D01*
X171738472Y-102808299D01*
X171577381Y-102771628D01*
X171409741Y-102738886D01*
X171409741Y-103055830D01*
X171142564Y-103055830D01*
X171142564Y-102678640D01*
X170767994Y-102605298D01*
G37*
D11*
%TO.C,C3*%
X140670000Y-88349420D02*
X140670000Y-88630580D01*
X139650000Y-88349420D02*
X139650000Y-88630580D01*
%TO.C,C1*%
X127429420Y-108510000D02*
X127710580Y-108510000D01*
X127429420Y-107490000D02*
X127710580Y-107490000D01*
%TO.C,C2*%
X148569420Y-91510000D02*
X148850580Y-91510000D01*
X148569420Y-92530000D02*
X148850580Y-92530000D01*
%TO.C,C4*%
X156760000Y-88419420D02*
X156760000Y-88700580D01*
X157780000Y-88419420D02*
X157780000Y-88700580D01*
%TO.C,U1*%
X159340000Y-97250000D02*
X159340000Y-107725000D01*
X169660000Y-97250000D02*
X169660000Y-106450000D01*
X169660000Y-97250000D02*
X169660000Y-88050000D01*
X159340000Y-97250000D02*
X159340000Y-88050000D01*
%TO.C,U3*%
X133000000Y-88440000D02*
X136860000Y-88440000D01*
X129140000Y-88440000D02*
X129140000Y-88685000D01*
X129140000Y-88685000D02*
X127325000Y-88685000D01*
X129140000Y-106560000D02*
X129140000Y-106315000D01*
X133000000Y-106560000D02*
X129140000Y-106560000D01*
X133000000Y-106560000D02*
X136860000Y-106560000D01*
X133000000Y-88440000D02*
X129140000Y-88440000D01*
X136860000Y-106560000D02*
X136860000Y-106315000D01*
X136860000Y-88440000D02*
X136860000Y-88685000D01*
%TO.C,U2*%
X154610000Y-94690000D02*
X154610000Y-94390000D01*
X147390000Y-101310000D02*
X147390000Y-101610000D01*
X154610000Y-94390000D02*
X154310000Y-94390000D01*
X147690000Y-101610000D02*
X147690000Y-102925000D01*
X147390000Y-101610000D02*
X147690000Y-101610000D01*
X147390000Y-94390000D02*
X147690000Y-94390000D01*
X154610000Y-101310000D02*
X154610000Y-101610000D01*
X154610000Y-101610000D02*
X154310000Y-101610000D01*
X147390000Y-94690000D02*
X147390000Y-94390000D01*
%TD*%
M02*
