M48
; DRILL file {KiCad (6.0.2)} date Tue Mar 22 22:46:18 2022
; FORMAT={-:-/ absolute / inch / decimal}
; #@! TF.CreationDate,2022-03-22T22:46:18-04:00
; #@! TF.GenerationSoftware,Kicad,Pcbnew,(6.0.2)
; #@! TF.FileFunction,MixedPlating,1,2
FMAT,2
INCH
; #@! TA.AperFunction,Plated,PTH,ViaDrill
T1C0.0157
; #@! TA.AperFunction,Plated,PTH,ComponentDrill
T2C0.0236
%
G90
G05
T1
X4.9972Y-4.0374
X4.9972Y-4.0876
X4.9972Y-4.1378
X5.0531Y-4.213
X5.1084Y-4.2697
X5.1087Y-4.2295
X5.1266Y-4.0551
X5.1555Y-3.8323
X5.1832Y-4.2539
X5.1871Y-3.6682
X5.1972Y-3.8323
X5.2248Y-4.2539
X5.2317Y-3.6639
X5.2378Y-3.8323
X5.2657Y-4.2539
X5.2671Y-3.6285
X5.2791Y-3.8323
X5.2958Y-3.5998
X5.3067Y-4.254
X5.3228Y-3.9902
X5.3228Y-4.0319
X5.3228Y-4.0728
X5.3228Y-4.1134
X5.323Y-3.9478
X5.3232Y-3.8323
X5.4886Y-3.7037
X5.489Y-3.9134
X5.5299Y-3.7343
X5.5299Y-3.9134
X5.548Y-4.1869
X5.5705Y-3.9134
X5.611Y-3.9134
X5.7013Y-3.8861
X5.7087Y-3.5311
X5.7189Y-3.8134
X5.7197Y-3.9803
X5.839Y-3.7945
X5.8417Y-3.874
X5.8417Y-3.9366
X5.8634Y-3.8327
X5.8661Y-3.7531
X5.868Y-3.9659
X5.8823Y-3.8744
X5.9441Y-3.7835
X5.9445Y-3.8244
X5.9606Y-4.0846
X5.981Y-3.9506
X6.0031Y-4.0846
X6.0461Y-4.0847
X6.0543Y-3.9508
X6.0551Y-3.8534
X6.0882Y-4.0846
X6.0886Y-4.0441
X6.1024Y-3.5311
X6.1307Y-4.028
X6.1402Y-4.1807
X6.1728Y-4.0126
X6.1748Y-3.8404
X6.1823Y-4.1807
X6.1823Y-4.2224
X6.1823Y-4.2638
X6.2142Y-3.8404
X6.2161Y-3.9508
X6.2161Y-3.9963
X6.2177Y-3.4628
X6.2382Y-3.5244
X6.2667Y-3.5606
X6.2952Y-3.5335
X6.324Y-3.5606
X6.3526Y-3.5336
X6.3812Y-3.5607
X6.3906Y-3.6602
X6.4097Y-3.5335
X6.4386Y-3.5606
X6.4567Y-4.1531
X6.4567Y-4.2693
X6.4671Y-3.5335
X6.4957Y-3.5606
X6.5168Y-3.9848
X6.5244Y-3.5335
X6.5311Y-3.6622
X6.5311Y-3.8591
X6.5531Y-3.5606
X6.5598Y-3.635
X6.5598Y-3.8318
X6.5884Y-3.6622
X6.5884Y-3.8591
X6.6169Y-3.635
X6.6169Y-3.8319
X6.624Y-4.2697
X6.6454Y-3.6622
X6.6454Y-3.8591
X6.6933Y-4.2555
X6.7618Y-4.2697
T2
X4.9902Y-4.3382
X5.0492Y-4.3382
X5.1083Y-4.3382
X5.1673Y-4.3382
X5.2264Y-4.3382
X5.2854Y-4.3382
X5.3445Y-4.3382
X5.4035Y-4.3382
X5.4626Y-4.3382
X5.5217Y-4.3382
X5.5807Y-4.3382
X5.6398Y-4.3382
X5.6988Y-4.3382
X5.7579Y-4.3382
X5.8169Y-4.3382
X5.876Y-4.3382
X5.935Y-4.3382
X5.9941Y-4.3382
X6.0531Y-4.3382
X6.1122Y-4.3382
X6.1713Y-4.3382
X6.2303Y-4.3382
X6.2894Y-4.3382
X6.3484Y-4.3382
X6.4075Y-4.3382
X6.4665Y-4.3382
X6.5256Y-4.3382
X6.5846Y-4.3382
X6.6437Y-4.3382
X6.7028Y-4.3382
X6.7618Y-4.3382
X6.8209Y-4.3382
T0
M30
