%TF.GenerationSoftware,KiCad,Pcbnew,(6.0.2)*%
%TF.CreationDate,2022-03-12T15:23:06-05:00*%
%TF.ProjectId,MBC5_Short,4d424335-5f53-4686-9f72-742e6b696361,rev?*%
%TF.SameCoordinates,Original*%
%TF.FileFunction,Paste,Top*%
%TF.FilePolarity,Positive*%
%FSLAX46Y46*%
G04 Gerber Fmt 4.6, Leading zero omitted, Abs format (unit mm)*
G04 Created by KiCad (PCBNEW (6.0.2)) date 2022-03-12 15:23:06*
%MOMM*%
%LPD*%
G01*
G04 APERTURE LIST*
G04 Aperture macros list*
%AMRoundRect*
0 Rectangle with rounded corners*
0 $1 Rounding radius*
0 $2 $3 $4 $5 $6 $7 $8 $9 X,Y pos of 4 corners*
0 Add a 4 corners polygon primitive as box body*
4,1,4,$2,$3,$4,$5,$6,$7,$8,$9,$2,$3,0*
0 Add four circle primitives for the rounded corners*
1,1,$1+$1,$2,$3*
1,1,$1+$1,$4,$5*
1,1,$1+$1,$6,$7*
1,1,$1+$1,$8,$9*
0 Add four rect primitives between the rounded corners*
20,1,$1+$1,$2,$3,$4,$5,0*
20,1,$1+$1,$4,$5,$6,$7,0*
20,1,$1+$1,$6,$7,$8,$9,0*
20,1,$1+$1,$8,$9,$2,$3,0*%
G04 Aperture macros list end*
%ADD10RoundRect,0.225000X-0.250000X0.225000X-0.250000X-0.225000X0.250000X-0.225000X0.250000X0.225000X0*%
%ADD11RoundRect,0.225000X-0.225000X-0.250000X0.225000X-0.250000X0.225000X0.250000X-0.225000X0.250000X0*%
%ADD12RoundRect,0.075000X0.075000X-0.712500X0.075000X0.712500X-0.075000X0.712500X-0.075000X-0.712500X0*%
%ADD13RoundRect,0.150000X-0.875000X-0.150000X0.875000X-0.150000X0.875000X0.150000X-0.875000X0.150000X0*%
%ADD14RoundRect,0.125000X0.125000X-0.625000X0.125000X0.625000X-0.125000X0.625000X-0.125000X-0.625000X0*%
%ADD15RoundRect,0.125000X0.625000X-0.125000X0.625000X0.125000X-0.625000X0.125000X-0.625000X-0.125000X0*%
G04 APERTURE END LIST*
D10*
%TO.C,C3*%
X140160000Y-87715000D03*
X140160000Y-89265000D03*
%TD*%
D11*
%TO.C,C1*%
X126795000Y-108000000D03*
X128345000Y-108000000D03*
%TD*%
%TO.C,C2*%
X147935000Y-92020000D03*
X149485000Y-92020000D03*
%TD*%
D10*
%TO.C,C4*%
X157270000Y-87785000D03*
X157270000Y-89335000D03*
%TD*%
D12*
%TO.C,U1*%
X159750000Y-106937500D03*
X160250000Y-106937500D03*
X160750000Y-106937500D03*
X161250000Y-106937500D03*
X161750000Y-106937500D03*
X162250000Y-106937500D03*
X162750000Y-106937500D03*
X163250000Y-106937500D03*
X163750000Y-106937500D03*
X164250000Y-106937500D03*
X164750000Y-106937500D03*
X165250000Y-106937500D03*
X165750000Y-106937500D03*
X166250000Y-106937500D03*
X166750000Y-106937500D03*
X167250000Y-106937500D03*
X167750000Y-106937500D03*
X168250000Y-106937500D03*
X168750000Y-106937500D03*
X169250000Y-106937500D03*
X169250000Y-87562500D03*
X168750000Y-87562500D03*
X168250000Y-87562500D03*
X167750000Y-87562500D03*
X167250000Y-87562500D03*
X166750000Y-87562500D03*
X166250000Y-87562500D03*
X165750000Y-87562500D03*
X165250000Y-87562500D03*
X164750000Y-87562500D03*
X164250000Y-87562500D03*
X163750000Y-87562500D03*
X163250000Y-87562500D03*
X162750000Y-87562500D03*
X162250000Y-87562500D03*
X161750000Y-87562500D03*
X161250000Y-87562500D03*
X160750000Y-87562500D03*
X160250000Y-87562500D03*
X159750000Y-87562500D03*
%TD*%
D13*
%TO.C,U3*%
X128350000Y-89245000D03*
X128350000Y-90515000D03*
X128350000Y-91785000D03*
X128350000Y-93055000D03*
X128350000Y-94325000D03*
X128350000Y-95595000D03*
X128350000Y-96865000D03*
X128350000Y-98135000D03*
X128350000Y-99405000D03*
X128350000Y-100675000D03*
X128350000Y-101945000D03*
X128350000Y-103215000D03*
X128350000Y-104485000D03*
X128350000Y-105755000D03*
X137650000Y-105755000D03*
X137650000Y-104485000D03*
X137650000Y-103215000D03*
X137650000Y-101945000D03*
X137650000Y-100675000D03*
X137650000Y-99405000D03*
X137650000Y-98135000D03*
X137650000Y-96865000D03*
X137650000Y-95595000D03*
X137650000Y-94325000D03*
X137650000Y-93055000D03*
X137650000Y-91785000D03*
X137650000Y-90515000D03*
X137650000Y-89245000D03*
%TD*%
D14*
%TO.C,U2*%
X148200000Y-102175000D03*
X149000000Y-102175000D03*
X149800000Y-102175000D03*
X150600000Y-102175000D03*
X151400000Y-102175000D03*
X152200000Y-102175000D03*
X153000000Y-102175000D03*
X153800000Y-102175000D03*
D15*
X155175000Y-100800000D03*
X155175000Y-100000000D03*
X155175000Y-99200000D03*
X155175000Y-98400000D03*
X155175000Y-97600000D03*
X155175000Y-96800000D03*
X155175000Y-96000000D03*
X155175000Y-95200000D03*
D14*
X153800000Y-93825000D03*
X153000000Y-93825000D03*
X152200000Y-93825000D03*
X151400000Y-93825000D03*
X150600000Y-93825000D03*
X149800000Y-93825000D03*
X149000000Y-93825000D03*
X148200000Y-93825000D03*
D15*
X146825000Y-95200000D03*
X146825000Y-96000000D03*
X146825000Y-96800000D03*
X146825000Y-97600000D03*
X146825000Y-98400000D03*
X146825000Y-99200000D03*
X146825000Y-100000000D03*
X146825000Y-100800000D03*
%TD*%
M02*
