%TF.GenerationSoftware,KiCad,Pcbnew,(6.0.2)*%
%TF.CreationDate,2022-03-22T22:46:25-04:00*%
%TF.ProjectId,MBC5_Short,4d424335-5f53-4686-9f72-742e6b696361,rev?*%
%TF.SameCoordinates,Original*%
%TF.FileFunction,Soldermask,Bot*%
%TF.FilePolarity,Negative*%
%FSLAX46Y46*%
G04 Gerber Fmt 4.6, Leading zero omitted, Abs format (unit mm)*
G04 Created by KiCad (PCBNEW (6.0.2)) date 2022-03-22 22:46:25*
%MOMM*%
%LPD*%
G01*
G04 APERTURE LIST*
%ADD10C,0.100000*%
%ADD11C,0.150000*%
%ADD12C,0.200000*%
%ADD13C,0.901600*%
%ADD14R,1.800000X3.300000*%
G04 APERTURE END LIST*
D10*
%TO.C,GNDPAD*%
X173470000Y-88155000D02*
X172720000Y-88155000D01*
X172720000Y-88155000D02*
X172720000Y-87405000D01*
X172720000Y-87405000D02*
X173470000Y-87405000D01*
X173470000Y-87405000D02*
X173470000Y-88155000D01*
G36*
X173470000Y-88155000D02*
G01*
X172720000Y-88155000D01*
X172720000Y-87405000D01*
X173470000Y-87405000D01*
X173470000Y-88155000D01*
G37*
X173470000Y-88155000D02*
X172720000Y-88155000D01*
X172720000Y-87405000D01*
X173470000Y-87405000D01*
X173470000Y-88155000D01*
%TO.C,J1*%
G36*
X163650000Y-116840000D02*
G01*
X163350000Y-116840000D01*
X163350000Y-110890000D01*
X163650000Y-110890000D01*
X163650000Y-116840000D01*
G37*
G36*
X145650000Y-116840000D02*
G01*
X145350000Y-116840000D01*
X145350000Y-110890000D01*
X145650000Y-110890000D01*
X145650000Y-116840000D01*
G37*
G36*
X142650000Y-116840000D02*
G01*
X142350000Y-116840000D01*
X142350000Y-110890000D01*
X142650000Y-110890000D01*
X142650000Y-116840000D01*
G37*
G36*
X130650000Y-116840000D02*
G01*
X130350000Y-116840000D01*
X130350000Y-110890000D01*
X130650000Y-110890000D01*
X130650000Y-116840000D01*
G37*
G36*
X157650000Y-116840000D02*
G01*
X157350000Y-116840000D01*
X157350000Y-110890000D01*
X157650000Y-110890000D01*
X157650000Y-116840000D01*
G37*
G36*
X135150000Y-116840000D02*
G01*
X134850000Y-116840000D01*
X134850000Y-110890000D01*
X135150000Y-110890000D01*
X135150000Y-116840000D01*
G37*
G36*
X144150000Y-116840000D02*
G01*
X143850000Y-116840000D01*
X143850000Y-110890000D01*
X144150000Y-110890000D01*
X144150000Y-116840000D01*
G37*
G36*
X127650000Y-116840000D02*
G01*
X127350000Y-116840000D01*
X127350000Y-110890000D01*
X127650000Y-110890000D01*
X127650000Y-116840000D01*
G37*
G36*
X133650000Y-116840000D02*
G01*
X133350000Y-116840000D01*
X133350000Y-110890000D01*
X133650000Y-110890000D01*
X133650000Y-116840000D01*
G37*
G36*
X174900000Y-116840000D02*
G01*
X173850000Y-116840000D01*
X173850000Y-110890000D01*
X174900000Y-110890000D01*
X174900000Y-116840000D01*
G37*
G36*
X154650000Y-116840000D02*
G01*
X154350000Y-116840000D01*
X154350000Y-110890000D01*
X154650000Y-110890000D01*
X154650000Y-116840000D01*
G37*
G36*
X166650000Y-116840000D02*
G01*
X166350000Y-116840000D01*
X166350000Y-110890000D01*
X166650000Y-110890000D01*
X166650000Y-116840000D01*
G37*
G36*
X147150000Y-116840000D02*
G01*
X146850000Y-116840000D01*
X146850000Y-110890000D01*
X147150000Y-110890000D01*
X147150000Y-116840000D01*
G37*
G36*
X139650000Y-116840000D02*
G01*
X139350000Y-116840000D01*
X139350000Y-110890000D01*
X139650000Y-110890000D01*
X139650000Y-116840000D01*
G37*
G36*
X159150000Y-116840000D02*
G01*
X158850000Y-116840000D01*
X158850000Y-110890000D01*
X159150000Y-110890000D01*
X159150000Y-116840000D01*
G37*
G36*
X160650000Y-116840000D02*
G01*
X160350000Y-116840000D01*
X160350000Y-110890000D01*
X160650000Y-110890000D01*
X160650000Y-116840000D01*
G37*
G36*
X162150000Y-116840000D02*
G01*
X161850000Y-116840000D01*
X161850000Y-110890000D01*
X162150000Y-110890000D01*
X162150000Y-116840000D01*
G37*
G36*
X172650000Y-116840000D02*
G01*
X172350000Y-116840000D01*
X172350000Y-110890000D01*
X172650000Y-110890000D01*
X172650000Y-116840000D01*
G37*
G36*
X153150000Y-116840000D02*
G01*
X152850000Y-116840000D01*
X152850000Y-110890000D01*
X153150000Y-110890000D01*
X153150000Y-116840000D01*
G37*
G36*
X148650000Y-116840000D02*
G01*
X148350000Y-116840000D01*
X148350000Y-110890000D01*
X148650000Y-110890000D01*
X148650000Y-116840000D01*
G37*
G36*
X132150000Y-116840000D02*
G01*
X131850000Y-116840000D01*
X131850000Y-110890000D01*
X132150000Y-110890000D01*
X132150000Y-116840000D01*
G37*
G36*
X126150000Y-116840000D02*
G01*
X125100000Y-116840000D01*
X125100000Y-110890000D01*
X126150000Y-110890000D01*
X126150000Y-116840000D01*
G37*
G36*
X129150000Y-116840000D02*
G01*
X128850000Y-116840000D01*
X128850000Y-110890000D01*
X129150000Y-110890000D01*
X129150000Y-116840000D01*
G37*
G36*
X150150000Y-116840000D02*
G01*
X149850000Y-116840000D01*
X149850000Y-110890000D01*
X150150000Y-110890000D01*
X150150000Y-116840000D01*
G37*
G36*
X168150000Y-116840000D02*
G01*
X167850000Y-116840000D01*
X167850000Y-110890000D01*
X168150000Y-110890000D01*
X168150000Y-116840000D01*
G37*
G36*
X151650000Y-116840000D02*
G01*
X151350000Y-116840000D01*
X151350000Y-110890000D01*
X151650000Y-110890000D01*
X151650000Y-116840000D01*
G37*
G36*
X136650000Y-116840000D02*
G01*
X136350000Y-116840000D01*
X136350000Y-110890000D01*
X136650000Y-110890000D01*
X136650000Y-116840000D01*
G37*
G36*
X165150000Y-116840000D02*
G01*
X164850000Y-116840000D01*
X164850000Y-110890000D01*
X165150000Y-110890000D01*
X165150000Y-116840000D01*
G37*
G36*
X156150000Y-116840000D02*
G01*
X155850000Y-116840000D01*
X155850000Y-110890000D01*
X156150000Y-110890000D01*
X156150000Y-116840000D01*
G37*
G36*
X171150000Y-116840000D02*
G01*
X170850000Y-116840000D01*
X170850000Y-110890000D01*
X171150000Y-110890000D01*
X171150000Y-116840000D01*
G37*
G36*
X141150000Y-116840000D02*
G01*
X140850000Y-116840000D01*
X140850000Y-110890000D01*
X141150000Y-110890000D01*
X141150000Y-116840000D01*
G37*
G36*
X169650000Y-116840000D02*
G01*
X169350000Y-116840000D01*
X169350000Y-110890000D01*
X169650000Y-110890000D01*
X169650000Y-116840000D01*
G37*
G36*
X138150000Y-116840000D02*
G01*
X137850000Y-116840000D01*
X137850000Y-110890000D01*
X138150000Y-110890000D01*
X138150000Y-116840000D01*
G37*
%TO.C,kibuzzard-622AB1EA*%
G36*
X138259791Y-88341675D02*
G01*
X138455450Y-88479788D01*
X138587609Y-88674256D01*
X138631663Y-88889363D01*
X138610672Y-89072631D01*
X138547701Y-89228735D01*
X138442750Y-89357675D01*
X138235978Y-89487453D01*
X137993488Y-89530713D01*
X137819656Y-89502138D01*
X137653763Y-89416413D01*
X137590262Y-89324337D01*
X137590262Y-89311638D01*
X137650587Y-89175113D01*
X137706150Y-89117963D01*
X137760125Y-89108438D01*
X137861725Y-89154475D01*
X138012538Y-89200512D01*
X138209387Y-89124313D01*
X138298287Y-88914763D01*
X138212563Y-88703625D01*
X138012538Y-88625837D01*
X137809337Y-88702038D01*
X137750600Y-88714738D01*
X137682337Y-88686163D01*
X137587087Y-88502013D01*
X137650587Y-88419463D01*
X137815688Y-88326594D01*
X138025238Y-88295638D01*
X138259791Y-88341675D01*
G37*
G36*
X138031588Y-89943463D02*
G01*
X137743853Y-89924809D01*
X137522000Y-89868850D01*
X137348962Y-89777966D01*
X137207675Y-89654538D01*
X137100916Y-89498566D01*
X137031462Y-89310050D01*
X136993363Y-89108834D01*
X136981494Y-88927463D01*
X137256887Y-88927463D01*
X137279465Y-89181463D01*
X137347199Y-89380429D01*
X137460088Y-89524363D01*
X137598906Y-89607265D01*
X137790993Y-89657007D01*
X138036350Y-89673588D01*
X138282942Y-89654714D01*
X138478733Y-89598093D01*
X138623725Y-89503725D01*
X138723385Y-89362085D01*
X138783181Y-89163647D01*
X138803113Y-88908413D01*
X138780888Y-88651943D01*
X138714213Y-88449801D01*
X138603088Y-88301988D01*
X138461800Y-88215557D01*
X138266537Y-88163699D01*
X138017300Y-88146413D01*
X137767886Y-88166344D01*
X137572094Y-88226140D01*
X137429925Y-88325800D01*
X137333793Y-88472379D01*
X137276114Y-88672933D01*
X137256887Y-88927463D01*
X136981494Y-88927463D01*
X136980663Y-88914763D01*
X136998125Y-88665922D01*
X137050512Y-88449625D01*
X137137825Y-88265872D01*
X137260062Y-88114663D01*
X137398175Y-88010483D01*
X137571212Y-87936069D01*
X137779175Y-87891420D01*
X138022062Y-87876537D01*
X138266637Y-87891916D01*
X138479659Y-87938053D01*
X138661130Y-88014948D01*
X138811050Y-88122600D01*
X138928426Y-88263689D01*
X139012266Y-88440894D01*
X139062570Y-88654214D01*
X139079338Y-88903650D01*
X139061478Y-89154971D01*
X139007900Y-89373947D01*
X138918603Y-89560577D01*
X138793588Y-89714863D01*
X138657856Y-89814875D01*
X138485612Y-89886313D01*
X138276856Y-89929175D01*
X138036350Y-89943185D01*
X138031588Y-89943463D01*
G37*
%TO.C,kibuzzard-622AB126*%
G36*
X131766230Y-87626814D02*
G01*
X131890898Y-87655984D01*
X132074255Y-87742106D01*
X132189547Y-87851842D01*
X132250666Y-87939353D01*
X132314563Y-88128266D01*
X132279836Y-88227584D01*
X132175656Y-88314400D01*
X132022859Y-88364406D01*
X131917291Y-88329680D01*
X131839503Y-88225500D01*
X131822834Y-88192163D01*
X131750603Y-88125488D01*
X131593639Y-88092150D01*
X131439453Y-88144934D01*
X131383891Y-88256059D01*
X131436675Y-88337320D01*
X131595028Y-88364406D01*
X131739491Y-88378297D01*
X131816584Y-88454001D01*
X131842281Y-88608881D01*
X131823529Y-88751260D01*
X131767272Y-88822797D01*
X131695041Y-88850578D01*
X131568636Y-88856134D01*
X131407505Y-88913086D01*
X131339441Y-89045047D01*
X131408894Y-89179786D01*
X131497794Y-89224583D01*
X131625588Y-89239516D01*
X131742269Y-89222847D01*
X131895066Y-89089497D01*
X131978409Y-88945034D01*
X132125650Y-88917253D01*
X132329842Y-88957536D01*
X132397906Y-89078384D01*
X132367347Y-89228403D01*
X132361791Y-89256184D01*
X132331231Y-89328416D01*
X132262473Y-89438846D01*
X132183991Y-89525663D01*
X132023477Y-89633701D01*
X131838268Y-89698524D01*
X131628366Y-89720131D01*
X131416919Y-89698678D01*
X131230785Y-89634318D01*
X131069963Y-89527052D01*
X130946490Y-89386756D01*
X130872407Y-89223310D01*
X130847712Y-89036713D01*
X130870632Y-88895028D01*
X130939391Y-88770013D01*
X131026902Y-88679723D01*
X131108856Y-88619994D01*
X131108856Y-88600547D01*
X130988471Y-88513345D01*
X130916240Y-88396200D01*
X130892162Y-88249114D01*
X130914079Y-88092459D01*
X130979828Y-87946607D01*
X131089409Y-87811559D01*
X131236959Y-87703521D01*
X131416611Y-87638698D01*
X131628366Y-87617091D01*
X131766230Y-87626814D01*
G37*
G36*
X128480750Y-87717103D02*
G01*
X128489084Y-87722659D01*
X128944697Y-88133822D01*
X129044709Y-88297731D01*
X128957198Y-88469975D01*
X128789122Y-88567209D01*
X128594653Y-88481088D01*
X128558538Y-88447750D01*
X128558538Y-89439541D01*
X128554370Y-89540942D01*
X128527978Y-89617341D01*
X128453663Y-89671514D01*
X128314063Y-89689572D01*
X128170989Y-89670820D01*
X128097369Y-89614563D01*
X128070977Y-89540942D01*
X128066809Y-89445097D01*
X128066809Y-87897681D01*
X128080700Y-87750441D01*
X128119594Y-87690711D01*
X128191825Y-87658763D01*
X128323786Y-87644872D01*
X128480750Y-87717103D01*
G37*
G36*
X130169078Y-87642557D02*
G01*
X130349656Y-87718955D01*
X130501836Y-87846286D01*
X130616819Y-88005719D01*
X130685810Y-88178426D01*
X130708806Y-88364406D01*
X130694916Y-88506091D01*
X130619212Y-88585267D01*
X130464331Y-88611659D01*
X130322647Y-88594991D01*
X130247638Y-88544984D01*
X130221245Y-88475531D01*
X130217078Y-88383853D01*
X130217078Y-88367184D01*
X130205966Y-88303288D01*
X130132345Y-88174105D01*
X129978159Y-88108819D01*
X129839253Y-88133822D01*
X129765633Y-88187995D01*
X129722572Y-88263005D01*
X129703125Y-88333847D01*
X129729170Y-88455390D01*
X129807305Y-88569988D01*
X129922250Y-88675209D01*
X130058725Y-88768623D01*
X130205966Y-88856829D01*
X130353206Y-88946423D01*
X130489682Y-89045741D01*
X130604627Y-89163117D01*
X130682761Y-89295425D01*
X130708806Y-89439541D01*
X130636575Y-89614563D01*
X130464331Y-89689572D01*
X129378084Y-89689572D01*
X129205841Y-89656234D01*
X129146111Y-89584003D01*
X129128053Y-89443708D01*
X129144722Y-89302023D01*
X129210008Y-89221458D01*
X129372528Y-89195066D01*
X129880925Y-89195066D01*
X129880925Y-89181175D01*
X129811472Y-89153394D01*
X129639228Y-89059632D01*
X129444759Y-88906141D01*
X129354470Y-88806128D01*
X129278072Y-88678334D01*
X129225982Y-88532483D01*
X129208619Y-88378297D01*
X129231770Y-88187378D01*
X129301223Y-88010967D01*
X129416978Y-87849064D01*
X129569929Y-87720190D01*
X129750970Y-87642865D01*
X129960102Y-87617091D01*
X130169078Y-87642557D01*
G37*
G36*
X136300477Y-88237307D02*
G01*
X136373403Y-88289397D01*
X136399795Y-88360239D01*
X136403963Y-88453306D01*
X136403963Y-89436763D01*
X136399795Y-89532608D01*
X136376181Y-89606228D01*
X136303255Y-89662485D01*
X136162266Y-89681238D01*
X136019887Y-89662485D01*
X135948350Y-89606228D01*
X135921958Y-89535386D01*
X135917791Y-89439541D01*
X135917791Y-88947813D01*
X135849727Y-88772791D01*
X135671927Y-88706116D01*
X135496905Y-88770013D01*
X135431619Y-88947813D01*
X135431619Y-89436763D01*
X135414950Y-89578447D01*
X135342719Y-89655540D01*
X135187144Y-89681238D01*
X135044070Y-89662485D01*
X134970450Y-89606228D01*
X134946836Y-89535386D01*
X134942669Y-89439541D01*
X134942669Y-88950591D01*
X134963196Y-88757202D01*
X135024778Y-88584495D01*
X135127414Y-88432470D01*
X135260918Y-88314400D01*
X135415104Y-88243558D01*
X135589972Y-88219944D01*
X135798331Y-88283841D01*
X135873341Y-88342181D01*
X135923347Y-88397744D01*
X135951128Y-88283841D01*
X136022665Y-88235918D01*
X136159488Y-88219944D01*
X136300477Y-88237307D01*
G37*
G36*
X134098813Y-88266477D02*
G01*
X134242581Y-88414413D01*
X134289809Y-88269950D01*
X134492613Y-88219944D01*
X134619712Y-88238696D01*
X134689859Y-88294953D01*
X134716252Y-88365795D01*
X134720419Y-88461641D01*
X134720419Y-89439541D01*
X134716252Y-89536775D01*
X134692638Y-89609006D01*
X134619712Y-89665263D01*
X134478722Y-89684016D01*
X134337038Y-89665958D01*
X134262028Y-89611784D01*
X134235636Y-89538164D01*
X134231469Y-89442319D01*
X134231469Y-88950591D01*
X134189797Y-88769318D01*
X134064781Y-88708894D01*
X133935598Y-88769318D01*
X133892538Y-88950591D01*
X133892538Y-89436763D01*
X133888370Y-89532608D01*
X133864756Y-89606228D01*
X133791830Y-89664569D01*
X133650841Y-89684016D01*
X133507767Y-89665263D01*
X133434147Y-89609006D01*
X133407755Y-89536775D01*
X133403588Y-89439541D01*
X133403588Y-88953369D01*
X133368861Y-88772791D01*
X133236900Y-88708894D01*
X133107717Y-88769318D01*
X133064656Y-88950591D01*
X133064656Y-89436763D01*
X133060489Y-89532608D01*
X133036875Y-89606228D01*
X132963949Y-89664569D01*
X132822959Y-89684016D01*
X132680580Y-89665263D01*
X132609044Y-89609006D01*
X132582652Y-89535386D01*
X132578484Y-89439541D01*
X132578484Y-88953369D01*
X132595153Y-88715222D01*
X132645159Y-88526772D01*
X132728503Y-88388020D01*
X132896580Y-88259879D01*
X133100772Y-88217166D01*
X133295241Y-88271339D01*
X133432758Y-88371352D01*
X133506378Y-88458863D01*
X133615034Y-88324586D01*
X133755792Y-88244021D01*
X133928653Y-88217166D01*
X134098813Y-88266477D01*
G37*
G36*
X127108356Y-89722909D02*
G01*
X126930904Y-89704852D01*
X126776370Y-89650678D01*
X126648924Y-89568723D01*
X126552731Y-89467322D01*
X126457928Y-89307059D01*
X126390211Y-89120751D01*
X126349581Y-88908398D01*
X126336827Y-88683891D01*
X126827766Y-88683891D01*
X126845650Y-88922115D01*
X126899302Y-89092275D01*
X126988723Y-89194371D01*
X127113912Y-89228403D01*
X127236671Y-89193416D01*
X127324355Y-89088455D01*
X127376966Y-88913520D01*
X127394503Y-88668611D01*
X127376793Y-88423702D01*
X127323661Y-88248767D01*
X127235108Y-88143806D01*
X127111134Y-88108819D01*
X126987161Y-88143719D01*
X126898608Y-88248420D01*
X126845476Y-88422921D01*
X126827766Y-88667222D01*
X126827766Y-88683891D01*
X126336827Y-88683891D01*
X126336038Y-88670000D01*
X126345298Y-88486335D01*
X126373079Y-88309461D01*
X126419381Y-88139378D01*
X126477375Y-87999083D01*
X126551342Y-87878234D01*
X126648577Y-87776138D01*
X126776370Y-87692100D01*
X126931598Y-87635843D01*
X127111134Y-87617091D01*
X127291365Y-87636190D01*
X127448677Y-87693489D01*
X127578207Y-87778916D01*
X127675094Y-87882402D01*
X127751839Y-88016099D01*
X127820945Y-88192163D01*
X127857215Y-88332612D01*
X127878977Y-88490965D01*
X127886231Y-88667222D01*
X127877280Y-88861999D01*
X127850424Y-89042577D01*
X127805666Y-89208956D01*
X127745589Y-89348557D01*
X127670927Y-89467322D01*
X127572998Y-89566987D01*
X127443120Y-89649289D01*
X127286504Y-89704504D01*
X127113912Y-89722335D01*
X127108356Y-89722909D01*
G37*
D11*
%TO.C,PAD\u002A*%
X173871428Y-100646584D02*
X174328571Y-100646584D01*
X174100000Y-100646584D02*
X174100000Y-99846584D01*
X174176190Y-99960870D01*
X174252380Y-100037060D01*
X174328571Y-100075156D01*
D12*
X172504761Y-98468200D02*
X172600000Y-98658677D01*
X172123809Y-98563439D02*
X172076190Y-98515820D01*
X171980952Y-98468200D01*
X171742857Y-98468200D01*
X171647619Y-98515820D01*
X171600000Y-98563439D01*
X171552380Y-98658677D01*
X171552380Y-98753915D01*
X171600000Y-98896772D01*
X172171428Y-99468200D01*
X171552380Y-99468200D01*
X171171428Y-98563439D02*
X171123809Y-98515820D01*
X171028571Y-98468200D01*
X170790476Y-98468200D01*
X170695238Y-98515820D01*
X170647619Y-98563439D01*
X170600000Y-98658677D01*
X170600000Y-98753915D01*
X170647619Y-98896772D01*
X171219047Y-99468200D01*
X170600000Y-99468200D01*
D11*
X168883333Y-106577224D02*
X169283333Y-106577224D01*
X169083333Y-106577224D02*
X169083333Y-105777224D01*
X169150000Y-105891510D01*
X169216666Y-105967700D01*
X169283333Y-106005796D01*
X168616666Y-105853415D02*
X168583333Y-105815320D01*
X168516666Y-105777224D01*
X168350000Y-105777224D01*
X168283333Y-105815320D01*
X168250000Y-105853415D01*
X168216666Y-105929605D01*
X168216666Y-106005796D01*
X168250000Y-106120081D01*
X168650000Y-106577224D01*
X168216666Y-106577224D01*
X169366666Y-99846584D02*
X168833333Y-99846584D01*
X169176190Y-100646584D01*
X173947619Y-105777224D02*
X174100000Y-105777224D01*
X174176190Y-105815320D01*
X174214285Y-105853415D01*
X174290476Y-105967700D01*
X174328571Y-106120081D01*
X174328571Y-106424843D01*
X174290476Y-106501034D01*
X174252380Y-106539129D01*
X174176190Y-106577224D01*
X174023809Y-106577224D01*
X173947619Y-106539129D01*
X173909523Y-106501034D01*
X173871428Y-106424843D01*
X173871428Y-106234367D01*
X173909523Y-106158177D01*
X173947619Y-106120081D01*
X174023809Y-106081986D01*
X174176190Y-106081986D01*
X174252380Y-106120081D01*
X174290476Y-106158177D01*
X174328571Y-106234367D01*
X173871428Y-100646584D02*
X174328571Y-100646584D01*
X174100000Y-100646584D02*
X174100000Y-99846584D01*
X174176190Y-99960870D01*
X174252380Y-100037060D01*
X174328571Y-100075156D01*
D12*
X172504761Y-98468200D02*
X172600000Y-98658677D01*
X172123809Y-98563439D02*
X172076190Y-98515820D01*
X171980952Y-98468200D01*
X171742857Y-98468200D01*
X171647619Y-98515820D01*
X171600000Y-98563439D01*
X171552380Y-98658677D01*
X171552380Y-98753915D01*
X171600000Y-98896772D01*
X172171428Y-99468200D01*
X171552380Y-99468200D01*
X171171428Y-98563439D02*
X171123809Y-98515820D01*
X171028571Y-98468200D01*
X170790476Y-98468200D01*
X170695238Y-98515820D01*
X170647619Y-98563439D01*
X170600000Y-98658677D01*
X170600000Y-98753915D01*
X170647619Y-98896772D01*
X171219047Y-99468200D01*
X170600000Y-99468200D01*
D11*
X168883333Y-106577224D02*
X169283333Y-106577224D01*
X169083333Y-106577224D02*
X169083333Y-105777224D01*
X169150000Y-105891510D01*
X169216666Y-105967700D01*
X169283333Y-106005796D01*
X168616666Y-105853415D02*
X168583333Y-105815320D01*
X168516666Y-105777224D01*
X168350000Y-105777224D01*
X168283333Y-105815320D01*
X168250000Y-105853415D01*
X168216666Y-105929605D01*
X168216666Y-106005796D01*
X168250000Y-106120081D01*
X168650000Y-106577224D01*
X168216666Y-106577224D01*
X169366666Y-99846584D02*
X168833333Y-99846584D01*
X169176190Y-100646584D01*
X173947619Y-105777224D02*
X174100000Y-105777224D01*
X174176190Y-105815320D01*
X174214285Y-105853415D01*
X174290476Y-105967700D01*
X174328571Y-106120081D01*
X174328571Y-106424843D01*
X174290476Y-106501034D01*
X174252380Y-106539129D01*
X174176190Y-106577224D01*
X174023809Y-106577224D01*
X173947619Y-106539129D01*
X173909523Y-106501034D01*
X173871428Y-106424843D01*
X173871428Y-106234367D01*
X173909523Y-106158177D01*
X173947619Y-106120081D01*
X174023809Y-106081986D01*
X174176190Y-106081986D01*
X174252380Y-106120081D01*
X174290476Y-106158177D01*
X174328571Y-106234367D01*
D10*
%TO.C,GNDPAD*%
X173470000Y-88155000D02*
X172720000Y-88155000D01*
X172720000Y-88155000D02*
X172720000Y-87405000D01*
X172720000Y-87405000D02*
X173470000Y-87405000D01*
X173470000Y-87405000D02*
X173470000Y-88155000D01*
G36*
X173470000Y-88155000D02*
G01*
X172720000Y-88155000D01*
X172720000Y-87405000D01*
X173470000Y-87405000D01*
X173470000Y-88155000D01*
G37*
X173470000Y-88155000D02*
X172720000Y-88155000D01*
X172720000Y-87405000D01*
X173470000Y-87405000D01*
X173470000Y-88155000D01*
%TO.C,J1*%
G36*
X163650000Y-116840000D02*
G01*
X163350000Y-116840000D01*
X163350000Y-110890000D01*
X163650000Y-110890000D01*
X163650000Y-116840000D01*
G37*
G36*
X145650000Y-116840000D02*
G01*
X145350000Y-116840000D01*
X145350000Y-110890000D01*
X145650000Y-110890000D01*
X145650000Y-116840000D01*
G37*
G36*
X142650000Y-116840000D02*
G01*
X142350000Y-116840000D01*
X142350000Y-110890000D01*
X142650000Y-110890000D01*
X142650000Y-116840000D01*
G37*
G36*
X130650000Y-116840000D02*
G01*
X130350000Y-116840000D01*
X130350000Y-110890000D01*
X130650000Y-110890000D01*
X130650000Y-116840000D01*
G37*
G36*
X157650000Y-116840000D02*
G01*
X157350000Y-116840000D01*
X157350000Y-110890000D01*
X157650000Y-110890000D01*
X157650000Y-116840000D01*
G37*
G36*
X135150000Y-116840000D02*
G01*
X134850000Y-116840000D01*
X134850000Y-110890000D01*
X135150000Y-110890000D01*
X135150000Y-116840000D01*
G37*
G36*
X144150000Y-116840000D02*
G01*
X143850000Y-116840000D01*
X143850000Y-110890000D01*
X144150000Y-110890000D01*
X144150000Y-116840000D01*
G37*
G36*
X127650000Y-116840000D02*
G01*
X127350000Y-116840000D01*
X127350000Y-110890000D01*
X127650000Y-110890000D01*
X127650000Y-116840000D01*
G37*
G36*
X133650000Y-116840000D02*
G01*
X133350000Y-116840000D01*
X133350000Y-110890000D01*
X133650000Y-110890000D01*
X133650000Y-116840000D01*
G37*
G36*
X174900000Y-116840000D02*
G01*
X173850000Y-116840000D01*
X173850000Y-110890000D01*
X174900000Y-110890000D01*
X174900000Y-116840000D01*
G37*
G36*
X154650000Y-116840000D02*
G01*
X154350000Y-116840000D01*
X154350000Y-110890000D01*
X154650000Y-110890000D01*
X154650000Y-116840000D01*
G37*
G36*
X166650000Y-116840000D02*
G01*
X166350000Y-116840000D01*
X166350000Y-110890000D01*
X166650000Y-110890000D01*
X166650000Y-116840000D01*
G37*
G36*
X147150000Y-116840000D02*
G01*
X146850000Y-116840000D01*
X146850000Y-110890000D01*
X147150000Y-110890000D01*
X147150000Y-116840000D01*
G37*
G36*
X139650000Y-116840000D02*
G01*
X139350000Y-116840000D01*
X139350000Y-110890000D01*
X139650000Y-110890000D01*
X139650000Y-116840000D01*
G37*
G36*
X159150000Y-116840000D02*
G01*
X158850000Y-116840000D01*
X158850000Y-110890000D01*
X159150000Y-110890000D01*
X159150000Y-116840000D01*
G37*
G36*
X160650000Y-116840000D02*
G01*
X160350000Y-116840000D01*
X160350000Y-110890000D01*
X160650000Y-110890000D01*
X160650000Y-116840000D01*
G37*
G36*
X162150000Y-116840000D02*
G01*
X161850000Y-116840000D01*
X161850000Y-110890000D01*
X162150000Y-110890000D01*
X162150000Y-116840000D01*
G37*
G36*
X172650000Y-116840000D02*
G01*
X172350000Y-116840000D01*
X172350000Y-110890000D01*
X172650000Y-110890000D01*
X172650000Y-116840000D01*
G37*
G36*
X153150000Y-116840000D02*
G01*
X152850000Y-116840000D01*
X152850000Y-110890000D01*
X153150000Y-110890000D01*
X153150000Y-116840000D01*
G37*
G36*
X148650000Y-116840000D02*
G01*
X148350000Y-116840000D01*
X148350000Y-110890000D01*
X148650000Y-110890000D01*
X148650000Y-116840000D01*
G37*
G36*
X132150000Y-116840000D02*
G01*
X131850000Y-116840000D01*
X131850000Y-110890000D01*
X132150000Y-110890000D01*
X132150000Y-116840000D01*
G37*
G36*
X126150000Y-116840000D02*
G01*
X125100000Y-116840000D01*
X125100000Y-110890000D01*
X126150000Y-110890000D01*
X126150000Y-116840000D01*
G37*
G36*
X129150000Y-116840000D02*
G01*
X128850000Y-116840000D01*
X128850000Y-110890000D01*
X129150000Y-110890000D01*
X129150000Y-116840000D01*
G37*
G36*
X150150000Y-116840000D02*
G01*
X149850000Y-116840000D01*
X149850000Y-110890000D01*
X150150000Y-110890000D01*
X150150000Y-116840000D01*
G37*
G36*
X168150000Y-116840000D02*
G01*
X167850000Y-116840000D01*
X167850000Y-110890000D01*
X168150000Y-110890000D01*
X168150000Y-116840000D01*
G37*
G36*
X151650000Y-116840000D02*
G01*
X151350000Y-116840000D01*
X151350000Y-110890000D01*
X151650000Y-110890000D01*
X151650000Y-116840000D01*
G37*
G36*
X136650000Y-116840000D02*
G01*
X136350000Y-116840000D01*
X136350000Y-110890000D01*
X136650000Y-110890000D01*
X136650000Y-116840000D01*
G37*
G36*
X165150000Y-116840000D02*
G01*
X164850000Y-116840000D01*
X164850000Y-110890000D01*
X165150000Y-110890000D01*
X165150000Y-116840000D01*
G37*
G36*
X156150000Y-116840000D02*
G01*
X155850000Y-116840000D01*
X155850000Y-110890000D01*
X156150000Y-110890000D01*
X156150000Y-116840000D01*
G37*
G36*
X171150000Y-116840000D02*
G01*
X170850000Y-116840000D01*
X170850000Y-110890000D01*
X171150000Y-110890000D01*
X171150000Y-116840000D01*
G37*
G36*
X141150000Y-116840000D02*
G01*
X140850000Y-116840000D01*
X140850000Y-110890000D01*
X141150000Y-110890000D01*
X141150000Y-116840000D01*
G37*
G36*
X169650000Y-116840000D02*
G01*
X169350000Y-116840000D01*
X169350000Y-110890000D01*
X169650000Y-110890000D01*
X169650000Y-116840000D01*
G37*
G36*
X138150000Y-116840000D02*
G01*
X137850000Y-116840000D01*
X137850000Y-110890000D01*
X138150000Y-110890000D01*
X138150000Y-116840000D01*
G37*
%TO.C,kibuzzard-622AB1EA*%
G36*
X138259791Y-88341675D02*
G01*
X138455450Y-88479788D01*
X138587609Y-88674256D01*
X138631663Y-88889363D01*
X138610672Y-89072631D01*
X138547701Y-89228735D01*
X138442750Y-89357675D01*
X138235978Y-89487453D01*
X137993488Y-89530713D01*
X137819656Y-89502138D01*
X137653763Y-89416413D01*
X137590262Y-89324337D01*
X137590262Y-89311638D01*
X137650587Y-89175113D01*
X137706150Y-89117963D01*
X137760125Y-89108438D01*
X137861725Y-89154475D01*
X138012538Y-89200512D01*
X138209387Y-89124313D01*
X138298287Y-88914763D01*
X138212563Y-88703625D01*
X138012538Y-88625837D01*
X137809337Y-88702038D01*
X137750600Y-88714738D01*
X137682337Y-88686163D01*
X137587087Y-88502013D01*
X137650587Y-88419463D01*
X137815688Y-88326594D01*
X138025238Y-88295638D01*
X138259791Y-88341675D01*
G37*
G36*
X138031588Y-89943463D02*
G01*
X137743853Y-89924809D01*
X137522000Y-89868850D01*
X137348962Y-89777966D01*
X137207675Y-89654538D01*
X137100916Y-89498566D01*
X137031462Y-89310050D01*
X136993363Y-89108834D01*
X136981494Y-88927463D01*
X137256887Y-88927463D01*
X137279465Y-89181463D01*
X137347199Y-89380429D01*
X137460088Y-89524363D01*
X137598906Y-89607265D01*
X137790993Y-89657007D01*
X138036350Y-89673588D01*
X138282942Y-89654714D01*
X138478733Y-89598093D01*
X138623725Y-89503725D01*
X138723385Y-89362085D01*
X138783181Y-89163647D01*
X138803113Y-88908413D01*
X138780888Y-88651943D01*
X138714213Y-88449801D01*
X138603088Y-88301988D01*
X138461800Y-88215557D01*
X138266537Y-88163699D01*
X138017300Y-88146413D01*
X137767886Y-88166344D01*
X137572094Y-88226140D01*
X137429925Y-88325800D01*
X137333793Y-88472379D01*
X137276114Y-88672933D01*
X137256887Y-88927463D01*
X136981494Y-88927463D01*
X136980663Y-88914763D01*
X136998125Y-88665922D01*
X137050512Y-88449625D01*
X137137825Y-88265872D01*
X137260062Y-88114663D01*
X137398175Y-88010483D01*
X137571212Y-87936069D01*
X137779175Y-87891420D01*
X138022062Y-87876537D01*
X138266637Y-87891916D01*
X138479659Y-87938053D01*
X138661130Y-88014948D01*
X138811050Y-88122600D01*
X138928426Y-88263689D01*
X139012266Y-88440894D01*
X139062570Y-88654214D01*
X139079338Y-88903650D01*
X139061478Y-89154971D01*
X139007900Y-89373947D01*
X138918603Y-89560577D01*
X138793588Y-89714863D01*
X138657856Y-89814875D01*
X138485612Y-89886313D01*
X138276856Y-89929175D01*
X138036350Y-89943185D01*
X138031588Y-89943463D01*
G37*
%TO.C,kibuzzard-622AB126*%
G36*
X131766230Y-87626814D02*
G01*
X131890898Y-87655984D01*
X132074255Y-87742106D01*
X132189547Y-87851842D01*
X132250666Y-87939353D01*
X132314563Y-88128266D01*
X132279836Y-88227584D01*
X132175656Y-88314400D01*
X132022859Y-88364406D01*
X131917291Y-88329680D01*
X131839503Y-88225500D01*
X131822834Y-88192163D01*
X131750603Y-88125488D01*
X131593639Y-88092150D01*
X131439453Y-88144934D01*
X131383891Y-88256059D01*
X131436675Y-88337320D01*
X131595028Y-88364406D01*
X131739491Y-88378297D01*
X131816584Y-88454001D01*
X131842281Y-88608881D01*
X131823529Y-88751260D01*
X131767272Y-88822797D01*
X131695041Y-88850578D01*
X131568636Y-88856134D01*
X131407505Y-88913086D01*
X131339441Y-89045047D01*
X131408894Y-89179786D01*
X131497794Y-89224583D01*
X131625588Y-89239516D01*
X131742269Y-89222847D01*
X131895066Y-89089497D01*
X131978409Y-88945034D01*
X132125650Y-88917253D01*
X132329842Y-88957536D01*
X132397906Y-89078384D01*
X132367347Y-89228403D01*
X132361791Y-89256184D01*
X132331231Y-89328416D01*
X132262473Y-89438846D01*
X132183991Y-89525663D01*
X132023477Y-89633701D01*
X131838268Y-89698524D01*
X131628366Y-89720131D01*
X131416919Y-89698678D01*
X131230785Y-89634318D01*
X131069963Y-89527052D01*
X130946490Y-89386756D01*
X130872407Y-89223310D01*
X130847712Y-89036713D01*
X130870632Y-88895028D01*
X130939391Y-88770013D01*
X131026902Y-88679723D01*
X131108856Y-88619994D01*
X131108856Y-88600547D01*
X130988471Y-88513345D01*
X130916240Y-88396200D01*
X130892162Y-88249114D01*
X130914079Y-88092459D01*
X130979828Y-87946607D01*
X131089409Y-87811559D01*
X131236959Y-87703521D01*
X131416611Y-87638698D01*
X131628366Y-87617091D01*
X131766230Y-87626814D01*
G37*
G36*
X128480750Y-87717103D02*
G01*
X128489084Y-87722659D01*
X128944697Y-88133822D01*
X129044709Y-88297731D01*
X128957198Y-88469975D01*
X128789122Y-88567209D01*
X128594653Y-88481088D01*
X128558538Y-88447750D01*
X128558538Y-89439541D01*
X128554370Y-89540942D01*
X128527978Y-89617341D01*
X128453663Y-89671514D01*
X128314063Y-89689572D01*
X128170989Y-89670820D01*
X128097369Y-89614563D01*
X128070977Y-89540942D01*
X128066809Y-89445097D01*
X128066809Y-87897681D01*
X128080700Y-87750441D01*
X128119594Y-87690711D01*
X128191825Y-87658763D01*
X128323786Y-87644872D01*
X128480750Y-87717103D01*
G37*
G36*
X130169078Y-87642557D02*
G01*
X130349656Y-87718955D01*
X130501836Y-87846286D01*
X130616819Y-88005719D01*
X130685810Y-88178426D01*
X130708806Y-88364406D01*
X130694916Y-88506091D01*
X130619212Y-88585267D01*
X130464331Y-88611659D01*
X130322647Y-88594991D01*
X130247638Y-88544984D01*
X130221245Y-88475531D01*
X130217078Y-88383853D01*
X130217078Y-88367184D01*
X130205966Y-88303288D01*
X130132345Y-88174105D01*
X129978159Y-88108819D01*
X129839253Y-88133822D01*
X129765633Y-88187995D01*
X129722572Y-88263005D01*
X129703125Y-88333847D01*
X129729170Y-88455390D01*
X129807305Y-88569988D01*
X129922250Y-88675209D01*
X130058725Y-88768623D01*
X130205966Y-88856829D01*
X130353206Y-88946423D01*
X130489682Y-89045741D01*
X130604627Y-89163117D01*
X130682761Y-89295425D01*
X130708806Y-89439541D01*
X130636575Y-89614563D01*
X130464331Y-89689572D01*
X129378084Y-89689572D01*
X129205841Y-89656234D01*
X129146111Y-89584003D01*
X129128053Y-89443708D01*
X129144722Y-89302023D01*
X129210008Y-89221458D01*
X129372528Y-89195066D01*
X129880925Y-89195066D01*
X129880925Y-89181175D01*
X129811472Y-89153394D01*
X129639228Y-89059632D01*
X129444759Y-88906141D01*
X129354470Y-88806128D01*
X129278072Y-88678334D01*
X129225982Y-88532483D01*
X129208619Y-88378297D01*
X129231770Y-88187378D01*
X129301223Y-88010967D01*
X129416978Y-87849064D01*
X129569929Y-87720190D01*
X129750970Y-87642865D01*
X129960102Y-87617091D01*
X130169078Y-87642557D01*
G37*
G36*
X136300477Y-88237307D02*
G01*
X136373403Y-88289397D01*
X136399795Y-88360239D01*
X136403963Y-88453306D01*
X136403963Y-89436763D01*
X136399795Y-89532608D01*
X136376181Y-89606228D01*
X136303255Y-89662485D01*
X136162266Y-89681238D01*
X136019887Y-89662485D01*
X135948350Y-89606228D01*
X135921958Y-89535386D01*
X135917791Y-89439541D01*
X135917791Y-88947813D01*
X135849727Y-88772791D01*
X135671927Y-88706116D01*
X135496905Y-88770013D01*
X135431619Y-88947813D01*
X135431619Y-89436763D01*
X135414950Y-89578447D01*
X135342719Y-89655540D01*
X135187144Y-89681238D01*
X135044070Y-89662485D01*
X134970450Y-89606228D01*
X134946836Y-89535386D01*
X134942669Y-89439541D01*
X134942669Y-88950591D01*
X134963196Y-88757202D01*
X135024778Y-88584495D01*
X135127414Y-88432470D01*
X135260918Y-88314400D01*
X135415104Y-88243558D01*
X135589972Y-88219944D01*
X135798331Y-88283841D01*
X135873341Y-88342181D01*
X135923347Y-88397744D01*
X135951128Y-88283841D01*
X136022665Y-88235918D01*
X136159488Y-88219944D01*
X136300477Y-88237307D01*
G37*
G36*
X134098813Y-88266477D02*
G01*
X134242581Y-88414413D01*
X134289809Y-88269950D01*
X134492613Y-88219944D01*
X134619712Y-88238696D01*
X134689859Y-88294953D01*
X134716252Y-88365795D01*
X134720419Y-88461641D01*
X134720419Y-89439541D01*
X134716252Y-89536775D01*
X134692638Y-89609006D01*
X134619712Y-89665263D01*
X134478722Y-89684016D01*
X134337038Y-89665958D01*
X134262028Y-89611784D01*
X134235636Y-89538164D01*
X134231469Y-89442319D01*
X134231469Y-88950591D01*
X134189797Y-88769318D01*
X134064781Y-88708894D01*
X133935598Y-88769318D01*
X133892538Y-88950591D01*
X133892538Y-89436763D01*
X133888370Y-89532608D01*
X133864756Y-89606228D01*
X133791830Y-89664569D01*
X133650841Y-89684016D01*
X133507767Y-89665263D01*
X133434147Y-89609006D01*
X133407755Y-89536775D01*
X133403588Y-89439541D01*
X133403588Y-88953369D01*
X133368861Y-88772791D01*
X133236900Y-88708894D01*
X133107717Y-88769318D01*
X133064656Y-88950591D01*
X133064656Y-89436763D01*
X133060489Y-89532608D01*
X133036875Y-89606228D01*
X132963949Y-89664569D01*
X132822959Y-89684016D01*
X132680580Y-89665263D01*
X132609044Y-89609006D01*
X132582652Y-89535386D01*
X132578484Y-89439541D01*
X132578484Y-88953369D01*
X132595153Y-88715222D01*
X132645159Y-88526772D01*
X132728503Y-88388020D01*
X132896580Y-88259879D01*
X133100772Y-88217166D01*
X133295241Y-88271339D01*
X133432758Y-88371352D01*
X133506378Y-88458863D01*
X133615034Y-88324586D01*
X133755792Y-88244021D01*
X133928653Y-88217166D01*
X134098813Y-88266477D01*
G37*
G36*
X127108356Y-89722909D02*
G01*
X126930904Y-89704852D01*
X126776370Y-89650678D01*
X126648924Y-89568723D01*
X126552731Y-89467322D01*
X126457928Y-89307059D01*
X126390211Y-89120751D01*
X126349581Y-88908398D01*
X126336827Y-88683891D01*
X126827766Y-88683891D01*
X126845650Y-88922115D01*
X126899302Y-89092275D01*
X126988723Y-89194371D01*
X127113912Y-89228403D01*
X127236671Y-89193416D01*
X127324355Y-89088455D01*
X127376966Y-88913520D01*
X127394503Y-88668611D01*
X127376793Y-88423702D01*
X127323661Y-88248767D01*
X127235108Y-88143806D01*
X127111134Y-88108819D01*
X126987161Y-88143719D01*
X126898608Y-88248420D01*
X126845476Y-88422921D01*
X126827766Y-88667222D01*
X126827766Y-88683891D01*
X126336827Y-88683891D01*
X126336038Y-88670000D01*
X126345298Y-88486335D01*
X126373079Y-88309461D01*
X126419381Y-88139378D01*
X126477375Y-87999083D01*
X126551342Y-87878234D01*
X126648577Y-87776138D01*
X126776370Y-87692100D01*
X126931598Y-87635843D01*
X127111134Y-87617091D01*
X127291365Y-87636190D01*
X127448677Y-87693489D01*
X127578207Y-87778916D01*
X127675094Y-87882402D01*
X127751839Y-88016099D01*
X127820945Y-88192163D01*
X127857215Y-88332612D01*
X127878977Y-88490965D01*
X127886231Y-88667222D01*
X127877280Y-88861999D01*
X127850424Y-89042577D01*
X127805666Y-89208956D01*
X127745589Y-89348557D01*
X127670927Y-89467322D01*
X127572998Y-89566987D01*
X127443120Y-89649289D01*
X127286504Y-89704504D01*
X127113912Y-89722335D01*
X127108356Y-89722909D01*
G37*
%TD*%
D13*
%TO.C,J1*%
X126750000Y-110190000D03*
X128250000Y-110190000D03*
X129750000Y-110190000D03*
X131250000Y-110190000D03*
X132750000Y-110190000D03*
X134250000Y-110190000D03*
X135750000Y-110190000D03*
X137250000Y-110190000D03*
X138750000Y-110190000D03*
X140250000Y-110190000D03*
X141750000Y-110190000D03*
X143250000Y-110190000D03*
X144750000Y-110190000D03*
X146250000Y-110190000D03*
X147750000Y-110190000D03*
X149250000Y-110190000D03*
X150750000Y-110190000D03*
X152250000Y-110190000D03*
X153750000Y-110190000D03*
X155250000Y-110190000D03*
X156750000Y-110190000D03*
X158250000Y-110190000D03*
X159750000Y-110190000D03*
X161250000Y-110190000D03*
X162750000Y-110190000D03*
X164250000Y-110190000D03*
X165750000Y-110190000D03*
X167250000Y-110190000D03*
X168750000Y-110190000D03*
X170250000Y-110190000D03*
X171750000Y-110190000D03*
X173250000Y-110190000D03*
%TD*%
D14*
%TO.C,PAD\u002A*%
X170550000Y-101400000D03*
X172650000Y-105100000D03*
X170550000Y-105100000D03*
X172650000Y-101400000D03*
%TD*%
D13*
X165525795Y-101214205D03*
X170010550Y-108089904D03*
X164000000Y-105490000D03*
X157930000Y-87955000D03*
X128350000Y-107010000D03*
X149000000Y-95330000D03*
X145000000Y-89690000D03*
X148930000Y-97350000D03*
X164000000Y-108440000D03*
X155000000Y-89690000D03*
X162320000Y-92970000D03*
X168793500Y-98021061D03*
X168793500Y-93021061D03*
X168069000Y-97330000D03*
X168069000Y-92330000D03*
X167344500Y-93020815D03*
X167344500Y-98020815D03*
X166620000Y-92328439D03*
X166620000Y-97328439D03*
X165890000Y-93020000D03*
X165890000Y-98020000D03*
X149048036Y-100733460D03*
X166450000Y-90440000D03*
X131751825Y-93171825D03*
X145280000Y-101100000D03*
X165720000Y-89750000D03*
X164990000Y-90440000D03*
X149410000Y-98410000D03*
X164264500Y-89750000D03*
X153800000Y-97876460D03*
X142520000Y-99400000D03*
X163540000Y-90440000D03*
X141490000Y-99400000D03*
X162806118Y-89750000D03*
X162081618Y-90441536D03*
X140460000Y-94850000D03*
X140460000Y-99400000D03*
X139410000Y-94073060D03*
X139420000Y-99400000D03*
X161356536Y-89753596D03*
X134090000Y-97340000D03*
X160630000Y-90440000D03*
X133040000Y-97340000D03*
X159899000Y-89750000D03*
X159174500Y-90440000D03*
X132010000Y-97340000D03*
X130950000Y-97340000D03*
X158450000Y-89520000D03*
X157030000Y-107250000D03*
X134790000Y-108050480D03*
X133750000Y-108050000D03*
X157030000Y-108300000D03*
X157030000Y-106190000D03*
X132710000Y-108050000D03*
X155960000Y-106190000D03*
X131652535Y-108050000D03*
X151400000Y-103750000D03*
X126930000Y-102548963D03*
X152480000Y-103750000D03*
X126930000Y-103825988D03*
X153570000Y-103752420D03*
X126930000Y-105100000D03*
X140920000Y-106347211D03*
X154640000Y-103750000D03*
X154649500Y-102719989D03*
X135200000Y-104480000D03*
X135200000Y-103450000D03*
X155720000Y-102310000D03*
X135200000Y-102410000D03*
X156790000Y-101920000D03*
X135200000Y-101350000D03*
X157890000Y-101504820D03*
X135204555Y-100274555D03*
X151917299Y-100345500D03*
X150980000Y-96100000D03*
X157839503Y-97546940D03*
X150990520Y-97140000D03*
X156840000Y-97546940D03*
X132884124Y-93064124D03*
X148380000Y-98400000D03*
X144812701Y-98707299D03*
X145260000Y-96860000D03*
X129754004Y-108450000D03*
X134512796Y-91435450D03*
X148380000Y-99990000D03*
X130215020Y-103000000D03*
X148310000Y-96380000D03*
X129760000Y-107430000D03*
X157890000Y-100350000D03*
X153780000Y-100350000D03*
X135210000Y-97340000D03*
X133784124Y-92164124D03*
X168250000Y-108450000D03*
X171750000Y-108450000D03*
M02*
