%TF.GenerationSoftware,KiCad,Pcbnew,(6.0.2)*%
%TF.CreationDate,2022-03-22T22:46:16-04:00*%
%TF.ProjectId,MBC5_Short,4d424335-5f53-4686-9f72-742e6b696361,rev?*%
%TF.SameCoordinates,Original*%
%TF.FileFunction,Profile,NP*%
%FSLAX46Y46*%
G04 Gerber Fmt 4.6, Leading zero omitted, Abs format (unit mm)*
G04 Created by KiCad (PCBNEW (6.0.2)) date 2022-03-22 22:46:16*
%MOMM*%
%LPD*%
G01*
G04 APERTURE LIST*
%TA.AperFunction,Profile*%
%ADD10C,0.050000*%
%TD*%
G04 APERTURE END LIST*
D10*
X124500000Y-107190000D02*
G75*
G03*
X125000000Y-107690000I500001J1D01*
G01*
X124500000Y-97890000D02*
G75*
G03*
X125000000Y-98390000I500001J1D01*
G01*
X175000000Y-107690000D02*
X174850000Y-107690000D01*
X173700000Y-96690000D02*
X175000000Y-96690000D01*
X173150000Y-116590000D02*
G75*
G03*
X174650000Y-115090000I-1J1500001D01*
G01*
X173500000Y-98190000D02*
G75*
G03*
X173700000Y-98390000I200001J1D01*
G01*
X125500000Y-85890000D02*
X146300000Y-85890000D01*
X174650000Y-115090000D02*
X174650000Y-107890000D01*
X125000000Y-100090000D02*
G75*
G03*
X124500000Y-100590000I1J-500001D01*
G01*
X124500000Y-107190000D02*
X124500000Y-100590000D01*
X175500000Y-96190000D02*
X175500000Y-86890000D01*
X173500000Y-96890000D02*
X173500000Y-98190000D01*
X173700000Y-96690000D02*
G75*
G03*
X173500000Y-96890000I1J-200001D01*
G01*
X153200000Y-86390000D02*
X153200000Y-86790000D01*
X126300000Y-100090000D02*
X125000000Y-100090000D01*
X175000000Y-98390000D02*
X173700000Y-98390000D01*
X175500000Y-107190000D02*
X175500000Y-98890000D01*
X146800000Y-86390000D02*
X146800000Y-86790000D01*
X125000000Y-98390000D02*
X126300000Y-98390000D01*
X173150000Y-116590000D02*
X126850000Y-116590000D01*
X126500000Y-98590000D02*
G75*
G03*
X126300000Y-98390000I-200001J-1D01*
G01*
X146800000Y-86790000D02*
G75*
G03*
X153200000Y-86790000I3200000J0D01*
G01*
X174500000Y-85890000D02*
X153700000Y-85890000D01*
X175000000Y-96690000D02*
G75*
G03*
X175500000Y-96190000I-1J500001D01*
G01*
X175000000Y-107690000D02*
G75*
G03*
X175500000Y-107190000I-1J500001D01*
G01*
X153700000Y-85890000D02*
G75*
G03*
X153200000Y-86390000I1J-500001D01*
G01*
X126500000Y-98590000D02*
X126500000Y-99890000D01*
X125350000Y-115090000D02*
X125350000Y-107890000D01*
X175500000Y-98890000D02*
G75*
G03*
X175000000Y-98390000I-500001J-1D01*
G01*
X174850000Y-107690000D02*
G75*
G03*
X174650000Y-107890000I1J-200001D01*
G01*
X146800000Y-86390000D02*
G75*
G03*
X146300000Y-85890000I-500001J-1D01*
G01*
X125150000Y-107690000D02*
X125000000Y-107690000D01*
X175500000Y-86890000D02*
G75*
G03*
X174500000Y-85890000I-999999J1D01*
G01*
X126300000Y-100090000D02*
G75*
G03*
X126500000Y-99890000I-1J200001D01*
G01*
X124500000Y-97890000D02*
X124500000Y-86890000D01*
X125350000Y-107890000D02*
G75*
G03*
X125150000Y-107690000I-200001J-1D01*
G01*
X125500000Y-85890000D02*
G75*
G03*
X124500000Y-86890000I-1J-999999D01*
G01*
X125350000Y-115090000D02*
G75*
G03*
X126850000Y-116590000I1500001J1D01*
G01*
M02*
